<svg width="56" height="56" viewBox="0 0 56 56" fill="none" xmlns="http://www.w3.org/2000/svg">
<rect width="56" height="56" rx="8" fill="#D5E7DE"/>
<path opacity="0.6" d="M33.1495 43.1243C37.1939 48.3856 33.443 55.9999 26.8069 55.9999L8.00001 55.9998C3.58174 55.9998 1.67822e-05 52.4181 1.69753e-05 47.9998L1.42301e-05 23.5339C1.4564e-05 15.8938 9.6864 12.6011 14.3426 18.6584L33.1495 43.1243Z" fill="url(#paint0_linear_2147_35237)"/>
<path fill-rule="evenodd" clip-rule="evenodd" d="M26.0282 43.447C25.696 43.447 25.3555 43.4304 25.0233 43.4055C25.1811 41.5951 24.2095 39.4027 23.3624 38.1238L23.2296 37.9162L23.4538 37.8166C24.2178 37.4761 24.8988 36.928 25.2642 36.164C25.7458 35.1591 25.5631 34.0546 25.1479 33.0664L25.0981 32.9584L25.1728 32.8588C25.6545 32.1778 26.0697 31.256 25.9535 30.3923C25.8621 29.7114 25.4801 29.2048 24.9237 28.8311C24.5002 28.5404 23.9853 28.474 23.4953 28.4076C23.2379 28.3743 22.6483 28.3245 22.5154 28.0837C22.341 27.7598 22.7147 26.9875 22.8559 26.7134C23.2213 25.9826 23.977 24.4629 23.4538 23.6574C23.404 23.5743 23.3458 23.5079 23.2711 23.4415C22.6317 22.8602 20.9043 23.0096 20.0822 23.0429C19.2434 23.0678 18.4047 23.0678 17.5659 23.0346C17.7652 22.7439 17.9728 22.4449 18.1721 22.1543C18.6704 21.4152 19.3763 20.4103 20.024 19.3307C21.8178 18.3757 23.8607 17.8359 26.0282 17.8359C28.096 17.8359 30.0559 18.3176 31.7998 19.1896C32.0573 20.7176 32.6469 22.229 33.6932 23.3667C34.0919 23.7986 34.4323 24.3384 34.5652 24.9197C34.6483 25.2685 34.6649 25.7584 34.3991 26.0408C33.9424 26.5391 33.0206 25.9245 32.6303 25.6173C31.5258 24.737 30.2137 24.6456 29.1009 25.5425C27.9881 26.4477 27.2074 28.3411 27.8801 29.6948C28.5694 31.0982 30.3216 31.0318 31.6337 30.7079C31.8829 30.6498 32.1569 30.6083 32.431 30.6249C32.5306 31.2892 32.8047 31.937 33.1535 32.5183V33.274C33.1535 34.3536 33.5936 35.3252 34.2995 36.0311L34.15 36.2968H33.9092C31.0773 36.2968 28.7853 38.5889 28.7853 41.4207V43.148C27.8801 43.3474 26.9583 43.447 26.0282 43.447ZM24.4919 43.3557C18.1555 42.5916 13.2227 37.1771 13.2227 30.6415C13.2227 28.1086 13.9618 25.7418 15.2406 23.757L15.2739 23.8152C15.4649 24.1224 15.8054 24.3134 16.1708 24.3134C16.5362 24.3134 16.8766 24.1224 17.0676 23.8152C17.1175 23.7321 17.1673 23.6574 17.2088 23.5827C18.1721 23.6242 19.1355 23.6408 20.1071 23.5993C20.6884 23.5827 21.2863 23.5494 21.8593 23.5827C22.1998 23.5993 22.7811 23.6491 22.9804 23.9564C23.3292 24.5044 22.5901 25.991 22.3493 26.4643C22.1002 26.9626 21.7265 27.793 22.0171 28.3494C22.2746 28.8311 22.9306 28.8975 23.4206 28.964C23.8026 29.0138 24.2842 29.0719 24.6081 29.2878C25.0233 29.5785 25.3306 29.9522 25.3971 30.4671C25.505 31.2228 25.04 32.1612 24.5583 32.7342C24.4919 32.8173 24.4669 32.9335 24.5168 33.0332C24.932 33.9218 25.206 34.9847 24.7659 35.9148C24.4005 36.6705 23.5202 37.2851 22.7147 37.4927C22.6233 37.5176 22.5486 37.584 22.5154 37.6671C22.4822 37.7501 22.4988 37.8498 22.5486 37.9245C23.4289 39.1785 24.658 41.5121 24.4919 43.3557ZM32.4393 19.5384C34.9057 20.9584 36.8739 23.1923 37.9535 25.9577C37.6545 25.883 37.3472 25.8498 37.0317 25.8498C35.7528 25.8498 34.4822 26.4394 33.8344 27.5688C33.2116 27.9674 32.7299 28.5737 32.514 29.2961C32.4393 29.5453 32.406 29.8027 32.3977 30.0602C32.0905 30.0519 31.7832 30.0934 31.5009 30.1681C30.496 30.4089 28.9348 30.5667 28.3784 29.4456C27.9714 28.6235 28.287 27.5024 28.7521 26.7716C28.9431 26.4726 29.1756 26.2069 29.4496 25.9826C30.3631 25.2435 31.3763 25.3349 32.2815 26.0574C32.9375 26.5723 34.0919 27.2034 34.8144 26.4311C35.1631 26.0574 35.213 25.4761 35.1465 24.9944C35.0303 24.247 34.615 23.5411 34.1085 22.9847C33.2448 22.0546 32.7216 20.8089 32.4393 19.5384Z" fill="#187E7D"/>
<path fill-rule="evenodd" clip-rule="evenodd" d="M16.1702 23.7513C15.9958 23.7513 15.838 23.6682 15.7549 23.5187C15.4643 23.062 15.0657 22.4641 14.6338 21.8412C13.1307 19.6322 11.2539 16.8834 11.2539 15.1395C11.2539 12.316 13.4629 10.0156 16.1702 10.0156C18.8774 10.0156 21.0864 12.316 21.0864 15.1395C21.0864 16.8834 19.2096 19.6322 17.7065 21.8412C17.2747 22.4641 16.8761 23.062 16.5854 23.5187C16.5023 23.6682 16.3446 23.7513 16.1702 23.7513ZM16.1702 16.8336C17.3162 16.8336 18.2463 15.9035 18.2463 14.7575C18.2463 13.6115 17.3162 12.6814 16.1702 12.6814C15.0241 12.6814 14.094 13.6115 14.094 14.7575C14.094 15.9035 15.0241 16.8336 16.1702 16.8336ZM16.1702 13.2461C17.0089 13.2461 17.6816 13.9187 17.6816 14.7575C17.6816 15.5962 17.0089 16.2689 16.1702 16.2689C15.3314 16.2689 14.6588 15.5962 14.6588 14.7575C14.6588 13.9187 15.3314 13.2461 16.1702 13.2461Z" fill="#7AC19F"/>
<path fill-rule="evenodd" clip-rule="evenodd" d="M37.0562 36.6257C35.2126 36.6257 33.7178 35.1226 33.7178 33.279V32.2243C33.7178 31.9503 33.9337 31.7344 34.2077 31.7344C34.4818 31.7344 34.6977 31.9503 34.6977 32.2243V33.279C34.6977 34.5828 35.7524 35.6375 37.0562 35.6375C38.36 35.6375 39.4147 34.5828 39.4147 33.279V32.2326C39.4147 31.9586 39.6389 31.7427 39.9046 31.7427C40.1787 31.7427 40.4029 31.9586 40.4029 32.2326V33.279C40.4029 35.1226 38.8998 36.6257 37.0562 36.6257Z" fill="#7AC19F"/>
<path fill-rule="evenodd" clip-rule="evenodd" d="M44.2474 45.986H41.7311V42.2905C41.7311 42.141 41.5983 42.0165 41.4488 42.0165C41.291 42.0165 41.1664 42.141 41.1664 42.2905V45.986H32.9201V42.2905C32.9201 42.141 32.7955 42.0165 32.6377 42.0165C32.4882 42.0165 32.3637 42.141 32.3637 42.2905V45.986H29.8391C29.565 45.986 29.3408 45.7618 29.3408 45.4961V41.4268C29.3408 38.9106 31.392 36.8594 33.9083 36.8594H34.7554C34.9048 36.8594 35.0543 36.9341 35.1457 37.0587L37.0391 39.5749L38.9408 37.0587C39.0322 36.9341 39.1817 36.8594 39.3311 36.8594H40.1782C42.6945 36.8594 44.7457 38.9106 44.7457 41.4268V45.4961C44.7457 45.7618 44.5214 45.986 44.2474 45.986Z" fill="#187E7D"/>
<path fill-rule="evenodd" clip-rule="evenodd" d="M39.3315 37.9845C39.1072 37.9845 38.8996 37.8599 38.7834 37.6689L37.928 36.2322C37.7453 35.9332 37.8533 35.5429 38.1522 35.3685C38.4595 35.1941 38.8415 35.2938 39.0159 35.5928L39.8796 37.0377C40.0622 37.3367 39.9543 37.727 39.647 37.9014C39.5557 37.9512 39.4477 37.9845 39.3315 37.9845ZM34.7557 37.9845C34.6394 37.9845 34.5315 37.9512 34.4401 37.9014C34.1328 37.727 34.0332 37.3367 34.2076 37.0377L35.0546 35.5678C35.229 35.2689 35.611 35.1692 35.9183 35.3436C36.2173 35.518 36.3252 35.9 36.1508 36.2073L35.3038 37.6689C35.1875 37.8599 34.9799 37.9845 34.7557 37.9845Z" fill="#7AC19F"/>
<path fill-rule="evenodd" clip-rule="evenodd" d="M39.3315 37.8415C39.1654 37.8415 38.9993 37.7501 38.908 37.5924L38.0028 36.0228C37.8616 35.782 37.9447 35.483 38.1772 35.3501C38.418 35.209 38.717 35.292 38.8499 35.5328L39.7634 37.1024C39.8962 37.3349 39.8132 37.6422 39.5807 37.7751C39.5059 37.8166 39.4146 37.8415 39.3315 37.8415Z" fill="#7AC19F"/>
<path fill-rule="evenodd" clip-rule="evenodd" d="M34.7554 37.8423C34.6724 37.8423 34.5893 37.8174 34.5063 37.7759C34.2738 37.643 34.1907 37.3357 34.3319 37.1032L35.2454 35.517C35.3783 35.2845 35.6772 35.2015 35.9181 35.3426C36.1506 35.4755 36.2336 35.7745 36.0925 36.007L35.179 37.5932C35.0876 37.7509 34.9215 37.8423 34.7554 37.8423Z" fill="#7AC19F"/>
<path fill-rule="evenodd" clip-rule="evenodd" d="M33.7835 32.4763C33.0361 31.3552 32.7953 30.3421 33.0527 29.4535C33.3019 28.6148 33.9413 28.1497 34.2569 27.967C34.7386 27.0203 35.8015 26.4141 37.0306 26.4141C38.2597 26.4141 39.3309 27.0203 39.8043 27.967C40.1282 28.1497 40.7925 28.6148 41.05 29.4701C41.3074 30.3421 41.0749 31.3386 40.3524 32.4431C40.2777 32.5926 40.1199 32.7089 39.9372 32.7172C39.9289 32.7172 39.9206 32.7172 39.904 32.7172C39.6548 32.7172 39.4389 32.5179 39.414 32.2604C39.2894 30.4584 37.886 30.3089 37.288 30.3172C36.0756 30.3587 34.7053 31.1476 34.697 32.2272C34.697 32.493 34.4728 32.7089 34.2071 32.7089H34.1988C34.0244 32.7089 33.8749 32.6175 33.7835 32.4763Z" fill="#7AC19F"/>
<path fill-rule="evenodd" clip-rule="evenodd" d="M41.6156 26.3444C41.4079 26.3444 41.2086 26.2115 41.1422 25.9956C39.0993 19.3686 33.0619 14.9174 26.1194 14.9174C25.8453 14.9174 25.6211 14.7015 25.6211 14.4275C25.6211 14.1534 25.8453 13.9375 26.1194 13.9375C33.4938 13.9375 39.9131 18.6628 42.0889 25.705C42.1637 25.9624 42.0225 26.2448 41.7567 26.3195C41.7152 26.3361 41.6654 26.3444 41.6156 26.3444Z" fill="#7AC19F"/>
<path fill-rule="evenodd" clip-rule="evenodd" d="M28.9347 17.3126C28.8267 17.3126 28.7104 17.271 28.6191 17.1963L25.7956 14.7963C25.6793 14.6966 25.6129 14.5389 25.6295 14.3894C25.6378 14.2316 25.7208 14.0904 25.8537 14.0074L28.9845 12.0309C29.217 11.8814 29.516 11.9562 29.6655 12.1804C29.8066 12.4129 29.7402 12.7119 29.5077 12.8613L26.9416 14.4807L29.2585 16.4489C29.4579 16.6233 29.4828 16.9305 29.3084 17.1382C29.217 17.2544 29.0758 17.3126 28.9347 17.3126Z" fill="#187E7D"/>
<defs>
<linearGradient id="paint0_linear_2147_35237" x1="-1.75461" y1="-7.54392" x2="20.9347" y2="34.1361" gradientUnits="userSpaceOnUse">
<stop offset="0.1561" stop-color="#CFE6DB" stop-opacity="0.28"/>
<stop offset="0.925" stop-color="#F6FCF9"/>
</linearGradient>
</defs>
</svg>
