<svg width="56" height="56" viewBox="0 0 56 56" fill="none" xmlns="http://www.w3.org/2000/svg">
<rect width="56" height="56" rx="8" fill="#CFE6DB"/>
<path opacity="0.6" d="M33.1495 43.1243C37.1939 48.3856 33.443 55.9999 26.8069 55.9999L8.00001 55.9998C3.58174 55.9998 1.67822e-05 52.4181 1.69753e-05 47.9998L1.42301e-05 23.5339C1.4564e-05 15.8938 9.6864 12.6011 14.3426 18.6584L33.1495 43.1243Z" fill="url(#paint0_linear_2147_35223)"/>
<path fill-rule="evenodd" clip-rule="evenodd" d="M23.6395 15.3332H32.8884C33.1982 15.3332 33.4509 15.5859 33.4509 15.8957V39.0558C32.7857 38.5563 32.047 38.1509 31.2556 37.8584C32.4307 36.9584 33.1888 35.5412 33.1888 33.9466C33.1888 31.8895 31.9273 30.1272 30.1358 29.3904H31.423V26.7939H28.8264V29.054C28.4515 29.0114 28.0763 29.0113 27.7014 29.054V26.7939H25.1049V29.3904H26.3922C24.6008 30.1272 23.3392 31.8895 23.3392 33.9466C23.3392 35.5411 24.0973 36.9583 25.2723 37.8584C24.4809 38.1508 23.7423 38.5562 23.077 39.0557V15.8957C23.077 15.5859 23.3297 15.3332 23.6395 15.3332ZM11.9999 40.2849V21.0611C11.9999 20.7513 12.2526 20.4986 12.5624 20.4986H21.952V40.0643C21.7201 40.3119 21.5026 40.5734 21.3008 40.8473H12.5624C12.2526 40.8474 11.9999 40.5947 11.9999 40.2849ZM13.8169 35.6016V38.0107H16.4135V35.6016H13.8169ZM17.5385 35.6016V38.0107H20.135V35.6016H17.5385ZM20.135 34.4766V32.0674H17.5385V34.4766H20.135ZM16.4135 34.4766V32.0674H13.8169V34.4766H16.4135ZM20.135 30.9424V28.5333H17.5385V30.9424H20.135ZM16.4135 30.9424V28.5333H13.8169V30.9424H16.4135ZM19.8716 23.0363H14.0803C13.771 23.0363 13.5178 23.2894 13.5178 23.5988V25.0131C13.5178 25.3225 13.7709 25.5756 14.0803 25.5756H19.8716C20.1809 25.5756 20.4341 25.3225 20.4341 25.0131V23.5988C20.4341 23.2894 20.1809 23.0363 19.8716 23.0363ZM44.5279 40.8474V20.4987H34.5758V40.0644C34.8077 40.312 35.0252 40.5734 35.2271 40.8474H44.5279ZM42.711 35.6016V38.0107H40.1144V35.6016H42.711ZM38.9894 35.6016V38.0107H36.3928V35.6016H38.9894ZM36.3928 34.4766V32.0674H38.9894V34.4766H36.3928ZM40.1144 34.4766V32.0674H42.711V34.4766H40.1144ZM36.3928 30.9424V28.5333H38.9894V30.9424H36.3928ZM40.1144 30.9424V28.5333H42.711V30.9424H40.1144ZM36.6563 23.0363H42.4474C42.7568 23.0363 43.0099 23.2894 43.0099 23.5988V25.0131C43.0099 25.3225 42.7569 25.5756 42.4474 25.5756H36.6563C36.3469 25.5756 36.0938 25.3225 36.0938 25.0131V23.5988C36.0938 23.2894 36.3469 23.0363 36.6563 23.0363ZM25.6925 12.882H27.7014V11.4062C27.7014 11.0956 27.9533 10.8438 28.2639 10.8438C28.5746 10.8438 28.8264 11.0956 28.8264 11.4062V12.882H30.8353C31.1451 12.882 31.3978 13.1347 31.3978 13.4445V14.2082H25.13V13.4445C25.13 13.1347 25.3827 12.882 25.6925 12.882ZM25.1049 25.6689H27.7014V23.0724H25.1049V25.6689ZM28.8264 25.6689H31.423V23.0724H28.8264V25.6689ZM25.6673 17.7544C25.3579 17.7544 25.1048 18.0075 25.1048 18.3169V19.5117C25.1048 19.821 25.3579 20.0742 25.6673 20.0742H30.8604C31.1698 20.0742 31.4229 19.821 31.4229 19.5117V18.3169C31.4229 18.0075 31.1698 17.7544 30.8604 17.7544H25.6673Z" fill="#187E7D"/>
<path fill-rule="evenodd" clip-rule="evenodd" d="M28.3803 30C26.2818 30 24.5806 31.7012 24.5806 33.7998C24.5806 35.8983 26.2818 37.5995 28.3803 37.5995C30.4789 37.5995 32.1801 35.8983 32.1801 33.7998C32.1801 31.7012 30.4789 30 28.3803 30ZM21.563 45.0093L35.1976 45.0093C35.5545 45.0093 35.8192 44.6864 35.7493 44.3364C35.0613 40.8954 32.0236 38.3026 28.3803 38.3026C24.7369 38.3026 21.6993 40.8955 21.0113 44.3365C20.9412 44.6865 21.206 45.0093 21.563 45.0093Z" fill="#7AC19F"/>
<defs>
<linearGradient id="paint0_linear_2147_35223" x1="-1.75461" y1="-7.54392" x2="20.9347" y2="34.1361" gradientUnits="userSpaceOnUse">
<stop offset="0.1561" stop-color="#CFE6DB" stop-opacity="0.28"/>
<stop offset="0.925" stop-color="#F6FCF9"/>
</linearGradient>
</defs>
</svg>
