<svg width="56" height="56" viewBox="0 0 56 56" fill="none" xmlns="http://www.w3.org/2000/svg">
<rect width="56" height="56" rx="8" fill="#D5E7DE"/>
<path opacity="0.6" d="M33.1495 43.1243C37.1939 48.3856 33.443 55.9999 26.8069 55.9999L8.00001 55.9998C3.58174 55.9998 1.67822e-05 52.4181 1.69753e-05 47.9998L1.42301e-05 23.5339C1.4564e-05 15.8938 9.6864 12.6011 14.3426 18.6584L33.1495 43.1243Z" fill="url(#paint0_linear_2147_35259)"/>
<g clip-path="url(#clip0_2147_35259)">
<path d="M42.6866 12.25H26.8704C25.0401 12.25 23.5566 13.7337 23.5566 15.5638V23.3544C24.3927 23.77 25.2961 24.2193 26.1393 24.6385L27.4293 22.0572C28.2104 20.4963 30.1147 19.8622 31.675 20.6419C33.2386 21.4244 33.8723 23.3234 33.0895 24.8873L30.7898 29.4878C30.8507 30.0967 30.7966 30.7106 30.625 31.3047H32.1433L28.1388 42.3163C27.9012 42.9694 28.3604 43.7316 29.1303 43.7316C29.5607 43.7316 29.9655 43.466 30.121 43.037L34.3875 31.3047H35.1266L39.4366 43.0406C39.5934 43.4674 39.9971 43.7316 40.4272 43.7316C41.1466 43.7316 41.6739 43.0131 41.4166 42.3135L39.3951 36.8091L37.3736 31.3047H42.6866C44.5166 31.3047 46.0003 29.821 46.0003 27.9909V15.5638C46.0003 13.7337 44.5166 12.25 42.6866 12.25ZM40.4267 26.7863H35.6946C35.1123 26.7863 34.6399 26.3139 34.6399 25.7316C34.6399 25.1488 35.1123 24.6769 35.6946 24.6769H40.4267C41.0095 24.6769 41.4814 25.1488 41.4814 25.7316C41.4814 26.3139 41.0095 26.7863 40.4267 26.7863ZM40.4267 22.832H35.6946C35.1123 22.832 34.6399 22.3602 34.6399 21.7773C34.6399 21.1951 35.1123 20.7227 35.6946 20.7227H40.4267C41.0095 20.7227 41.4814 21.1951 41.4814 21.7773C41.4814 22.3602 41.0095 22.832 40.4267 22.832ZM40.4267 18.8783H29.1303C28.5475 18.8783 28.0756 18.4059 28.0756 17.8236C28.0756 17.2414 28.5475 16.769 29.1303 16.769H40.4267C41.0095 16.769 41.4814 17.2414 41.4814 17.8236C41.4814 18.4059 41.0095 18.8783 40.4267 18.8783Z" fill="#007F7D"/>
<path d="M28.557 30.8523C28.7476 30.2939 28.7462 29.7106 28.5853 29.1783L31.2028 23.9438C31.4632 23.4228 31.2522 22.7892 30.7312 22.5288C30.2104 22.2682 29.5768 22.4794 29.3162 23.0004L27.0837 27.4647C25.7494 26.8003 23.7222 25.7923 22.0891 24.9801C20.5697 24.2245 19.4853 23.547 17.6352 23.547H16.7033C18.1439 23.547 19.4296 22.8839 20.2711 21.8463C20.9133 21.0566 21.2972 20.0503 21.2972 18.9536C21.2972 16.416 19.2406 14.3594 16.7028 14.3594C14.166 14.3594 12.1094 16.416 12.1094 18.9536C12.1094 20.1722 12.584 21.2797 13.3582 22.1014C14.1954 22.9916 15.3852 23.5467 16.7033 23.547C14.9362 23.547 13.2077 24.2633 11.9649 25.5094C10.6979 26.7731 10 28.4568 10 30.2503V33.6393C10 35.0983 10.9473 36.3397 12.2593 36.7814V42.6766C12.2593 43.2592 12.7315 43.7313 13.314 43.7313H20.092C20.6746 43.7313 21.1467 43.2592 21.1467 42.6766V30.8265C22.1468 31.3264 23.4604 31.9831 24.5234 32.5148C25.2685 32.8873 26.1392 32.9208 26.9156 32.6049C27.6899 32.2863 28.2867 31.6521 28.5529 30.8647C28.5543 30.8606 28.5556 30.8564 28.557 30.8523Z" fill="#7AC19F"/>
</g>
<defs>
<linearGradient id="paint0_linear_2147_35259" x1="-1.75461" y1="-7.54392" x2="20.9347" y2="34.1361" gradientUnits="userSpaceOnUse">
<stop offset="0.1561" stop-color="#CFE6DB" stop-opacity="0.28"/>
<stop offset="0.925" stop-color="#F6FCF9"/>
</linearGradient>
<clipPath id="clip0_2147_35259">
<rect width="36" height="36" fill="white" transform="translate(10 10)"/>
</clipPath>
</defs>
</svg>
