<svg width="56" height="56" viewBox="0 0 56 56" fill="none" xmlns="http://www.w3.org/2000/svg">
<rect x="0.000488281" width="56" height="56" rx="8" fill="#D5E7DE"/>
<path opacity="0.6" d="M33.15 43.1243C37.1943 48.3856 33.4435 55.9999 26.8073 55.9999L8.0005 55.9998C3.58222 55.9998 0.000505063 52.4181 0.000505257 47.9998L0.000502511 23.5339C0.000502845 15.8938 9.68689 12.6011 14.3431 18.6584L33.15 43.1243Z" fill="url(#paint0_linear_4509_4272)"/>
<path d="M42.2249 13H26.1483C24.2878 13 22.78 14.5081 22.78 16.3683V24.2873C23.6298 24.7097 24.548 25.1664 25.4051 25.5925L26.7164 22.9687C27.5104 21.3821 29.446 20.7375 31.032 21.5301C32.6214 22.3255 33.2654 24.2557 32.4698 25.8454L30.1322 30.5217C30.1942 31.1406 30.1392 31.7646 29.9647 32.3685H31.508L27.4375 43.5614C27.1961 44.2253 27.6628 45 28.4454 45C28.8829 45 29.2944 44.73 29.4524 44.294L33.7892 32.3685H34.5405L38.9214 44.2976C39.0808 44.7314 39.4912 45 39.9284 45C40.6596 45 41.1956 44.2697 40.934 43.5586L38.8792 37.9635L36.8244 32.3685H42.2249C44.0851 32.3685 45.5932 30.8603 45.5932 29.0001V16.3683C45.5932 14.5081 44.0851 13 42.2249 13ZM39.9278 27.7757H35.1178C34.5259 27.7757 34.0458 27.2955 34.0458 26.7036C34.0458 26.1112 34.5259 25.6315 35.1178 25.6315H39.9278C40.5202 25.6315 40.9999 26.1112 40.9999 26.7036C40.9999 27.2955 40.5202 27.7757 39.9278 27.7757ZM39.9278 23.7563H35.1178C34.5259 23.7563 34.0458 23.2767 34.0458 22.6842C34.0458 22.0924 34.5259 21.6122 35.1178 21.6122H39.9278C40.5202 21.6122 40.9999 22.0924 40.9999 22.6842C40.9999 23.2767 40.5202 23.7563 39.9278 23.7563ZM39.9278 19.7375H28.4454C27.853 19.7375 27.3733 19.2573 27.3733 18.6654C27.3733 18.0736 27.853 17.5934 28.4454 17.5934H39.9278C40.5202 17.5934 40.9999 18.0736 40.9999 18.6654C40.9999 19.2573 40.5202 19.7375 39.9278 19.7375Z" fill="#007F7D"/>
<path d="M27.8631 31.9086C28.0568 31.341 28.0554 30.748 27.8918 30.207L30.5524 24.8863C30.8171 24.3567 30.6027 23.7127 30.0731 23.448C29.5437 23.1831 28.8997 23.3977 28.6347 23.9274L26.3655 28.4652C25.0093 27.7898 22.9486 26.7652 21.2886 25.9397C19.7442 25.1717 18.642 24.4829 16.7614 24.4829H15.8142C17.2785 24.4829 18.5853 23.809 19.4407 22.7542C20.0935 21.9516 20.4838 20.9287 20.4838 19.8139C20.4838 17.2345 18.3933 15.144 15.8136 15.144C13.2351 15.144 11.1446 17.2345 11.1446 19.8139C11.1446 21.0526 11.627 22.1783 12.414 23.0136C13.265 23.9184 14.4744 24.4826 15.8142 24.4829C14.0179 24.4829 12.261 25.211 10.9977 26.4777C9.70989 27.7622 9.00049 29.4736 9.00049 31.2966V34.7414C9.00049 36.2244 9.96338 37.4863 11.297 37.9353V43.9276C11.297 44.5197 11.7769 44.9997 12.3691 44.9997H19.2587C19.8509 44.9997 20.3308 44.5197 20.3308 43.9276V31.8823C21.3473 32.3904 22.6826 33.058 23.763 33.5985C24.5204 33.977 25.4054 34.0111 26.1947 33.69C26.9817 33.3662 27.5884 32.7216 27.8589 31.9211C27.8603 31.917 27.8617 31.9128 27.8631 31.9086Z" fill="#7AC19F"/>
<defs>
<linearGradient id="paint0_linear_4509_4272" x1="-1.75413" y1="-7.54392" x2="20.9351" y2="34.1361" gradientUnits="userSpaceOnUse">
<stop offset="0.1561" stop-color="#CFE6DB" stop-opacity="0.28"/>
<stop offset="0.925" stop-color="#F6FCF9"/>
</linearGradient>
</defs>
</svg>
