<svg width="375" height="267" viewBox="0 0 375 267" fill="none" xmlns="http://www.w3.org/2000/svg">
<g opacity="0.1">
<path d="M255.197 216.359C255.486 215.457 255.774 214.556 256.799 212.391C280.36 183.001 286.299 151.201 276.694 116.76C270.829 95.7294 271.548 76.5642 286.433 59.3838C286.702 59.0735 286.13 58.0364 285.969 57.411C261.089 56.4145 243.454 68.3443 230.302 88.3059C230.302 88.3059 230.335 88.6719 229.569 88.6767C187.71 96.7923 146.618 104.903 105.525 113.014C111.73 82.3163 125.011 55.7898 148.732 34.3934C169.829 15.3629 194.388 3.79479 221.979 0.996327C256.373 -2.49219 289.308 2.66947 318.304 24.6387C348.862 47.791 367.981 76.8939 373.421 115.188C380.239 163.184 364.829 203.185 330.212 235.76C310.181 254.609 285.303 264.744 256.721 267C260.753 249.428 260.374 232.873 255.197 216.359Z" fill="#E7012D"/>
<path d="M231.175 88.9091C243.453 68.3447 261.088 56.4149 285.968 57.4114C286.129 58.0368 286.701 59.0739 286.432 59.3842C271.547 76.5646 270.828 95.7298 276.693 116.76C286.298 151.202 280.529 182.888 257.124 211.585C252.128 192 247.225 172.022 243.219 151.786C239.123 131.101 235.743 110.276 231.175 88.9091Z" fill="#9CD9C0"/>
<path d="M104.582 113.188C146.617 104.904 187.71 96.7927 229.752 88.6619C229.857 90.8726 229.413 93.3755 228.109 95.2943C195.424 143.36 162.662 191.374 129.848 239.352C128.27 241.66 126.091 243.558 123.343 245.758C122.228 239.424 123.229 232.598 121.425 226.617C117.825 214.679 105.707 210.684 88.223 214.144C59.8595 219.756 31.477 225.272 0 231.436C17.1386 206.697 32.9538 184.414 48.1605 161.724C58.0918 146.905 66.45 130.807 83.1962 122.198C89.7837 118.812 96.8125 116.282 104.582 113.188Z" fill="#4FCBBA"/>
<path d="M186.68 263.721C159.169 271.571 133.459 254.726 124.044 245.322L230.894 88.3164L257.121 211.589C246.068 238.575 221.069 253.908 186.68 263.721Z" fill="white"/>
</g>
</svg>
