<svg width="152" height="108" viewBox="0 0 152 108" fill="none" xmlns="http://www.w3.org/2000/svg">
<g opacity="0.2">
<path d="M102.974 87.4131C103.09 87.0488 103.206 86.6845 103.62 85.8101C113.127 73.936 115.523 61.0882 111.647 47.1731C109.281 38.6765 109.571 30.9334 115.577 23.9922C115.686 23.8668 115.455 23.4478 115.39 23.1951C105.351 22.7925 98.235 27.6124 92.928 35.6772C92.928 35.6772 92.9416 35.8251 92.6325 35.827C75.7422 39.1059 59.1611 42.3829 42.58 45.6598C45.0837 33.2573 50.4428 22.5401 60.0141 13.8956C68.5271 6.20689 78.4366 1.53317 89.5697 0.402535C103.448 -1.00689 116.737 1.07852 128.437 9.95449C140.768 19.3085 148.482 31.0666 150.677 46.5381C153.428 65.9294 147.21 82.0904 133.242 95.2514C125.16 102.867 115.121 106.961 103.588 107.873C105.215 100.774 105.062 94.085 102.974 87.4131Z" fill="#E7012D"/>
<path d="M93.2793 35.9287C98.2337 27.6203 105.35 22.8005 115.389 23.2031C115.454 23.4558 115.684 23.8747 115.576 24.0001C109.57 30.9413 109.28 38.6844 111.646 47.181C115.522 61.0962 113.194 73.8981 103.75 85.4922C101.734 77.5794 99.7555 69.5078 98.1389 61.3322C96.4866 52.9752 95.1223 44.5613 93.2793 35.9287Z" fill="#9CD9C0"/>
<path d="M42.1994 45.7293C59.1606 42.3823 75.7417 39.1053 92.706 35.8203C92.7483 36.7135 92.5694 37.7247 92.0429 38.4999C78.8545 57.9195 65.635 77.3179 52.3944 96.7019C51.7574 97.6344 50.8784 98.4014 49.7697 99.29C49.3194 96.7311 49.7236 93.9734 48.9957 91.5567C47.5429 86.7335 42.6534 85.1197 35.5984 86.5174C24.1536 88.7847 12.7011 91.0133 0 93.5037C6.9155 83.5087 13.297 74.5059 19.433 65.3388C23.4403 59.3518 26.8129 52.8477 33.5701 49.3696C36.2282 48.0014 39.0643 46.9792 42.1994 45.7293Z" fill="#4FCBBA"/>
<path d="M75.3269 106.546C64.2261 109.718 53.8521 102.912 50.0527 99.1129L93.1675 35.6797L103.75 85.4843C99.2902 96.3869 89.2029 102.582 75.3269 106.546Z" fill="white"/>
</g>
</svg>
