<svg width="44" height="44" viewBox="0 0 44 44" fill="none" xmlns="http://www.w3.org/2000/svg">
<rect width="44" height="44" rx="8" fill="#CFE6DB"/>
<path opacity="0.6" d="M23.9255 31.1243C27.9699 36.3856 24.219 43.9999 17.5829 43.9999L8.00037 43.9999C3.5821 43.9999 0.000372074 40.4182 0.000368452 35.9999L0.000368997 23.5339C0.000369331 15.8938 9.68675 12.6011 14.343 18.6584L23.9255 31.1243Z" fill="url(#paint0_linear_4514_18425)"/>
<g clip-path="url(#clip0_4514_18425)">
<path d="M32.9831 8H11.0169C9.35335 8 8 9.35341 8 11.0169V27.7112C8 29.3748 9.35335 30.7281 11.0169 30.7281H23.9323V27.2719C23.9323 24.4614 26.2188 22.175 29.0291 22.175C31.8395 22.175 34.126 24.4615 34.126 27.2719V30.5026C35.2243 30.0513 36 28.9704 36 27.7112V11.0169C36 9.35341 34.6466 8 32.9831 8ZM15.8495 11.5729H28.1505C28.6035 11.5729 28.9709 11.9402 28.9709 12.3932C28.9709 12.8462 28.6035 13.2135 28.1505 13.2135H15.8495C15.3965 13.2135 15.0291 12.8462 15.0291 12.3932C15.0291 11.9402 15.3965 11.5729 15.8495 11.5729ZM21.238 26.3349H12.3349C11.8819 26.3349 11.5145 25.9676 11.5145 25.5146C11.5145 25.0616 11.8819 24.6943 12.3349 24.6943H21.238C21.6911 24.6943 22.0584 25.0616 22.0584 25.5146C22.0584 25.9676 21.6911 26.3349 21.238 26.3349ZM31.665 20.2427H12.3349C11.8819 20.2427 11.5145 19.8754 11.5145 19.4224C11.5145 18.9694 11.8819 18.6021 12.3349 18.6021H31.6651C32.1182 18.6021 32.4854 18.9694 32.4854 19.4224C32.4853 19.8754 32.1182 20.2427 31.665 20.2427ZM31.665 16.7281H12.3349C11.8819 16.7281 11.5145 16.3608 11.5145 15.9078C11.5145 15.4548 11.8819 15.0875 12.3349 15.0875H31.6651C32.1182 15.0875 32.4854 15.4548 32.4854 15.9078C32.4853 16.3608 32.1182 16.7281 31.665 16.7281Z" fill="#187E7D"/>
<path d="M29.0292 23.8125C27.1234 23.8125 25.573 25.363 25.573 27.2687C25.573 29.1745 27.1235 30.7249 29.0292 30.7249C30.935 30.7249 32.4854 29.1745 32.4854 27.2687C32.4854 25.363 30.935 23.8125 29.0292 23.8125Z" fill="#7AC19F"/>
<path d="M25.573 31.0156V35.1811C25.573 35.4836 25.7394 35.7616 26.0062 35.9043C26.1274 35.9693 26.2605 36.0014 26.3932 36.0014C26.5524 36.0014 26.7111 35.9551 26.8483 35.8636L29.0292 34.4096L31.21 35.8636C31.3474 35.9551 31.506 36.0014 31.6652 36.0014C31.7978 36.0014 31.9309 35.9692 32.0521 35.9044C32.3189 35.7616 32.4854 35.4836 32.4854 35.1811V31.0156C31.5763 31.8558 30.3617 32.3701 29.0292 32.3701C27.6966 32.3701 26.482 31.8558 25.573 31.0156Z" fill="#7AC19F"/>
</g>
<defs>
<linearGradient id="paint0_linear_4514_18425" x1="-1.37827" y1="-5.92736" x2="16.449" y2="26.8212" gradientUnits="userSpaceOnUse">
<stop offset="0.1561" stop-color="#CFE6DB" stop-opacity="0.28"/>
<stop offset="0.925" stop-color="#F6FCF9"/>
</linearGradient>
<clipPath id="clip0_4514_18425">
<rect width="28" height="28" fill="white" transform="translate(8 8)"/>
</clipPath>
</defs>
</svg>
