<svg width="44" height="44" viewBox="0 0 44 44" fill="none" xmlns="http://www.w3.org/2000/svg">
<rect width="44" height="44" rx="8" fill="#CFE6DB"/>
<path opacity="0.6" d="M23.9268 31.1243C27.9712 36.3856 24.2203 43.9999 17.5842 43.9999L8.00169 43.9999C3.58341 43.9999 0.00168433 40.4182 0.00168071 35.9999L0.00168125 23.5339C0.00168159 15.8938 9.68807 12.6011 14.3443 18.6584L23.9268 31.1243Z" fill="url(#paint0_linear_4002_36696)"/>
<path d="M6.68279 15.5477C6.30569 14.0263 7.23334 12.4873 8.75475 12.1102L22.6848 8.65754C24.2062 8.28044 25.7452 9.2081 26.1223 10.7295L30.7578 29.4316C31.1348 30.9531 30.2072 32.4921 28.6858 32.8692L14.7558 36.3218C13.2344 36.6989 11.6953 35.7713 11.3182 34.2499L6.68279 15.5477Z" fill="#7AC19F"/>
<path d="M12.6737 9.8381C12.677 8.27066 13.9503 7.00269 15.5178 7.00601L29.8693 7.0364C31.4367 7.03972 32.7047 8.31307 32.7014 9.88051L32.6583 30.2092C32.655 31.7766 31.3816 33.0446 29.8142 33.0413L15.4627 33.0109C13.8953 33.0076 12.6273 31.7342 12.6306 30.1668L12.6737 9.8381Z" fill="#187E7D"/>
<path d="M16.3537 20.2894H19.6062C19.8048 20.2894 19.9638 20.1305 19.9638 19.9318C19.9638 19.7332 19.8048 19.5742 19.6062 19.5742H16.3537C16.155 19.5742 15.9961 19.7332 15.9961 19.9318C15.9961 20.1305 16.155 20.2894 16.3537 20.2894Z" fill="white"/>
<path d="M23.9079 19.6504H22.0178C21.8191 19.6504 21.6602 19.8093 21.6602 20.008C21.6602 20.2067 21.8191 20.3656 22.0178 20.3656H23.9079C24.1066 20.3656 24.2655 20.2067 24.2655 20.008C24.2655 19.8093 24.1009 19.6504 23.9079 19.6504Z" fill="white"/>
<path d="M16.1896 24.0275H23.0635C23.2622 24.0275 23.4211 23.8686 23.4211 23.6699C23.4211 23.4713 23.2622 23.3066 23.0635 23.3066H16.1896C15.991 23.3066 15.832 23.4656 15.832 23.6642C15.832 23.8629 15.991 24.0275 16.1896 24.0275Z" fill="white"/>
<path d="M16.4247 27.3455H24.2129C24.438 27.3455 24.6181 27.1875 24.6181 26.99C24.6181 26.7925 24.438 26.6289 24.2129 26.6289H16.4247C16.1996 26.6289 16.0195 26.7869 16.0195 26.9844C16.0195 27.1818 16.1996 27.3455 16.4247 27.3455Z" fill="white"/>
<path d="M22.4675 9.43164C21.4257 9.43164 20.5781 10.2792 20.5781 11.321C20.5781 12.3627 21.4257 13.2103 22.4675 13.2103C23.5092 13.2103 24.3568 12.3627 24.3568 11.321C24.3568 10.2792 23.5092 9.43164 22.4675 9.43164Z" fill="white"/>
<path d="M24.8199 14.4355C24.3026 13.9103 23.6169 13.6211 22.889 13.6211H22.0493C21.3215 13.6211 20.6358 13.9103 20.1185 14.4355C19.6038 14.9582 19.3203 15.648 19.3203 16.3781C19.3203 16.4941 19.4143 16.588 19.5302 16.588H25.4082C25.5241 16.588 25.6181 16.4941 25.6181 16.3781C25.6181 15.648 25.3346 14.9582 24.8199 14.4355Z" fill="white"/>
<path d="M40.1489 11.9717L37.8631 9.89807C37.7169 9.7854 37.5498 9.70282 37.3715 9.65512C37.1931 9.60742 37.0071 9.59553 36.8242 9.62014C36.6412 9.64476 36.465 9.70539 36.3056 9.79852C36.1462 9.89166 36.0069 10.0155 35.8956 10.1628L34.0221 12.282L38.2103 16.0664L40.086 13.9906C40.3821 13.6743 40.5419 13.2543 40.5307 12.8212C40.5291 12.6609 40.4943 12.5027 40.4286 12.3566C40.3629 12.2104 40.2676 12.0794 40.1489 11.9717Z" fill="#187E7D"/>
<path d="M33.1502 13.1936L25.0474 22.1792C24.8204 22.4269 24.6727 22.737 24.6234 23.0695L24.0262 26.3751C23.9988 26.5295 24.0098 26.6882 24.0582 26.8372C24.1067 26.9863 24.1911 27.1212 24.3041 27.2299C24.4879 27.3877 24.7252 27.469 24.9672 27.4569C25.0454 27.4615 25.1238 27.4575 25.2012 27.4451L28.427 26.465C28.7515 26.3795 29.0443 26.2017 29.2699 25.9532L37.3822 16.9846L33.1502 13.1936Z" fill="#7AC19F"/>
<defs>
<linearGradient id="paint0_linear_4002_36696" x1="-1.37695" y1="-5.92736" x2="16.4503" y2="26.8212" gradientUnits="userSpaceOnUse">
<stop offset="0.1561" stop-color="#CFE6DB" stop-opacity="0.28"/>
<stop offset="0.925" stop-color="#F6FCF9"/>
</linearGradient>
</defs>
</svg>
