<svg width="44" height="44" viewBox="0 0 44 44" fill="none" xmlns="http://www.w3.org/2000/svg">
<rect width="44" height="44" rx="8" fill="#187E7D"/>
<path opacity="0.6" d="M23.9268 31.1243C27.9712 36.3856 24.2203 43.9999 17.5842 43.9999L8.00169 43.9999C3.58341 43.9999 0.00168433 40.4182 0.00168071 35.9999L0.00168125 23.5339C0.00168159 15.8938 9.68807 12.6011 14.3443 18.6584L23.9268 31.1243Z" fill="url(#paint0_linear_4002_36724)" fill-opacity="0.2"/>
<path d="M35.044 14.2101L34.2055 10.5752C34.118 10.1961 33.8883 9.87158 33.5565 9.66741C33.2247 9.4596 32.8346 9.39762 32.4555 9.48147L11.9805 14.2101H35.044Z" fill="white"/>
<path d="M9.375 16.3943C9.375 15.6432 9.75417 14.9797 10.3302 14.5859L7.58854 15.2203C7.20937 15.3078 6.88489 15.5375 6.68073 15.8693C6.47292 16.201 6.40729 16.5911 6.49479 16.9703L9.375 29.4391V16.3943Z" fill="white"/>
<path d="M37.0846 14.9375H11.5638C10.7581 14.9375 10.1055 15.5901 10.1055 16.3958V31.7083C10.1055 32.5141 10.7581 33.1667 11.5638 33.1667H37.0846C37.8904 33.1667 38.543 32.5141 38.543 31.7083V16.3958C38.543 15.5901 37.8904 14.9375 37.0846 14.9375ZM24.3242 18.2188H33.8034C34.281 18.226 34.2846 18.9406 33.8034 18.9479H24.3242C23.8466 18.9406 23.843 18.226 24.3242 18.2188ZM24.3242 20.0417H31.2513C31.4518 20.0417 31.6159 20.2057 31.6159 20.4063C31.6159 20.6068 31.4518 20.7708 31.2513 20.7708H24.3242C23.8466 20.7635 23.843 20.049 24.3242 20.0417ZM17.0326 17.4896C18.2393 17.4896 19.2201 18.4703 19.2201 19.6771C19.118 22.5719 14.9471 22.5719 14.8451 19.6771C14.8451 18.4703 15.8258 17.4896 17.0326 17.4896ZM13.7513 24.4167C13.7513 23.4104 14.568 22.5938 15.5742 22.5938H18.4909C19.4971 22.5938 20.3138 23.4104 20.3138 24.4167V26.6042C20.3138 26.8047 20.1497 26.9688 19.9492 26.9688H14.1159C13.9154 26.9688 13.7513 26.8047 13.7513 26.6042V24.4167ZM19.5846 30.25H14.4805C14.0029 30.2427 13.9992 29.5281 14.4805 29.5208H19.5846C20.0622 29.5281 20.0659 30.2427 19.5846 30.25ZM20.6784 28.7917H13.3867C13.1862 28.7917 13.0221 28.6276 13.0221 28.4271C13.0221 28.2266 13.1862 28.0625 13.3867 28.0625H20.6784C21.156 28.0698 21.1596 28.7844 20.6784 28.7917ZM31.9805 29.8854H24.3242C24.1237 29.8854 23.9596 29.7214 23.9596 29.5208C23.9596 29.3203 24.1237 29.1563 24.3242 29.1563H31.9805C32.4581 29.1635 32.4617 29.8781 31.9805 29.8854ZM34.8971 28.0625H24.3242C23.8503 28.0552 23.843 27.3406 24.3242 27.3333H34.8971C35.3711 27.3406 35.3784 28.0552 34.8971 28.0625ZM34.8971 26.2396H24.3242C23.8503 26.2323 23.843 25.5177 24.3242 25.5104H34.8971C35.3711 25.5177 35.3784 26.2323 34.8971 26.2396ZM34.8971 24.4167H24.3242C23.8503 24.4094 23.843 23.6948 24.3242 23.6875H34.8971C35.3711 23.6948 35.3784 24.4094 34.8971 24.4167Z" fill="white"/>
<defs>
<linearGradient id="paint0_linear_4002_36724" x1="-1.37695" y1="-5.92736" x2="16.4503" y2="26.8212" gradientUnits="userSpaceOnUse">
<stop offset="0.1561" stop-color="#CFE6DB" stop-opacity="0.28"/>
<stop offset="0.925" stop-color="#F6FCF9"/>
</linearGradient>
</defs>
</svg>
