<svg width="44" height="44" viewBox="0 0 44 44" fill="none" xmlns="http://www.w3.org/2000/svg">
<rect width="44" height="44" rx="8" fill="#CFE6DB"/>
<path opacity="0.6" d="M23.9255 31.1243C27.9699 36.3856 24.219 43.9999 17.5829 43.9999L8.00037 43.9999C3.5821 43.9999 0.000372074 40.4182 0.000368452 35.9999L0.000368997 23.5339C0.000369331 15.8938 9.68675 12.6011 14.343 18.6584L23.9255 31.1243Z" fill="url(#paint0_linear_4514_18376)"/>
<path d="M35.0454 14.2101L34.2068 10.5752C34.1193 10.1961 33.8896 9.87158 33.5579 9.66741C33.2261 9.4596 32.836 9.39762 32.4568 9.48147L11.9818 14.2101H35.0454Z" fill="#7AC19F"/>
<path d="M9.37506 16.3943C9.37506 15.6432 9.75423 14.9797 10.3303 14.5859L7.5886 15.2203C7.20943 15.3078 6.88496 15.5375 6.68079 15.8693C6.47298 16.201 6.40735 16.5911 6.49485 16.9703L9.37506 29.4391V16.3943Z" fill="#7AC19F"/>
<path d="M37.0833 14.9375H11.5625C10.7568 14.9375 10.1042 15.5901 10.1042 16.3958V31.7083C10.1042 32.5141 10.7568 33.1667 11.5625 33.1667H37.0833C37.8891 33.1667 38.5417 32.5141 38.5417 31.7083V16.3958C38.5417 15.5901 37.8891 14.9375 37.0833 14.9375ZM24.3229 18.2188H33.8021C34.2797 18.226 34.2833 18.9406 33.8021 18.9479H24.3229C23.8453 18.9406 23.8417 18.226 24.3229 18.2188ZM24.3229 20.0417H31.25C31.4505 20.0417 31.6146 20.2057 31.6146 20.4063C31.6146 20.6068 31.4505 20.7708 31.25 20.7708H24.3229C23.8453 20.7635 23.8417 20.049 24.3229 20.0417ZM17.0312 17.4896C18.238 17.4896 19.2187 18.4703 19.2187 19.6771C19.1167 22.5719 14.9458 22.5719 14.8437 19.6771C14.8437 18.4703 15.8245 17.4896 17.0312 17.4896ZM13.75 24.4167C13.75 23.4104 14.5667 22.5938 15.5729 22.5938H18.4896C19.4958 22.5938 20.3125 23.4104 20.3125 24.4167V26.6042C20.3125 26.8047 20.1484 26.9688 19.9479 26.9688H14.1146C13.9141 26.9688 13.75 26.8047 13.75 26.6042V24.4167ZM19.5833 30.25H14.4792C14.0016 30.2427 13.9979 29.5281 14.4792 29.5208H19.5833C20.0609 29.5281 20.0646 30.2427 19.5833 30.25ZM20.6771 28.7917H13.3854C13.1849 28.7917 13.0208 28.6276 13.0208 28.4271C13.0208 28.2266 13.1849 28.0625 13.3854 28.0625H20.6771C21.1547 28.0698 21.1583 28.7844 20.6771 28.7917ZM31.9792 29.8854H24.3229C24.1224 29.8854 23.9583 29.7214 23.9583 29.5208C23.9583 29.3203 24.1224 29.1563 24.3229 29.1563H31.9792C32.4568 29.1635 32.4604 29.8781 31.9792 29.8854ZM34.8958 28.0625H24.3229C23.8489 28.0552 23.8417 27.3406 24.3229 27.3333H34.8958C35.3698 27.3406 35.3771 28.0552 34.8958 28.0625ZM34.8958 26.2396H24.3229C23.8489 26.2323 23.8417 25.5177 24.3229 25.5104H34.8958C35.3698 25.5177 35.3771 26.2323 34.8958 26.2396ZM34.8958 24.4167H24.3229C23.8489 24.4094 23.8417 23.6948 24.3229 23.6875H34.8958C35.3698 23.6948 35.3771 24.4094 34.8958 24.4167Z" fill="#187E7D"/>
<defs>
<linearGradient id="paint0_linear_4514_18376" x1="-1.37827" y1="-5.92736" x2="16.449" y2="26.8212" gradientUnits="userSpaceOnUse">
<stop offset="0.1561" stop-color="#CFE6DB" stop-opacity="0.28"/>
<stop offset="0.925" stop-color="#F6FCF9"/>
</linearGradient>
</defs>
</svg>
