<svg width="44" height="44" viewBox="0 0 44 44" fill="none" xmlns="http://www.w3.org/2000/svg">
<rect width="44" height="44" rx="8" fill="#CFE6DB"/>
<path opacity="0.6" d="M23.9255 31.1243C27.9699 36.3856 24.219 43.9999 17.5829 43.9999L8.00037 43.9999C3.5821 43.9999 0.000372074 40.4182 0.000368452 35.9999L0.000368997 23.5339C0.000369331 15.8938 9.68675 12.6011 14.343 18.6584L23.9255 31.1243Z" fill="url(#paint0_linear_4514_18410)"/>
<path fill-rule="evenodd" clip-rule="evenodd" d="M15.9164 32.5497C15.5939 32.4559 15.2143 32.3209 14.842 32.131C14.1717 31.789 13.5349 31.2699 13.2363 30.5275C12.9217 29.7457 12.9597 28.6911 13.8294 27.2963C14.176 26.7405 14.3731 26.3143 14.4449 25.9813C14.4894 25.7753 14.4884 25.6258 14.409 25.5202C14.3205 25.4022 14.1661 25.3468 13.9908 25.299C13.7326 25.2285 13.4291 25.1962 13.1187 25.1672C12.5372 25.1129 11.9356 25.0666 11.4925 24.8969C11.0894 24.7426 10.7981 24.4923 10.6622 24.1187C10.3778 23.3365 10.5622 22.6183 11.0173 21.9784C11.6065 21.1499 12.6848 20.4583 13.6055 19.9517C13.9013 19.7891 13.999 19.4016 13.9617 18.9865C13.8499 17.7417 12.4571 16.2987 9.55997 17.1265C9.32691 17.1931 9.08358 17.0579 9.01699 16.8248C8.95039 16.5917 9.08556 16.3484 9.31867 16.2818C10.755 15.8714 11.8837 15.9468 12.7298 16.2672C14.0829 16.7795 14.748 17.921 14.8366 18.9079C14.9085 19.7089 14.5996 20.4075 14.0289 20.7214C13.3447 21.0978 12.5549 21.5781 12.0075 22.1568C11.5508 22.6396 11.2595 23.1906 11.4878 23.8185C11.5223 23.9133 11.5972 23.9741 11.6878 24.0229C11.84 24.1047 12.0313 24.1511 12.2397 24.1866C12.7597 24.2754 13.3724 24.2876 13.8871 24.3779C14.5867 24.5006 15.1138 24.7904 15.2887 25.3366C15.4388 25.8054 15.3193 26.567 14.5748 27.7611C13.9145 28.82 13.8123 29.6061 14.0512 30.1996C14.2689 30.7407 14.7526 31.0992 15.2412 31.3484C15.5166 31.4889 15.7967 31.5944 16.0455 31.6722C16.6986 30.8128 18.8624 30.11 21.7039 29.7996C22.5121 30.7322 23.294 31.6111 23.9822 32.4125C24.2278 32.7002 24.5895 32.8669 24.9702 32.867C25.3501 32.867 25.711 32.7011 25.9582 32.4127L25.9598 32.4108C26.648 31.6099 27.4295 30.7316 28.2371 29.7997C31.6598 30.1736 34.099 31.1169 34.099 32.2175C34.099 33.6445 29.9984 34.8086 24.9702 34.8086C20.3385 34.8086 16.4939 33.8208 15.9164 32.5497Z" fill="#7AC19F"/>
<path fill-rule="evenodd" clip-rule="evenodd" d="M25.4504 31.3847C25.3701 31.4787 25.2525 31.5329 25.1288 31.5329C25.005 31.5329 24.8875 31.4787 24.8071 31.3846C21.5031 27.5371 16 21.8883 16 17.1288C16 12.0882 20.0882 8 25.1287 8C30.1709 8 34.2575 12.0882 34.2575 17.1288C34.2575 21.8883 28.7558 27.5372 25.4504 31.3847ZM25.1285 24.629C29.2592 24.629 32.629 21.2593 32.629 17.1285C32.629 12.9978 29.2592 9.63004 25.1285 9.63004C20.9977 9.63004 17.63 12.9978 17.63 17.1285C17.63 21.2593 20.9977 24.629 25.1285 24.629ZM21.9169 13.3461C21.9443 13.3303 21.978 13.3303 22.0054 13.3461L26.828 16.1304C26.8553 16.1462 26.8722 16.1754 26.8722 16.207V18.2361C26.8722 18.2677 26.889 18.2969 26.9164 18.3127C26.9438 18.3285 26.9774 18.3285 27.0048 18.3127L28.2521 17.5926C28.2794 17.5769 28.2963 17.5477 28.2963 17.5161V15.3848C28.2963 15.3532 28.2794 15.324 28.2521 15.3082L23.5179 12.575C23.4906 12.5592 23.4737 12.53 23.4737 12.4984C23.4737 12.4668 23.4906 12.4376 23.5179 12.4219L25.0845 11.5173C25.1119 11.5015 25.1456 11.5015 25.173 11.5173L29.9956 14.3016C30.0229 14.3175 30.0397 14.3466 30.0397 14.3782V19.9468C30.0397 19.9784 30.0229 20.0076 29.9956 20.0234L25.173 22.8077C25.1456 22.8235 25.1119 22.8235 25.0845 22.8077L20.2619 20.0234C20.2346 20.0076 20.2177 19.9784 20.2177 19.9468V14.3782C20.2177 14.3466 20.2346 14.3175 20.2619 14.3016L21.9169 13.3461Z" fill="#187E7D"/>
<defs>
<linearGradient id="paint0_linear_4514_18410" x1="-1.37827" y1="-5.92736" x2="16.449" y2="26.8212" gradientUnits="userSpaceOnUse">
<stop offset="0.1561" stop-color="#CFE6DB" stop-opacity="0.28"/>
<stop offset="0.925" stop-color="#F6FCF9"/>
</linearGradient>
</defs>
</svg>
