<svg width="44" height="44" viewBox="0 0 44 44" fill="none" xmlns="http://www.w3.org/2000/svg">
<rect width="44" height="44" rx="8" fill="#CFE6DB"/>
<path opacity="0.6" d="M23.9255 31.1243C27.9699 36.3856 24.219 43.9999 17.5829 43.9999L8.00037 43.9999C3.5821 43.9999 0.000372074 40.4182 0.000368452 35.9999L0.000368997 23.5339C0.000369331 15.8938 9.68675 12.6011 14.343 18.6584L23.9255 31.1243Z" fill="url(#paint0_linear_4514_18439)"/>
<path d="M12.4467 36.0559C12.6389 36.2513 12.8683 36.4063 13.1213 36.5116C13.3743 36.6169 13.6459 36.6705 13.92 36.6693C14.2588 36.6691 14.5924 36.5865 14.8921 36.4285C15.1917 36.2705 15.4484 36.042 15.64 35.7626C17.7618 32.6557 20.1105 29.7099 22.6667 26.9493L17.0533 21.3359C14.2914 23.8906 11.3457 26.2391 8.24 28.3626C7.96102 28.5546 7.73278 28.8114 7.57486 29.111C7.41694 29.4105 7.33406 29.744 7.33334 30.0826C7.33206 30.3567 7.38567 30.6283 7.49101 30.8813C7.59635 31.1343 7.75128 31.3637 7.94667 31.5559L12.4467 36.0559Z" fill="#187E7D"/>
<path d="M26 23.5933L20.4067 18C19.6267 18.82 18.8333 19.6133 18.0133 20.3933L23.5933 26C24.3733 25.1667 25.1667 24.3733 26 23.5933Z" fill="#7AC19F"/>
<path d="M31.5533 7.94933C31.3616 7.75332 31.1323 7.59799 30.8791 7.49261C30.626 7.38723 30.3542 7.33396 30.08 7.33599C29.7414 7.33672 29.4079 7.4196 29.1084 7.57752C28.8088 7.73543 28.552 7.96368 28.36 8.24266C26.2365 11.3483 23.888 14.294 21.3333 17.056L26.9467 22.6693C29.7073 20.1131 32.6531 17.7645 35.76 15.6427C36.013 15.4699 36.2248 15.2434 36.3801 14.9793C36.5354 14.7153 36.6305 14.4201 36.6585 14.1151C36.6866 13.81 36.6468 13.5025 36.5422 13.2145C36.4376 12.9266 36.2707 12.6653 36.0533 12.4493L31.5533 7.94933Z" fill="#187E7D"/>
<path d="M21.5733 30.204L21.3333 32.604C21.3149 32.7343 21.3355 32.8671 21.3924 32.9857C21.4494 33.1044 21.5402 33.2035 21.6533 33.2706C21.7615 33.3215 21.8807 33.3445 22 33.3373C22.1307 33.3363 22.2582 33.2969 22.3667 33.224L24 32.1373L25.6333 33.224C25.7415 33.2943 25.8677 33.3317 25.9967 33.3317C26.1257 33.3317 26.2519 33.2943 26.36 33.224C26.4695 33.1541 26.5562 33.0538 26.6095 32.9354C26.6628 32.817 26.6804 32.6856 26.66 32.5573L25.5467 25.8906C24.1689 27.2684 22.8445 28.7062 21.5733 30.204Z" fill="#7AC19F"/>
<path d="M33.24 21.6547C33.1729 21.5415 33.0737 21.4507 32.9551 21.3938C32.8365 21.3368 32.7036 21.3163 32.5733 21.3347L30.1733 21.5747C28.68 22.8502 27.2378 24.1725 25.8467 25.5413L32.5133 26.6613C32.6416 26.6817 32.773 26.6642 32.8915 26.6109C33.0099 26.5576 33.1102 26.4709 33.18 26.3614C33.2503 26.2532 33.2877 26.127 33.2877 25.998C33.2877 25.869 33.2503 25.7428 33.18 25.6347L32.1333 24.0014L33.22 22.368C33.2906 22.2632 33.33 22.1405 33.3335 22.0143C33.337 21.888 33.3046 21.7633 33.24 21.6547Z" fill="#7AC19F"/>
<defs>
<linearGradient id="paint0_linear_4514_18439" x1="-1.37827" y1="-5.92736" x2="16.449" y2="26.8212" gradientUnits="userSpaceOnUse">
<stop offset="0.1561" stop-color="#CFE6DB" stop-opacity="0.28"/>
<stop offset="0.925" stop-color="#F6FCF9"/>
</linearGradient>
</defs>
</svg>
