<svg width="44" height="44" viewBox="0 0 44 44" fill="none" xmlns="http://www.w3.org/2000/svg">
<rect width="44" height="44" rx="8" fill="#187E7D"/>
<path opacity="0.6" d="M23.9268 31.1243C27.9712 36.3856 24.2203 43.9999 17.5842 43.9999L8.00169 43.9999C3.58341 43.9999 0.00168433 40.4182 0.00168071 35.9999L0.00168125 23.5339C0.00168159 15.8938 9.68807 12.6011 14.3443 18.6584L23.9268 31.1243Z" fill="url(#paint0_linear_4002_37223)" fill-opacity="0.2"/>
<path d="M12.4454 36.0559C12.6376 36.2513 12.867 36.4063 13.12 36.5116C13.3731 36.6169 13.6446 36.6705 13.9187 36.6693C14.2575 36.6691 14.5911 36.5865 14.8908 36.4285C15.1904 36.2705 15.4472 36.042 15.6387 35.7626C17.7606 32.6557 20.1092 29.7099 22.6654 26.9493L17.0521 21.3359C14.2901 23.8906 11.3444 26.2391 8.23872 28.3626C7.95974 28.5546 7.73149 28.8114 7.57358 29.111C7.41566 29.4105 7.33278 29.744 7.33205 30.0826C7.33078 30.3567 7.38439 30.6283 7.48973 30.8813C7.59506 31.1343 7.75 31.3637 7.94539 31.5559L12.4454 36.0559Z" fill="white"/>
<path d="M25.9984 23.5933L20.4051 18C19.6251 18.82 18.8317 19.6133 18.0117 20.3933L23.5917 26C24.3717 25.1667 25.1651 24.3733 25.9984 23.5933Z" fill="#7AC19F"/>
<path d="M31.552 7.94933C31.3603 7.75332 31.131 7.59799 30.8778 7.49261C30.6247 7.38723 30.3529 7.33396 30.0787 7.33599C29.74 7.33672 29.4066 7.4196 29.107 7.57752C28.8075 7.73543 28.5507 7.96368 28.3587 8.24266C26.2352 11.3483 23.8867 14.294 21.332 17.056L26.9454 22.6693C29.706 20.1131 32.6518 17.7645 35.7587 15.6427C36.0117 15.4699 36.2235 15.2434 36.3788 14.9793C36.5341 14.7153 36.6292 14.4201 36.6572 14.1151C36.6853 13.81 36.6455 13.5025 36.5409 13.2145C36.4363 12.9266 36.2694 12.6653 36.052 12.4493L31.552 7.94933Z" fill="white"/>
<path d="M21.5708 30.204L21.3308 32.604C21.3124 32.7343 21.3329 32.8671 21.3899 32.9857C21.4468 33.1044 21.5376 33.2035 21.6508 33.2706C21.7589 33.3215 21.8781 33.3445 21.9974 33.3373C22.1281 33.3363 22.2556 33.2969 22.3641 33.224L23.9974 32.1373L25.6308 33.224C25.7389 33.2943 25.8651 33.3317 25.9941 33.3317C26.1231 33.3317 26.2493 33.2943 26.3574 33.224C26.467 33.1541 26.5537 33.0538 26.607 32.9354C26.6603 32.817 26.6778 32.6856 26.6574 32.5573L25.5441 25.8906C24.1663 27.2684 22.8419 28.7062 21.5708 30.204Z" fill="#7AC19F"/>
<path d="M33.2371 21.6547C33.1699 21.5415 33.0708 21.4507 32.9522 21.3938C32.8335 21.3368 32.7007 21.3163 32.5704 21.3347L30.1704 21.5747C28.6771 22.8502 27.2349 24.1725 25.8438 25.5413L32.5104 26.6613C32.6387 26.6817 32.7701 26.6642 32.8885 26.6109C33.007 26.5576 33.1073 26.4709 33.1771 26.3614C33.2474 26.2532 33.2848 26.127 33.2848 25.998C33.2848 25.869 33.2474 25.7428 33.1771 25.6347L32.1304 24.0014L33.2171 22.368C33.2877 22.2632 33.327 22.1405 33.3306 22.0143C33.3341 21.888 33.3017 21.7633 33.2371 21.6547Z" fill="#7AC19F"/>
<defs>
<linearGradient id="paint0_linear_4002_37223" x1="-1.37695" y1="-5.92736" x2="16.4503" y2="26.8212" gradientUnits="userSpaceOnUse">
<stop offset="0.1561" stop-color="#CFE6DB" stop-opacity="0.28"/>
<stop offset="0.925" stop-color="#F6FCF9"/>
</linearGradient>
</defs>
</svg>
