<svg width="44" height="44" viewBox="0 0 44 44" fill="none" xmlns="http://www.w3.org/2000/svg">
<rect width="44" height="44" rx="8" fill="#187E7D"/>
<path opacity="0.6" d="M23.9268 31.1243C27.9712 36.3856 24.2203 43.9999 17.5842 43.9999L8.00169 43.9999C3.58341 43.9999 0.00168433 40.4182 0.00168071 35.9999L0.00168125 23.5339C0.00168159 15.8938 9.68807 12.6011 14.3443 18.6584L23.9268 31.1243Z" fill="url(#paint0_linear_4002_36847)" fill-opacity="0.2"/>
<path d="M6.22017 16.1644C6.10586 16.1577 6.01173 16.2437 6.00529 16.3561C5.99679 16.5047 6.00142 16.5652 6.00011 17.1379C6.00011 17.2504 6.09123 17.3415 6.20367 17.3415C6.31611 17.3415 6.40723 17.2504 6.40723 17.1379C6.40854 16.5418 6.40411 16.5132 6.41173 16.3793C6.41823 16.2671 6.33236 16.1709 6.22017 16.1644Z" fill="white"/>
<path d="M9.01357 13.4988C9.1247 13.4819 9.20114 13.3781 9.18426 13.2669C9.16726 13.1558 9.06289 13.0787 8.95239 13.0962C7.79439 13.2724 6.81014 14.0154 6.31939 15.0837C6.27251 15.1859 6.31726 15.3067 6.41939 15.3536C6.52307 15.4012 6.64301 15.3545 6.68932 15.2536C7.1227 14.3104 7.99157 13.6543 9.01357 13.4988Z" fill="white"/>
<path d="M37.7973 24.5703C37.6849 24.5703 37.5938 24.6614 37.5938 24.7739V25.3341C37.5938 25.4465 37.6849 25.5376 37.7973 25.5376C37.9098 25.5376 38.0009 25.4465 38.0009 25.3341V24.7739C38.0008 24.6614 37.9098 24.5703 37.7973 24.5703Z" fill="white"/>
<path d="M37.7973 26.2031C37.6849 26.2031 37.5938 26.2942 37.5938 26.4067V29.4716C37.5938 29.584 37.6849 29.6751 37.7973 29.6751C37.9098 29.6751 38.0009 29.584 38.0009 29.4716V26.4067C38.0008 26.2942 37.9098 26.2031 37.7973 26.2031Z" fill="white"/>
<path d="M18.3867 16.3366C18.3867 16.449 18.4779 16.5402 18.5903 16.5402H25.4137C25.526 16.5402 25.6172 16.449 25.6172 16.3366C25.6172 16.2242 25.526 16.1331 25.4137 16.1331H24.8681V10.6662C24.8681 9.82919 24.1873 9.14844 23.3503 9.14844H20.6536C19.8166 9.14844 19.1358 9.82919 19.1358 10.6662V16.1331H18.5903C18.4779 16.1331 18.3867 16.2242 18.3867 16.3366ZM22.002 10.5881C22.6533 10.5881 23.1827 11.1174 23.1827 11.7671C23.1827 12.4184 22.6533 12.9477 22.002 12.9477C21.3506 12.9477 20.8213 12.4184 20.8213 11.7671C20.8213 11.1173 21.3506 10.5881 22.002 10.5881Z" fill="#7AC19F"/>
<path d="M34.1918 18.3125H9.80675C9.37519 18.3125 9.02344 18.6642 9.02344 19.0958V32.3419C9.02344 32.7735 9.37519 33.1252 9.80675 33.1252H34.1918C34.6233 33.1252 34.9751 32.7735 34.9751 32.3419V19.0958C34.9751 18.6643 34.6233 18.3125 34.1918 18.3125ZM22.7142 21.2389H29.9593C30.0717 21.2389 30.1629 21.3301 30.1629 21.4425C30.1629 21.5549 30.0717 21.6461 29.9593 21.6461H22.7142C22.6018 21.6461 22.5106 21.5549 22.5106 21.4425C22.5106 21.3301 22.6018 21.2389 22.7142 21.2389ZM15.6644 19.8775C16.9966 19.8775 18.0795 20.9621 18.0795 22.2926C18.0795 23.5351 17.065 25.3769 15.6644 25.3769C14.2639 25.3769 13.251 23.5351 13.251 22.2926C13.251 20.9621 14.3339 19.8775 15.6644 19.8775ZM20.4653 30.5181C20.4653 31.0929 19.9995 31.5587 19.4247 31.5587H11.9043C11.3311 31.5587 10.8637 31.0929 10.8637 30.5181V29.8326C10.8637 27.7351 12.5704 26.0284 14.6679 26.0284H16.6611C18.7586 26.0284 20.4653 27.7351 20.4653 29.8326L20.4653 30.5181ZM32.9313 30.1989H22.7142C22.6018 30.1989 22.5106 30.1077 22.5106 29.9954C22.5106 29.883 22.6018 29.7918 22.7142 29.7918H32.9314C33.0438 29.7918 33.1349 29.883 33.1349 29.9954C33.1349 30.1077 33.0436 30.1989 32.9313 30.1989ZM22.5106 27.1439C22.5106 27.0315 22.6018 26.9403 22.7142 26.9403H29.9593C30.0717 26.9403 30.1629 27.0315 30.1629 27.1439C30.1629 27.2563 30.0717 27.3474 29.9593 27.3474H22.7142C22.6018 27.3474 22.5106 27.2562 22.5106 27.1439ZM32.9313 24.4975H22.7142C22.6018 24.4975 22.5106 24.4063 22.5106 24.2939C22.5106 24.1816 22.6018 24.0904 22.7142 24.0904H32.9314C33.0438 24.0904 33.1349 24.1816 33.1349 24.2939C33.1349 24.4063 33.0436 24.4975 32.9313 24.4975Z" fill="white"/>
<path d="M34.5233 14.3594H25.2751V15.7257H25.4135C25.7506 15.7257 26.0242 15.9993 26.0242 16.3364C26.0242 16.6734 25.7506 16.9471 25.4135 16.9471H18.5901C18.2531 16.9471 17.9794 16.6734 17.9794 16.3364C17.9794 15.9993 18.2531 15.7257 18.5901 15.7257H18.7286V14.3594H9.48038C8.28013 14.3594 7.30469 15.3365 7.30469 16.5351V32.6701C7.30469 33.8704 8.28013 34.8458 9.48038 34.8458H34.5234C35.7236 34.8458 36.6991 33.8704 36.6991 32.6701V16.5351C36.6989 15.3365 35.7235 14.3594 34.5233 14.3594ZM35.3848 32.3412C35.3848 32.9975 34.8506 33.5316 34.1943 33.5316H9.80931C9.153 33.5316 8.61888 32.9975 8.61888 32.3412V19.095C8.61888 18.4387 9.153 17.9046 9.80931 17.9046H34.1943C34.8506 17.9046 35.3848 18.4387 35.3848 19.095V32.3412Z" fill="white"/>
<defs>
<linearGradient id="paint0_linear_4002_36847" x1="-1.37695" y1="-5.92736" x2="16.4503" y2="26.8212" gradientUnits="userSpaceOnUse">
<stop offset="0.1561" stop-color="#CFE6DB" stop-opacity="0.28"/>
<stop offset="0.925" stop-color="#F6FCF9"/>
</linearGradient>
</defs>
</svg>
