<svg width="44" height="44" viewBox="0 0 44 44" fill="none" xmlns="http://www.w3.org/2000/svg">
<rect width="44" height="44" rx="8" fill="#CFE6DB"/>
<path opacity="0.6" d="M23.9255 31.1243C27.9699 36.3856 24.219 43.9999 17.5829 43.9999L8.00037 43.9999C3.5821 43.9999 0.000372074 40.4182 0.000368452 35.9999L0.000368997 23.5339C0.000369331 15.8938 9.68675 12.6011 14.343 18.6584L23.9255 31.1243Z" fill="url(#paint0_linear_4514_18390)"/>
<path d="M6.22017 16.1644C6.10586 16.1577 6.01173 16.2437 6.00529 16.3561C5.99679 16.5047 6.00142 16.5652 6.00011 17.1379C6.00011 17.2504 6.09123 17.3415 6.20367 17.3415C6.31611 17.3415 6.40723 17.2504 6.40723 17.1379C6.40854 16.5418 6.40411 16.5132 6.41173 16.3793C6.41823 16.2671 6.33236 16.1709 6.22017 16.1644Z" fill="#187E7D"/>
<path d="M9.01248 13.4988C9.1236 13.4819 9.20004 13.3781 9.18316 13.2669C9.16616 13.1558 9.06179 13.0787 8.95129 13.0962C7.79329 13.2724 6.80904 14.0154 6.31829 15.0837C6.27141 15.1859 6.31616 15.3067 6.41829 15.3536C6.52197 15.4012 6.64191 15.3545 6.68822 15.2536C7.1216 14.3104 7.99048 13.6543 9.01248 13.4988Z" fill="#187E7D"/>
<path d="M37.7964 24.5703C37.684 24.5703 37.5929 24.6614 37.5929 24.7739V25.3341C37.5929 25.4465 37.684 25.5376 37.7964 25.5376C37.9089 25.5376 38 25.4465 38 25.3341V24.7739C37.9999 24.6614 37.9089 24.5703 37.7964 24.5703Z" fill="#187E7D"/>
<path d="M37.7964 26.2031C37.684 26.2031 37.5929 26.2942 37.5929 26.4067V29.4716C37.5929 29.584 37.684 29.6751 37.7964 29.6751C37.9089 29.6751 38 29.584 38 29.4716V26.4067C37.9999 26.2942 37.9089 26.2031 37.7964 26.2031Z" fill="#187E7D"/>
<path d="M18.3848 16.3366C18.3848 16.449 18.476 16.5402 18.5884 16.5402H25.4117C25.5241 16.5402 25.6153 16.449 25.6153 16.3366C25.6153 16.2242 25.5241 16.1331 25.4117 16.1331H24.8662V10.6662C24.8662 9.82919 24.1854 9.14844 23.3484 9.14844H20.6517C19.8147 9.14844 19.1339 9.82919 19.1339 10.6662V16.1331H18.5884C18.476 16.1331 18.3848 16.2242 18.3848 16.3366ZM22 10.5881C22.6514 10.5881 23.1807 11.1174 23.1807 11.7671C23.1807 12.4184 22.6514 12.9477 22 12.9477C21.3487 12.9477 20.8194 12.4184 20.8194 11.7671C20.8194 11.1173 21.3487 10.5881 22 10.5881Z" fill="#7AC19F"/>
<path d="M34.1925 18.3125H9.80754C9.37598 18.3125 9.02423 18.6642 9.02423 19.0958V32.3419C9.02423 32.7735 9.37598 33.1252 9.80754 33.1252H34.1925C34.6241 33.1252 34.9759 32.7735 34.9759 32.3419V19.0958C34.9759 18.6643 34.6241 18.3125 34.1925 18.3125ZM22.715 21.2389H29.9601C30.0725 21.2389 30.1637 21.3301 30.1637 21.4425C30.1637 21.5549 30.0725 21.6461 29.9601 21.6461H22.715C22.6026 21.6461 22.5114 21.5549 22.5114 21.4425C22.5114 21.3301 22.6026 21.2389 22.715 21.2389ZM15.6652 19.8775C16.9974 19.8775 18.0803 20.9621 18.0803 22.2926C18.0803 23.5351 17.0658 25.3769 15.6652 25.3769C14.2647 25.3769 13.2518 23.5351 13.2518 22.2926C13.2518 20.9621 14.3347 19.8775 15.6652 19.8775ZM20.466 30.5181C20.466 31.0929 20.0003 31.5587 19.4255 31.5587H11.905C11.3319 31.5587 10.8645 31.0929 10.8645 30.5181V29.8326C10.8645 27.7351 12.5712 26.0284 14.6687 26.0284H16.6619C18.7594 26.0284 20.4661 27.7351 20.4661 29.8326L20.466 30.5181ZM32.9321 30.1989H22.715C22.6026 30.1989 22.5114 30.1077 22.5114 29.9954C22.5114 29.883 22.6026 29.7918 22.715 29.7918H32.9322C33.0445 29.7918 33.1357 29.883 33.1357 29.9954C33.1357 30.1077 33.0444 30.1989 32.9321 30.1989ZM22.5114 27.1439C22.5114 27.0315 22.6026 26.9403 22.715 26.9403H29.9601C30.0725 26.9403 30.1637 27.0315 30.1637 27.1439C30.1637 27.2563 30.0725 27.3474 29.9601 27.3474H22.715C22.6026 27.3474 22.5114 27.2562 22.5114 27.1439ZM32.9321 24.4975H22.715C22.6026 24.4975 22.5114 24.4063 22.5114 24.2939C22.5114 24.1816 22.6026 24.0904 22.715 24.0904H32.9322C33.0445 24.0904 33.1357 24.1816 33.1357 24.2939C33.1357 24.4063 33.0444 24.4975 32.9321 24.4975Z" fill="#187E7D"/>
<path d="M34.5215 14.3594H25.2733V15.7257H25.4117C25.7488 15.7257 26.0224 15.9993 26.0224 16.3364C26.0224 16.6734 25.7488 16.9471 25.4117 16.9471H18.5884C18.2513 16.9471 17.9777 16.6734 17.9777 16.3364C17.9777 15.9993 18.2513 15.7257 18.5884 15.7257H18.7268V14.3594H9.47861C8.27836 14.3594 7.30292 15.3365 7.30292 16.5351V32.6701C7.30292 33.8704 8.27836 34.8458 9.47861 34.8458H34.5216C35.7219 34.8458 36.6973 33.8704 36.6973 32.6701V16.5351C36.6972 15.3365 35.7217 14.3594 34.5215 14.3594ZM35.383 32.3412C35.383 32.9975 34.8489 33.5316 34.1925 33.5316H9.80754C9.15123 33.5316 8.61711 32.9975 8.61711 32.3412V19.095C8.61711 18.4387 9.15123 17.9046 9.80754 17.9046H34.1925C34.8489 17.9046 35.383 18.4387 35.383 19.095V32.3412Z" fill="#187E7D"/>
<defs>
<linearGradient id="paint0_linear_4514_18390" x1="-1.37827" y1="-5.92736" x2="16.449" y2="26.8212" gradientUnits="userSpaceOnUse">
<stop offset="0.1561" stop-color="#CFE6DB" stop-opacity="0.28"/>
<stop offset="0.925" stop-color="#F6FCF9"/>
</linearGradient>
</defs>
</svg>
