<svg width="56" height="56" viewBox="0 0 56 56" fill="none" xmlns="http://www.w3.org/2000/svg">
<circle cx="28" cy="28" r="28" fill="white"/>
<path d="M36.2836 23.1399L20.5377 37.679C19.808 38.3528 18.6708 38.3075 17.9971 37.5778C17.3233 36.8481 17.3686 35.7109 18.0983 35.0371L33.8442 20.498C34.5738 19.8243 35.7111 19.8696 36.3848 20.5993C37.0586 21.329 37.0133 22.4662 36.2836 23.1399Z" fill="#187E7D"/>
<path d="M35.9943 34.967C35.6397 35.2943 35.1544 35.4791 34.6349 35.439C33.645 35.3624 32.9049 34.4973 32.9814 33.5074L33.7972 22.9976L23.071 23.1189C22.0781 23.1302 21.2639 22.3343 21.2526 21.3414C21.2413 20.3486 22.0371 19.5344 23.03 19.5231L35.7211 19.3799C36.2257 19.374 36.7091 19.5806 37.0543 19.9491C37.3994 20.3175 37.5736 20.8136 37.5342 21.3169L36.5666 33.7856C36.53 34.2559 36.3155 34.6703 35.9943 34.967Z" fill="#187E7D"/>
</svg>
