<svg width="80" height="40" viewBox="0 0 80 40" fill="none" xmlns="http://www.w3.org/2000/svg">
<path d="M29.851 20.5445H30.1495C31.5426 20.5445 32.8361 20.5445 34.2291 20.5445C34.5276 20.5445 34.8262 20.5445 35.1247 20.6354C35.6222 20.7263 35.9207 21.0899 35.9207 21.5445C35.9207 22.0899 36.0202 22.6354 36.0202 23.1808C36.0202 24.1808 36.0202 25.2718 36.1197 26.2718C36.1197 26.6354 36.2192 26.7263 36.6172 26.8172C37.0152 26.8172 37.4132 26.8172 37.7117 26.8172C38.2092 26.8172 38.4082 26.5445 38.4082 26.09C38.4082 25.5445 38.4082 24.999 38.4082 24.4536C38.4082 23.7263 38.4082 22.999 38.5077 22.2717C38.5077 21.5445 38.3087 21.5445 37.6122 21.3626C37.4132 21.3626 37.3137 21.2717 37.1147 21.1808C37.0152 21.0899 36.9157 20.999 37.0152 20.9081C37.0152 20.8172 37.2142 20.7263 37.3137 20.7263C37.9107 20.7263 38.4082 20.7263 39.0053 20.7263C39.7018 20.7263 39.9008 20.9081 39.8013 21.5445C39.7018 24.2718 39.7018 26.999 39.6023 29.7263C39.6023 30.3627 39.6023 30.9082 39.6023 31.5445C39.6023 31.8173 39.4033 32.09 39.0053 32.1809H38.9058C38.6073 32.1809 38.3087 31.9991 38.3087 31.7264V31.6355C38.3087 30.6354 38.2092 29.6354 38.2092 28.6354C38.2092 27.9991 38.1097 27.9081 37.4132 27.9081C37.0152 27.9081 36.6172 27.9081 36.3187 27.9991C35.9207 27.9991 35.8212 28.09 35.8212 28.5445C35.8212 28.9991 35.7217 29.5445 35.7217 29.9991C35.7217 30.6354 35.3237 31.1809 34.7267 31.4536C33.5326 31.9082 32.0401 31.5445 31.2441 30.6354C30.846 30.1809 30.7465 29.5445 30.9456 28.9991C31.0451 28.2718 31.4431 27.7263 32.0401 27.2718C32.3386 27.09 32.5376 26.999 32.8361 26.999C33.5326 26.9081 33.7316 26.8172 33.8311 25.999C33.9306 25.0899 33.9306 24.2718 33.8311 23.3627C33.8311 22.4536 33.0351 21.7263 32.0401 21.7263C31.5426 21.7263 31.0451 21.6354 30.5475 21.7263C30.05 21.7263 29.851 21.9081 29.851 22.3627C29.851 24.3627 29.7515 26.3627 29.7515 28.4536C29.7515 29.6354 29.7515 30.7264 29.652 31.9082C29.652 32.1809 29.453 32.4536 29.055 32.5445C28.657 32.6355 28.3585 32.4536 28.259 32.09C28.1595 31.8173 28.1595 31.5445 28.1595 31.2718C28.06 28.4536 27.861 25.6354 27.9605 22.8172C27.9605 22.0899 27.662 21.8172 26.6669 21.8172C26.4679 21.8172 26.2689 21.999 26.2689 22.1808C26.2689 22.5445 26.1694 22.9081 26.1694 23.1808C26.1694 25.6354 26.0699 28.09 26.0699 30.4536C26.0699 30.8173 26.0699 31.1809 26.0699 31.5445C26.0699 31.6354 26.0699 31.7264 26.0699 31.8173C26.0699 32.2718 25.8709 32.4536 25.4729 32.5445C25.0749 32.6355 24.5774 32.3627 24.4779 31.9991C24.4779 31.5445 24.3784 31.09 24.4779 30.6354C24.4779 28.9082 24.4779 27.1809 24.4779 25.5445C24.4779 24.9081 24.4779 24.2718 24.4779 23.5445C24.4779 23.0899 24.3784 22.6354 24.2789 22.1808C24.1794 21.7263 23.7814 21.4536 23.2838 21.4536C22.9853 21.4536 22.6868 21.3626 22.3883 21.4536C22.2888 21.4536 22.0898 21.5445 22.0898 21.6354C22.0898 21.7263 21.9903 21.8172 21.9903 21.999C21.9903 22.0899 21.9903 22.1808 21.9903 22.3627C21.9903 25.1809 21.9903 28.09 21.9903 30.9082C21.9903 31.1809 21.9903 31.4536 21.9903 31.7264C21.9903 31.9082 21.8908 32.09 21.6918 32.2718C21.4928 32.4536 21.0948 32.5445 20.8958 32.2718L20.7963 32.1809C20.5973 31.9991 20.3983 31.7264 20.2988 31.4536C20.0003 30.9082 19.6023 30.4536 19.0052 30.09C18.8062 29.9991 18.6072 29.9082 18.4082 29.8173C18.1097 29.7263 18.0102 29.7263 17.9107 30.09C17.6122 31.09 17.0152 31.9082 16.2192 32.6355C15.3236 33.3627 14.2291 33.9991 13.0351 34.2718C11.1445 34.8173 9.15448 34.8173 7.26393 34.3627C6.0699 33.9991 5.07487 33.4536 4.17935 32.6355C2.68681 31.2718 1.59228 29.6354 1.09477 27.8172C0.597256 26.1809 0.39825 24.4536 0.597256 22.7263C0.796261 20.7263 1.49278 18.9081 2.4878 17.1808C3.58233 15.4535 4.77637 13.8171 6.1694 12.2717C6.2689 12.1808 6.2689 12.1808 6.36841 12.0898C6.36841 12.1808 6.36841 12.1808 6.46791 12.2717C6.66691 12.6353 6.86592 12.9989 7.06493 13.3626C7.16443 13.5444 7.16443 13.6353 7.06493 13.7262C6.1694 14.8171 5.27388 15.9081 4.67686 17.1808C3.78134 18.7263 3.18432 20.4535 2.88582 22.1808C2.3883 25.3627 2.98532 28.2718 5.17438 30.9082C5.67189 31.5445 6.36841 31.9991 7.16443 32.2718C8.95547 32.9991 10.9455 33.1809 12.7366 32.6355C14.2291 32.2718 15.4231 31.2718 15.9207 29.9082C16.0202 29.6354 16.1197 29.2718 16.1197 28.9991C16.1197 27.9081 16.1197 26.9081 16.1197 25.8172C16.1197 25.2718 16.0202 24.7263 15.9207 24.1808C15.8212 23.7263 15.4231 23.2717 14.8261 23.2717C13.5326 23.0899 12.2391 22.999 10.9455 23.0899C10.846 23.0899 10.7465 23.0899 10.647 23.0899C10.448 23.0899 10.3485 23.2717 10.3485 23.3627C10.3485 23.8172 10.3485 24.2718 10.3485 24.7263C10.3485 25.2718 10.249 25.7263 10.05 26.1809C9.851 26.6354 9.45299 26.9991 8.85597 26.9081C8.15945 26.9081 7.46294 26.999 6.66691 26.999C5.9704 26.999 5.47288 26.5445 5.47288 25.9081C5.37338 25.0899 5.27388 24.2718 5.27388 23.3627C5.27388 22.2717 5.77139 21.1808 6.76642 20.6354C7.16443 20.3626 7.66194 20.2717 8.15945 20.2717C10.3485 20.2717 12.4381 20.3626 14.6271 20.4535C15.3236 20.4535 16.0202 20.6354 16.7167 20.999C17.5127 21.2717 17.9107 21.999 17.9107 22.7263C18.0102 24.3627 18.1097 25.9081 18.1097 27.5445C18.1097 28.3627 18.1097 28.3627 18.8062 28.7263C19.2042 28.9082 19.6023 29.09 20.0003 29.2718C20.0003 29.1809 20.0003 29.09 20.0003 28.9991C20.0003 26.9081 20.0003 24.8172 20.0003 22.7263C20.0003 22.1808 19.8013 21.6354 19.5028 21.0899C19.4032 20.9081 19.4032 20.8172 19.4032 20.6354C19.5028 20.4535 19.7018 20.4535 19.9008 20.4535C20.4978 20.4535 21.0948 20.4535 21.7913 20.4535C23.6819 20.4535 25.6719 20.5445 27.5625 20.6354C28.06 20.6354 28.259 20.5445 28.3585 19.999C28.657 18.3626 29.652 16.8172 31.0451 15.7262C31.8411 15.0899 32.8361 14.6353 33.9306 14.3626C35.7217 13.9989 37.6122 14.1808 39.3038 14.908C41.1943 15.7262 42.6869 17.0899 43.6819 18.7263C43.7814 18.9081 43.7814 18.999 43.8809 19.1808C43.9804 19.5444 43.7814 19.8172 43.3834 19.9081C43.0849 20.0899 42.6869 19.9081 42.4879 19.6354C42.2888 19.2717 42.0898 18.9081 41.8908 18.5444C40.7963 16.9081 38.9058 15.8171 36.7167 15.5444C35.6222 15.3626 34.5276 15.4535 33.4331 15.8171C32.2391 16.2717 31.2441 17.0899 30.647 18.1808C30.249 18.8172 29.9505 19.5444 29.7515 20.3626C29.7515 20.4535 29.7515 20.4535 29.7515 20.5445C29.851 20.4535 29.851 20.5445 29.851 20.5445ZM34.0301 28.8172V28.5445C34.0301 28.09 33.8311 27.9991 33.3336 28.09H33.2341C32.5376 28.2718 32.1396 28.8172 32.1396 29.4536C32.2391 29.9991 32.8361 30.4536 33.4331 30.3627C33.6321 30.3627 33.8311 30.1809 33.8311 29.9991C34.0301 29.5445 34.0301 29.1809 34.0301 28.8172Z" fill="#187E7D"/>
<path d="M6.8663 39.0004H5.47327L5.07526 39.9095H4.67725L6.26929 36.6367L7.76183 39.9095H7.36382L6.8663 39.0004ZM6.7668 38.7276L6.16979 37.4549L5.57277 38.7276H6.7668Z" fill="#187E7D"/>
<path d="M8.16064 39.9095L8.85716 36.6367L10.0512 39.1822L11.3447 36.6367L12.0412 39.9095H11.6432L11.1457 37.8185L10.0512 40.0004L8.95666 37.8185L8.55865 39.9095H8.16064Z" fill="#187E7D"/>
<path d="M13.1348 36.8164H12.7368V39.9073H13.1348V36.8164Z" fill="#187E7D"/>
<path d="M16.2188 38.5437V39.9073H15.8208V36.8164H16.4178C16.6168 36.8164 16.7163 36.8164 16.9153 36.8164C17.0148 36.8164 17.2138 36.9073 17.3133 36.9073C17.4128 36.9982 17.5123 37.0891 17.6118 37.18C17.7114 37.271 17.7114 37.4528 17.7114 37.5437C17.7114 37.8164 17.6118 37.9982 17.4128 38.1801C17.2138 38.3619 16.9153 38.3619 16.6168 38.3619H16.2188V38.5437ZM16.2188 37.0891V38.1801H16.5173C17.0148 38.1801 17.3133 37.9982 17.3133 37.6346C17.3133 37.5437 17.3133 37.4528 17.2138 37.3619C17.2138 37.271 17.1143 37.271 17.1143 37.18C17.0148 37.18 17.0148 37.18 16.9153 37.18C16.8158 37.18 16.7163 37.18 16.7163 37.18C16.6168 37.18 16.5173 37.18 16.4178 37.18L16.2188 37.0891Z" fill="#187E7D"/>
<path d="M18.8082 38.5437V39.9073H18.4102V36.8164H19.0072C19.2062 36.8164 19.3057 36.8164 19.5047 36.8164C19.6042 36.8164 19.8032 36.9073 19.9027 36.9073C20.0022 36.9982 20.1017 37.0891 20.2012 37.18C20.3007 37.271 20.3007 37.4528 20.3007 37.6346C20.3007 37.8164 20.2012 38.0891 20.1017 38.1801C19.9027 38.3619 19.7037 38.4528 19.5047 38.4528L20.5992 39.8164H20.0022L18.8082 38.5437ZM18.8082 37.0891V38.1801H19.0072C19.1067 38.1801 19.2062 38.1801 19.3057 38.1801C19.4052 38.1801 19.5047 38.1801 19.6042 38.0891C19.7037 38.0891 19.8032 37.9982 19.8032 37.9073C19.8032 37.8164 19.9027 37.7255 19.9027 37.6346C19.9027 37.5437 19.9027 37.4528 19.9027 37.3619C19.9027 37.271 19.8032 37.271 19.8032 37.18C19.7037 37.18 19.7037 37.0891 19.6042 37.0891C19.5047 37.0891 19.4052 37.0891 19.4052 37.0891C19.3057 37.0891 19.2062 37.0891 19.1067 37.0891H18.8082Z" fill="#187E7D"/>
<path d="M21.5937 37.1811C21.8922 36.9084 22.3897 36.7266 22.7877 36.7266C23.2852 36.7266 23.6833 36.9084 23.9818 37.1811C24.2803 37.4538 24.4793 37.9084 24.4793 38.272C24.4793 38.7266 24.2803 39.0902 23.9818 39.3629C23.6833 39.6357 23.1857 39.8175 22.7877 39.8175C22.2902 39.8175 21.8922 39.6357 21.5937 39.3629C21.2952 39.0902 21.0962 38.6357 21.0962 38.272C21.0962 37.9084 21.2952 37.5448 21.5937 37.1811ZM23.7828 37.4538C23.4843 37.1811 23.1857 37.0902 22.7877 37.0902C22.3897 37.0902 22.0912 37.1811 21.7927 37.4538C21.4942 37.7266 21.3947 37.9993 21.3947 38.3629C21.3947 38.7266 21.4942 38.9993 21.7927 39.272C22.0912 39.5448 22.3897 39.6357 22.7877 39.6357C23.1857 39.6357 23.4843 39.5448 23.7828 39.272C24.0813 38.9993 24.1808 38.7266 24.1808 38.3629C24.1808 37.9993 24.0813 37.6357 23.7828 37.4538Z" fill="#187E7D"/>
<path d="M25.4741 39.9073V36.8164H25.9716C26.2701 36.8164 26.5686 36.9073 26.7677 36.9982C26.9667 37.18 27.0662 37.3619 27.0662 37.6346C27.0662 37.9073 26.9667 38.0891 26.7677 38.271C26.9667 38.271 27.1657 38.4528 27.2652 38.5437C27.3647 38.7255 27.4642 38.9073 27.4642 39.0892C27.4642 39.3619 27.3647 39.6346 27.1657 39.7255C26.8672 39.9073 26.5686 39.9073 26.2701 39.9073H25.4741ZM25.7726 37.0891V38.0891H25.9716C26.0711 38.0891 26.1706 38.0891 26.2701 38.0891C26.3696 38.0891 26.4691 38.0891 26.4691 37.9982C26.5686 37.9982 26.5687 37.9073 26.6682 37.8164C26.6682 37.7255 26.7677 37.6346 26.7677 37.5437C26.7677 37.3619 26.7677 37.18 26.5686 37.0891C26.3696 36.9982 26.1706 36.9982 25.9716 36.9982H25.7726V37.0891ZM25.7726 38.4528V39.5437H26.1706C26.7677 39.5437 27.0662 39.3619 27.0662 38.9982C27.0662 38.6346 26.7677 38.4528 26.1706 38.4528H25.7726Z" fill="#187E7D"/>
<path d="M30.249 39.0004H28.856L28.458 39.9095H27.9604L29.5525 36.6367L31.045 39.9095H30.647L30.249 39.0004ZM30.1495 38.7276L29.5525 37.4549L28.9555 38.7276H30.1495Z" fill="#187E7D"/>
<path d="M33.6325 37.1822L33.334 37.364C33.2345 37.1822 33.0355 37.0004 32.737 37.0004C32.6375 37.0004 32.4385 37.0913 32.339 37.0913C32.2395 37.1822 32.14 37.2731 32.14 37.4549C32.14 37.5458 32.14 37.5458 32.14 37.6367C32.14 37.7276 32.2395 37.7276 32.2395 37.8185C32.339 37.8185 32.339 37.9095 32.4385 37.9095C32.4385 37.9095 32.538 38.0004 32.6375 38.0004L32.936 38.0913C33.0355 38.0913 33.135 38.1822 33.2345 38.2731C33.334 38.364 33.4335 38.364 33.4335 38.4549C33.533 38.5458 33.533 38.6367 33.6325 38.7276C33.6325 38.8185 33.732 38.9095 33.732 39.0004C33.732 39.2731 33.6325 39.5458 33.4335 39.6367C33.2345 39.8186 32.936 39.9095 32.6375 39.9095C32.339 39.9095 32.14 39.8186 31.941 39.7277C31.742 39.5458 31.6425 39.364 31.543 39.1822L31.941 39.0004C31.941 39.1822 32.0405 39.2731 32.14 39.364C32.2395 39.4549 32.4385 39.5458 32.6375 39.5458C32.8365 39.5458 33.0355 39.4549 33.135 39.364C33.2345 39.2731 33.334 39.0913 33.334 38.9095C33.334 38.8186 33.334 38.8185 33.334 38.7276C33.334 38.6367 33.334 38.6367 33.2345 38.5458C33.2345 38.5458 33.135 38.4549 33.0355 38.4549C32.936 38.4549 32.936 38.364 32.8365 38.364C32.8365 38.364 32.737 38.364 32.6375 38.2731L32.4385 38.1822C32.2395 38.0913 32.0405 38.0004 31.941 37.8185C31.8415 37.7276 31.742 37.5458 31.742 37.364C31.742 37.1822 31.8415 36.9094 32.0405 36.8185C32.2395 36.6367 32.4385 36.6367 32.737 36.6367C32.936 36.6367 33.135 36.6367 33.2345 36.7276C33.4335 36.9094 33.533 37.0913 33.6325 37.1822Z" fill="#187E7D"/>
<path d="M35.0259 38.0891H36.7175V36.8164H37.1155V39.9073H36.7175V38.3619H35.0259V39.9073H34.6279V36.8164H35.0259V38.0891Z" fill="#187E7D"/>
<path d="M38.5074 36.8164H38.1094V39.9073H38.5074V36.8164Z" fill="#187E7D"/>
<path d="M76.3185 23.2731V23.5459C76.3185 27.9095 76.3185 32.2732 76.3185 36.6369C76.3185 36.8187 76.219 37.0914 76.1195 37.2732C75.9205 37.546 75.423 37.6369 75.1245 37.546C74.7265 37.4551 74.5275 37.1823 74.5275 36.8187C74.5275 36.455 74.5275 36.0914 74.5275 35.7278C74.5275 34.9096 74.5275 34.0914 74.5275 33.1823C74.5275 33.0005 74.428 32.9096 74.3285 32.8187C73.632 32.455 73.0349 32.0914 72.3384 31.7277C72.2389 31.7277 72.2389 31.6368 72.1394 31.6368C72.1394 31.9096 72.1394 32.1823 72.0399 32.3641C72.0399 33.0914 71.7414 33.9096 71.3434 34.5459C70.9454 35.1823 70.4479 35.8187 69.8509 36.3641C69.4528 36.7278 68.9553 37.0005 68.4578 37.2732C68.0598 37.4551 67.5623 37.3641 67.3633 37.0005C67.0648 36.7278 67.1643 36.2732 67.4628 36.0005C67.7613 35.7278 68.0598 35.455 68.3583 35.1823C68.9553 34.6369 69.3533 33.9096 69.5524 33.1823C69.6519 33.0005 69.6519 32.7277 69.6519 32.5459C69.6519 30.7277 69.6519 28.8186 69.6519 27.0004C69.6519 26.0004 69.3533 25.0913 68.6568 24.364C67.9603 23.5459 66.8658 23.0913 65.6718 23.1822V23.364C65.6718 23.8186 65.7713 24.2731 65.7713 24.7277C65.7713 27.7277 65.7713 30.7277 65.7713 33.8187C65.7713 34.7278 65.7713 35.5459 65.7713 36.455C65.7713 36.9096 65.3732 37.2732 64.8757 37.3641C64.6767 37.3641 64.5772 37.3641 64.4777 37.2732C64.1792 37.1823 63.9802 36.9096 63.9802 36.6369C63.9802 36.546 63.9802 36.3641 63.9802 36.2732C63.9802 32.3641 63.9802 28.5459 63.9802 24.6368C63.9802 24.1822 63.6817 23.7277 63.1842 23.5459C62.8857 23.4549 62.5872 23.364 62.2887 23.364V23.4549C62.2887 25.6368 62.2887 27.9095 62.2887 30.0914C62.2887 32.1823 62.2887 34.1823 62.2887 36.2732C62.2887 36.455 62.1892 36.7278 62.0897 36.9096C61.8907 37.2732 61.4926 37.3641 61.0946 37.2732C59.4031 36.7278 57.612 36.2732 55.9205 35.7278C55.025 35.455 54.428 34.7278 54.428 33.8187C54.428 33.3641 54.3285 32.9096 54.3285 32.455C54.3285 31.6368 54.3285 30.8186 54.3285 30.0914C54.3285 29.0004 54.9255 28.0004 55.9205 27.3641C57.3135 26.455 58.7066 25.5459 60.1991 24.7277C60.4976 24.5459 60.4976 24.364 60.2986 24.1822C59.8011 23.7277 59.2041 23.4549 58.5076 23.2731C58.3086 23.2731 58.01 23.1822 57.811 23.1822C56.219 23.1822 54.7265 23.1822 53.1344 23.1822C53.0349 23.1822 53.0349 23.1822 52.9354 23.1822V30.6368V36.1823C52.9354 36.6369 52.6369 37.0005 52.1394 37.0914C52.0399 37.0914 51.9404 37.0914 51.7414 37.0914C51.3434 37.0005 51.0449 36.7278 51.0449 36.3641C51.0449 36.0914 51.0449 35.8187 51.0449 35.5459C51.0449 35.3641 50.9454 35.2732 50.8459 35.1823C49.9503 34.7278 48.8558 34.455 47.7613 34.455C46.0697 34.455 44.4777 34.455 42.7862 34.455C42.2886 34.455 41.8906 34.0914 41.8906 33.6368C41.8906 33.455 41.8906 33.3641 41.9901 33.1823C42.0896 32.9096 42.3881 32.7277 42.7862 32.7277C44.7762 32.7277 46.7663 32.7277 48.7563 32.7277C49.4528 32.7277 50.1493 32.9096 50.8459 33.1823C50.9454 33.1823 50.9454 33.2732 51.0449 33.2732C51.0449 33.2732 51.0449 33.2732 51.1444 33.2732V26.9095C51.0449 26.9095 50.9454 26.9095 50.8459 26.9095C50.3483 26.9095 49.9503 27.0913 49.5523 27.3641C47.9603 28.3641 46.3682 29.2732 44.7762 30.2732C44.4777 30.5459 43.9802 30.5459 43.6817 30.1823L43.5822 30.0914C43.2837 29.7277 43.2837 29.1823 43.6817 28.9095C44.2787 28.5459 44.8757 28.1823 45.3732 27.8186C45.5722 27.7277 45.6717 27.5459 45.5722 27.455C45.5722 27.455 45.5722 27.455 45.5722 27.3641C44.9752 26.0004 44.4777 24.6368 43.8807 23.2731C43.8807 23.1822 43.6817 23.0913 43.5822 23.0913C43.2837 23.0913 43.0847 23.0913 42.7862 23.0913C42.2886 23.0913 41.8906 22.7277 41.8906 22.364C41.8906 22.364 41.8906 22.364 41.8906 22.2731C41.8906 21.8186 42.1891 21.4549 42.6866 21.4549C42.6866 21.4549 42.6866 21.4549 42.7862 21.4549C43.9802 21.4549 45.0747 21.364 46.2687 21.364C47.4628 21.2731 48.6568 21.364 49.8508 21.6368C50.2488 21.7277 50.6469 21.9095 51.1444 22.0004C51.1444 22.0004 51.1444 21.9095 51.2439 21.9095C51.4429 21.6367 51.7414 21.4549 52.0399 21.4549C54.428 21.4549 56.9155 21.4549 59.3036 21.4549C60.0996 21.4549 60.9951 21.4549 61.7911 21.4549C63.0847 21.4549 64.3782 21.4549 65.5723 21.4549C66.1693 21.4549 66.7663 21.4549 67.3633 21.4549C67.8608 21.4549 68.2588 21.4549 68.7563 21.4549C71.0449 21.4549 73.234 21.4549 75.5225 21.4549C76.3185 21.4549 77.1146 21.4549 78.0101 21.4549C78.2091 21.4549 78.3086 21.364 78.3086 21.1822C78.3086 20.8186 78.3086 20.5458 78.2091 20.1822C78.1096 19.6367 77.6121 19.2731 77.0151 19.2731C75.7215 19.2731 74.428 19.2731 73.1344 19.2731C72.1394 19.2731 71.1444 19.2731 70.0499 19.2731C69.5524 19.2731 69.1543 18.9095 69.0548 18.4549C69.0548 18.2731 69.0548 18.0913 69.1543 18.0004C69.3533 17.7276 69.6519 17.6367 69.9504 17.6367H76.7165C77.3136 17.6367 77.9106 17.7276 78.4081 18.0004C79.1046 18.364 79.7016 19.0004 79.8011 19.8186C79.9006 20.4549 80.0001 21.0004 80.0001 21.6368C80.0001 26.6368 80.0001 31.7277 80.0001 36.7278C80.0001 36.9096 80.0001 37.0914 79.9006 37.2732C79.7016 37.6369 79.3036 37.8187 78.8061 37.7278C78.4081 37.6369 78.1096 37.3641 78.1096 37.0005C78.1096 36.9096 78.1096 36.8187 78.1096 36.7278C78.1096 32.7277 78.1096 28.7277 78.1096 24.7277C78.1096 24.455 78.0101 24.1822 77.8111 24.0004C77.4131 23.4549 76.9155 23.2731 76.3185 23.2731ZM60.2986 26.455C60.0996 26.6368 59.9006 26.7277 59.7016 26.8186C58.8061 27.3641 57.811 27.9095 57.1145 28.6368C56.816 28.9095 56.617 29.1823 56.617 29.5459C56.5175 30.1823 56.418 30.8186 56.418 31.455C56.418 31.9096 56.5175 32.455 56.5175 32.9096C56.5175 33.6368 57.015 34.2732 57.811 34.3641C58.4081 34.5459 58.9056 34.7278 59.5026 34.9096C59.8011 35.0005 60.0001 35.0914 60.2986 35.1823V26.455ZM70.9454 23.0913C70.9454 23.1822 71.0449 23.2731 71.0449 23.2731C71.6419 23.9095 72.0399 24.6368 72.1394 25.455C72.3384 26.3641 72.3384 27.2732 72.3384 28.0913C72.3384 28.5459 72.3384 29.0004 72.3384 29.455C72.3384 29.6368 72.4379 29.8186 72.6369 29.9095C73.1344 30.1823 73.632 30.455 74.229 30.7277C74.3285 30.8186 74.428 30.8186 74.627 30.9095V30.6368C74.627 28.3641 74.627 26.0913 74.627 23.8186C74.627 23.5459 74.5275 23.364 74.3285 23.2731C74.1295 23.0913 73.831 23.0004 73.5325 23.0004C72.7364 22.9095 71.9404 23.0004 71.1444 22.9095C71.0449 23.0913 70.9454 23.0913 70.9454 23.0913ZM50.4478 24.5459C49.3533 23.0913 47.6618 23.0913 46.0697 23.0913L47.5623 26.2731L50.4478 24.5459Z" fill="#187E7D"/>
<path d="M12.3376 0C16.2182 0 19.4023 2.90911 19.4023 6.4546C19.4023 10.0001 16.2182 12.9092 12.3376 12.9092C8.45703 12.9092 5.27295 10.0001 5.27295 6.4546C5.27295 2.8182 8.45703 0 12.3376 0Z" fill="#CE2033"/>
<path d="M5.96973 12.2721L12.3379 3.72656C12.1389 4.0902 12.0394 4.45384 12.0394 4.90839L12.4374 6.99931V7.09023C12.6364 7.90841 12.7359 8.7266 12.7359 8.7266L13.2334 10.9993C13.4324 11.9994 13.2334 12.9994 12.6364 13.8175L9.65132 17.8176L8.6563 12.6357C8.35779 11.363 6.96475 11.0903 5.96973 12.2721Z" fill="#74C5B8"/>
<path d="M14.13 4.72764C14.0305 4.27309 14.13 3.81855 14.4285 3.364L15.0256 2.63672L14.2295 2.72763C13.334 2.90945 12.8365 3.00036 12.538 3.45491L2.58774 16.8186C2.48824 17.0914 2.28923 17.455 2.09023 17.7277C2.09023 17.7277 2.09023 17.7277 2.09023 17.8187C2.09023 17.8187 2.09023 17.8187 2.09023 17.9096C2.09023 18.0005 2.09023 18.0914 1.99072 18.0914L2.38873 18.0005C3.28426 17.8187 3.98077 17.3641 4.47829 16.7277L6.46834 14.0004C6.96585 13.2732 7.76187 12.8186 8.6574 12.6368L9.95093 12.3641C11.0455 12.1822 12.0405 11.5459 12.737 10.7277L13.732 9.36405C14.4285 8.45495 14.7271 7.27312 14.4285 6.1822L14.13 4.72764Z" fill="#187E7D"/>
<path d="M5.97016 12.2721L12.3383 3.72656C12.0398 4.0902 11.7413 4.27202 11.2438 4.36293L9.05474 4.81748H8.95524L7.16419 5.09021L5.57215 5.36294C4.47762 5.54476 3.58209 6.09022 2.98508 6.90841L0 10.9084L4.77613 10.0902C6.06966 9.90843 6.76618 10.9993 5.97016 12.2721Z" fill="#74C5B8"/>
<path d="M12.935 8.63569L12.6365 7.09023V6.99931L12.2385 4.90839C12.139 4.54475 12.338 4.0902 12.537 3.72656L6.06934 12.1812C7.06436 11.0903 8.4574 11.2721 8.6564 12.5448V12.7266L9.94994 12.4539C11.0445 12.2721 12.0395 11.6357 12.736 10.8175L13.134 10.1812L12.935 8.63569Z" fill="#187E7D"/>
<path d="M14.1301 4.6339C14.0306 4.17935 14.1301 3.7248 14.4286 3.27025L14.9261 2.54297L14.2296 2.63388C13.3341 2.8157 12.8365 2.90661 12.538 3.36116L12.339 3.54298C12.14 3.99753 12.0405 4.45208 12.0405 4.81572C12.14 5.08844 12.339 5.99754 12.4385 6.90664V6.99755L12.737 8.54302L13.0356 10.1794L13.6326 9.45211C14.3291 8.54302 14.6276 7.36119 14.3291 6.27027L14.1301 4.6339Z" fill="#A9D7C1"/>
</svg>
