<svg width="100" height="100" viewBox="0 0 100 100" fill="none" xmlns="http://www.w3.org/2000/svg">
<rect width="100" height="100" rx="13.2632" fill="white"/>
<path d="M50.0049 51.2336C59.1478 51.2336 66.6217 43.7597 66.6217 34.6168C66.6217 25.4739 59.1478 18 50.0049 18C40.8619 18 33.3882 25.4739 33.3882 34.6168C33.3882 43.7597 40.8621 51.2336 50.0049 51.2336Z" fill="#7AC19F"/>
<path d="M78.5218 64.5121C78.0863 63.4236 77.5059 62.4078 76.8529 61.4644C73.515 56.5301 68.3631 53.2649 62.5581 52.4667C61.8326 52.3942 61.0344 52.5392 60.4538 52.9746C57.4062 55.224 53.7781 56.385 50.0048 56.385C46.2315 56.385 42.6034 55.224 39.5558 52.9746C38.9752 52.5392 38.177 52.3215 37.4515 52.4667C31.6465 53.2649 26.422 56.5301 23.1568 61.4644C22.5037 62.4078 21.9232 63.4962 21.4879 64.5121C21.2702 64.9475 21.3427 65.4554 21.5604 65.8908C22.1409 66.9067 22.8665 67.9226 23.5195 68.7933C24.5354 70.1721 25.6238 71.4055 26.8575 72.5665C27.8733 73.5824 29.0343 74.5257 30.1954 75.469C35.9277 79.7503 42.8212 81.9996 49.9323 81.9996C57.0434 81.9996 63.9369 79.7501 69.6693 75.469C70.8302 74.5983 71.9912 73.5824 73.0072 72.5665C74.1681 71.4055 75.3291 70.1719 76.3451 68.7933C77.0706 67.85 77.7238 66.9067 78.3043 65.8908C78.6669 65.4554 78.7394 64.9474 78.5218 64.5121Z" fill="#187E7D"/>
</svg>
