<svg width="18" height="18" viewBox="0 0 18 18" fill="none" xmlns="http://www.w3.org/2000/svg">
<path d="M17.7645 9.26842C17.8993 9.11421 17.8993 8.88402 17.7645 8.7298L16.1192 6.84848C16.0454 6.76414 16.0095 6.65322 16.0197 6.54164L16.2489 4.05434C16.2677 3.85 16.1323 3.66333 15.9322 3.61787L13.5001 3.06544C13.3904 3.04051 13.2957 2.97147 13.2385 2.87456L11.9648 0.718047C11.8602 0.540879 11.6402 0.469002 11.4512 0.55019L9.16142 1.53344C9.05836 1.57769 8.94165 1.57769 8.83859 1.53344L6.54838 0.549994C6.35951 0.46889 6.13978 0.540527 6.03501 0.717368L4.76186 2.86623C4.7044 2.96322 4.60946 3.0322 4.49946 3.05688L2.06888 3.60224C1.86829 3.64725 1.73226 3.83413 1.75107 4.03884L1.98035 6.53394C1.99058 6.64524 1.95482 6.75588 1.88139 6.84014L0.234628 8.72987C0.100216 8.88411 0.100419 9.11394 0.235105 9.26794L1.88088 11.1498C1.95462 11.2341 1.99056 11.345 1.98031 11.4565L1.75098 13.9522C1.73221 14.1565 1.86767 14.3431 2.06774 14.3885L4.50019 14.941C4.60976 14.9659 4.70426 15.0348 4.76153 15.1314L6.03455 17.2801C6.13952 17.4573 6.35983 17.5288 6.54885 17.4471L8.83821 16.4573C8.94148 16.4126 9.05859 16.4125 9.16197 16.4568L11.4516 17.4401C11.6405 17.5212 11.8602 17.4495 11.965 17.2727L13.2385 15.1233C13.2957 15.0266 13.3902 14.9577 13.4998 14.9329L15.9322 14.3804C16.1323 14.3349 16.2677 14.1482 16.2489 13.9439L16.0197 11.4566C16.0095 11.345 16.0454 11.2341 16.1192 11.1497L17.7645 9.26842ZM6.85636 12.28L4.90909 10.3164C4.83324 10.2407 4.77307 10.1508 4.73201 10.0518C4.69095 9.95283 4.66982 9.84672 4.66982 9.73957C4.66982 9.63241 4.69095 9.52631 4.73201 9.42733C4.77307 9.32835 4.83324 9.23844 4.90909 9.16275L4.96636 9.10548C5.28546 8.78639 5.80909 8.78639 6.12818 9.10548L7.15591 10.1396C7.31563 10.3003 7.57556 10.3006 7.73562 10.1402L11.6591 6.20911C11.9782 5.89002 12.5018 5.89002 12.8209 6.20911L12.8782 6.26639C13.1973 6.58548 13.1973 7.10093 12.8782 7.42002L8.03455 12.28C7.69909 12.5991 7.18364 12.5991 6.85636 12.28Z" fill="#0E8F60"/>
</svg>
