<svg width="60" height="58" viewBox="0 0 60 58" fill="none" xmlns="http://www.w3.org/2000/svg">
<path d="M59.6123 30.0111C60.1201 29.4327 60.1201 28.5673 59.6123 27.9889L54.1696 21.7899C53.8919 21.4735 53.7565 21.0568 53.7953 20.6376L54.5534 12.4419C54.6243 11.6758 54.1161 10.9759 53.3656 10.8061L45.3112 8.98369C44.9005 8.89075 44.546 8.63286 44.3312 8.2706L40.1126 1.15585C39.7204 0.494421 38.8988 0.226052 38.1918 0.528463L30.6027 3.7746C30.2178 3.93924 29.7822 3.93924 29.3973 3.7746L21.8065 0.52773C21.1002 0.225634 20.2794 0.493106 19.8867 1.15331L15.6701 8.24247C15.4545 8.605 15.099 8.86262 14.6873 8.95463L6.63829 10.7536C5.88605 10.9217 5.37575 11.6224 5.44656 12.3899L6.20504 20.6118C6.24362 21.0299 6.10893 21.4456 5.83244 21.7616L0.384326 27.9892C-0.121792 28.5677 -0.121025 29.4316 0.386119 30.0093L5.83051 36.2103C6.10817 36.5266 6.24356 36.9431 6.2049 37.3622L5.44623 45.586C5.37557 46.352 5.88374 47.0517 6.63403 47.2215L14.69 49.0442C15.1001 49.137 15.454 49.3941 15.6689 49.7555L19.885 56.8438C20.2785 57.5053 21.1014 57.7723 21.8083 57.4679L29.3959 54.2002C29.7816 54.034 30.2186 54.0335 30.6047 54.1987L38.1935 57.4446C38.8998 57.7467 39.7206 57.4793 40.1133 56.8191L44.3311 49.7279C44.546 49.3665 44.8999 49.1094 45.31 49.0166L53.3656 47.1939C54.1161 47.0241 54.6243 46.3242 54.5534 45.5581L53.7953 37.3624C53.7565 36.9432 53.8919 36.5265 54.1696 36.2101L59.6123 30.0111ZM22.7355 40.0752L16.1364 33.4467C15.8793 33.1912 15.6754 32.8876 15.5363 32.5535C15.3971 32.2194 15.3255 31.8612 15.3255 31.4995C15.3255 31.1378 15.3971 30.7796 15.5363 30.4455C15.6754 30.1114 15.8793 29.8079 16.1364 29.5524L16.3305 29.359C17.4118 28.2819 19.1864 28.2819 20.2677 29.359L23.6493 32.7483C24.2471 33.3475 25.2176 33.3486 25.8167 32.7506L39.0114 19.5819C40.0927 18.5048 41.8673 18.5048 42.9486 19.5819L43.1427 19.7752C44.2241 20.8524 44.2241 22.5924 43.1427 23.6695L26.7282 40.0752C25.5914 41.1524 23.8445 41.1524 22.7355 40.0752Z" fill="#0E8F60"/>
</svg>
