<svg width="16" height="16" viewBox="0 0 16 16" fill="none" xmlns="http://www.w3.org/2000/svg">
<path d="M10.0809 0C13.2265 0 15.777 2.5505 15.777 5.69611C15.777 8.84173 13.2265 11.3922 10.0809 11.3922C6.93526 11.3922 4.38477 8.84173 4.38477 5.69611C4.38477 2.5505 6.93526 0 10.0809 0Z" fill="#CE2033"/>
<path d="M4.9458 10.8308L10.0638 3.29834C9.87676 3.6044 9.79175 3.96147 9.82575 4.33554L10.1658 6.1719C10.1658 6.20591 10.1828 6.23992 10.1828 6.25692C10.3188 7.00507 10.4549 7.66819 10.4549 7.66819C10.4549 7.6852 10.4549 7.6852 10.4549 7.7022L10.8289 9.69159C10.999 10.5588 10.8119 11.4429 10.3188 12.1741L7.90438 15.7108L7.03721 11.1709C6.83317 10.0147 5.71095 9.84462 4.9458 10.8308Z" fill="#74C5B8"/>
<path d="M11.4925 4.16612C11.4075 3.75804 11.5095 3.33296 11.7305 2.99289L12.1556 2.36377L11.5605 2.48279C10.8803 2.61882 10.4383 2.75485 10.1832 3.12892L2.12364 14.9462C2.02162 15.2183 1.88559 15.4733 1.74957 15.7114C1.74957 15.7284 1.73256 15.7454 1.73256 15.7624C1.73256 15.7794 1.73256 15.7964 1.71556 15.8134C1.69856 15.8814 1.68155 15.9324 1.66455 16.0004L1.97061 15.9494C2.65074 15.8134 3.26286 15.4223 3.65394 14.8442L5.26925 12.4808C5.69434 11.8686 6.34046 11.4435 7.07161 11.3075L8.14282 11.1035C9.04399 10.9334 9.84315 10.4063 10.3532 9.6582L11.1524 8.46797C11.7135 7.6348 11.9346 6.6146 11.7475 5.62841L11.4925 4.16612Z" fill="#187E7D"/>
<path d="M4.94594 10.8308L10.0639 3.29834C9.8429 3.5874 9.53684 3.80844 9.19678 3.89346L7.36042 4.23352C7.32641 4.23352 7.2924 4.25053 7.2754 4.25053L5.86412 4.52258H5.83012L4.55487 4.76063C3.6877 4.93066 2.93955 5.42376 2.44645 6.1549L0.0319824 9.69159L3.85773 8.96045C4.99695 8.75641 5.57507 9.7426 4.94594 10.8308Z" fill="#74C5B8"/>
<path d="M10.4889 7.63378L10.2168 6.23951C10.2168 6.22251 10.2168 6.1885 10.1998 6.1545L9.85978 4.33514C9.82577 3.97807 9.89378 3.621 10.0978 3.31494L4.99683 10.8134C5.76198 9.84422 6.8842 9.99725 7.10524 11.1365L7.12224 11.2725H7.13925L8.19345 11.0685C9.09463 10.8984 9.89379 10.3713 10.4039 9.62317L10.761 9.09607L10.4889 7.68479C10.5059 7.65079 10.4889 7.63378 10.4889 7.63378Z" fill="#187E7D"/>
<path d="M11.492 4.13194C11.407 3.72386 11.509 3.29878 11.7301 2.95871L12.1552 2.32959L11.56 2.44861C10.8799 2.58464 10.4378 2.72067 10.1998 3.09474L10.0637 3.28178C9.87671 3.58784 9.79169 3.94491 9.8257 4.30198C9.87671 4.55702 10.0297 5.37319 10.1658 6.12133C10.1658 6.15534 10.1828 6.18934 10.1828 6.20635L10.4548 7.60062C10.4548 7.61762 10.4548 7.61762 10.4548 7.63463L10.7269 9.0459L11.169 8.39978C11.7301 7.56661 11.9511 6.54641 11.7641 5.56022L11.492 4.13194Z" fill="#A9D7C1"/>
</svg>
