<svg width="161" height="54" viewBox="0 0 161 54" fill="none" xmlns="http://www.w3.org/2000/svg">
<rect x="0.669913" y="0.669913" width="159.439" height="52.2532" rx="10.0487" fill="black"/>
<rect x="0.669913" y="0.669913" width="159.439" height="52.2532" rx="10.0487" stroke="#187E7D" stroke-width="1.33983"/>
<path d="M32.3811 25.1017C32.3974 23.8691 32.7327 22.6607 33.3559 21.5887C33.9791 20.5167 34.8699 19.616 35.9455 18.9705C35.2622 18.0178 34.3608 17.2338 33.3129 16.6807C32.265 16.1276 31.0994 15.8207 29.9088 15.7843C27.3689 15.524 24.9066 17.2681 23.6123 17.2681C22.293 17.2681 20.3003 15.8101 18.1544 15.8532C16.7664 15.897 15.4137 16.2911 14.2281 16.997C13.0424 17.7029 12.0643 18.6967 11.389 19.8814C8.46391 24.8259 10.6458 32.0926 13.4479 36.0894C14.8498 38.0465 16.4883 40.2326 18.6322 40.1551C20.7302 40.0702 21.5137 38.849 24.0461 38.849C26.555 38.849 27.2901 40.1551 29.4776 40.1058C31.7288 40.0702 33.1471 38.14 34.4999 36.1644C35.5072 34.7699 36.2823 33.2287 36.7965 31.5978C35.4886 31.0577 34.3725 30.1537 33.5874 28.9985C32.8022 27.8434 32.3827 26.4881 32.3811 25.1017Z" fill="white"/>
<path d="M28.2503 13.1545C29.4777 11.7159 30.0825 9.86685 29.936 8C28.0608 8.19229 26.3286 9.0673 25.0845 10.4507C24.4763 11.1265 24.0104 11.9127 23.7136 12.7644C23.4168 13.6161 23.2948 14.5166 23.3546 15.4143C24.2926 15.4238 25.2205 15.2253 26.0685 14.8338C26.9166 14.4424 27.6625 13.8682 28.2503 13.1545Z" fill="white"/>
<path d="M49.2734 18.0352C49.2067 18.0352 49.1734 18.0018 49.1734 17.9352V11.1352C49.1734 11.0685 49.2067 11.0352 49.2734 11.0352H51.6334C52.2934 11.0352 52.8167 11.2085 53.2034 11.5552C53.5967 11.9018 53.7934 12.3718 53.7934 12.9652V16.1052C53.7934 16.6985 53.5967 17.1685 53.2034 17.5152C52.8167 17.8618 52.2934 18.0352 51.6334 18.0352H49.2734ZM49.8834 17.3752C49.8834 17.4018 49.8967 17.4152 49.9234 17.4152H51.6634C52.0967 17.4152 52.4401 17.2885 52.6934 17.0352C52.9534 16.7818 53.0834 16.4418 53.0834 16.0152V13.0652C53.0834 12.6318 52.9567 12.2885 52.7034 12.0352C52.4501 11.7818 52.1034 11.6552 51.6634 11.6552H49.9234C49.8967 11.6552 49.8834 11.6685 49.8834 11.6952V17.3752ZM57.145 18.1152C56.665 18.1152 56.2517 17.9918 55.905 17.7452C55.5584 17.4985 55.3184 17.1585 55.185 16.7252C55.0917 16.4185 55.045 16.0085 55.045 15.4952C55.045 14.9818 55.0917 14.5752 55.185 14.2752C55.3117 13.8485 55.5484 13.5118 55.895 13.2652C56.2417 13.0185 56.6617 12.8952 57.155 12.8952C57.6284 12.8952 58.035 13.0185 58.375 13.2652C58.7217 13.5118 58.9584 13.8452 59.085 14.2652C59.1784 14.5518 59.225 14.9618 59.225 15.4952C59.225 16.0352 59.1784 16.4452 59.085 16.7252C58.9584 17.1585 58.7217 17.4985 58.375 17.7452C58.035 17.9918 57.625 18.1152 57.145 18.1152ZM57.145 17.4952C57.465 17.4952 57.7384 17.4085 57.965 17.2352C58.1917 17.0552 58.345 16.8152 58.425 16.5152C58.485 16.2752 58.515 15.9385 58.515 15.5052C58.515 15.0652 58.4884 14.7285 58.435 14.4952C58.355 14.1952 58.1984 13.9585 57.965 13.7852C57.7384 13.6052 57.4617 13.5152 57.135 13.5152C56.8084 13.5152 56.5317 13.6052 56.305 13.7852C56.0784 13.9585 55.925 14.1952 55.845 14.4952C55.7917 14.7285 55.765 15.0652 55.765 15.5052C55.765 15.9452 55.7917 16.2818 55.845 16.5152C55.9184 16.8152 56.0684 17.0552 56.295 17.2352C56.5284 17.4085 56.8117 17.4952 57.145 17.4952ZM61.5189 18.0352C61.4656 18.0352 61.4289 18.0085 61.4089 17.9552L59.9889 13.0852L59.9789 13.0552C59.9789 13.0018 60.0123 12.9752 60.0789 12.9752H60.5989C60.6589 12.9752 60.6956 13.0052 60.7089 13.0652L61.7689 17.0052C61.7756 17.0185 61.7823 17.0252 61.7889 17.0252C61.8023 17.0252 61.8123 17.0185 61.8189 17.0052L62.8989 13.0652C62.9123 13.0052 62.9489 12.9752 63.0089 12.9752H63.4889C63.5489 12.9752 63.5856 13.0018 63.5989 13.0552L64.6889 16.9952C64.6956 17.0085 64.7056 17.0152 64.7189 17.0152C64.7323 17.0152 64.7423 17.0085 64.7489 16.9952L65.8389 13.0652C65.8523 13.0052 65.8889 12.9752 65.9489 12.9752L66.4689 12.9852C66.5023 12.9852 66.5256 12.9952 66.5389 13.0152C66.5589 13.0352 66.5656 13.0618 66.5589 13.0952L65.1189 17.9552C65.0989 18.0085 65.0623 18.0352 65.0089 18.0352H64.4789C64.4256 18.0352 64.3889 18.0085 64.3689 17.9552L63.2789 14.2152C63.2723 14.2018 63.2623 14.1952 63.2489 14.1952C63.2423 14.1952 63.2356 14.2018 63.2289 14.2152L62.1689 17.9552C62.1489 18.0085 62.1123 18.0352 62.0589 18.0352H61.5189ZM69.776 12.9052C70.3093 12.9052 70.7326 13.0618 71.046 13.3752C71.366 13.6885 71.526 14.1085 71.526 14.6352V17.9352C71.526 18.0018 71.4926 18.0352 71.426 18.0352H70.916C70.8493 18.0352 70.816 18.0018 70.816 17.9352V14.7752C70.816 14.4085 70.7026 14.1085 70.476 13.8752C70.256 13.6418 69.9693 13.5252 69.616 13.5252C69.2493 13.5252 68.9526 13.6385 68.726 13.8652C68.4993 14.0918 68.386 14.3885 68.386 14.7552V17.9352C68.386 18.0018 68.3526 18.0352 68.286 18.0352H67.776C67.7093 18.0352 67.676 18.0018 67.676 17.9352V13.0752C67.676 13.0085 67.7093 12.9752 67.776 12.9752H68.286C68.3526 12.9752 68.386 13.0085 68.386 13.0752V13.5052C68.386 13.5185 68.3893 13.5285 68.396 13.5352C68.4093 13.5418 68.4193 13.5385 68.426 13.5252C68.7193 13.1118 69.1693 12.9052 69.776 12.9052ZM73.1666 18.0352C73.0999 18.0352 73.0666 18.0018 73.0666 17.9352V11.1352C73.0666 11.0685 73.0999 11.0352 73.1666 11.0352H73.6766C73.7433 11.0352 73.7766 11.0685 73.7766 11.1352V17.9352C73.7766 18.0018 73.7433 18.0352 73.6766 18.0352H73.1666ZM77.3013 18.1152C76.8213 18.1152 76.408 17.9918 76.0613 17.7452C75.7146 17.4985 75.4746 17.1585 75.3413 16.7252C75.248 16.4185 75.2013 16.0085 75.2013 15.4952C75.2013 14.9818 75.248 14.5752 75.3413 14.2752C75.468 13.8485 75.7046 13.5118 76.0513 13.2652C76.398 13.0185 76.818 12.8952 77.3113 12.8952C77.7846 12.8952 78.1913 13.0185 78.5313 13.2652C78.878 13.5118 79.1146 13.8452 79.2413 14.2652C79.3346 14.5518 79.3813 14.9618 79.3813 15.4952C79.3813 16.0352 79.3346 16.4452 79.2413 16.7252C79.1146 17.1585 78.878 17.4985 78.5313 17.7452C78.1913 17.9918 77.7813 18.1152 77.3013 18.1152ZM77.3013 17.4952C77.6213 17.4952 77.8946 17.4085 78.1213 17.2352C78.348 17.0552 78.5013 16.8152 78.5813 16.5152C78.6413 16.2752 78.6713 15.9385 78.6713 15.5052C78.6713 15.0652 78.6446 14.7285 78.5913 14.4952C78.5113 14.1952 78.3546 13.9585 78.1213 13.7852C77.8946 13.6052 77.618 13.5152 77.2913 13.5152C76.9646 13.5152 76.688 13.6052 76.4613 13.7852C76.2346 13.9585 76.0813 14.1952 76.0013 14.4952C75.948 14.7285 75.9213 15.0652 75.9213 15.5052C75.9213 15.9452 75.948 16.2818 76.0013 16.5152C76.0746 16.8152 76.2246 17.0552 76.4513 17.2352C76.6846 17.4085 76.968 17.4952 77.3013 17.4952ZM82.5705 12.8952C83.1705 12.8952 83.6338 13.0485 83.9605 13.3552C84.2872 13.6618 84.4505 14.0685 84.4505 14.5752V17.9352C84.4505 18.0018 84.4172 18.0352 84.3505 18.0352H83.8405C83.7738 18.0352 83.7405 18.0018 83.7405 17.9352V17.5252C83.7405 17.5118 83.7338 17.5018 83.7205 17.4952C83.7138 17.4885 83.7038 17.4918 83.6905 17.5052C83.5238 17.7052 83.3072 17.8585 83.0405 17.9652C82.7738 18.0652 82.4772 18.1152 82.1505 18.1152C81.6772 18.1152 81.2805 17.9952 80.9605 17.7552C80.6405 17.5152 80.4805 17.1485 80.4805 16.6552C80.4805 16.1552 80.6605 15.7618 81.0205 15.4752C81.3872 15.1818 81.8938 15.0352 82.5405 15.0352H83.7005C83.7272 15.0352 83.7405 15.0218 83.7405 14.9952V14.6152C83.7405 14.2752 83.6438 14.0085 83.4505 13.8152C83.2638 13.6152 82.9705 13.5152 82.5705 13.5152C82.2505 13.5152 81.9905 13.5785 81.7905 13.7052C81.5905 13.8252 81.4672 13.9952 81.4205 14.2152C81.4005 14.2818 81.3605 14.3118 81.3005 14.3052L80.7605 14.2352C80.6872 14.2218 80.6572 14.1952 80.6705 14.1552C80.7238 13.7818 80.9238 13.4785 81.2705 13.2452C81.6172 13.0118 82.0505 12.8952 82.5705 12.8952ZM82.2905 17.5052C82.6838 17.5052 83.0238 17.4085 83.3105 17.2152C83.5972 17.0152 83.7405 16.7485 83.7405 16.4152V15.6352C83.7405 15.6085 83.7272 15.5952 83.7005 15.5952H82.6505C82.2105 15.5952 81.8572 15.6852 81.5905 15.8652C81.3238 16.0452 81.1905 16.2952 81.1905 16.6152C81.1905 16.9085 81.2905 17.1318 81.4905 17.2852C81.6972 17.4318 81.9638 17.5052 82.2905 17.5052ZM89.0679 11.1352C89.0679 11.0685 89.1013 11.0352 89.1679 11.0352H89.6779C89.7446 11.0352 89.7779 11.0685 89.7779 11.1352V17.9352C89.7779 18.0018 89.7446 18.0352 89.6779 18.0352H89.1679C89.1013 18.0352 89.0679 18.0018 89.0679 17.9352V17.5152C89.0679 17.5018 89.0613 17.4952 89.0479 17.4952C89.0413 17.4885 89.0313 17.4918 89.0179 17.5052C88.8713 17.6985 88.6879 17.8485 88.4679 17.9552C88.2546 18.0618 88.0146 18.1152 87.7479 18.1152C87.2813 18.1152 86.8879 17.9952 86.5679 17.7552C86.2546 17.5152 86.0379 17.1885 85.9179 16.7752C85.8246 16.4752 85.7779 16.0518 85.7779 15.5052C85.7779 14.9518 85.8179 14.5385 85.8979 14.2652C86.0179 13.8385 86.2379 13.5052 86.5579 13.2652C86.8779 13.0185 87.2746 12.8952 87.7479 12.8952C88.0079 12.8952 88.2479 12.9485 88.4679 13.0552C88.6879 13.1552 88.8713 13.3018 89.0179 13.4952C89.0313 13.5085 89.0413 13.5152 89.0479 13.5152C89.0613 13.5085 89.0679 13.4985 89.0679 13.4852V11.1352ZM88.8879 16.7252C88.9479 16.5918 88.9913 16.4352 89.0179 16.2552C89.0446 16.0752 89.0579 15.8252 89.0579 15.5052C89.0579 15.1852 89.0446 14.9352 89.0179 14.7552C88.9913 14.5685 88.9446 14.4052 88.8779 14.2652C88.7979 14.0385 88.6646 13.8585 88.4779 13.7252C88.2979 13.5852 88.0813 13.5152 87.8279 13.5152C87.5613 13.5152 87.3313 13.5818 87.1379 13.7152C86.9446 13.8485 86.8046 14.0252 86.7179 14.2452C86.6379 14.3918 86.5779 14.5585 86.5379 14.7452C86.5046 14.9252 86.4879 15.1785 86.4879 15.5052C86.4879 15.8185 86.5013 16.0652 86.5279 16.2452C86.5546 16.4185 86.6013 16.5752 86.6679 16.7152C86.7479 16.9552 86.8879 17.1452 87.0879 17.2852C87.2946 17.4252 87.5379 17.4952 87.8179 17.4952C88.0846 17.4952 88.3079 17.4252 88.4879 17.2852C88.6679 17.1452 88.8013 16.9585 88.8879 16.7252ZM95.3189 18.1152C94.8389 18.1152 94.4255 17.9918 94.0789 17.7452C93.7322 17.4985 93.4922 17.1585 93.3589 16.7252C93.2655 16.4185 93.2189 16.0085 93.2189 15.4952C93.2189 14.9818 93.2655 14.5752 93.3589 14.2752C93.4855 13.8485 93.7222 13.5118 94.0689 13.2652C94.4155 13.0185 94.8355 12.8952 95.3289 12.8952C95.8022 12.8952 96.2089 13.0185 96.5489 13.2652C96.8955 13.5118 97.1322 13.8452 97.2589 14.2652C97.3522 14.5518 97.3989 14.9618 97.3989 15.4952C97.3989 16.0352 97.3522 16.4452 97.2589 16.7252C97.1322 17.1585 96.8955 17.4985 96.5489 17.7452C96.2089 17.9918 95.7989 18.1152 95.3189 18.1152ZM95.3189 17.4952C95.6389 17.4952 95.9122 17.4085 96.1389 17.2352C96.3655 17.0552 96.5189 16.8152 96.5989 16.5152C96.6589 16.2752 96.6889 15.9385 96.6889 15.5052C96.6889 15.0652 96.6622 14.7285 96.6089 14.4952C96.5289 14.1952 96.3722 13.9585 96.1389 13.7852C95.9122 13.6052 95.6355 13.5152 95.3089 13.5152C94.9822 13.5152 94.7055 13.6052 94.4789 13.7852C94.2522 13.9585 94.0989 14.1952 94.0189 14.4952C93.9655 14.7285 93.9389 15.0652 93.9389 15.5052C93.9389 15.9452 93.9655 16.2818 94.0189 16.5152C94.0922 16.8152 94.2422 17.0552 94.4689 17.2352C94.7022 17.4085 94.9855 17.4952 95.3189 17.4952ZM100.938 12.9052C101.471 12.9052 101.895 13.0618 102.208 13.3752C102.528 13.6885 102.688 14.1085 102.688 14.6352V17.9352C102.688 18.0018 102.655 18.0352 102.588 18.0352H102.078C102.011 18.0352 101.978 18.0018 101.978 17.9352V14.7752C101.978 14.4085 101.865 14.1085 101.638 13.8752C101.418 13.6418 101.131 13.5252 100.778 13.5252C100.411 13.5252 100.115 13.6385 99.8881 13.8652C99.6614 14.0918 99.5481 14.3885 99.5481 14.7552V17.9352C99.5481 18.0018 99.5148 18.0352 99.4481 18.0352H98.9381C98.8714 18.0352 98.8381 18.0018 98.8381 17.9352V13.0752C98.8381 13.0085 98.8714 12.9752 98.9381 12.9752H99.4481C99.5148 12.9752 99.5481 13.0085 99.5481 13.0752V13.5052C99.5481 13.5185 99.5514 13.5285 99.5581 13.5352C99.5714 13.5418 99.5814 13.5385 99.5881 13.5252C99.8814 13.1118 100.331 12.9052 100.938 12.9052ZM108.501 13.4652C108.501 13.5318 108.467 13.5652 108.401 13.5652H107.271C107.244 13.5652 107.231 13.5785 107.231 13.6052V16.5552C107.231 16.8752 107.301 17.1018 107.441 17.2352C107.587 17.3618 107.814 17.4252 108.121 17.4252H108.371C108.437 17.4252 108.471 17.4585 108.471 17.5252V17.9352C108.471 18.0018 108.437 18.0352 108.371 18.0352C108.291 18.0418 108.167 18.0452 108.001 18.0452C107.521 18.0452 107.157 17.9552 106.911 17.7752C106.664 17.5952 106.541 17.2618 106.541 16.7752V13.6052C106.541 13.5785 106.527 13.5652 106.501 13.5652H105.891C105.824 13.5652 105.791 13.5318 105.791 13.4652V13.0752C105.791 13.0085 105.824 12.9752 105.891 12.9752H106.501C106.527 12.9752 106.541 12.9618 106.541 12.9352V11.7752C106.541 11.7085 106.574 11.6752 106.641 11.6752H107.131C107.197 11.6752 107.231 11.7085 107.231 11.7752V12.9352C107.231 12.9618 107.244 12.9752 107.271 12.9752H108.401C108.467 12.9752 108.501 13.0085 108.501 13.0752V13.4652ZM111.973 12.9052C112.507 12.9052 112.93 13.0618 113.243 13.3752C113.563 13.6885 113.723 14.1085 113.723 14.6352V17.9352C113.723 18.0018 113.69 18.0352 113.623 18.0352H113.113C113.047 18.0352 113.013 18.0018 113.013 17.9352V14.7752C113.013 14.4085 112.9 14.1085 112.673 13.8752C112.453 13.6418 112.167 13.5252 111.813 13.5252C111.447 13.5252 111.15 13.6385 110.923 13.8652C110.697 14.0918 110.583 14.3885 110.583 14.7552V17.9352C110.583 18.0018 110.55 18.0352 110.483 18.0352H109.973C109.907 18.0352 109.873 18.0018 109.873 17.9352V11.1352C109.873 11.0685 109.907 11.0352 109.973 11.0352H110.483C110.55 11.0352 110.583 11.0685 110.583 11.1352V13.5052C110.583 13.5185 110.587 13.5285 110.593 13.5352C110.607 13.5418 110.617 13.5385 110.623 13.5252C110.917 13.1118 111.367 12.9052 111.973 12.9052ZM119.076 14.6552C119.102 14.8418 119.116 15.0752 119.116 15.3552V15.6752C119.116 15.7418 119.082 15.7752 119.016 15.7752H115.786C115.759 15.7752 115.746 15.7885 115.746 15.8152C115.759 16.1818 115.779 16.4185 115.806 16.5252C115.879 16.8252 116.036 17.0618 116.276 17.2352C116.516 17.4085 116.822 17.4952 117.196 17.4952C117.476 17.4952 117.722 17.4318 117.936 17.3052C118.149 17.1785 118.316 16.9985 118.436 16.7652C118.476 16.7052 118.522 16.6918 118.576 16.7252L118.966 16.9552C119.019 16.9885 119.032 17.0352 119.006 17.0952C118.839 17.4152 118.589 17.6685 118.256 17.8552C117.922 18.0352 117.539 18.1252 117.106 18.1252C116.632 18.1185 116.236 18.0052 115.916 17.7852C115.596 17.5652 115.366 17.2585 115.226 16.8652C115.106 16.5452 115.046 16.0852 115.046 15.4852C115.046 15.2052 115.049 14.9785 115.056 14.8052C115.069 14.6252 115.096 14.4652 115.136 14.3252C115.249 13.8918 115.476 13.5452 115.816 13.2852C116.162 13.0252 116.579 12.8952 117.066 12.8952C117.672 12.8952 118.139 13.0485 118.466 13.3552C118.792 13.6618 118.996 14.0952 119.076 14.6552ZM117.066 13.5152C116.739 13.5152 116.466 13.6018 116.246 13.7752C116.032 13.9418 115.892 14.1685 115.826 14.4552C115.786 14.5952 115.759 14.8218 115.746 15.1352C115.746 15.1618 115.759 15.1752 115.786 15.1752H118.376C118.402 15.1752 118.416 15.1618 118.416 15.1352C118.402 14.8352 118.382 14.6218 118.356 14.4952C118.282 14.1952 118.132 13.9585 117.906 13.7852C117.686 13.6052 117.406 13.5152 117.066 13.5152Z" fill="white"/>
<path d="M58.3734 39.0352C58.2534 39.0352 58.1734 38.9818 58.1334 38.8752L57.4134 36.5352C57.4001 36.4952 57.3734 36.4752 57.3334 36.4752H51.7134C51.6734 36.4752 51.6467 36.4952 51.6334 36.5352L50.9134 38.8752C50.8734 38.9818 50.7934 39.0352 50.6734 39.0352H49.0534C48.9067 39.0352 48.8534 38.9618 48.8934 38.8152L53.2734 25.1952C53.3134 25.0885 53.3934 25.0352 53.5134 25.0352H55.5134C55.6334 25.0352 55.7134 25.0885 55.7534 25.1952L60.1734 38.8152L60.1934 38.8952C60.1934 38.9885 60.1334 39.0352 60.0134 39.0352H58.3734ZM52.1334 34.8552C52.1201 34.8818 52.1201 34.9085 52.1334 34.9352C52.1601 34.9485 52.1867 34.9552 52.2134 34.9552H56.8134C56.8401 34.9552 56.8601 34.9485 56.8734 34.9352C56.9001 34.9085 56.9067 34.8818 56.8934 34.8552L54.5734 27.4352C54.5601 27.4085 54.5401 27.3952 54.5134 27.3952C54.4867 27.3952 54.4667 27.4085 54.4534 27.4352L52.1334 34.8552ZM69.8613 31.4152C70.1147 32.1352 70.2413 32.9885 70.2413 33.9752C70.2413 34.9085 70.1347 35.7152 69.9213 36.3952C69.6413 37.2885 69.1813 37.9818 68.5413 38.4752C67.9013 38.9552 67.0813 39.1952 66.0813 39.1952C65.628 39.1952 65.1947 39.1085 64.7813 38.9352C64.3813 38.7485 64.0347 38.4885 63.7413 38.1552C63.7147 38.1285 63.688 38.1218 63.6613 38.1352C63.648 38.1485 63.6413 38.1685 63.6413 38.1952V42.6552C63.6413 42.7885 63.5747 42.8552 63.4413 42.8552H61.9213C61.788 42.8552 61.7213 42.7885 61.7213 42.6552V29.0552C61.7213 28.9218 61.788 28.8552 61.9213 28.8552H63.4413C63.5747 28.8552 63.6413 28.9218 63.6413 29.0552V29.7152C63.6413 29.7418 63.648 29.7618 63.6613 29.7752C63.688 29.7885 63.7147 29.7818 63.7413 29.7552C64.0347 29.4218 64.3813 29.1618 64.7813 28.9752C65.1813 28.7885 65.6147 28.6952 66.0813 28.6952C67.0413 28.6952 67.8347 28.9352 68.4613 29.4152C69.1013 29.8818 69.568 30.5485 69.8613 31.4152ZM67.6613 36.5752C68.088 35.9352 68.3013 35.0552 68.3013 33.9352C68.3013 32.9085 68.1347 32.0818 67.8013 31.4552C67.4147 30.7218 66.7813 30.3552 65.9013 30.3552C65.128 30.3552 64.5413 30.7152 64.1413 31.4352C63.8213 32.0085 63.6613 32.8485 63.6613 33.9552C63.6613 35.0752 63.8347 35.9285 64.1813 36.5152C64.568 37.1952 65.1347 37.5352 65.8813 37.5352C66.6813 37.5352 67.2747 37.2152 67.6613 36.5752ZM80.384 31.4152C80.6373 32.1352 80.764 32.9885 80.764 33.9752C80.764 34.9085 80.6573 35.7152 80.444 36.3952C80.164 37.2885 79.704 37.9818 79.064 38.4752C78.424 38.9552 77.604 39.1952 76.604 39.1952C76.1506 39.1952 75.7173 39.1085 75.304 38.9352C74.904 38.7485 74.5573 38.4885 74.264 38.1552C74.2373 38.1285 74.2106 38.1218 74.184 38.1352C74.1706 38.1485 74.164 38.1685 74.164 38.1952V42.6552C74.164 42.7885 74.0973 42.8552 73.964 42.8552H72.444C72.3106 42.8552 72.244 42.7885 72.244 42.6552V29.0552C72.244 28.9218 72.3106 28.8552 72.444 28.8552H73.964C74.0973 28.8552 74.164 28.9218 74.164 29.0552V29.7152C74.164 29.7418 74.1706 29.7618 74.184 29.7752C74.2106 29.7885 74.2373 29.7818 74.264 29.7552C74.5573 29.4218 74.904 29.1618 75.304 28.9752C75.704 28.7885 76.1373 28.6952 76.604 28.6952C77.564 28.6952 78.3573 28.9352 78.984 29.4152C79.624 29.8818 80.0906 30.5485 80.384 31.4152ZM78.184 36.5752C78.6106 35.9352 78.824 35.0552 78.824 33.9352C78.824 32.9085 78.6573 32.0818 78.324 31.4552C77.9373 30.7218 77.304 30.3552 76.424 30.3552C75.6506 30.3552 75.064 30.7152 74.664 31.4352C74.344 32.0085 74.184 32.8485 74.184 33.9552C74.184 35.0752 74.3573 35.9285 74.704 36.5152C75.0906 37.1952 75.6573 37.5352 76.404 37.5352C77.204 37.5352 77.7973 37.2152 78.184 36.5752ZM90.5808 39.1952C89.5541 39.1952 88.6608 39.0352 87.9008 38.7152C87.1541 38.3952 86.5741 37.9418 86.1608 37.3552C85.7608 36.7685 85.5608 36.0818 85.5608 35.2952V34.7152C85.5608 34.5818 85.6274 34.5152 85.7608 34.5152H87.2208C87.3541 34.5152 87.4208 34.5818 87.4208 34.7152V35.1952C87.4208 35.8752 87.7141 36.4352 88.3008 36.8752C88.8874 37.3152 89.6941 37.5352 90.7208 37.5352C91.6408 37.5352 92.3341 37.3418 92.8008 36.9552C93.2674 36.5685 93.5008 36.0618 93.5008 35.4352C93.5008 35.0218 93.3808 34.6685 93.1408 34.3752C92.9008 34.0818 92.5474 33.8152 92.0808 33.5752C91.6274 33.3218 90.9608 33.0218 90.0808 32.6752C89.1074 32.3018 88.3341 31.9618 87.7608 31.6552C87.2008 31.3485 86.7341 30.9485 86.3608 30.4552C85.9874 29.9485 85.8008 29.3152 85.8008 28.5552C85.8008 27.4085 86.2074 26.5085 87.0208 25.8552C87.8474 25.2018 88.9608 24.8752 90.3608 24.8752C91.3474 24.8752 92.2141 25.0418 92.9608 25.3752C93.7074 25.7085 94.2808 26.1752 94.6808 26.7752C95.0941 27.3752 95.3008 28.0685 95.3008 28.8552V29.2552C95.3008 29.3885 95.2341 29.4552 95.1008 29.4552H93.6008C93.4674 29.4552 93.4008 29.3885 93.4008 29.2552V28.9552C93.4008 28.2618 93.1208 27.6885 92.5608 27.2352C92.0141 26.7685 91.2541 26.5352 90.2808 26.5352C89.4541 26.5352 88.8141 26.7085 88.3608 27.0552C87.9074 27.3885 87.6808 27.8752 87.6808 28.5152C87.6808 28.9552 87.7941 29.3152 88.0208 29.5952C88.2474 29.8752 88.5808 30.1285 89.0208 30.3552C89.4741 30.5685 90.1608 30.8485 91.0808 31.1952C92.0274 31.5685 92.7941 31.9152 93.3808 32.2352C93.9674 32.5418 94.4541 32.9552 94.8408 33.4752C95.2274 33.9818 95.4208 34.6152 95.4208 35.3752C95.4208 36.5485 94.9874 37.4818 94.1208 38.1752C93.2674 38.8552 92.0874 39.1952 90.5808 39.1952ZM102.169 30.2352C102.169 30.3685 102.102 30.4352 101.969 30.4352H99.8089C99.7555 30.4352 99.7289 30.4618 99.7289 30.5152V35.8152C99.7289 36.3752 99.8555 36.7818 100.109 37.0352C100.362 37.2752 100.756 37.3952 101.289 37.3952H101.869C102.002 37.3952 102.069 37.4618 102.069 37.5952V38.8352C102.069 38.9685 102.002 39.0352 101.869 39.0352C101.442 39.0618 101.136 39.0752 100.949 39.0752C99.9355 39.0752 99.1689 38.8952 98.6489 38.5352C98.1422 38.1618 97.8889 37.4818 97.8889 36.4952V30.5152C97.8889 30.4618 97.8622 30.4352 97.8089 30.4352H96.5889C96.4555 30.4352 96.3889 30.3685 96.3889 30.2352V29.0552C96.3889 28.9218 96.4555 28.8552 96.5889 28.8552H97.8089C97.8622 28.8552 97.8889 28.8285 97.8889 28.7752V26.4152C97.8889 26.2818 97.9555 26.2152 98.0889 26.2152H99.5289C99.6622 26.2152 99.7289 26.2818 99.7289 26.4152V28.7752C99.7289 28.8285 99.7555 28.8552 99.8089 28.8552H101.969C102.102 28.8552 102.169 28.9218 102.169 29.0552V30.2352ZM107.828 39.1952C106.841 39.1952 105.981 38.9485 105.248 38.4552C104.514 37.9485 104.001 37.2485 103.708 36.3552C103.468 35.6352 103.348 34.8218 103.348 33.9152C103.348 32.9685 103.461 32.1685 103.688 31.5152C103.981 30.6352 104.494 29.9485 105.228 29.4552C105.961 28.9485 106.834 28.6952 107.848 28.6952C108.808 28.6952 109.641 28.9485 110.348 29.4552C111.068 29.9485 111.581 30.6285 111.888 31.4952C112.128 32.1752 112.248 32.9752 112.248 33.8952C112.248 34.8285 112.128 35.6485 111.888 36.3552C111.594 37.2485 111.088 37.9485 110.368 38.4552C109.648 38.9485 108.801 39.1952 107.828 39.1952ZM107.828 37.5352C108.361 37.5352 108.828 37.3885 109.228 37.0952C109.628 36.7885 109.914 36.3618 110.088 35.8152C110.234 35.3085 110.308 34.6818 110.308 33.9352C110.308 33.1885 110.241 32.5685 110.108 32.0752C109.934 31.5285 109.648 31.1085 109.248 30.8152C108.848 30.5085 108.361 30.3552 107.788 30.3552C107.241 30.3552 106.768 30.5085 106.368 30.8152C105.968 31.1085 105.681 31.5285 105.508 32.0752C105.361 32.5418 105.288 33.1618 105.288 33.9352C105.288 34.7085 105.361 35.3352 105.508 35.8152C105.668 36.3618 105.948 36.7885 106.348 37.0952C106.761 37.3885 107.254 37.5352 107.828 37.5352ZM118.592 28.7552C119.018 28.7552 119.405 28.8418 119.752 29.0152C119.845 29.0552 119.878 29.1352 119.852 29.2552L119.532 30.7552C119.518 30.8752 119.438 30.9152 119.292 30.8752C119.065 30.7818 118.798 30.7352 118.492 30.7352L118.212 30.7552C117.585 30.7818 117.065 31.0018 116.652 31.4152C116.252 31.8152 116.052 32.3418 116.052 32.9952V38.8352C116.052 38.9685 115.985 39.0352 115.852 39.0352H114.332C114.198 39.0352 114.132 38.9685 114.132 38.8352V29.0552C114.132 28.9218 114.198 28.8552 114.332 28.8552H115.852C115.985 28.8552 116.052 28.9218 116.052 29.0552V30.1152C116.052 30.1552 116.058 30.1818 116.072 30.1952C116.098 30.1952 116.118 30.1818 116.132 30.1552C116.732 29.2218 117.552 28.7552 118.592 28.7552ZM129.008 32.6752C129.061 33.2218 129.081 33.8352 129.068 34.5152C129.068 34.6485 129.001 34.7152 128.868 34.7152H122.488C122.434 34.7152 122.408 34.7418 122.408 34.7952C122.408 35.2485 122.448 35.5952 122.528 35.8352C122.674 36.3685 122.968 36.7885 123.408 37.0952C123.861 37.3885 124.428 37.5352 125.108 37.5352C126.094 37.5352 126.854 37.1285 127.388 36.3152C127.454 36.1818 127.541 36.1618 127.648 36.2552L128.788 37.0152C128.881 37.0952 128.901 37.1818 128.848 37.2752C128.474 37.8752 127.941 38.3485 127.248 38.6952C126.568 39.0418 125.794 39.2152 124.928 39.2152C123.954 39.2152 123.134 39.0018 122.468 38.5752C121.801 38.1485 121.301 37.5418 120.968 36.7552C120.648 35.9685 120.488 35.0152 120.488 33.8952C120.488 32.9218 120.561 32.1818 120.708 31.6752C120.948 30.7552 121.428 30.0285 122.148 29.4952C122.868 28.9618 123.741 28.6952 124.768 28.6952C126.114 28.6952 127.121 29.0352 127.788 29.7152C128.454 30.3818 128.861 31.3685 129.008 32.6752ZM124.768 30.3552C124.194 30.3552 123.721 30.5018 123.348 30.7952C122.974 31.0752 122.721 31.4552 122.588 31.9352C122.494 32.2285 122.434 32.6018 122.408 33.0552C122.408 33.1085 122.434 33.1352 122.488 33.1352H127.068C127.121 33.1352 127.148 33.1085 127.148 33.0552C127.121 32.6152 127.081 32.2885 127.028 32.0752C126.894 31.5552 126.628 31.1418 126.228 30.8352C125.841 30.5152 125.354 30.3552 124.768 30.3552Z" fill="white"/>
</svg>
