<svg width="40" height="41" viewBox="0 0 40 41" fill="none" xmlns="http://www.w3.org/2000/svg">
<circle cx="20" cy="20.6875" r="20" fill="#187E7D"/>
<path d="M17.6374 8.87451H15.7466V9.82271H17.6374V8.87451Z" fill="white"/>
<path d="M19.5264 8.87451H20.4718V9.82271H22.3625V10.7709H19.5264V8.87451Z" fill="white"/>
<path d="M23.3097 8.87451H24.2551V19.3047H23.3097V17.4083H22.3643V18.3565H21.4186V17.4083H20.4735V16.4601H19.5281V13.6155H18.5828V11.7191H15.7466V10.7709H17.6374V9.82271H18.5828V10.7709H19.5281V11.7191H22.3643V12.6673H20.4735V15.5119H21.4186V14.5637H22.3643V16.4601H23.3097V13.6155H22.3643V12.6673H23.3097V8.87451Z" fill="white"/>
<path d="M8.62874 8.87451C8.38208 8.87451 8.18213 9.07447 8.18213 9.32112V15.0653C8.18213 15.3119 8.38208 15.5119 8.62874 15.5119H14.3533C14.5999 15.5119 14.7999 15.3119 14.7999 15.0653V9.32112C14.7999 9.07447 14.5999 8.87451 14.3533 8.87451H8.62874ZM13.8545 14.1171C13.8545 14.3637 13.6545 14.5637 13.4079 14.5637H9.57413C9.32747 14.5637 9.12752 14.3637 9.12752 14.1171V10.2693C9.12752 10.0227 9.32747 9.82271 9.57413 9.82271H13.4079C13.6545 9.82271 13.8545 10.0227 13.8545 10.2693V14.1171Z" fill="white"/>
<path d="M25.6444 8.87451C25.3977 8.87451 25.1978 9.07447 25.1978 9.32112V15.0653C25.1978 15.3119 25.3977 15.5119 25.6444 15.5119H31.3689C31.6155 15.5119 31.8155 15.3119 31.8155 15.0653V9.32112C31.8155 9.07447 31.6155 8.87451 31.3689 8.87451H25.6444ZM30.8701 14.1171C30.8701 14.3637 30.6701 14.5637 30.4235 14.5637H26.5898C26.3431 14.5637 26.1431 14.3637 26.1431 14.1171V10.2693C26.1431 10.0227 26.3431 9.82271 26.5898 9.82271H30.4235C30.6701 9.82271 30.8701 10.0227 30.8701 10.2693V14.1171Z" fill="white"/>
<path d="M12.9089 10.7705H10.0728V13.6151H12.9089V10.7705Z" fill="white"/>
<path d="M29.927 10.7705H27.0908V13.6151H29.927V10.7705Z" fill="white"/>
<path d="M15.7466 12.666H17.6374V14.5624H16.692V13.6142H15.7466V12.666Z" fill="white"/>
<path d="M15.7466 14.5625H16.692V15.5107H17.6374V14.5625H18.5828V16.4589H19.5281V17.4071H20.4735V18.3553H19.5281V19.3035H18.5828V17.4071H17.6374V16.4589H15.7466V14.5625Z" fill="white"/>
<path d="M14.7985 16.4585H12.9077V17.4067H14.7985V16.4585Z" fill="white"/>
<path d="M28.0362 16.4585H27.0908V17.4067H28.0362V16.4585Z" fill="white"/>
<path d="M28.9819 16.4585H29.9273V18.3549H31.8181V21.1995H29.9273V19.3031H28.9819V16.4585Z" fill="white"/>
<path d="M31.816 16.4585H30.8706V17.4067H31.816V16.4585Z" fill="white"/>
<path d="M11.0192 17.4067H9.12842V18.3549H11.0192V17.4067Z" fill="white"/>
<path d="M12.9097 17.4067H11.9644V18.3549H12.9097V17.4067Z" fill="white"/>
<path d="M9.12752 18.3545H8.18213V19.3027H9.12752V18.3545Z" fill="white"/>
<path d="M14.8013 18.3545H13.856V19.3027H14.8013V18.3545Z" fill="white"/>
<path d="M10.0738 19.3027H11.9646V21.1991H11.0192V22.1473H10.0738V21.1991H9.12842V20.2509H10.0738V19.3027Z" fill="white"/>
<path d="M13.8531 19.3027H12.9077V20.2509H13.8531V19.3027Z" fill="white"/>
<path d="M23.3062 19.3027H22.3608V20.2509H23.3062V19.3027Z" fill="white"/>
<path d="M14.8013 20.2505H13.856V21.1987H14.8013V20.2505Z" fill="white"/>
<path d="M9.12752 21.1982H8.18213V24.991H9.12752V21.1982Z" fill="white"/>
<path d="M12.9097 21.1982H11.9644V22.1468H12.9097V21.1982Z" fill="white"/>
<path d="M11.9644 22.1504H11.019V23.0986H11.9644V22.1504Z" fill="white"/>
<path d="M14.8013 22.1504H13.856V23.0986H14.8013V22.1504Z" fill="white"/>
<path d="M15.7466 22.1504H16.692V23.0986H17.6374V24.995H16.692V25.9432H15.7466V22.1504Z" fill="white"/>
<path d="M28.0354 22.1504H26.145V23.0986H28.0354V22.1504Z" fill="white"/>
<path d="M31.818 22.1504H29.9272V23.0986H31.818V22.1504Z" fill="white"/>
<path d="M12.9097 23.0986H11.9644V24.0468H12.9097V23.0986Z" fill="white"/>
<path d="M11.0181 24.0464H10.0728V24.995H11.0181V24.0464Z" fill="white"/>
<path d="M14.7985 24.0464H12.9077V24.995H14.7985V24.0464Z" fill="white"/>
<path d="M18.5826 24.9946H17.6372V25.9428H18.5826V24.9946Z" fill="white"/>
<path d="M31.8186 24.9923V24.0441H29.9278V23.0959H28.037V24.0441H24.2555V23.0959H25.2009V22.1477H26.1462V21.1995H28.037V22.1477H28.9824V19.3031H28.037V18.3549H27.0916V19.3031H26.1462V18.3549H27.0916V17.4067H26.1462V16.4585H25.2009V19.3031H24.2555V22.1477H22.3647V20.2513H21.4189V22.1477H20.4735V19.3031H19.5281V21.1995H18.5828V19.3031H15.7466V20.2513H16.692V22.1477H17.6377V23.0959H18.5831V22.1477H19.5285V23.0959H18.5831V24.9923H19.5285V25.9405H20.4739V24.0441H21.4193V25.9405H22.3647V24.9923H23.3101V25.9405H22.3647V26.8887H21.4189V29.7333H19.5285V30.6815H21.4189V31.6297H19.5285V32.5779H24.2555V31.6297H23.3101V30.6815H22.3647V27.8369H23.3101V28.7851H24.2555V29.7333H25.2009V28.7851H28.037V29.7333H28.9824V28.7851H29.9278V27.8369H28.9824V25.9405H28.037V24.9923H31.8186ZM23.3101 24.0441H22.3647V23.0959H23.3101V24.0441ZM27.0916 27.8369H24.2555V24.9923H27.0916V27.8369Z" fill="white"/>
<path d="M19.5245 25.9424H18.5791V27.8388H19.5245V25.9424Z" fill="white"/>
<path d="M26.1435 25.9424H25.1978V26.8909H26.1435V25.9424Z" fill="white"/>
<path d="M31.816 25.9424H30.8706V27.8388H31.816V25.9424Z" fill="white"/>
<path d="M8.62874 25.9424C8.38208 25.9424 8.18213 26.1423 8.18213 26.389V32.1332C8.18213 32.3798 8.38208 32.5798 8.62874 32.5798H14.3533C14.5999 32.5798 14.7999 32.3798 14.7999 32.1332V26.389C14.7999 26.1423 14.5999 25.9424 14.3533 25.9424H8.62874ZM13.8545 31.185C13.8545 31.4316 13.6545 31.6316 13.4079 31.6316H9.57413C9.32747 31.6316 9.12752 31.4316 9.12752 31.185V27.3372C9.12752 27.0905 9.32747 26.8906 9.57413 26.8906H13.4079C13.6545 26.8906 13.8545 27.0905 13.8545 27.3372V31.185Z" fill="white"/>
<path d="M15.7466 26.8906H17.6374V28.787H18.5828V29.7352H17.6374V30.6834H16.692V27.8388H15.7466V26.8906Z" fill="white"/>
<path d="M12.9089 27.8389H10.0728V30.6835H12.9089V27.8389Z" fill="white"/>
<path d="M20.4718 27.8389H19.5264V28.7871H20.4718V27.8389Z" fill="white"/>
<path d="M31.816 28.7866H30.8706V32.5794H31.816V28.7866Z" fill="white"/>
<path d="M24.2534 29.7349H23.3076V30.6831H24.2534V29.7349Z" fill="white"/>
<path d="M25.1978 29.7349H27.0885V30.6831H28.9793V32.5795H28.0339V31.6313H26.1431V32.5795H25.1978V29.7349Z" fill="white"/>
<path d="M29.9273 29.7349H28.9819V30.6831H29.9273V29.7349Z" fill="white"/>
<path d="M19.5245 30.6826H18.5791V31.6312H19.5245V30.6826Z" fill="white"/>
<path d="M17.6373 31.6304H16.6919V32.5786H17.6373V31.6304Z" fill="white"/>
</svg>
