<svg width="161" height="54" viewBox="0 0 161 54" fill="none" xmlns="http://www.w3.org/2000/svg">
<rect x="0.669913" y="0.669913" width="159.66" height="52.6602" rx="10.0487" fill="black"/>
<rect x="0.669913" y="0.669913" width="159.66" height="52.6602" rx="10.0487" stroke="#187E7D" stroke-width="1.33983"/>
<path d="M24.0646 25.4224L10.8413 39.7742C10.8426 39.7767 10.8426 39.7805 10.8438 39.783C11.2499 41.3414 12.6409 42.4883 14.2928 42.4883C14.9535 42.4883 15.5732 42.3054 16.1048 41.9853L16.147 41.9599L31.0309 33.1774L24.0646 25.4224Z" fill="#EA4335"/>
<path d="M37.4416 22.9863L37.4291 22.9774L31.0032 19.1684L23.7637 25.7563L31.0292 33.1836L37.4204 29.4128C38.5407 28.793 39.302 27.5852 39.302 26.1932C39.302 24.8088 38.5519 23.6073 37.4416 22.9863Z" fill="#FBBC04"/>
<path d="M10.8405 12.5344C10.761 12.8341 10.7188 13.1491 10.7188 13.4742V38.8349C10.7188 39.16 10.761 39.475 10.8417 39.7734L24.5183 25.7888L10.8405 12.5344Z" fill="#4285F4"/>
<path d="M24.1613 26.1562L31.0046 19.1595L16.1381 10.3452C15.5979 10.0137 14.9669 9.82324 14.2925 9.82324C12.6407 9.82324 11.2472 10.9726 10.8411 12.5323C10.8411 12.5336 10.8398 12.5348 10.8398 12.5361L24.1613 26.1562Z" fill="#34A853"/>
<path d="M52.3467 19.8064C51.7214 19.8064 51.1721 19.6858 50.6987 19.4447C50.2253 19.1946 49.8546 18.8462 49.5866 18.3996C49.3276 17.953 49.1981 17.4394 49.1981 16.8588V13.1609C49.1981 12.5803 49.3276 12.0667 49.5866 11.6201C49.8546 11.1735 50.2253 10.8296 50.6987 10.5884C51.1721 10.3383 51.7214 10.2132 52.3467 10.2132C52.963 10.2132 53.5079 10.3338 53.9813 10.575C54.4636 10.8162 54.8343 11.1556 55.0933 11.5933C55.3523 12.022 55.4819 12.5088 55.4819 13.0537V13.2279C55.4819 13.3172 55.4372 13.3618 55.3479 13.3618H54.6646C54.5752 13.3618 54.5306 13.3172 54.5306 13.2279V13.0671C54.5306 12.4686 54.3296 11.9818 53.9277 11.6067C53.5346 11.2315 53.0076 11.0439 52.3467 11.0439C51.6857 11.0439 51.1542 11.236 50.7523 11.6201C50.3503 12.0041 50.1494 12.5088 50.1494 13.1341V16.8856C50.1494 17.5108 50.3548 18.0155 50.7657 18.3996C51.1766 18.7837 51.7169 18.9757 52.3869 18.9757C53.0389 18.9757 53.557 18.7971 53.9411 18.4398C54.3341 18.0825 54.5306 17.6046 54.5306 17.0062V15.7869C54.5306 15.7512 54.5127 15.7333 54.477 15.7333H52.5074C52.4181 15.7333 52.3735 15.6887 52.3735 15.5993V15.0366C52.3735 14.9473 52.4181 14.9026 52.5074 14.9026H55.3479C55.4372 14.9026 55.4819 14.9473 55.4819 15.0366V16.765C55.4819 17.7207 55.196 18.4666 54.6244 19.0025C54.0616 19.5384 53.3024 19.8064 52.3467 19.8064ZM63.7792 11.0171C63.7792 11.1065 63.7345 11.1511 63.6452 11.1511H58.7146C58.6789 11.1511 58.661 11.169 58.661 11.2047V14.5141C58.661 14.5498 58.6789 14.5677 58.7146 14.5677H62.1714C62.2607 14.5677 62.3053 14.6123 62.3053 14.7017V15.2644C62.3053 15.3537 62.2607 15.3984 62.1714 15.3984H58.7146C58.6789 15.3984 58.661 15.4162 58.661 15.452V18.8149C58.661 18.8507 58.6789 18.8685 58.7146 18.8685H63.6452C63.7345 18.8685 63.7792 18.9132 63.7792 19.0025V19.5652C63.7792 19.6546 63.7345 19.6992 63.6452 19.6992H57.8437C57.7544 19.6992 57.7097 19.6546 57.7097 19.5652V10.4544C57.7097 10.3651 57.7544 10.3204 57.8437 10.3204H63.6452C63.7345 10.3204 63.7792 10.3651 63.7792 10.4544V11.0171ZM71.476 10.3204C71.5654 10.3204 71.61 10.3651 71.61 10.4544V11.0305C71.61 11.1199 71.5654 11.1645 71.476 11.1645H68.85C68.8143 11.1645 68.7964 11.1824 68.7964 11.2181V19.5652C68.7964 19.6546 68.7517 19.6992 68.6624 19.6992H67.9791C67.8898 19.6992 67.8451 19.6546 67.8451 19.5652V11.2181C67.8451 11.1824 67.8272 11.1645 67.7915 11.1645H65.2726C65.1833 11.1645 65.1387 11.1199 65.1387 11.0305V10.4544C65.1387 10.3651 65.1833 10.3204 65.2726 10.3204H71.476ZM76.2663 19.6992C76.177 19.6992 76.1324 19.6546 76.1324 19.5652V10.4544C76.1324 10.3651 76.177 10.3204 76.2663 10.3204H76.9497C77.039 10.3204 77.0836 10.3651 77.0836 10.4544V19.5652C77.0836 19.6546 77.039 19.6992 76.9497 19.6992H76.2663ZM85.2538 10.3204C85.3431 10.3204 85.3877 10.3651 85.3877 10.4544V11.0305C85.3877 11.1199 85.3431 11.1645 85.2538 11.1645H82.6277C82.592 11.1645 82.5741 11.1824 82.5741 11.2181V19.5652C82.5741 19.6546 82.5294 19.6992 82.4401 19.6992H81.7568C81.6675 19.6992 81.6228 19.6546 81.6228 19.5652V11.2181C81.6228 11.1824 81.605 11.1645 81.5692 11.1645H79.0504C78.961 11.1645 78.9164 11.1199 78.9164 11.0305V10.4544C78.9164 10.3651 78.961 10.3204 79.0504 10.3204H85.2538ZM92.8041 19.8064C92.1699 19.8064 91.6117 19.6769 91.1293 19.4179C90.647 19.1588 90.2718 18.7971 90.0039 18.3326C89.7448 17.8592 89.6153 17.3143 89.6153 16.698V13.3216C89.6153 12.7053 89.7448 12.1649 90.0039 11.7005C90.2718 11.227 90.647 10.8608 91.1293 10.6018C91.6117 10.3428 92.1699 10.2132 92.8041 10.2132C93.4383 10.2132 93.9965 10.3428 94.4789 10.6018C94.9702 10.8608 95.3453 11.227 95.6043 11.7005C95.8723 12.1649 96.0063 12.7053 96.0063 13.3216V16.698C96.0063 17.3143 95.8723 17.8592 95.6043 18.3326C95.3453 18.7971 94.9702 19.1588 94.4789 19.4179C93.9965 19.6769 93.4383 19.8064 92.8041 19.8064ZM92.8041 18.9891C93.4829 18.9891 94.0278 18.7837 94.4387 18.3728C94.8496 17.9619 95.055 17.417 95.055 16.7382V13.3082C95.055 12.6294 94.8496 12.0845 94.4387 11.6737C94.0278 11.2538 93.4829 11.0439 92.8041 11.0439C92.1342 11.0439 91.5938 11.2538 91.1829 11.6737C90.772 12.0845 90.5666 12.6294 90.5666 13.3082V16.7382C90.5666 17.417 90.772 17.9619 91.1829 18.3728C91.5938 18.7837 92.1342 18.9891 92.8041 18.9891ZM103.832 10.4544C103.832 10.3651 103.876 10.3204 103.966 10.3204H104.649C104.738 10.3204 104.783 10.3651 104.783 10.4544V19.5652C104.783 19.6546 104.738 19.6992 104.649 19.6992H103.979C103.917 19.6992 103.863 19.668 103.818 19.6054L99.2496 12.1694C99.2407 12.1426 99.2273 12.1337 99.2094 12.1426C99.1916 12.1426 99.1826 12.156 99.1826 12.1828L99.196 19.5652C99.196 19.6546 99.1514 19.6992 99.062 19.6992H98.3787C98.2894 19.6992 98.2447 19.6546 98.2447 19.5652V10.4544C98.2447 10.3651 98.2894 10.3204 98.3787 10.3204H99.0486C99.1112 10.3204 99.1648 10.3517 99.2094 10.4142L103.778 17.8503C103.787 17.8771 103.801 17.8905 103.818 17.8905C103.836 17.8815 103.845 17.8637 103.845 17.8369L103.832 10.4544Z" fill="white"/>
<path d="M118.355 40.3071H120.341V27.1928H118.355V40.3071ZM136.24 31.9167L133.964 37.6026H133.896L131.534 31.9167H129.395L132.937 39.8633L130.918 44.284H132.988L138.448 31.9167H136.24ZM124.979 38.8174C124.328 38.8174 123.421 38.4974 123.421 37.7033C123.421 36.692 124.551 36.3039 125.526 36.3039C126.399 36.3039 126.811 36.4895 127.341 36.7424C127.186 37.9572 126.125 38.8174 124.979 38.8174ZM125.219 31.6303C123.781 31.6303 122.291 32.2545 121.676 33.6382L123.438 34.3631C123.815 33.6382 124.516 33.4011 125.253 33.4011C126.28 33.4011 127.324 34.0085 127.341 35.0891V35.2233C126.981 35.0209 126.212 34.7177 125.27 34.7177C123.37 34.7177 121.436 35.7468 121.436 37.6697C121.436 39.4248 122.994 40.5557 124.739 40.5557C126.074 40.5557 126.811 39.9651 127.273 39.2727H127.341V40.285H129.257V35.2569C129.257 32.9291 127.495 31.6303 125.219 31.6303ZM112.947 33.5134H110.123V29.0182H112.947C114.431 29.0182 115.274 30.2298 115.274 31.2653C115.274 32.2818 114.431 33.5134 112.947 33.5134ZM112.896 27.1928H108.138V40.3071H110.123V35.3387H112.896C115.097 35.3387 117.26 33.7673 117.26 31.2653C117.26 28.7633 115.097 27.1928 112.896 27.1928ZM86.9506 38.8195C85.5789 38.8195 84.4307 37.6876 84.4307 36.1329C84.4307 34.5614 85.5789 33.4116 86.9506 33.4116C88.3053 33.4116 89.3673 34.5614 89.3673 36.1329C89.3673 37.6876 88.3053 38.8195 86.9506 38.8195ZM89.2311 32.6511H89.162C88.7161 32.1276 87.8594 31.6545 86.7793 31.6545C84.5158 31.6545 82.4418 33.6141 82.4418 36.1329C82.4418 38.6338 84.5158 40.5777 86.7793 40.5777C87.8594 40.5777 88.7161 40.1046 89.162 39.5633H89.2311V40.2063C89.2311 41.9132 88.3053 42.8258 86.8134 42.8258C85.596 42.8258 84.8415 41.9635 84.5329 41.2365L82.8015 41.9467C83.2985 43.1301 84.6191 44.583 86.8134 44.583C89.1449 44.583 91.1168 43.2308 91.1168 39.9357V31.9241H89.2311V32.6511ZM92.4885 40.3071H94.4774V27.1918H92.4885V40.3071ZM97.4081 35.9808C97.357 34.2572 98.7628 33.3781 99.7737 33.3781C100.563 33.3781 101.232 33.7662 101.454 34.3243L97.4081 35.9808ZM103.58 34.4932C103.204 33.4966 102.054 31.6545 99.7056 31.6545C97.3741 31.6545 95.4373 33.462 95.4373 36.1161C95.4373 38.617 97.357 40.5777 99.928 40.5777C102.003 40.5777 103.204 39.3272 103.7 38.6002L102.157 37.5858C101.643 38.3296 100.94 38.8195 99.928 38.8195C98.9171 38.8195 98.1967 38.3632 97.7337 37.4683L103.786 34.9999L103.58 34.4932ZM55.3654 33.0235V34.916H59.9594C59.8221 35.9808 59.4624 36.7581 58.9143 37.2984C58.245 37.9582 57.1989 38.6852 55.3654 38.6852C52.5358 38.6852 50.3245 36.4371 50.3245 33.6487C50.3245 30.8593 52.5358 28.6122 55.3654 28.6122C56.8914 28.6122 58.0056 29.2039 58.8282 29.9644L60.1828 28.629C59.0335 27.5474 57.5086 26.7186 55.3654 26.7186C51.4908 26.7186 48.2334 29.8291 48.2334 33.6487C48.2334 37.4683 51.4908 40.5777 55.3654 40.5777C57.4565 40.5777 59.0335 39.9011 60.268 38.6338C61.5375 37.3833 61.9312 35.6262 61.9312 34.2058C61.9312 33.7662 61.8972 33.3613 61.828 33.0235H55.3654ZM67.1552 38.8195C65.7835 38.8195 64.6001 37.7044 64.6001 36.1161C64.6001 34.51 65.7835 33.4116 67.1552 33.4116C68.5258 33.4116 69.7092 34.51 69.7092 36.1161C69.7092 37.7044 68.5258 38.8195 67.1552 38.8195ZM67.1552 31.6545C64.6512 31.6545 62.6112 33.5302 62.6112 36.1161C62.6112 38.6852 64.6512 40.5777 67.1552 40.5777C69.6581 40.5777 71.6981 38.6852 71.6981 36.1161C71.6981 33.5302 69.6581 31.6545 67.1552 31.6545ZM77.0657 38.8195C75.694 38.8195 74.5106 37.7044 74.5106 36.1161C74.5106 34.51 75.694 33.4116 77.0657 33.4116C78.4374 33.4116 79.6197 34.51 79.6197 36.1161C79.6197 37.7044 78.4374 38.8195 77.0657 38.8195ZM77.0657 31.6545C74.5628 31.6545 72.5228 33.5302 72.5228 36.1161C72.5228 38.6852 74.5628 40.5777 77.0657 40.5777C79.5686 40.5777 81.6086 38.6852 81.6086 36.1161C81.6086 33.5302 79.5686 31.6545 77.0657 31.6545Z" fill="white"/>
</svg>
