<svg width="32" height="33" viewBox="0 0 32 33" fill="none" xmlns="http://www.w3.org/2000/svg">
<circle cx="16" cy="16.5" r="16" fill="white"/>
<g clip-path="url(#clip0_4709_32762)">
<path d="M22.1718 19.0568C21.2213 18.1063 20.0899 17.4027 18.8555 16.9767C20.1776 16.0661 21.0462 14.5421 21.0462 12.8189C21.0462 10.0368 18.7828 7.77344 16.0007 7.77344C13.2187 7.77344 10.9553 10.0368 10.9553 12.8189C10.9553 14.5421 11.8239 16.0661 13.146 16.9767C11.9116 17.4027 10.7802 18.1063 9.82961 19.0568C8.18124 20.7052 7.27344 22.8968 7.27344 25.228H8.63707C8.63707 21.1677 11.9404 17.8643 16.0007 17.8643C20.061 17.8643 23.3643 21.1677 23.3643 25.228H24.728C24.728 22.8968 23.8202 20.7052 22.1718 19.0568ZM16.0007 16.5007C13.9706 16.5007 12.3189 14.8491 12.3189 12.8189C12.3189 10.7887 13.9706 9.13707 16.0007 9.13707C18.0309 9.13707 19.6825 10.7887 19.6825 12.8189C19.6825 14.8491 18.0309 16.5007 16.0007 16.5007Z" fill="#187E7D"/>
</g>
<defs>
<clipPath id="clip0_4709_32762">
<rect width="17.4545" height="17.4545" fill="white" transform="translate(7.27344 7.77344)"/>
</clipPath>
</defs>
</svg>
