<svg width="41" height="41" viewBox="0 0 41 41" fill="none" xmlns="http://www.w3.org/2000/svg">
<circle cx="20.7188" cy="20.1255" r="20" fill="#187E7D"/>
<path d="M33.1927 20.4169C33.3383 20.249 33.3383 19.9997 33.1927 19.8318L30.8486 17.1278C30.769 17.036 30.7303 16.9157 30.7413 16.7946L31.0679 13.2196C31.0882 12.9969 30.9408 12.7936 30.7228 12.7436L27.2638 11.951C27.1438 11.9235 27.0404 11.8476 26.9782 11.7413L25.1669 8.64759C25.0528 8.4527 24.8112 8.37366 24.6039 8.46342L21.3511 9.87254C21.2379 9.9216 21.1093 9.9216 20.9961 9.87254L17.7428 8.46321C17.5358 8.37353 17.2944 8.45232 17.1801 8.64684L15.3695 11.7299C15.307 11.8363 15.2033 11.9121 15.083 11.9393L11.6255 12.7219C11.4071 12.7714 11.259 12.975 11.2794 13.198L11.606 16.7839C11.617 16.9046 11.5784 17.0246 11.4992 17.1164L9.15352 19.8319C9.00848 19.9998 9.0087 20.2487 9.15403 20.4164L11.4986 23.1209C11.5782 23.2127 11.617 23.333 11.6059 23.454L11.2793 27.0404C11.259 27.263 11.4064 27.4663 11.6243 27.5163L15.0838 28.309C15.2036 28.3365 15.3068 28.4121 15.3691 28.5182L17.1796 31.601C17.2941 31.7959 17.5361 31.8745 17.7433 31.7842L20.9957 30.3656C21.1092 30.3161 21.2381 30.3159 21.3517 30.3651L24.6044 31.7742C24.8115 31.8639 25.0528 31.7851 25.1671 31.5906L26.9781 28.5069C27.0404 28.4009 27.1436 28.3252 27.2635 28.2978L30.7228 27.505C30.9408 27.4551 31.0882 27.2517 31.0679 27.0291L30.7413 23.454C30.7303 23.333 30.769 23.2127 30.8486 23.1209L33.1927 20.4169ZM18.2505 24.6378L15.5951 21.9365C15.4917 21.8323 15.4096 21.7086 15.3536 21.5725C15.2976 21.4363 15.2688 21.2904 15.2688 21.1429C15.2688 20.9955 15.2976 20.8496 15.3536 20.7134C15.4096 20.5773 15.4917 20.4536 15.5951 20.3494L15.6732 20.2707C16.1083 19.8317 16.8224 19.8317 17.2575 20.2707L18.7363 21.7718C18.911 21.9491 19.1969 21.9494 19.3719 21.7724L24.7996 16.2862C25.2348 15.8473 25.9488 15.8473 26.3839 16.2862L26.462 16.365C26.8972 16.804 26.8972 17.5131 26.462 17.952L19.8571 24.6378C19.3996 25.0767 18.6967 25.0767 18.2505 24.6378Z" fill="white"/>
</svg>
