<svg width="57" height="56" viewBox="0 0 57 56" fill="none" xmlns="http://www.w3.org/2000/svg">
<rect x="0.147461" width="56" height="56" rx="8" fill="#F9D1E9"/>
<path opacity="0.6" d="M33.297 43.1243C37.3413 48.3856 33.5905 55.9999 26.9543 55.9999L8.14747 55.9998C3.7292 55.9998 0.147478 52.4181 0.147478 47.9998L0.147475 23.5339C0.147476 15.8938 9.83386 12.6011 14.4901 18.6584L33.297 43.1243Z" fill="url(#paint0_linear_4425_4639)"/>
<path d="M31.0958 33.5235C32.7828 32.7251 34.2114 30.3323 34.2114 28.3057C34.2114 26.3225 33.7598 25.0833 32.5774 23.8221C28.7391 19.7273 21.7893 22.5809 21.871 28.2182C21.94 32.9744 26.5976 35.6529 31.0958 33.5235ZM40.4323 43.8914C38.6188 43.5571 37.3255 42.8774 36.2048 41.6695C34.738 40.0887 34.4477 39.1838 34.2777 35.664L34.1156 32.3061L33.5333 34.1835C32.831 36.4474 31.1608 38.8555 29.4956 40.0044C26.973 41.7455 25.6772 42.0032 18.6819 42.1534L12.1476 42.294V41.2977C12.1476 38.7949 13.8411 36.0752 16.0119 35.092C17.0761 34.6099 18.2584 34.453 20.9732 34.4335L24.5373 34.4079L22.6017 33.7906C18.4944 32.4806 16.1591 30.4491 14.7901 26.9955C14.1441 25.3657 14.0352 24.3139 13.9164 18.5669L13.781 12L15.1649 12.1851C17.3734 12.4807 19.556 13.7158 20.5712 15.2446C21.3999 16.4925 21.4976 16.986 21.652 20.7056C21.7847 23.9027 21.8811 24.5146 22.0942 23.5112C22.5736 21.2541 23.6249 19.2468 25.2177 17.5485C27.9415 14.6439 31.1046 13.8092 39.4339 13.7972L44.1475 13.7905L43.9378 15.3153C43.5163 18.3818 41.5721 20.8609 39.0376 21.5632C38.3434 21.7555 36.4768 21.9176 34.89 21.9234L32.0047 21.9341L34.252 22.6982C38.0094 23.9757 40.4502 26.3651 41.552 29.844C42.166 31.7828 42.6592 43.4485 42.146 43.8943C41.9823 44.0362 41.2113 44.0352 40.4323 43.8914Z" fill="#EA058E"/>
<defs>
<linearGradient id="paint0_linear_4425_4639" x1="-1.60715" y1="-7.54392" x2="21.0821" y2="34.1361" gradientUnits="userSpaceOnUse">
<stop offset="0.1561" stop-color="#CFE6DB" stop-opacity="0.28"/>
<stop offset="0.925" stop-color="#FDEBF6"/>
</linearGradient>
</defs>
</svg>
