<svg width="56" height="56" viewBox="0 0 56 56" fill="none" xmlns="http://www.w3.org/2000/svg">
<rect x="0.000488281" width="56" height="56" rx="8" fill="#D5E7DE"/>
<path opacity="0.6" d="M33.15 43.1243C37.1943 48.3856 33.4435 55.9999 26.8073 55.9999L8.0005 55.9998C3.58222 55.9998 0.000505063 52.4181 0.000505257 47.9998L0.000502511 23.5339C0.000502845 15.8938 9.68689 12.6011 14.3431 18.6584L33.15 43.1243Z" fill="url(#paint0_linear_4425_4658)"/>
<path d="M28.4291 30.7981C31.973 30.7981 34.8459 27.8431 34.8459 24.1979C34.8459 20.5527 31.973 17.5977 28.4291 17.5977C24.8852 17.5977 22.0123 20.5527 22.0123 24.1979C22.0123 27.8431 24.8852 30.7981 28.4291 30.7981Z" fill="#7AC19F"/>
<path d="M33.3053 31.4156C31.9257 32.4166 30.2467 32.9996 28.4286 32.9996C26.4714 32.9996 24.6747 32.3176 23.2416 31.1846C18.2365 32.5376 14.5255 37.2458 14.5255 42.9V44H40.1927L41.2622 43.89V42.79C41.2622 37.5098 37.9254 33.0106 33.3053 31.4156Z" fill="#187E7D"/>
<path d="M46.08 22.5971H43.8822C42.7333 19.2093 40.5865 16.2726 37.7394 14.1945C34.8923 12.1165 31.4862 11 27.9935 11C24.5008 11 21.0947 12.1165 18.2476 14.1945C15.4006 16.2726 13.2537 19.2093 12.1048 22.5971H9.91168C9.6036 22.5971 9.30814 22.7228 9.09029 22.9466C8.87245 23.1704 8.75006 23.4738 8.75006 23.7903V33.3928C8.75006 33.7093 8.87245 34.0128 9.09029 34.2365C9.30814 34.4603 9.6036 34.586 9.91168 34.586H13.5081C14.4319 34.5847 15.3176 34.2072 15.9709 33.5362C16.6242 32.8652 16.9917 31.9555 16.9929 31.0065V26.1766C16.9923 25.4094 16.7518 24.6628 16.3067 24.0467C15.8617 23.4306 15.2357 22.9776 14.521 22.7546C15.5958 19.9858 17.4543 17.6118 19.8564 15.9393C22.2586 14.2668 25.0939 13.3728 27.9958 13.3728C30.8978 13.3728 33.7331 14.2668 36.1352 15.9393C38.5374 17.6118 40.3959 19.9858 41.4707 22.7546C40.7578 22.9793 40.1338 23.433 39.6905 24.0489C39.2473 24.6649 39.008 25.4106 39.008 26.1766V31.0065C39.0093 31.9555 39.3768 32.8652 40.0301 33.5362C40.6834 34.2072 41.569 34.5847 42.4929 34.586H46.0893C46.3974 34.586 46.6928 34.4603 46.9107 34.2365C47.1285 34.0128 47.2509 33.7093 47.2509 33.3928V23.7903C47.2509 23.6328 47.2206 23.4769 47.1616 23.3315C47.1027 23.1861 47.0163 23.0541 46.9074 22.9432C46.7986 22.8323 46.6694 22.7446 46.5274 22.6852C46.3854 22.6258 46.2333 22.5959 46.08 22.5971Z" fill="#7AC19F"/>
<defs>
<linearGradient id="paint0_linear_4425_4658" x1="-1.75413" y1="-7.54392" x2="20.9351" y2="34.1361" gradientUnits="userSpaceOnUse">
<stop offset="0.1561" stop-color="#CFE6DB" stop-opacity="0.28"/>
<stop offset="0.925" stop-color="#F6FCF9"/>
</linearGradient>
</defs>
</svg>
