<svg width="56" height="56" viewBox="0 0 56 56" fill="none" xmlns="http://www.w3.org/2000/svg">
<rect x="0.000488281" width="56" height="56" rx="8" fill="#D5E7DE"/>
<path opacity="0.6" d="M33.15 43.1243C37.1943 48.3856 33.4435 55.9999 26.8073 55.9999L8.0005 55.9998C3.58222 55.9998 0.000505063 52.4181 0.000505257 47.9998L0.000502511 23.5339C0.000502845 15.8938 9.68689 12.6011 14.3431 18.6584L33.15 43.1243Z" fill="url(#paint0_linear_4425_4670)"/>
<path d="M14.1934 18.0263C14.82 18.0263 15.3328 18.512 15.3764 19.1259L16.0747 27.7645L20.3643 32.3048C20.5778 32.5625 20.9488 32.6046 21.2045 32.4188C21.3899 32.2907 21.4461 32.1048 21.4616 32.0049C21.4757 31.9049 21.4616 31.719 21.3479 31.5332L18.5266 27.9923C18.1135 27.4785 18.1993 26.735 18.698 26.3211C19.2109 25.9072 19.9528 25.979 20.3799 26.4789L24.841 31.7768C25.7108 32.7905 26.1098 34.1478 25.9664 35.4754L25.8667 44.0001L18.1135 43.9001L18.5702 38.3163L12.5847 31.1191C12.1436 30.5334 11.9441 29.8055 12.0142 29.0777L12.9978 19.1235C13.0554 18.5097 13.5683 18.0239 14.1949 18.0239L14.1934 18.0263Z" fill="#187E7D"/>
<path d="M43.8058 18.0258C43.1792 18.0258 42.6664 18.5115 42.6228 19.1254L41.9245 27.764L37.6349 32.3043C37.4213 32.562 37.0504 32.6042 36.7947 32.4183C36.6092 32.2902 36.5531 32.1044 36.5375 32.0044C36.5235 31.9044 36.5375 31.7186 36.6513 31.5327L39.4726 27.9918C39.8857 27.478 39.7999 26.7345 39.3011 26.3206C38.7883 25.9067 38.0464 25.9786 37.6193 26.4784L33.1581 31.7763C32.2884 32.79 31.8893 34.1473 32.0328 35.4749L32.1325 43.9996L39.8857 43.8996L39.429 38.3158L45.4145 31.1186C45.8556 30.5329 46.0551 29.805 45.9849 29.0772L45.0014 19.123C44.9437 18.5092 44.4309 18.0234 43.8043 18.0234L43.8058 18.0258Z" fill="#187E7D"/>
<path d="M33.4881 10C31.7922 10 30.2959 10.9996 29.3561 12.5271C29.1145 12.927 28.5721 12.927 28.3305 12.5271C27.3906 10.9996 25.8942 10 24.1985 10C21.3632 10 18.3847 12.0711 18.1413 16.2696C17.842 21.6395 23.8414 26.9514 26.9918 29.3505C28.0891 30.1924 29.5995 30.1924 30.6968 29.3505C33.847 26.9514 39.8466 21.6395 39.5473 16.2696C39.3057 12.0712 36.3271 10 33.4901 10H33.4881ZM33.075 20.8818L29.8968 20.8818L29.8968 24.0665L27.7879 24.0665L27.7879 20.8818L24.6097 20.8818L24.6097 18.7545L27.7879 18.7545L27.7879 15.5838L29.8968 15.5838L29.8968 18.7545L33.075 18.7545L33.075 20.8818Z" fill="#7AC19F"/>
<defs>
<linearGradient id="paint0_linear_4425_4670" x1="-1.75413" y1="-7.54392" x2="20.9351" y2="34.1361" gradientUnits="userSpaceOnUse">
<stop offset="0.1561" stop-color="#CFE6DB" stop-opacity="0.28"/>
<stop offset="0.925" stop-color="#F6FCF9"/>
</linearGradient>
</defs>
</svg>
