<svg width="72" height="72" viewBox="0 0 72 72" fill="none" xmlns="http://www.w3.org/2000/svg">
<circle cx="36" cy="36" r="36" fill="#CFE6DB"/>
<path fill-rule="evenodd" clip-rule="evenodd" d="M30.489 19.7535H42.3421C42.7391 19.7535 43.063 20.0774 43.063 20.4744V50.1555C42.2104 49.5153 41.2638 48.9958 40.2496 48.621C41.7556 47.4675 42.727 45.6512 42.727 43.6077C42.727 40.9714 41.1104 38.7129 38.8145 37.7687H40.4641V34.441H37.1364V37.3375C36.656 37.2829 36.1751 37.2828 35.6947 37.3375V34.441H32.367V37.7687H34.0168C31.721 38.713 30.1043 40.9714 30.1043 43.6077C30.1043 45.6512 31.0757 47.4674 32.5817 48.6209C31.5674 48.9957 30.6208 49.5152 29.7683 50.1554V20.4744C29.7682 20.0774 30.092 19.7535 30.489 19.7535ZM15.5723 51.7306V27.0942C15.5723 26.6972 15.8961 26.3733 16.2931 26.3733H28.3265V51.4479C28.0293 51.7653 27.7505 52.1003 27.4919 52.4514H16.2931C15.896 52.4515 15.5723 52.1276 15.5723 51.7306ZM17.9008 45.7286V48.8162H21.2285V45.7286H17.9008ZM22.6702 45.7286V48.8162H25.9979V45.7286H22.6702ZM25.9979 44.2869V41.1994H22.6702V44.2869H25.9979ZM21.2285 44.2869V41.1994H17.9008V44.2869H21.2285ZM25.9979 39.7577V36.6702H22.6702V39.7577H25.9979ZM21.2285 39.7577V36.6702H17.9008V39.7577H21.2285ZM25.6602 29.6255H18.2384C17.842 29.6255 17.5176 29.9499 17.5176 30.3464V32.1589C17.5176 32.5554 17.8419 32.8798 18.2384 32.8798H25.6602C26.0567 32.8798 26.3811 32.5554 26.3811 32.1589V30.3464C26.3811 29.9499 26.0567 29.6255 25.6602 29.6255ZM57.2589 52.4515V26.3734H44.5046V51.448C44.8018 51.7654 45.0806 52.1004 45.3393 52.4515H57.2589ZM54.9303 45.7286V48.8162H51.6027V45.7286H54.9303ZM50.1609 45.7286V48.8162H46.8332V45.7286H50.1609ZM46.8332 44.2869V41.1994H50.1609V44.2869H46.8332ZM51.6027 44.2869V41.1994H54.9303V44.2869H51.6027ZM46.8332 39.7577V36.6702H50.1609V39.7577H46.8332ZM51.6027 39.7577V36.6702H54.9303V39.7577H51.6027ZM47.1709 29.6255H54.5926C54.9891 29.6255 55.3135 29.9499 55.3135 30.3464V32.1589C55.3135 32.5554 54.9892 32.8798 54.5926 32.8798H47.1709C46.7744 32.8798 46.45 32.5554 46.45 32.1589V30.3464C46.45 29.9499 46.7744 29.6255 47.1709 29.6255ZM33.1202 16.6122H35.6947V14.7209C35.6947 14.3228 36.0175 14 36.4156 14C36.8137 14 37.1364 14.3228 37.1364 14.7209V16.6122H39.711C40.108 16.6122 40.4318 16.936 40.4318 17.3331V18.3118H32.3993V17.333C32.3993 16.936 32.723 16.6122 33.1202 16.6122ZM32.367 32.9994H35.6947V29.6717H32.367V32.9994ZM37.1364 32.9994H40.4641V29.6717H37.1364V32.9994ZM33.0878 22.8564C32.6913 22.8564 32.3669 23.1808 32.3669 23.5773V25.1085C32.3669 25.5049 32.6913 25.8293 33.0878 25.8293H39.7431C40.1396 25.8293 40.464 25.5049 40.464 25.1085V23.5773C40.464 23.1808 40.1396 22.8564 39.7431 22.8564H33.0878Z" fill="#187E7D"/>
<path fill-rule="evenodd" clip-rule="evenodd" d="M36.5657 38.5498C33.8763 38.5498 31.6961 40.73 31.6961 43.4194C31.6961 46.1088 33.8763 48.2891 36.5657 48.2891C39.2552 48.2891 41.4354 46.1088 41.4354 43.4194C41.4354 40.73 39.2552 38.5498 36.5657 38.5498ZM27.8289 57.7852L45.3025 57.7851C45.7599 57.7851 46.0992 57.3713 46.0095 56.9228C45.1278 52.5129 41.2349 49.1901 36.5657 49.1901C31.8964 49.1901 28.0036 52.513 27.1219 56.9229C27.0321 57.3715 27.3715 57.7852 27.8289 57.7852Z" fill="#7AC19F"/>
</svg>
