<svg width="132" height="44" viewBox="0 0 132 44" fill="none" xmlns="http://www.w3.org/2000/svg">
<rect x="0.55" y="0.55" width="130.9" height="42.9" rx="8.25" fill="black"/>
<rect x="0.55" y="0.55" width="130.9" height="42.9" rx="8.25" stroke="#187E7D" stroke-width="1.1"/>
<path d="M27.1757 22.8432C27.1891 21.8313 27.4644 20.8391 27.976 19.959C28.4877 19.0789 29.219 18.3395 30.1021 17.8095C29.5411 17.0273 28.8011 16.3836 27.9407 15.9295C27.0804 15.4755 26.1235 15.2235 25.1459 15.1936C23.0607 14.9799 21.0391 16.4118 19.9765 16.4118C18.8933 16.4118 17.2573 15.2148 15.4956 15.2502C14.356 15.2862 13.2454 15.6097 12.272 16.1893C11.2986 16.7688 10.4956 17.5847 9.94119 18.5573C7.53965 22.6168 9.33099 28.5828 11.6315 31.8641C12.7825 33.4709 14.1277 35.2657 15.8879 35.2021C17.6103 35.1323 18.2536 34.1298 20.3327 34.1298C22.3925 34.1298 22.996 35.2021 24.7919 35.1616C26.6401 35.1323 27.8046 33.5477 28.9152 31.9257C29.7422 30.7808 30.3786 29.5155 30.8008 28.1765C29.727 27.7331 28.8107 26.991 28.166 26.0425C27.5214 25.0941 27.177 23.9814 27.1757 22.8432Z" fill="white"/>
<path d="M23.7844 13.0287C24.7922 11.8476 25.2886 10.3296 25.1684 8.79688C23.6288 8.95475 22.2067 9.67313 21.1853 10.8089C20.6859 11.3637 20.3035 12.0092 20.0598 12.7085C19.8161 13.4077 19.716 14.147 19.7651 14.8841C20.5352 14.8918 21.297 14.7288 21.9932 14.4075C22.6894 14.0861 23.3019 13.6147 23.7844 13.0287Z" fill="white"/>
<path d="M40.5911 15.6016C40.5275 15.6016 40.4957 15.5698 40.4957 15.5062V9.02356C40.4957 8.96001 40.5275 8.92823 40.5911 8.92823H42.8409C43.4701 8.92823 43.9691 9.09347 44.3377 9.42396C44.7127 9.75445 44.9001 10.2025 44.9001 10.7682V13.7616C44.9001 14.3273 44.7127 14.7753 44.3377 15.1058C43.9691 15.4363 43.4701 15.6016 42.8409 15.6016H40.5911ZM41.1726 14.9724C41.1726 14.9978 41.1853 15.0105 41.2107 15.0105H42.8695C43.2827 15.0105 43.61 14.8897 43.8515 14.6482C44.0993 14.4067 44.2233 14.0826 44.2233 13.6758V10.8635C44.2233 10.4504 44.1025 10.1231 43.861 9.88156C43.6195 9.64005 43.289 9.5193 42.8695 9.5193H41.2107C41.1853 9.5193 41.1726 9.53201 41.1726 9.55743V14.9724ZM48.0954 15.6778C47.6378 15.6778 47.2437 15.5603 46.9132 15.3251C46.5828 15.0899 46.354 14.7658 46.2268 14.3527C46.1379 14.0603 46.0934 13.6695 46.0934 13.1801C46.0934 12.6907 46.1379 12.303 46.2268 12.017C46.3476 11.6103 46.5732 11.2893 46.9037 11.0542C47.2342 10.819 47.6346 10.7014 48.1049 10.7014C48.5562 10.7014 48.9438 10.819 49.268 11.0542C49.5985 11.2893 49.8241 11.6071 49.9448 12.0075C50.0338 12.2808 50.0783 12.6717 50.0783 13.1801C50.0783 13.6949 50.0338 14.0858 49.9448 14.3527C49.8241 14.7658 49.5985 15.0899 49.268 15.3251C48.9438 15.5603 48.553 15.6778 48.0954 15.6778ZM48.0954 15.0868C48.4004 15.0868 48.661 15.0041 48.8771 14.8389C49.0932 14.6673 49.2394 14.4385 49.3156 14.1525C49.3728 13.9237 49.4014 13.6027 49.4014 13.1896C49.4014 12.7702 49.376 12.4492 49.3252 12.2268C49.2489 11.9408 49.0996 11.7151 48.8771 11.5499C48.661 11.3783 48.3973 11.2925 48.0858 11.2925C47.7744 11.2925 47.5107 11.3783 47.2946 11.5499C47.0785 11.7151 46.9323 11.9408 46.856 12.2268C46.8052 12.4492 46.7798 12.7702 46.7798 13.1896C46.7798 13.6091 46.8052 13.9301 46.856 14.1525C46.926 14.4385 47.069 14.6673 47.285 14.8389C47.5075 15.0041 47.7776 15.0868 48.0954 15.0868ZM52.2652 15.6016C52.2143 15.6016 52.1794 15.5761 52.1603 15.5253L50.8066 10.8826L50.797 10.854C50.797 10.8031 50.8288 10.7777 50.8924 10.7777H51.3881C51.4453 10.7777 51.4803 10.8063 51.493 10.8635L52.5035 14.6196C52.5099 14.6323 52.5162 14.6387 52.5226 14.6387C52.5353 14.6387 52.5448 14.6323 52.5512 14.6196L53.5808 10.8635C53.5935 10.8063 53.6284 10.7777 53.6856 10.7777H54.1432C54.2004 10.7777 54.2354 10.8031 54.2481 10.854L55.2872 14.6101C55.2936 14.6228 55.3031 14.6292 55.3158 14.6292C55.3285 14.6292 55.3381 14.6228 55.3444 14.6101L56.3836 10.8635C56.3963 10.8063 56.4312 10.7777 56.4884 10.7777L56.9842 10.7872C57.0159 10.7872 57.0382 10.7968 57.0509 10.8158C57.07 10.8349 57.0763 10.8603 57.07 10.8921L55.6972 15.5253C55.6781 15.5761 55.6431 15.6016 55.5923 15.6016H55.087C55.0362 15.6016 55.0012 15.5761 54.9822 15.5253L53.943 11.9598C53.9367 11.9471 53.9271 11.9408 53.9144 11.9408C53.9081 11.9408 53.9017 11.9471 53.8954 11.9598L52.8848 15.5253C52.8658 15.5761 52.8308 15.6016 52.78 15.6016H52.2652ZM60.1369 10.711C60.6453 10.711 61.0489 10.8603 61.3476 11.159C61.6527 11.4577 61.8052 11.8581 61.8052 12.3602V15.5062C61.8052 15.5698 61.7734 15.6016 61.7099 15.6016H61.2237C61.1601 15.6016 61.1283 15.5698 61.1283 15.5062V12.4937C61.1283 12.1441 61.0203 11.8581 60.8042 11.6357C60.5945 11.4133 60.3212 11.302 59.9843 11.302C59.6348 11.302 59.352 11.4101 59.1359 11.6262C58.9198 11.8423 58.8117 12.1251 58.8117 12.4746V15.5062C58.8117 15.5698 58.78 15.6016 58.7164 15.6016H58.2302C58.1666 15.6016 58.1349 15.5698 58.1349 15.5062V10.873C58.1349 10.8095 58.1666 10.7777 58.2302 10.7777H58.7164C58.78 10.7777 58.8117 10.8095 58.8117 10.873V11.283C58.8117 11.2957 58.8149 11.3052 58.8213 11.3116C58.834 11.3179 58.8435 11.3147 58.8499 11.302C59.1295 10.908 59.5585 10.711 60.1369 10.711ZM63.3693 15.6016C63.3057 15.6016 63.2739 15.5698 63.2739 15.5062V9.02356C63.2739 8.96001 63.3057 8.92823 63.3693 8.92823H63.8555C63.919 8.92823 63.9508 8.96001 63.9508 9.02356V15.5062C63.9508 15.5698 63.919 15.6016 63.8555 15.6016H63.3693ZM67.311 15.6778C66.8534 15.6778 66.4594 15.5603 66.1289 15.3251C65.7984 15.0899 65.5696 14.7658 65.4425 14.3527C65.3535 14.0603 65.309 13.6695 65.309 13.1801C65.309 12.6907 65.3535 12.303 65.4425 12.017C65.5632 11.6103 65.7888 11.2893 66.1193 11.0542C66.4498 10.819 66.8502 10.7014 67.3205 10.7014C67.7718 10.7014 68.1595 10.819 68.4836 11.0542C68.8141 11.2893 69.0397 11.6071 69.1605 12.0075C69.2494 12.2808 69.2939 12.6717 69.2939 13.1801C69.2939 13.6949 69.2494 14.0858 69.1605 14.3527C69.0397 14.7658 68.8141 15.0899 68.4836 15.3251C68.1595 15.5603 67.7686 15.6778 67.311 15.6778ZM67.311 15.0868C67.6161 15.0868 67.8766 15.0041 68.0927 14.8389C68.3088 14.6673 68.455 14.4385 68.5313 14.1525C68.5885 13.9237 68.6171 13.6027 68.6171 13.1896C68.6171 12.7702 68.5916 12.4492 68.5408 12.2268C68.4645 11.9408 68.3152 11.7151 68.0927 11.5499C67.8766 11.3783 67.6129 11.2925 67.3015 11.2925C66.99 11.2925 66.7263 11.3783 66.5102 11.5499C66.2941 11.7151 66.1479 11.9408 66.0717 12.2268C66.0208 12.4492 65.9954 12.7702 65.9954 13.1896C65.9954 13.6091 66.0208 13.9301 66.0717 14.1525C66.1416 14.4385 66.2846 14.6673 66.5007 14.8389C66.7231 15.0041 66.9932 15.0868 67.311 15.0868ZM72.3343 10.7014C72.9063 10.7014 73.348 10.8476 73.6595 11.14C73.9709 11.4323 74.1266 11.82 74.1266 12.303V15.5062C74.1266 15.5698 74.0948 15.6016 74.0313 15.6016H73.5451C73.4815 15.6016 73.4497 15.5698 73.4497 15.5062V15.1154C73.4497 15.1027 73.4434 15.0931 73.4307 15.0868C73.4243 15.0804 73.4148 15.0836 73.4021 15.0963C73.2432 15.287 73.0366 15.4331 72.7824 15.5348C72.5282 15.6302 72.2453 15.6778 71.9339 15.6778C71.4827 15.6778 71.1045 15.5634 70.7995 15.3346C70.4944 15.1058 70.3419 14.7563 70.3419 14.286C70.3419 13.8093 70.5135 13.4343 70.8567 13.161C71.2062 12.8814 71.6892 12.7416 72.3057 12.7416H73.4116C73.437 12.7416 73.4497 12.7289 73.4497 12.7034V12.3412C73.4497 12.017 73.3576 11.7628 73.1733 11.5785C72.9953 11.3878 72.7157 11.2925 72.3343 11.2925C72.0293 11.2925 71.7814 11.3529 71.5907 11.4736C71.4001 11.588 71.2825 11.7501 71.238 11.9598C71.2189 12.0234 71.1808 12.052 71.1236 12.0456L70.6088 11.9789C70.5389 11.9662 70.5103 11.9408 70.523 11.9026C70.5738 11.5467 70.7645 11.2575 71.095 11.0351C71.4255 10.8127 71.8386 10.7014 72.3343 10.7014ZM72.0674 15.0963C72.4424 15.0963 72.7665 15.0041 73.0398 14.8198C73.3131 14.6292 73.4497 14.3749 73.4497 14.0572V13.3136C73.4497 13.2881 73.437 13.2754 73.4116 13.2754H72.4106C71.9911 13.2754 71.6543 13.3612 71.4001 13.5328C71.1458 13.7044 71.0187 13.9428 71.0187 14.2478C71.0187 14.5275 71.1141 14.7404 71.3047 14.8866C71.5017 15.0264 71.756 15.0963 72.0674 15.0963ZM78.5285 9.02356C78.5285 8.96001 78.5603 8.92823 78.6239 8.92823H79.1101C79.1736 8.92823 79.2054 8.96001 79.2054 9.02356V15.5062C79.2054 15.5698 79.1736 15.6016 79.1101 15.6016H78.6239C78.5603 15.6016 78.5285 15.5698 78.5285 15.5062V15.1058C78.5285 15.0931 78.5222 15.0868 78.5095 15.0868C78.5031 15.0804 78.4936 15.0836 78.4809 15.0963C78.341 15.2806 78.1663 15.4236 77.9565 15.5253C77.7532 15.627 77.5244 15.6778 77.2701 15.6778C76.8252 15.6778 76.4503 15.5634 76.1452 15.3346C75.8465 15.1058 75.6399 14.7944 75.5255 14.4004C75.4366 14.1144 75.3921 13.7108 75.3921 13.1896C75.3921 12.6621 75.4302 12.2681 75.5065 12.0075C75.6209 11.6007 75.8306 11.283 76.1357 11.0542C76.4407 10.819 76.8189 10.7014 77.2701 10.7014C77.518 10.7014 77.7468 10.7523 77.9565 10.854C78.1663 10.9493 78.341 11.0891 78.4809 11.2734C78.4936 11.2861 78.5031 11.2925 78.5095 11.2925C78.5222 11.2861 78.5285 11.2766 78.5285 11.2639V9.02356ZM78.3569 14.3527C78.4141 14.2256 78.4554 14.0762 78.4809 13.9046C78.5063 13.733 78.519 13.4947 78.519 13.1896C78.519 12.8846 78.5063 12.6462 78.4809 12.4746C78.4554 12.2967 78.411 12.141 78.3474 12.0075C78.2711 11.7914 78.144 11.6198 77.9661 11.4927C77.7945 11.3592 77.5879 11.2925 77.3464 11.2925C77.0922 11.2925 76.8729 11.3561 76.6886 11.4832C76.5043 11.6103 76.3708 11.7787 76.2882 11.9884C76.2119 12.1283 76.1547 12.2871 76.1166 12.4651C76.0848 12.6367 76.0689 12.8782 76.0689 13.1896C76.0689 13.4883 76.0816 13.7235 76.1071 13.8951C76.1325 14.0603 76.177 14.2097 76.2405 14.3432C76.3168 14.572 76.4503 14.7531 76.6409 14.8866C76.838 15.02 77.0699 15.0868 77.3369 15.0868C77.5911 15.0868 77.804 15.02 77.9756 14.8866C78.1472 14.7531 78.2743 14.5751 78.3569 14.3527ZM84.4878 15.6778C84.0302 15.6778 83.6361 15.5603 83.3056 15.3251C82.9751 15.0899 82.7463 14.7658 82.6192 14.3527C82.5302 14.0603 82.4858 13.6695 82.4858 13.1801C82.4858 12.6907 82.5302 12.303 82.6192 12.017C82.74 11.6103 82.9656 11.2893 83.2961 11.0542C83.6266 10.819 84.027 10.7014 84.4973 10.7014C84.9485 10.7014 85.3362 10.819 85.6604 11.0542C85.9908 11.2893 86.2165 11.6071 86.3372 12.0075C86.4262 12.2808 86.4707 12.6717 86.4707 13.1801C86.4707 13.6949 86.4262 14.0858 86.3372 14.3527C86.2165 14.7658 85.9908 15.0899 85.6604 15.3251C85.3362 15.5603 84.9454 15.6778 84.4878 15.6778ZM84.4878 15.0868C84.7928 15.0868 85.0534 15.0041 85.2695 14.8389C85.4856 14.6673 85.6318 14.4385 85.708 14.1525C85.7652 13.9237 85.7938 13.6027 85.7938 13.1896C85.7938 12.7702 85.7684 12.4492 85.7176 12.2268C85.6413 11.9408 85.4919 11.7151 85.2695 11.5499C85.0534 11.3783 84.7896 11.2925 84.4782 11.2925C84.1668 11.2925 83.903 11.3783 83.687 11.5499C83.4709 11.7151 83.3247 11.9408 83.2484 12.2268C83.1976 12.4492 83.1722 12.7702 83.1722 13.1896C83.1722 13.6091 83.1976 13.9301 83.2484 14.1525C83.3183 14.4385 83.4613 14.6673 83.6774 14.8389C83.8999 15.0041 84.17 15.0868 84.4878 15.0868ZM89.8447 10.711C90.3532 10.711 90.7568 10.8603 91.0555 11.159C91.3605 11.4577 91.5131 11.8581 91.5131 12.3602V15.5062C91.5131 15.5698 91.4813 15.6016 91.4177 15.6016H90.9315C90.868 15.6016 90.8362 15.5698 90.8362 15.5062V12.4937C90.8362 12.1441 90.7282 11.8581 90.5121 11.6357C90.3023 11.4133 90.0291 11.302 89.6922 11.302C89.3427 11.302 89.0598 11.4101 88.8437 11.6262C88.6277 11.8423 88.5196 12.1251 88.5196 12.4746V15.5062C88.5196 15.5698 88.4878 15.6016 88.4243 15.6016H87.9381C87.8745 15.6016 87.8427 15.5698 87.8427 15.5062V10.873C87.8427 10.8095 87.8745 10.7777 87.9381 10.7777H88.4243C88.4878 10.7777 88.5196 10.8095 88.5196 10.873V11.283C88.5196 11.2957 88.5228 11.3052 88.5291 11.3116C88.5419 11.3179 88.5514 11.3147 88.5577 11.302C88.8374 10.908 89.2664 10.711 89.8447 10.711ZM97.0544 11.2448C97.0544 11.3084 97.0226 11.3402 96.9591 11.3402H95.8818C95.8564 11.3402 95.8437 11.3529 95.8437 11.3783V14.1906C95.8437 14.4957 95.9104 14.7118 96.0439 14.8389C96.1837 14.9597 96.3998 15.02 96.6921 15.02H96.9305C96.994 15.02 97.0258 15.0518 97.0258 15.1154V15.5062C97.0258 15.5698 96.994 15.6016 96.9305 15.6016C96.8542 15.6079 96.7366 15.6111 96.5777 15.6111C96.1201 15.6111 95.7738 15.5253 95.5386 15.3537C95.3034 15.1821 95.1859 14.8643 95.1859 14.4004V11.3783C95.1859 11.3529 95.1732 11.3402 95.1477 11.3402H94.5662C94.5026 11.3402 94.4709 11.3084 94.4709 11.2448V10.873C94.4709 10.8095 94.5026 10.7777 94.5662 10.7777H95.1477C95.1732 10.7777 95.1859 10.765 95.1859 10.7396V9.6337C95.1859 9.57014 95.2176 9.53836 95.2812 9.53836H95.7483C95.8119 9.53836 95.8437 9.57014 95.8437 9.6337V10.7396C95.8437 10.765 95.8564 10.7777 95.8818 10.7777H96.9591C97.0226 10.7777 97.0544 10.8095 97.0544 10.873V11.2448ZM100.365 10.711C100.873 10.711 101.277 10.8603 101.576 11.159C101.881 11.4577 102.033 11.8581 102.033 12.3602V15.5062C102.033 15.5698 102.001 15.6016 101.938 15.6016H101.452C101.388 15.6016 101.356 15.5698 101.356 15.5062V12.4937C101.356 12.1441 101.248 11.8581 101.032 11.6357C100.823 11.4133 100.549 11.302 100.212 11.302C99.8628 11.302 99.58 11.4101 99.3639 11.6262C99.1478 11.8423 99.0398 12.1251 99.0398 12.4746V15.5062C99.0398 15.5698 99.008 15.6016 98.9445 15.6016H98.4583C98.3947 15.6016 98.3629 15.5698 98.3629 15.5062V9.02356C98.3629 8.96001 98.3947 8.92823 98.4583 8.92823H98.9445C99.008 8.92823 99.0398 8.96001 99.0398 9.02356V11.283C99.0398 11.2957 99.043 11.3052 99.0493 11.3116C99.062 11.3179 99.0716 11.3147 99.0779 11.302C99.3576 10.908 99.7866 10.711 100.365 10.711ZM107.136 12.3793C107.161 12.5573 107.174 12.7797 107.174 13.0466V13.3517C107.174 13.4153 107.142 13.447 107.079 13.447H103.999C103.974 13.447 103.961 13.4597 103.961 13.4852C103.974 13.8347 103.993 14.0603 104.018 14.162C104.088 14.448 104.238 14.6737 104.466 14.8389C104.695 15.0041 104.988 15.0868 105.343 15.0868C105.61 15.0868 105.846 15.0264 106.049 14.9056C106.252 14.7849 106.411 14.6133 106.526 14.3908C106.564 14.3336 106.608 14.3209 106.659 14.3527L107.031 14.572C107.082 14.6037 107.094 14.6482 107.069 14.7054C106.91 15.0105 106.672 15.252 106.354 15.43C106.036 15.6016 105.671 15.6874 105.258 15.6874C104.806 15.681 104.428 15.573 104.123 15.3632C103.818 15.1535 103.599 14.8611 103.465 14.4862C103.351 14.1811 103.294 13.7426 103.294 13.1706C103.294 12.9036 103.297 12.6875 103.303 12.5223C103.316 12.3507 103.341 12.1982 103.38 12.0647C103.488 11.6516 103.704 11.3211 104.028 11.0732C104.358 10.8254 104.756 10.7014 105.22 10.7014C105.798 10.7014 106.243 10.8476 106.554 11.14C106.866 11.4323 107.059 11.8454 107.136 12.3793ZM105.22 11.2925C104.908 11.2925 104.648 11.3751 104.438 11.5404C104.234 11.6993 104.101 11.9153 104.037 12.1886C103.999 12.3221 103.974 12.5382 103.961 12.8369C103.961 12.8623 103.974 12.875 103.999 12.875H106.468C106.494 12.875 106.507 12.8623 106.507 12.8369C106.494 12.5509 106.475 12.3475 106.449 12.2268C106.379 11.9408 106.236 11.7151 106.02 11.5499C105.811 11.3783 105.544 11.2925 105.22 11.2925Z" fill="white"/>
<path d="M49.6382 34.6016C49.5194 34.6016 49.4402 34.5488 49.4006 34.4432L48.6878 32.1266C48.6746 32.087 48.6482 32.0672 48.6086 32.0672H43.0448C43.0052 32.0672 42.9788 32.087 42.9656 32.1266L42.2528 34.4432C42.2132 34.5488 42.134 34.6016 42.0152 34.6016H40.4114C40.2662 34.6016 40.2134 34.529 40.253 34.3838L44.5892 20.9C44.6288 20.7944 44.708 20.7416 44.8268 20.7416H46.8068C46.9256 20.7416 47.0048 20.7944 47.0444 20.9L51.4202 34.3838L51.44 34.463C51.44 34.5554 51.3806 34.6016 51.2618 34.6016H49.6382ZM43.4606 30.4634C43.4474 30.4898 43.4474 30.5162 43.4606 30.5426C43.487 30.5558 43.5134 30.5624 43.5398 30.5624H48.0938C48.1202 30.5624 48.14 30.5558 48.1532 30.5426C48.1796 30.5162 48.1862 30.4898 48.173 30.4634L45.8762 23.1176C45.863 23.0912 45.8432 23.078 45.8168 23.078C45.7904 23.078 45.7706 23.0912 45.7574 23.1176L43.4606 30.4634ZM61.1177 27.0578C61.3685 27.7706 61.4939 28.6154 61.4939 29.5922C61.4939 30.5162 61.3883 31.3148 61.1771 31.988C60.8999 32.8724 60.4445 33.5588 59.8109 34.0472C59.1773 34.5224 58.3655 34.76 57.3755 34.76C56.9267 34.76 56.4977 34.6742 56.0885 34.5026C55.6925 34.3178 55.3493 34.0604 55.0589 33.7304C55.0325 33.704 55.0061 33.6974 54.9797 33.7106C54.9665 33.7238 54.9599 33.7436 54.9599 33.77V38.1854C54.9599 38.3174 54.8939 38.3834 54.7619 38.3834H53.2571C53.1251 38.3834 53.0591 38.3174 53.0591 38.1854V24.7214C53.0591 24.5894 53.1251 24.5234 53.2571 24.5234H54.7619C54.8939 24.5234 54.9599 24.5894 54.9599 24.7214V25.3748C54.9599 25.4012 54.9665 25.421 54.9797 25.4342C55.0061 25.4474 55.0325 25.4408 55.0589 25.4144C55.3493 25.0844 55.6925 24.827 56.0885 24.6422C56.4845 24.4574 56.9135 24.365 57.3755 24.365C58.3259 24.365 59.1113 24.6026 59.7317 25.0778C60.3653 25.5398 60.8273 26.1998 61.1177 27.0578ZM58.9397 32.1662C59.3621 31.5326 59.5733 30.6614 59.5733 29.5526C59.5733 28.5362 59.4083 27.7178 59.0783 27.0974C58.6955 26.3714 58.0685 26.0084 57.1973 26.0084C56.4317 26.0084 55.8509 26.3648 55.4549 27.0776C55.1381 27.6452 54.9797 28.4768 54.9797 29.5724C54.9797 30.6812 55.1513 31.526 55.4945 32.1068C55.8773 32.78 56.4383 33.1166 57.1775 33.1166C57.9695 33.1166 58.5569 32.7998 58.9397 32.1662ZM71.6415 27.0578C71.8923 27.7706 72.0177 28.6154 72.0177 29.5922C72.0177 30.5162 71.9121 31.3148 71.7009 31.988C71.4237 32.8724 70.9683 33.5588 70.3347 34.0472C69.7011 34.5224 68.8893 34.76 67.8993 34.76C67.4505 34.76 67.0215 34.6742 66.6123 34.5026C66.2163 34.3178 65.8731 34.0604 65.5827 33.7304C65.5563 33.704 65.5299 33.6974 65.5035 33.7106C65.4903 33.7238 65.4837 33.7436 65.4837 33.77V38.1854C65.4837 38.3174 65.4177 38.3834 65.2857 38.3834H63.7809C63.6489 38.3834 63.5829 38.3174 63.5829 38.1854V24.7214C63.5829 24.5894 63.6489 24.5234 63.7809 24.5234H65.2857C65.4177 24.5234 65.4837 24.5894 65.4837 24.7214V25.3748C65.4837 25.4012 65.4903 25.421 65.5035 25.4342C65.5299 25.4474 65.5563 25.4408 65.5827 25.4144C65.8731 25.0844 66.2163 24.827 66.6123 24.6422C67.0083 24.4574 67.4373 24.365 67.8993 24.365C68.8497 24.365 69.6351 24.6026 70.2555 25.0778C70.8891 25.5398 71.3511 26.1998 71.6415 27.0578ZM69.4635 32.1662C69.8859 31.5326 70.0971 30.6614 70.0971 29.5526C70.0971 28.5362 69.9321 27.7178 69.6021 27.0974C69.2193 26.3714 68.5923 26.0084 67.7211 26.0084C66.9555 26.0084 66.3747 26.3648 65.9787 27.0776C65.6619 27.6452 65.5035 28.4768 65.5035 29.5724C65.5035 30.6812 65.6751 31.526 66.0183 32.1068C66.4011 32.78 66.9621 33.1166 67.7013 33.1166C68.4933 33.1166 69.0807 32.7998 69.4635 32.1662ZM81.9492 34.76C80.9328 34.76 80.0484 34.6016 79.296 34.2848C78.5568 33.968 77.9826 33.5192 77.5734 32.9384C77.1774 32.3576 76.9794 31.6778 76.9794 30.899V30.3248C76.9794 30.1928 77.0454 30.1268 77.1774 30.1268H78.6228C78.7548 30.1268 78.8208 30.1928 78.8208 30.3248V30.8C78.8208 31.4732 79.1112 32.0276 79.692 32.4632C80.2728 32.8988 81.0714 33.1166 82.0878 33.1166C82.9986 33.1166 83.685 32.9252 84.147 32.5424C84.609 32.1596 84.84 31.658 84.84 31.0376C84.84 30.6284 84.7212 30.2786 84.4836 29.9882C84.246 29.6978 83.8962 29.4338 83.4342 29.1962C82.9854 28.9454 82.3254 28.6484 81.4542 28.3052C80.4906 27.9356 79.725 27.599 79.1574 27.2954C78.603 26.9918 78.141 26.5958 77.7714 26.1074C77.4018 25.6058 77.217 24.9788 77.217 24.2264C77.217 23.0912 77.6196 22.2002 78.4248 21.5534C79.2432 20.9066 80.3454 20.5832 81.7314 20.5832C82.7082 20.5832 83.5662 20.7482 84.3054 21.0782C85.0446 21.4082 85.6122 21.8702 86.0082 22.4642C86.4174 23.0582 86.622 23.7446 86.622 24.5234V24.9194C86.622 25.0514 86.556 25.1174 86.424 25.1174H84.939C84.807 25.1174 84.741 25.0514 84.741 24.9194V24.6224C84.741 23.936 84.4638 23.3684 83.9094 22.9196C83.3682 22.4576 82.6158 22.2266 81.6522 22.2266C80.8338 22.2266 80.2002 22.3982 79.7514 22.7414C79.3026 23.0714 79.0782 23.5532 79.0782 24.1868C79.0782 24.6224 79.1904 24.9788 79.4148 25.256C79.6392 25.5332 79.9692 25.784 80.4048 26.0084C80.8536 26.2196 81.5334 26.4968 82.4442 26.84C83.3814 27.2096 84.1404 27.5528 84.7212 27.8696C85.302 28.1732 85.7838 28.5824 86.1666 29.0972C86.5494 29.5988 86.7408 30.2258 86.7408 30.9782C86.7408 32.1398 86.3118 33.0638 85.4538 33.7502C84.609 34.4234 83.4408 34.76 81.9492 34.76ZM93.5278 25.8896C93.5278 26.0216 93.4618 26.0876 93.3298 26.0876H91.1914C91.1386 26.0876 91.1122 26.114 91.1122 26.1668V31.4138C91.1122 31.9682 91.2376 32.3708 91.4884 32.6216C91.7392 32.8592 92.1286 32.978 92.6566 32.978H93.2308C93.3628 32.978 93.4288 33.044 93.4288 33.176V34.4036C93.4288 34.5356 93.3628 34.6016 93.2308 34.6016C92.8084 34.628 92.5048 34.6412 92.32 34.6412C91.3168 34.6412 90.5578 34.463 90.043 34.1066C89.5414 33.737 89.2906 33.0638 89.2906 32.087V26.1668C89.2906 26.114 89.2642 26.0876 89.2114 26.0876H88.0036C87.8716 26.0876 87.8056 26.0216 87.8056 25.8896V24.7214C87.8056 24.5894 87.8716 24.5234 88.0036 24.5234H89.2114C89.2642 24.5234 89.2906 24.497 89.2906 24.4442V22.1078C89.2906 21.9758 89.3566 21.9098 89.4886 21.9098H90.9142C91.0462 21.9098 91.1122 21.9758 91.1122 22.1078V24.4442C91.1122 24.497 91.1386 24.5234 91.1914 24.5234H93.3298C93.4618 24.5234 93.5278 24.5894 93.5278 24.7214V25.8896ZM99.2364 34.76C98.2596 34.76 97.4082 34.5158 96.6822 34.0274C95.9562 33.5258 95.448 32.8328 95.1576 31.9484C94.92 31.2356 94.8012 30.4304 94.8012 29.5328C94.8012 28.5956 94.9134 27.8036 95.1378 27.1568C95.4282 26.2856 95.9364 25.6058 96.6624 25.1174C97.3884 24.6158 98.253 24.365 99.2562 24.365C100.207 24.365 101.032 24.6158 101.731 25.1174C102.444 25.6058 102.952 26.279 103.256 27.137C103.493 27.8102 103.612 28.6022 103.612 29.513C103.612 30.437 103.493 31.2488 103.256 31.9484C102.965 32.8328 102.464 33.5258 101.751 34.0274C101.038 34.5158 100.2 34.76 99.2364 34.76ZM99.2364 33.1166C99.7644 33.1166 100.226 32.9714 100.622 32.681C101.018 32.3774 101.302 31.955 101.474 31.4138C101.619 30.9122 101.692 30.2918 101.692 29.5526C101.692 28.8134 101.626 28.1996 101.494 27.7112C101.322 27.17 101.038 26.7542 100.642 26.4638C100.246 26.1602 99.7644 26.0084 99.1968 26.0084C98.6556 26.0084 98.187 26.1602 97.791 26.4638C97.395 26.7542 97.1112 27.17 96.9396 27.7112C96.7944 28.1732 96.7218 28.787 96.7218 29.5526C96.7218 30.3182 96.7944 30.9386 96.9396 31.4138C97.098 31.955 97.3752 32.3774 97.7712 32.681C98.1804 32.9714 98.6688 33.1166 99.2364 33.1166ZM109.999 24.4244C110.422 24.4244 110.804 24.5102 111.148 24.6818C111.24 24.7214 111.273 24.8006 111.247 24.9194L110.93 26.4044C110.917 26.5232 110.837 26.5628 110.692 26.5232C110.468 26.4308 110.204 26.3846 109.9 26.3846L109.623 26.4044C109.003 26.4308 108.488 26.6486 108.079 27.0578C107.683 27.4538 107.485 27.9752 107.485 28.622V34.4036C107.485 34.5356 107.419 34.6016 107.287 34.6016H105.782C105.65 34.6016 105.584 34.5356 105.584 34.4036V24.7214C105.584 24.5894 105.65 24.5234 105.782 24.5234H107.287C107.419 24.5234 107.485 24.5894 107.485 24.7214V25.7708C107.485 25.8104 107.491 25.8368 107.504 25.85C107.531 25.85 107.551 25.8368 107.564 25.8104C108.158 24.8864 108.97 24.4244 109.999 24.4244ZM120.417 28.3052C120.47 28.8464 120.49 29.4536 120.477 30.1268C120.477 30.2588 120.411 30.3248 120.279 30.3248H113.963C113.91 30.3248 113.883 30.3512 113.883 30.404C113.883 30.8528 113.923 31.196 114.002 31.4336C114.147 31.9616 114.438 32.3774 114.873 32.681C115.322 32.9714 115.883 33.1166 116.556 33.1166C117.533 33.1166 118.286 32.714 118.814 31.9088C118.88 31.7768 118.965 31.757 119.071 31.8494L120.2 32.6018C120.292 32.681 120.312 32.7668 120.259 32.8592C119.889 33.4532 119.361 33.9218 118.675 34.265C118.002 34.6082 117.236 34.7798 116.378 34.7798C115.415 34.7798 114.603 34.5686 113.943 34.1462C113.283 33.7238 112.788 33.1232 112.458 32.3444C112.141 31.5656 111.983 30.6218 111.983 29.513C111.983 28.5494 112.055 27.8168 112.2 27.3152C112.438 26.4044 112.913 25.685 113.626 25.157C114.339 24.629 115.203 24.365 116.22 24.365C117.553 24.365 118.55 24.7016 119.21 25.3748C119.87 26.0348 120.272 27.0116 120.417 28.3052ZM116.22 26.0084C115.652 26.0084 115.184 26.1536 114.814 26.444C114.444 26.7212 114.194 27.0974 114.062 27.5726C113.969 27.863 113.91 28.2326 113.883 28.6814C113.883 28.7342 113.91 28.7606 113.963 28.7606H118.497C118.55 28.7606 118.576 28.7342 118.576 28.6814C118.55 28.2458 118.51 27.9224 118.457 27.7112C118.325 27.1964 118.061 26.7872 117.665 26.4836C117.282 26.1668 116.801 26.0084 116.22 26.0084Z" fill="white"/>
</svg>
