<svg width="24" height="24" viewBox="0 0 24 24" fill="none" xmlns="http://www.w3.org/2000/svg">
<path d="M9.57244 0H7.6582V0.95996H9.57244V0Z" fill="#187E7D"/>
<path d="M11.4852 0H12.4423V0.95996H14.3566V1.91992H11.4852V0Z" fill="#187E7D"/>
<path d="M15.3152 0H16.2723V10.5596H15.3152V8.63964H14.358V9.5996H13.4005V8.63964H12.4438V7.67968H11.4867V4.7998H10.5296V2.87988H7.6582V1.91992H9.57244V0.95996H10.5296V1.91992H11.4867V2.87988H14.358V3.83984H12.4438V6.71972H13.4005V5.75976H14.358V7.67968H15.3152V4.7998H14.358V3.83984H15.3152V0Z" fill="#187E7D"/>
<path d="M0.5 0.000488281C0.223858 0.000488281 0 0.224346 0 0.500488V6.22021C0 6.49635 0.223858 6.72021 0.5 6.72021H6.19983C6.47598 6.72021 6.69983 6.49635 6.69983 6.22021V0.500488C6.69983 0.224346 6.47598 0.000488281 6.19983 0.000488281H0.5ZM5.74271 5.26025C5.74271 5.53639 5.51886 5.76025 5.24271 5.76025H1.45712C1.18098 5.76025 0.957119 5.53639 0.957119 5.26025V1.46045C0.957119 1.18431 1.18098 0.960448 1.45712 0.960448H5.24271C5.51886 0.960448 5.74271 1.18431 5.74271 1.46045V5.26025Z" fill="#187E7D"/>
<path d="M17.7265 0C17.4504 0 17.2265 0.223858 17.2265 0.5V6.21972C17.2265 6.49586 17.4504 6.71972 17.7265 6.71972H23.4263C23.7025 6.71972 23.9263 6.49586 23.9263 6.21972V0.5C23.9263 0.223857 23.7025 0 23.4263 0H17.7265ZM22.9692 5.25976C22.9692 5.5359 22.7454 5.75976 22.4692 5.75976H18.6836C18.4075 5.75976 18.1836 5.5359 18.1836 5.25976V1.45996C18.1836 1.18382 18.4075 0.95996 18.6836 0.95996H22.4692C22.7454 0.95996 22.9692 1.18382 22.9692 1.45996V5.25976Z" fill="#187E7D"/>
<path d="M4.78573 1.91992H1.91437V4.7998H4.78573V1.91992Z" fill="#187E7D"/>
<path d="M22.0147 1.91992H19.1433V4.7998H22.0147V1.91992Z" fill="#187E7D"/>
<path d="M7.6582 3.84082H9.57244V5.76074H8.61532V4.80078H7.6582V3.84082Z" fill="#187E7D"/>
<path d="M7.6582 5.75928H8.61532V6.71924H9.57244V5.75928H10.5296V7.6792H11.4867V8.63916H12.4438V9.59912H11.4867V10.5591H10.5296V8.63916H9.57244V7.6792H7.6582V5.75928Z" fill="#187E7D"/>
<path d="M6.69802 7.68018H4.78378V8.64014H6.69802V7.68018Z" fill="#187E7D"/>
<path d="M20.1005 7.68018H19.1433V8.64014H20.1005V7.68018Z" fill="#187E7D"/>
<path d="M21.0577 7.68018H22.0148V9.6001H23.929V12.48H22.0148V10.5601H21.0577V7.68018Z" fill="#187E7D"/>
<path d="M23.9266 7.68018H22.9695V8.64014H23.9266V7.68018Z" fill="#187E7D"/>
<path d="M2.87185 8.63965H0.957611V9.59961H2.87185V8.63965Z" fill="#187E7D"/>
<path d="M4.78582 8.63965H3.8287V9.59961H4.78582V8.63965Z" fill="#187E7D"/>
<path d="M0.957149 9.59863H3.05176e-05V10.5586H0.957149V9.59863Z" fill="#187E7D"/>
<path d="M6.70098 9.59863H5.74387V10.5586H6.70098V9.59863Z" fill="#187E7D"/>
<path d="M1.91473 10.5596H3.82897V12.4795H2.87185V13.4394H1.91473V12.4795H0.957611V11.5195H1.91473V10.5596Z" fill="#187E7D"/>
<path d="M5.7409 10.5596H4.78378V11.5195H5.7409V10.5596Z" fill="#187E7D"/>
<path d="M15.3117 10.5596H14.3546V11.5195H15.3117V10.5596Z" fill="#187E7D"/>
<path d="M6.70098 11.519H5.74387V12.479H6.70098V11.519Z" fill="#187E7D"/>
<path d="M0.957149 12.48H3.05176e-05V16.3198H0.957149V12.48Z" fill="#187E7D"/>
<path d="M4.78582 12.48H3.8287V13.4403H4.78582V12.48Z" fill="#187E7D"/>
<path d="M3.82907 13.439H2.87195V14.3989H3.82907V13.439Z" fill="#187E7D"/>
<path d="M6.70098 13.439H5.74387V14.3989H6.70098V13.439Z" fill="#187E7D"/>
<path d="M7.6582 13.439H8.61532V14.3989H9.57244V16.3188H8.61532V17.2788H7.6582V13.439Z" fill="#187E7D"/>
<path d="M20.0996 13.439H18.1858V14.3989H20.0996V13.439Z" fill="#187E7D"/>
<path d="M23.9287 13.439H22.0144V14.3989H23.9287V13.439Z" fill="#187E7D"/>
<path d="M4.78582 14.3999H3.8287V15.3599H4.78582V14.3999Z" fill="#187E7D"/>
<path d="M2.87149 15.3599H1.91437V16.3202H2.87149V15.3599Z" fill="#187E7D"/>
<path d="M6.69802 15.3599H4.78378V16.3202H6.69802V15.3599Z" fill="#187E7D"/>
<path d="M10.5297 16.3193H9.57254V17.2793H10.5297V16.3193Z" fill="#187E7D"/>
<path d="M23.9296 16.3198V15.3599H22.0154V14.3999H20.1011V15.3599H16.2726V14.3999H17.2298V13.4399H18.1869V12.48H20.1011V13.4399H21.0582V10.5601H20.1011V9.6001H19.144V10.5601H18.1869V9.6001H19.144V8.64014H18.1869V7.68018H17.2298V10.5601H16.2726V13.4399H14.3584V11.52H13.4009V13.4399H12.4438V10.5601H11.4867V12.48H10.5296V10.5601H7.6582V11.52H8.61532V13.4399H9.57281V14.3999H10.5299V13.4399H11.487V14.3999H10.5299V16.3198H11.487V17.2798H12.4442V15.3599H13.4013V17.2798H14.3584V16.3198H15.3155V17.2798H14.3584V18.2397H13.4009V21.1196H11.487V22.0796H13.4009V23.0395H11.487V23.9995H16.2726V23.0395H15.3155V22.0796H14.3584V19.1997H15.3155V20.1597H16.2726V21.1196H17.2298V20.1597H20.1011V21.1196H21.0582V20.1597H22.0154V19.1997H21.0582V17.2798H20.1011V16.3198H23.9296ZM15.3155 15.3599H14.3584V14.3999H15.3155V15.3599ZM19.144 19.1997H16.2726V16.3198H19.144V19.1997Z" fill="#187E7D"/>
<path d="M11.4831 17.2803H10.5259V19.2002H11.4831V17.2803Z" fill="#187E7D"/>
<path d="M18.184 17.2803H17.2265V18.2406H18.184V17.2803Z" fill="#187E7D"/>
<path d="M23.9266 17.2803H22.9695V19.2002H23.9266V17.2803Z" fill="#187E7D"/>
<path d="M0.500031 17.2803C0.223888 17.2803 3.05176e-05 17.5041 3.05176e-05 17.7803V23.5C3.05176e-05 23.7761 0.223888 24 0.500031 24H6.19986C6.47601 24 6.69986 23.7761 6.69986 23.5V17.7803C6.69986 17.5041 6.47601 17.2803 6.19986 17.2803H0.500031ZM5.74274 22.54C5.74274 22.8162 5.51889 23.04 5.24274 23.04H1.45715C1.18101 23.04 0.957149 22.8162 0.957149 22.54V18.7402C0.957149 18.4641 1.18101 18.2402 1.45715 18.2402H5.24274C5.51889 18.2402 5.74274 18.4641 5.74274 18.7402V22.54Z" fill="#187E7D"/>
<path d="M7.6582 18.2393H9.57244V20.1592H10.5296V21.1191H9.57244V22.0791H8.61532V19.1992H7.6582V18.2393Z" fill="#187E7D"/>
<path d="M4.78573 19.1992H1.91437V22.0791H4.78573V19.1992Z" fill="#187E7D"/>
<path d="M12.4423 19.1992H11.4852V20.1592H12.4423V19.1992Z" fill="#187E7D"/>
<path d="M23.9266 20.1587H22.9695V23.9985H23.9266V20.1587Z" fill="#187E7D"/>
<path d="M16.2713 21.1196H15.3138V22.0796H16.2713V21.1196Z" fill="#187E7D"/>
<path d="M17.2265 21.1196H19.1407V22.0796H21.055V23.9995H20.0979V23.0395H18.1836V23.9995H17.2265V21.1196Z" fill="#187E7D"/>
<path d="M22.0148 21.1196H21.0577V22.0796H22.0148V21.1196Z" fill="#187E7D"/>
<path d="M11.4831 22.0786H10.5259V23.0389H11.4831V22.0786Z" fill="#187E7D"/>
<path d="M9.57208 23.0396H8.61496V23.9995H9.57208V23.0396Z" fill="#187E7D"/>
</svg>
