<svg width="9" height="6" viewBox="0 0 9 6" fill="none" xmlns="http://www.w3.org/2000/svg">
<path d="M4.94632 5.3192L8.82118 1.54376C8.93689 1.42792 9.00112 1.27235 8.99999 1.11072C8.99885 0.949094 8.93244 0.794399 8.81511 0.680107C8.69779 0.565816 8.53899 0.501121 8.37307 0.500015C8.20715 0.498909 8.04746 0.561485 7.92854 0.674201L4.49962 4.01449L1.07146 0.674934C0.952538 0.562218 0.792845 0.499642 0.626928 0.500748C0.461011 0.501854 0.302212 0.566549 0.184888 0.680841C0.0675641 0.795132 0.00115005 0.949827 1.47695e-05 1.11146C-0.00112051 1.27308 0.0631143 1.42865 0.178822 1.54449L4.05368 5.31993C4.17206 5.43523 4.3326 5.5 4.5 5.5C4.6674 5.5 4.82794 5.43449 4.94632 5.3192Z" fill="#187E7D"/>
</svg>
