<svg width="128" height="44" viewBox="0 0 128 44" fill="none" xmlns="http://www.w3.org/2000/svg">
<rect x="1.35002" y="0.55" width="125.767" height="42.9" rx="8.25" fill="black"/>
<rect x="1.35002" y="0.55" width="125.767" height="42.9" rx="8.25" stroke="#187E7D" stroke-width="1.1"/>
<path d="M20.5578 20.8639L9.70139 32.6467C9.70241 32.6488 9.70241 32.6519 9.70342 32.654C10.0369 33.9334 11.1789 34.875 12.535 34.875C13.0775 34.875 13.5863 34.7248 14.0227 34.4621L14.0574 34.4412L26.2771 27.2308L20.5578 20.8639Z" fill="#EA4335"/>
<path d="M31.5392 18.8623L31.529 18.855L26.2533 15.7279L20.3097 21.1365L26.2747 27.2344L31.5219 24.1385C32.4416 23.6297 33.0667 22.638 33.0667 21.4952C33.0667 20.3587 32.4508 19.3722 31.5392 18.8623Z" fill="#FBBC04"/>
<path d="M9.69975 10.2851C9.63449 10.5312 9.59982 10.7898 9.59982 11.0568V31.8779C9.59982 32.1448 9.63449 32.4034 9.70077 32.6484L20.9293 21.167L9.69975 10.2851Z" fill="#4285F4"/>
<path d="M20.6364 21.4688L26.2547 15.7244L14.0493 8.48788C13.6058 8.21573 13.0878 8.05932 12.5341 8.05932C11.1779 8.05932 10.0339 9.00299 9.70045 10.2835C9.70045 10.2845 9.69943 10.2855 9.69943 10.2866L20.6364 21.4688Z" fill="#34A853"/>
<path d="M43.7768 16.5879C43.2635 16.5879 42.8125 16.4889 42.4238 16.2909C42.0351 16.0855 41.7308 15.7995 41.5108 15.4329C41.2981 15.0662 41.1918 14.6445 41.1918 14.1679V11.1319C41.1918 10.6552 41.2981 10.2335 41.5108 9.86688C41.7308 9.50021 42.0351 9.21788 42.4238 9.01988C42.8125 8.81455 43.2635 8.71188 43.7768 8.71188C44.2828 8.71188 44.7301 8.81088 45.1188 9.00888C45.5148 9.20688 45.8191 9.48554 46.0318 9.84488C46.2445 10.1969 46.3508 10.5965 46.3508 11.0439V11.1869C46.3508 11.2602 46.3141 11.2969 46.2408 11.2969H45.6798C45.6065 11.2969 45.5698 11.2602 45.5698 11.1869V11.0549C45.5698 10.5635 45.4048 10.1639 45.0748 9.85588C44.7521 9.54788 44.3195 9.39388 43.7768 9.39388C43.2341 9.39388 42.7978 9.55154 42.4678 9.86688C42.1378 10.1822 41.9728 10.5965 41.9728 11.1099V14.1899C41.9728 14.7032 42.1415 15.1175 42.4788 15.4329C42.8161 15.7482 43.2598 15.9059 43.8098 15.9059C44.3451 15.9059 44.7705 15.7592 45.0858 15.4659C45.4085 15.1725 45.5698 14.7802 45.5698 14.2889V13.2879C45.5698 13.2585 45.5551 13.2439 45.5258 13.2439H43.9088C43.8355 13.2439 43.7988 13.2072 43.7988 13.1339V12.6719C43.7988 12.5985 43.8355 12.5619 43.9088 12.5619H46.2408C46.3141 12.5619 46.3508 12.5985 46.3508 12.6719V14.0909C46.3508 14.8755 46.1161 15.4879 45.6468 15.9279C45.1848 16.3679 44.5615 16.5879 43.7768 16.5879ZM53.1629 9.37188C53.1629 9.44521 53.1262 9.48188 53.0529 9.48188H49.0049C48.9756 9.48188 48.9609 9.49655 48.9609 9.52588V12.2429C48.9609 12.2722 48.9756 12.2869 49.0049 12.2869H51.8429C51.9162 12.2869 51.9529 12.3235 51.9529 12.3969V12.8589C51.9529 12.9322 51.9162 12.9689 51.8429 12.9689H49.0049C48.9756 12.9689 48.9609 12.9835 48.9609 13.0129V15.7739C48.9609 15.8032 48.9756 15.8179 49.0049 15.8179H53.0529C53.1262 15.8179 53.1629 15.8545 53.1629 15.9279V16.3899C53.1629 16.4632 53.1262 16.4999 53.0529 16.4999H48.2899C48.2166 16.4999 48.1799 16.4632 48.1799 16.3899V8.90988C48.1799 8.83654 48.2166 8.79988 48.2899 8.79988H53.0529C53.1262 8.79988 53.1629 8.83654 53.1629 8.90988V9.37188ZM59.4821 8.79988C59.5554 8.79988 59.5921 8.83654 59.5921 8.90988V9.38288C59.5921 9.45621 59.5554 9.49288 59.4821 9.49288H57.3261C57.2967 9.49288 57.2821 9.50754 57.2821 9.53688V16.3899C57.2821 16.4632 57.2454 16.4999 57.1721 16.4999H56.6111C56.5377 16.4999 56.5011 16.4632 56.5011 16.3899V9.53688C56.5011 9.50754 56.4864 9.49288 56.4571 9.49288H54.3891C54.3157 9.49288 54.2791 9.45621 54.2791 9.38288V8.90988C54.2791 8.83654 54.3157 8.79988 54.3891 8.79988H59.4821ZM63.4149 16.4999C63.3416 16.4999 63.3049 16.4632 63.3049 16.3899V8.90988C63.3049 8.83654 63.3416 8.79988 63.4149 8.79988H63.9759C64.0492 8.79988 64.0859 8.83654 64.0859 8.90988V16.3899C64.0859 16.4632 64.0492 16.4999 63.9759 16.4999H63.4149ZM70.7936 8.79988C70.8669 8.79988 70.9036 8.83654 70.9036 8.90988V9.38288C70.9036 9.45621 70.8669 9.49288 70.7936 9.49288H68.6376C68.6082 9.49288 68.5936 9.50754 68.5936 9.53688V16.3899C68.5936 16.4632 68.5569 16.4999 68.4836 16.4999H67.9226C67.8492 16.4999 67.8126 16.4632 67.8126 16.3899V9.53688C67.8126 9.50754 67.7979 9.49288 67.7686 9.49288H65.7006C65.6272 9.49288 65.5906 9.45621 65.5906 9.38288V8.90988C65.5906 8.83654 65.6272 8.79988 65.7006 8.79988H70.7936ZM76.9924 16.5879C76.4718 16.5879 76.0134 16.4815 75.6174 16.2689C75.2214 16.0562 74.9134 15.7592 74.6934 15.3779C74.4808 14.9892 74.3744 14.5419 74.3744 14.0359V11.2639C74.3744 10.7579 74.4808 10.3142 74.6934 9.93288C74.9134 9.54421 75.2214 9.24354 75.6174 9.03088C76.0134 8.81821 76.4718 8.71188 76.9924 8.71188C77.5131 8.71188 77.9714 8.81821 78.3674 9.03088C78.7708 9.24354 79.0788 9.54421 79.2914 9.93288C79.5114 10.3142 79.6214 10.7579 79.6214 11.2639V14.0359C79.6214 14.5419 79.5114 14.9892 79.2914 15.3779C79.0788 15.7592 78.7708 16.0562 78.3674 16.2689C77.9714 16.4815 77.5131 16.5879 76.9924 16.5879ZM76.9924 15.9169C77.5498 15.9169 77.9971 15.7482 78.3344 15.4109C78.6718 15.0735 78.8404 14.6262 78.8404 14.0689V11.2529C78.8404 10.6955 78.6718 10.2482 78.3344 9.91088C77.9971 9.56621 77.5498 9.39388 76.9924 9.39388C76.4424 9.39388 75.9988 9.56621 75.6614 9.91088C75.3241 10.2482 75.1554 10.6955 75.1554 11.2529V14.0689C75.1554 14.6262 75.3241 15.0735 75.6614 15.4109C75.9988 15.7482 76.4424 15.9169 76.9924 15.9169ZM86.0462 8.90988C86.0462 8.83654 86.0829 8.79988 86.1562 8.79988H86.7172C86.7905 8.79988 86.8272 8.83654 86.8272 8.90988V16.3899C86.8272 16.4632 86.7905 16.4999 86.7172 16.4999H86.1672C86.1159 16.4999 86.0719 16.4742 86.0352 16.4229L82.2842 10.3179C82.2769 10.2959 82.2659 10.2885 82.2512 10.2959C82.2365 10.2959 82.2292 10.3069 82.2292 10.3289L82.2402 16.3899C82.2402 16.4632 82.2035 16.4999 82.1302 16.4999H81.5692C81.4959 16.4999 81.4592 16.4632 81.4592 16.3899V8.90988C81.4592 8.83654 81.4959 8.79988 81.5692 8.79988H82.1192C82.1705 8.79988 82.2145 8.82554 82.2512 8.87688L86.0022 14.9819C86.0095 15.0039 86.0205 15.0149 86.0352 15.0149C86.0499 15.0075 86.0572 14.9929 86.0572 14.9709L86.0462 8.90988Z" fill="white"/>
<path d="M97.9698 32.956H99.6V22.1892H97.9698V32.956ZM112.654 26.0675L110.785 30.7356H110.729L108.789 26.0675H107.033L109.942 32.5917L108.284 36.2211H109.984L114.466 26.0675H112.654ZM103.408 31.733C102.874 31.733 102.129 31.4703 102.129 30.8183C102.129 29.988 103.056 29.6694 103.857 29.6694C104.574 29.6694 104.912 29.8218 105.347 30.0294C105.22 31.0267 104.349 31.733 103.408 31.733ZM103.605 25.8324C102.425 25.8324 101.201 26.3448 100.696 27.4809L102.143 28.076C102.453 27.4809 103.028 27.2862 103.633 27.2862C104.476 27.2862 105.333 27.7849 105.347 28.672V28.7822C105.052 28.616 104.42 28.3671 103.647 28.3671C102.087 28.3671 100.499 29.212 100.499 30.7907C100.499 32.2317 101.778 33.1601 103.211 33.1601C104.307 33.1601 104.912 32.6752 105.291 32.1068H105.347V32.9379H106.921V28.8098C106.921 26.8986 105.474 25.8324 103.605 25.8324ZM93.5297 27.3784H91.211V23.6878H93.5297C94.7485 23.6878 95.4405 24.6826 95.4405 25.5327C95.4405 26.3672 94.7485 27.3784 93.5297 27.3784ZM93.4878 22.1892H89.5816V32.956H91.211V28.877H93.4878C95.2946 28.877 97.0707 27.5868 97.0707 25.5327C97.0707 23.4785 95.2946 22.1892 93.4878 22.1892ZM72.1867 31.7347C71.0606 31.7347 70.1179 30.8054 70.1179 29.529C70.1179 28.2388 71.0606 27.2948 72.1867 27.2948C73.2989 27.2948 74.1708 28.2388 74.1708 29.529C74.1708 30.8054 73.2989 31.7347 72.1867 31.7347ZM74.059 26.6704H74.0022C73.6362 26.2406 72.9328 25.8522 72.0461 25.8522C70.1878 25.8522 68.485 27.4611 68.485 29.529C68.485 31.5823 70.1878 33.1782 72.0461 33.1782C72.9328 33.1782 73.6362 32.7898 74.0022 32.3453H74.059V32.8733C74.059 34.2746 73.2989 35.0239 72.074 35.0239C71.0745 35.0239 70.4551 34.3159 70.2017 33.7191L68.7803 34.3022C69.1883 35.2737 70.2725 36.4666 72.074 36.4666C73.9882 36.4666 75.6072 35.3564 75.6072 32.6511V26.0735H74.059V26.6704ZM76.7333 32.956H78.3662V22.1883H76.7333V32.956ZM80.7723 29.4041C80.7304 27.989 81.8845 27.2673 82.7145 27.2673C83.3628 27.2673 83.9115 27.5859 84.0941 28.0441L80.7723 29.4041ZM85.8397 28.1828C85.5304 27.3646 84.5868 25.8522 82.6586 25.8522C80.7444 25.8522 79.1543 27.3362 79.1543 29.5152C79.1543 31.5685 80.7304 33.1782 82.8412 33.1782C84.5449 33.1782 85.5304 32.1516 85.9384 31.5547L84.6715 30.7218C84.2496 31.3325 83.6721 31.7347 82.8412 31.7347C82.0112 31.7347 81.4197 31.36 81.0397 30.6254L86.0083 28.5988L85.8397 28.1828ZM46.2552 26.9762V28.5299H50.0268C49.9141 29.4041 49.6188 30.0423 49.1689 30.4859C48.6193 31.0276 47.7605 31.6245 46.2552 31.6245C43.9321 31.6245 42.1166 29.7787 42.1166 27.4895C42.1166 25.1993 43.9321 23.3545 46.2552 23.3545C47.508 23.3545 48.4228 23.8402 49.0981 24.4647L50.2103 23.3683C49.2667 22.4803 48.0148 21.7999 46.2552 21.7999C43.0741 21.7999 40.3998 24.3536 40.3998 27.4895C40.3998 30.6254 43.0741 33.1782 46.2552 33.1782C47.972 33.1782 49.2667 32.6227 50.2802 31.5823C51.3225 30.5556 51.6458 29.113 51.6458 27.9468C51.6458 27.5859 51.6178 27.2535 51.561 26.9762H46.2552ZM55.9346 31.7347C54.8085 31.7347 53.8369 30.8192 53.8369 29.5152C53.8369 28.1966 54.8085 27.2948 55.9346 27.2948C57.0599 27.2948 58.0314 28.1966 58.0314 29.5152C58.0314 30.8192 57.0599 31.7347 55.9346 31.7347ZM55.9346 25.8522C53.8789 25.8522 52.204 27.3921 52.204 29.5152C52.204 31.6245 53.8789 33.1782 55.9346 33.1782C57.9895 33.1782 59.6644 31.6245 59.6644 29.5152C59.6644 27.3921 57.9895 25.8522 55.9346 25.8522ZM64.0712 31.7347C62.945 31.7347 61.9735 30.8192 61.9735 29.5152C61.9735 28.1966 62.945 27.2948 64.0712 27.2948C65.1973 27.2948 66.168 28.1966 66.168 29.5152C66.168 30.8192 65.1973 31.7347 64.0712 31.7347ZM64.0712 25.8522C62.0163 25.8522 60.3414 27.3921 60.3414 29.5152C60.3414 31.6245 62.0163 33.1782 64.0712 33.1782C66.126 33.1782 67.8009 31.6245 67.8009 29.5152C67.8009 27.3921 66.126 25.8522 64.0712 25.8522Z" fill="white"/>
</svg>
