<svg width="9" height="5" viewBox="0 0 9 5" fill="none" xmlns="http://www.w3.org/2000/svg">
<path d="M4.94632 4.8192L8.82118 1.04376C8.93689 0.927916 9.00112 0.77235 8.99999 0.610722C8.99885 0.449094 8.93244 0.294399 8.81511 0.180107C8.69779 0.0658163 8.53899 0.00112071 8.37307 1.47795e-05C8.20715 -0.00109116 8.04746 0.0614845 7.92854 0.174201L4.49962 3.51449L1.07146 0.174934C0.952538 0.0622176 0.792845 -0.000358076 0.626928 0.000747845C0.461011 0.00185377 0.302212 0.0665493 0.184888 0.180841C0.0675641 0.295132 0.00115005 0.449827 1.47695e-05 0.611455C-0.00112051 0.773083 0.0631143 0.928649 0.178822 1.04449L4.05368 4.81993C4.17206 4.93523 4.3326 5 4.5 5C4.6674 5 4.82794 4.93449 4.94632 4.8192Z" fill="#475569"/>
</svg>
