<svg width="72" height="73" viewBox="0 0 72 73" fill="none" xmlns="http://www.w3.org/2000/svg">
<circle cx="36" cy="36.8394" r="36" fill="#CFE6DB"/>
<path d="M40.5521 24.8412C42.5865 26.1168 44.0131 28.2753 44.2729 30.7809C45.1026 31.1686 46.0234 31.3915 46.9997 31.3915C50.564 31.3915 53.4528 28.5027 53.4528 24.939C53.4528 21.3747 50.564 18.4858 46.9997 18.4858C43.4695 18.4869 40.6059 21.3242 40.5521 24.8412ZM36.3245 38.0538C39.8888 38.0538 42.7776 35.1644 42.7776 31.6007C42.7776 28.037 39.8882 25.1482 36.3245 25.1482C32.7608 25.1482 29.8703 28.0376 29.8703 31.6013C29.8703 35.165 32.7608 38.0538 36.3245 38.0538ZM39.0618 38.4937H33.5861C29.0302 38.4937 25.3237 42.2007 25.3237 46.7567V53.453L25.3407 53.5579L25.802 53.7023C30.1498 55.0608 33.9271 55.5138 37.0362 55.5138C43.1088 55.5138 46.6285 53.7825 46.8454 53.6721L47.2765 53.4541H47.3226V46.7567C47.3243 42.2007 43.6178 38.4937 39.0618 38.4937ZM49.7381 31.8319H44.3047C44.246 34.0058 43.318 35.9634 41.8502 37.3713C45.8999 38.5755 48.8629 42.3308 48.8629 46.7665V48.8301C54.2276 48.6335 57.3191 47.113 57.5228 47.0109L57.9539 46.7923H58V40.0938C58 35.5384 54.2935 31.8319 49.7381 31.8319ZM25.0014 31.3926C26.2638 31.3926 27.4383 31.0242 28.4333 30.3965C28.7496 28.3335 29.8555 26.5308 31.4353 25.303C31.4419 25.1822 31.4534 25.0625 31.4534 24.9406C31.4534 21.3763 28.564 18.4875 25.0014 18.4875C21.4366 18.4875 18.5483 21.3763 18.5483 24.9406C18.5483 28.5032 21.4366 31.3926 25.0014 31.3926ZM30.7967 37.3713C29.336 35.9705 28.4113 34.0234 28.3438 31.8627C28.1423 31.8478 27.9429 31.8319 27.7376 31.8319H22.2624C17.7065 31.8319 14 35.5384 14 40.0938V46.7912L14.017 46.8945L14.4783 47.04C17.9662 48.1289 21.0791 48.6308 23.7829 48.7889V46.7665C23.784 42.3308 26.7459 38.5766 30.7967 37.3713Z" fill="#187E7D"/>
<path d="M36.3241 38.0536C39.8883 38.0536 42.7772 35.1642 42.7772 31.6005C42.7772 28.0368 39.8878 25.1479 36.3241 25.1479C32.7604 25.1479 29.8699 28.0374 29.8699 31.6011C29.8699 35.1648 32.7604 38.0536 36.3241 38.0536ZM39.0614 38.4935H33.5857C29.0297 38.4935 25.3232 42.2005 25.3232 46.7564V53.4528L25.3403 53.5577L25.8015 53.7021C30.1494 55.0606 33.9267 55.5136 37.0357 55.5136C43.1083 55.5136 46.6281 53.7823 46.845 53.6719L47.276 53.4539H47.3221V46.7564C47.3238 42.2005 43.6173 38.4935 39.0614 38.4935Z" fill="#7AC19F"/>
</svg>
