<svg width="26" height="26" viewBox="0 0 26 26" fill="none" xmlns="http://www.w3.org/2000/svg">
<path d="M22.2332 16.5968L19.3699 14.8894C18.1056 14.1354 16.4752 14.5038 15.6573 15.7247L14.702 17.1503C12.1388 15.9619 10.0392 13.857 8.8497 11.283L10.271 10.3384C11.4952 9.52477 11.8679 7.89543 11.1182 6.6301L9.4239 3.77117C8.95482 2.98034 8.03197 2.56868 7.11547 2.75393C5.6248 3.05185 4.31265 3.96512 3.51423 5.2597C2.72123 6.54778 2.50251 8.05252 2.9001 9.49769C4.70926 16.08 9.92442 21.2919 16.51 23.1C16.9813 23.2289 17.4569 23.2929 17.9303 23.2929C18.9107 23.2929 19.8769 23.0188 20.7447 22.4836C22.0382 21.6852 22.9514 20.3733 23.2494 18.8837C23.4292 17.9856 23.0219 17.0669 22.2332 16.5968ZM22.1867 18.6713C21.9472 19.8673 21.215 20.9214 20.176 21.5628C19.148 22.1965 17.9455 22.372 16.7983 22.0568C10.5789 20.3494 5.65294 15.4278 3.94561 9.21168C3.62819 8.06009 3.80245 6.8587 4.43729 5.82953C5.07862 4.79062 6.13166 4.05609 7.34716 3.81343C7.41758 3.79934 7.48915 3.79177 7.55848 3.79177C7.93765 3.79177 8.2963 3.99002 8.49238 4.32369L10.1856 7.18261C10.6417 7.95178 10.4152 8.94194 9.66987 9.43702L7.87031 10.6341C7.65473 10.7782 7.57151 11.0544 7.6701 11.2938C8.98743 14.4507 11.5462 17.016 14.6901 18.3301C14.9284 18.4298 15.2057 18.3474 15.3476 18.1319L16.5555 16.3281C17.0538 15.586 18.044 15.3618 18.8142 15.82L21.6775 17.5273C22.0729 17.7624 22.2766 18.2218 22.1867 18.6713ZM14.625 7.58344C14.625 7.28444 14.8677 7.04177 15.1667 7.04177C17.2575 7.04177 18.9583 8.7426 18.9583 10.8334C18.9583 11.1324 18.7157 11.3751 18.4167 11.3751C18.1177 11.3751 17.875 11.1324 17.875 10.8334C17.875 9.3406 16.6606 8.1251 15.1667 8.1251C14.8677 8.1251 14.625 7.88244 14.625 7.58344ZM14.625 4.33344C14.625 4.03444 14.8677 3.79177 15.1667 3.79177C19.0493 3.79177 22.2083 6.95077 22.2083 10.8334C22.2083 11.1324 21.9657 11.3751 21.6667 11.3751C21.3677 11.3751 21.125 11.1324 21.125 10.8334C21.125 7.54769 18.4513 4.8751 15.1667 4.8751C14.8677 4.8751 14.625 4.63244 14.625 4.33344Z" fill="#1F7F7B"/>
</svg>
