<svg width="20" height="20" viewBox="0 0 20 20" fill="none" xmlns="http://www.w3.org/2000/svg">
<path d="M18.9789 5.31203C18.7628 4.50877 18.1295 3.87556 17.3264 3.65927C15.8591 3.25781 9.99001 3.25781 9.99001 3.25781C9.99001 3.25781 4.12113 3.25781 2.65388 3.64405C1.86619 3.86012 1.21742 4.50888 1.00136 5.31203C0.615234 6.77916 0.615234 9.8218 0.615234 9.8218C0.615234 9.8218 0.615234 12.8798 1.00136 14.3316C1.21765 15.1347 1.85074 15.7679 2.654 15.9842C4.13658 16.3858 9.99023 16.3858 9.99023 16.3858C9.99023 16.3858 15.8591 16.3858 17.3264 15.9995C18.1296 15.7834 18.7628 15.1502 18.9791 14.347C19.3651 12.8798 19.3651 9.83725 19.3651 9.83725C19.3651 9.83725 19.3806 6.77916 18.9789 5.31203ZM8.12141 12.6327V7.0109L13.0019 9.8218L8.12141 12.6327Z" fill="#187E7D"/>
</svg>
