<svg width="56" height="56" viewBox="0 0 56 56" fill="none" xmlns="http://www.w3.org/2000/svg">
<rect width="56" height="56" rx="8" fill="#D5E7DE"/>
<path opacity="0.6" d="M33.1495 43.1243C37.1939 48.3856 33.443 55.9999 26.8069 55.9999L8.00001 55.9998C3.58174 55.9998 1.67822e-05 52.4181 1.69753e-05 47.9998L1.42301e-05 23.5339C1.4564e-05 15.8938 9.6864 12.6011 14.3426 18.6584L33.1495 43.1243Z" fill="url(#paint0_linear_2147_36533)"/>
<path d="M42.343 13.8393C42.002 12.5595 39.1271 12.2165 35.926 13.0729L21.7891 16.872L15.9168 13.4808L13.5991 14.1018L15.9996 18.4272L14.8411 18.7379L15.1514 19.8967C18.0894 21.5948 21.4399 21.9415 24.4798 21.1261L26.274 20.6433L25.1288 24.6019L27.4469 24.0558L32.0866 19.0799L39.4871 17.0891C41.4052 16.5746 42.6864 15.1191 42.343 13.8393Z" fill="#7AC19F"/>
<path d="M37.5991 23.3984V29.3986L38.799 30.5984V41.3984H41.1991V30.5984L42.399 29.3986V23.3984H37.5991Z" fill="#187E7D"/>
<path d="M30.3992 32.9984V29.3984H13.5991V41.3983H36.399V32.9984H30.3992ZM15.9992 31.7986H18.3994V34.1983H15.9992V31.7986ZM20.7991 38.9986H18.399V36.5984H20.7991V38.9986ZM20.7991 31.7986H23.1992V34.1983H20.7991V31.7986ZM25.599 38.9986H23.1989V36.5984H25.599V38.9986ZM27.9991 34.1983H25.599V31.7986H27.9991V34.1983Z" fill="#187E7D"/>
<defs>
<linearGradient id="paint0_linear_2147_36533" x1="-1.75461" y1="-7.54392" x2="20.9347" y2="34.1361" gradientUnits="userSpaceOnUse">
<stop offset="0.1561" stop-color="#CFE6DB" stop-opacity="0.28"/>
<stop offset="0.925" stop-color="#F6FCF9"/>
</linearGradient>
</defs>
</svg>
