<svg width="56" height="56" viewBox="0 0 56 56" fill="none" xmlns="http://www.w3.org/2000/svg">
<rect width="56" height="56" rx="8" fill="#CFE6DB"/>
<path opacity="0.6" d="M33.1495 43.1243C37.1939 48.3856 33.443 55.9999 26.8069 55.9999L8.00001 55.9998C3.58174 55.9998 1.67822e-05 52.4181 1.69753e-05 47.9998L1.42301e-05 23.5339C1.4564e-05 15.8938 9.6864 12.6011 14.3426 18.6584L33.1495 43.1243Z" fill="url(#paint0_linear_2147_36472)"/>
<path d="M10.7752 21.702C10.3471 19.9747 11.4002 18.2274 13.1275 17.7993L28.9423 13.8795C30.6696 13.4514 32.4169 14.5045 32.845 16.2318L38.1076 37.4645C38.5357 39.1917 37.4826 40.939 35.7553 41.3671L19.9405 45.2869C18.2132 45.7151 16.4659 44.6619 16.0378 42.9346L10.7752 21.702Z" fill="#7AC19F"/>
<path d="M17.5751 15.2221C17.5789 13.4426 19.0245 12.0031 20.804 12.0068L37.0973 12.0413C38.8769 12.0451 40.3164 13.4907 40.3126 15.2703L40.2638 38.3495C40.26 40.129 38.8144 41.5686 37.0348 41.5648L20.7415 41.5303C18.962 41.5265 17.5224 40.0809 17.5262 38.3014L17.5751 15.2221Z" fill="#187E7D"/>
<path d="M21.7541 27.0842H25.4467C25.6722 27.0842 25.8527 26.9038 25.8527 26.6782C25.8527 26.4527 25.6722 26.2722 25.4467 26.2722H21.7541C21.5286 26.2722 21.3481 26.4527 21.3481 26.6782C21.3481 26.9038 21.5286 27.0842 21.7541 27.0842Z" fill="white"/>
<path d="M30.3316 26.3684H28.1856C27.9601 26.3684 27.7797 26.5488 27.7797 26.7744C27.7797 26.9999 27.9601 27.1804 28.1856 27.1804H30.3316C30.5571 27.1804 30.7376 26.9999 30.7376 26.7744C30.7376 26.5488 30.5507 26.3684 30.3316 26.3684Z" fill="white"/>
<path d="M21.5673 31.3294H29.3713C29.5968 31.3294 29.7773 31.149 29.7773 30.9234C29.7773 30.6979 29.5968 30.511 29.3713 30.511H21.5673C21.3418 30.511 21.1613 30.6914 21.1613 30.917C21.1613 31.1425 21.3418 31.3294 21.5673 31.3294Z" fill="white"/>
<path d="M21.8367 35.1052H30.6787C30.9343 35.1052 31.1387 34.9259 31.1387 34.7017C31.1387 34.4775 30.9343 34.2917 30.6787 34.2917H21.8367C21.5811 34.2917 21.3767 34.4711 21.3767 34.6953C21.3767 34.9195 21.5811 35.1052 21.8367 35.1052Z" fill="white"/>
<path d="M28.6981 14.7522C27.5154 14.7522 26.5532 15.7144 26.5532 16.8972C26.5532 18.0799 27.5154 19.0421 28.6981 19.0421C29.8809 19.0421 30.8431 18.0799 30.8431 16.8972C30.8431 15.7144 29.8809 14.7522 28.6981 14.7522Z" fill="white"/>
<path d="M31.3669 20.4696C30.7796 19.8733 30.0011 19.5449 29.1748 19.5449H28.2215C27.3951 19.5449 26.6166 19.8733 26.0294 20.4696C25.445 21.0629 25.1232 21.8461 25.1232 22.675C25.1232 22.8066 25.2299 22.9133 25.3615 22.9133H32.0347C32.1664 22.9133 32.2731 22.8066 32.2731 22.675C32.2731 21.8461 31.9512 21.0629 31.3669 20.4696Z" fill="white"/>
<path d="M48.7705 17.6399L46.1755 15.2856C46.0095 15.1577 45.8198 15.064 45.6173 15.0098C45.4149 14.9557 45.2037 14.9422 44.996 14.9701C44.7883 14.9981 44.5882 15.0669 44.4072 15.1726C44.2263 15.2784 44.0681 15.4189 43.9418 15.5862L41.8147 17.9921L46.5696 22.2886L48.6992 19.9319C49.0353 19.5729 49.2167 19.096 49.204 18.6043C49.2021 18.4223 49.1627 18.2427 49.0881 18.0768C49.0134 17.9108 48.9053 17.7621 48.7705 17.6399Z" fill="#187E7D"/>
<path d="M40.8219 19.0372L31.6228 29.2385C31.365 29.5198 31.1973 29.8718 31.1413 30.2493L30.4634 34.0022C30.4322 34.1774 30.4447 34.3576 30.4997 34.5269C30.5547 34.6961 30.6506 34.8492 30.7788 34.9726C30.9875 35.1518 31.257 35.2441 31.5317 35.2304C31.6204 35.2356 31.7095 35.2311 31.7973 35.2169L35.4596 34.1043C35.828 34.0072 36.1604 33.8054 36.4165 33.5232L45.6265 23.341L40.8219 19.0372Z" fill="#7AC19F"/>
<defs>
<linearGradient id="paint0_linear_2147_36472" x1="-1.75461" y1="-7.54392" x2="20.9347" y2="34.1361" gradientUnits="userSpaceOnUse">
<stop offset="0.1561" stop-color="#CFE6DB" stop-opacity="0.28"/>
<stop offset="0.925" stop-color="#F6FCF9"/>
</linearGradient>
</defs>
</svg>
