<svg width="56" height="56" viewBox="0 0 56 56" fill="none" xmlns="http://www.w3.org/2000/svg">
<rect width="56" height="56" rx="8" fill="#D5E7DE"/>
<path opacity="0.6" d="M33.1495 43.1243C37.1939 48.3856 33.443 55.9999 26.8069 55.9999L8.00001 55.9998C3.58174 55.9998 1.67822e-05 52.4181 1.69753e-05 47.9998L1.42301e-05 23.5339C1.4564e-05 15.8938 9.6864 12.6011 14.3426 18.6584L33.1495 43.1243Z" fill="url(#paint0_linear_2147_36546)"/>
<path d="M26.5284 14.125H13.3055C12.6562 14.125 12.1284 14.6535 12.1284 15.3021V42.7063C12.1284 43.501 12.775 44.1476 13.5697 44.1476H26.2642C27.0589 44.1476 27.7055 43.501 27.7055 42.7063V15.3021C27.7055 14.6535 27.1771 14.125 26.5284 14.125ZM15.2346 17.0451C15.2346 16.8549 15.3908 16.7055 15.5742 16.7055H18.2165C18.4067 16.7055 18.5561 16.8549 18.5561 17.0451V19.8979C18.5561 20.0881 18.4067 20.2375 18.2165 20.2375H15.5742C15.3908 20.2375 15.2346 20.0881 15.2346 19.8979V17.0451ZM15.2346 22.5266C15.2346 22.3364 15.3908 22.187 15.5742 22.187H18.2165C18.4067 22.187 18.5561 22.3364 18.5561 22.5266V25.3794C18.5561 25.5628 18.4067 25.719 18.2165 25.719H15.5742C15.3908 25.719 15.2346 25.5628 15.2346 25.3794V22.5266ZM15.2346 30.8541V28.0013C15.2346 27.8179 15.3908 27.6617 15.5742 27.6617H18.2165C18.4067 27.6617 18.5561 27.8179 18.5561 28.0013V30.8541C18.5561 31.0443 18.4067 31.1937 18.2165 31.1937H15.5742C15.3908 31.1937 15.2346 31.0443 15.2346 30.8541ZM23.1614 42.7885H16.5048V33.7273C16.5048 33.2111 16.9191 32.7968 17.4354 32.7968H22.2308C22.7471 32.7968 23.1614 33.2111 23.1614 33.7273V42.7885ZM24.581 30.8541C24.581 31.0443 24.4316 31.1937 24.2414 31.1937H21.5991C21.4089 31.1937 21.2595 31.0443 21.2595 30.8541V28.0013C21.2595 27.8179 21.4089 27.6617 21.5991 27.6617H24.2414C24.4316 27.6617 24.581 27.8179 24.581 28.0013V30.8541ZM24.581 25.3794C24.581 25.5628 24.4316 25.719 24.2414 25.719H21.5991C21.4089 25.719 21.2595 25.5628 21.2595 25.3794V22.5266C21.2595 22.3364 21.4089 22.187 21.5991 22.187H24.2414C24.4316 22.187 24.581 22.3364 24.581 22.5266V25.3794ZM24.581 19.8979C24.581 20.0881 24.4316 20.2375 24.2414 20.2375H21.5991C21.4089 20.2375 21.2595 20.0881 21.2595 19.8979V17.0451C21.2595 16.8549 21.4089 16.7055 21.5991 16.7055H24.2414C24.4316 16.7055 24.581 16.8549 24.581 17.0451V19.8979Z" fill="#187E7D"/>
<path d="M37.0455 30.3209C36.7738 30.3209 36.5157 30.2122 36.3119 30.0152C35.3474 28.942 31.2447 24.3028 29.9474 20.6484H28.3851V42.7103C28.3851 43.2129 28.2085 43.6748 27.9097 44.0348C28.0795 44.1096 28.2696 44.1503 28.4666 44.1503H41.1617C41.9565 44.1503 42.6017 43.505 42.6017 42.7103V23.7458C40.6727 26.8771 37.9693 29.8047 37.7927 29.9948C37.6093 30.1986 37.3376 30.3209 37.0455 30.3209ZM33.1874 39.1239C33.1874 39.3141 33.0312 39.4635 32.8478 39.4635H30.2055C30.0153 39.4635 29.8659 39.3141 29.8659 39.1239V36.2711C29.8659 36.0809 30.0153 35.9314 30.2055 35.9314H32.8478C33.0312 35.9314 33.1874 36.0809 33.1874 36.2711V39.1239ZM33.1874 33.6424C33.1874 33.8326 33.0312 33.982 32.8478 33.982H30.2055C30.0153 33.982 29.8659 33.8326 29.8659 33.6424V30.7895C29.8659 30.6062 30.0153 30.4499 30.2055 30.4499H32.8478C33.0312 30.4499 33.1874 30.6062 33.1874 30.7895V33.6424ZM39.2055 39.1239C39.2055 39.3141 39.0561 39.4635 38.8659 39.4635H36.2236C36.0402 39.4635 35.884 39.3141 35.884 39.1239V36.2711C35.884 36.0809 36.0402 35.9314 36.2236 35.9314H38.8659C39.0561 35.9314 39.2055 36.0809 39.2055 36.2711V39.1239ZM39.2055 30.7895V33.6424C39.2055 33.8326 39.0561 33.982 38.8659 33.982H36.2236C36.0402 33.982 35.884 33.8326 35.884 33.6424V30.7895C35.884 30.6062 36.0402 30.4499 36.2236 30.4499H38.8659C39.0561 30.4499 39.2055 30.6062 39.2055 30.7895Z" fill="#187E7D"/>
<path d="M37.045 29.6399C37.1408 29.6399 37.2358 29.5992 37.297 29.5313C37.5687 29.2399 43.8721 22.3381 43.8721 18.6702C43.8721 18.372 43.8449 18.0792 43.811 17.7939C43.7974 17.7124 43.7838 17.6309 43.7702 17.5562C43.7362 17.3185 43.6819 17.0875 43.6208 16.8572C43.6072 16.8022 43.5936 16.7411 43.5732 16.6874C43.4978 16.4219 43.3966 16.1644 43.2811 15.9124C43.2472 15.8309 43.2064 15.7494 43.1657 15.6686C43.0706 15.4777 42.9687 15.2943 42.86 15.1109C42.8261 15.0634 42.805 15.0029 42.7717 14.9547C42.7649 14.9479 42.7581 14.9411 42.7513 14.9275C42.1536 14.0173 41.3385 13.2641 40.3876 12.72C40.374 12.72 40.3672 12.7064 40.3604 12.6996C40.3468 12.6928 40.3264 12.686 40.3128 12.6792C40.0955 12.5569 39.8713 12.4558 39.6404 12.36C39.5657 12.326 39.4909 12.3056 39.4088 12.2784C39.239 12.2105 39.063 12.1562 38.8797 12.1025C38.7981 12.0815 38.7166 12.0611 38.6351 12.0407C38.4449 11.9932 38.2615 11.9599 38.0639 11.9327C37.9898 11.9191 37.9219 11.9056 37.8472 11.8981C37.5823 11.8641 37.3174 11.8438 37.045 11.8438C36.774 11.8438 36.5091 11.8641 36.251 11.8981C36.1762 11.9056 36.1015 11.9191 36.0262 11.9327C35.8366 11.9599 35.6464 11.9932 35.463 12.0407C35.3815 12.0611 35.2932 12.0815 35.2117 12.1025C35.0351 12.1562 34.8585 12.2105 34.6819 12.2784C34.6072 12.3056 34.5257 12.326 34.451 12.36C34.2268 12.4558 33.9959 12.5569 33.7853 12.6792C33.7649 12.686 33.7513 12.6928 33.7378 12.6996C33.7242 12.7064 33.7174 12.7132 33.7106 12.72C32.7528 13.2641 31.9445 14.0173 31.3468 14.9343C31.34 14.9411 31.3264 14.9479 31.3196 14.9547C31.2925 15.0029 31.2653 15.0566 31.2381 15.1109C31.1226 15.2943 31.0208 15.4777 30.9257 15.6686C30.8849 15.7494 30.8442 15.8309 30.8102 15.9124C30.7015 16.1644 30.5997 16.4219 30.5181 16.6874C30.5045 16.7411 30.4909 16.8022 30.4774 16.8572C30.4088 17.0875 30.3619 17.3185 30.3211 17.5562C30.3076 17.6309 30.294 17.7124 30.2872 17.7939C30.2464 18.0792 30.2261 18.372 30.2261 18.6702C30.2261 22.3381 36.5294 29.2399 36.7944 29.5313C36.8616 29.5992 36.9506 29.6399 37.045 29.6399ZM42.7717 20.9864C42.7717 21.1161 42.7038 21.2241 42.6019 21.2859V20.9117C42.6019 20.8098 42.5544 20.7079 42.4728 20.6535C42.6427 20.6671 42.7717 20.8098 42.7717 20.9864ZM34.4129 18.6695C34.4129 17.2145 35.5921 16.0347 37.047 16.0347C38.5027 16.0347 39.6818 17.2145 39.6818 18.6695C39.6818 20.1244 38.5027 21.3043 37.047 21.3043C35.5921 21.3043 34.4129 20.1244 34.4129 18.6695Z" fill="#7AC19F"/>
<defs>
<linearGradient id="paint0_linear_2147_36546" x1="-1.75461" y1="-7.54392" x2="20.9347" y2="34.1361" gradientUnits="userSpaceOnUse">
<stop offset="0.1561" stop-color="#CFE6DB" stop-opacity="0.28"/>
<stop offset="0.925" stop-color="#F6FCF9"/>
</linearGradient>
</defs>
</svg>
