<svg width="56" height="56" viewBox="0 0 56 56" fill="none" xmlns="http://www.w3.org/2000/svg">
<rect width="56" height="56" rx="8" fill="#D5E7DE"/>
<path opacity="0.6" d="M33.1495 43.1243C37.1939 48.3856 33.443 55.9999 26.8069 55.9999L8.00001 55.9998C3.58174 55.9998 1.67822e-05 52.4181 1.69753e-05 47.9998L1.42301e-05 23.5339C1.4564e-05 15.8938 9.6864 12.6011 14.3426 18.6584L33.1495 43.1243Z" fill="url(#paint0_linear_2147_36501)"/>
<path d="M42.2244 13H26.1478C24.2873 13 22.7795 14.5081 22.7795 16.3683V24.2873C23.6293 24.7097 24.5475 25.1664 25.4046 25.5925L26.7159 22.9687C27.5099 21.3821 29.4455 20.7375 31.0315 21.5301C32.6209 22.3255 33.265 24.2557 32.4693 25.8454L30.1317 30.5217C30.1937 31.1406 30.1387 31.7646 29.9642 32.3685H31.5075L27.4371 43.5614C27.1956 44.2253 27.6624 45 28.4449 45C28.8824 45 29.2939 44.73 29.4519 44.294L33.7887 32.3685H34.54L38.9209 44.2976C39.0803 44.7314 39.4907 45 39.9279 45C40.6591 45 41.1951 44.2697 40.9335 43.5586L38.8787 37.9635L36.824 32.3685H42.2244C44.0846 32.3685 45.5928 30.8603 45.5928 29.0001V16.3683C45.5928 14.5081 44.0846 13 42.2244 13ZM39.9273 27.7757H35.1173C34.5255 27.7757 34.0453 27.2955 34.0453 26.7036C34.0453 26.1112 34.5255 25.6315 35.1173 25.6315H39.9273C40.5198 25.6315 40.9994 26.1112 40.9994 26.7036C40.9994 27.2955 40.5198 27.7757 39.9273 27.7757ZM39.9273 23.7563H35.1173C34.5255 23.7563 34.0453 23.2767 34.0453 22.6842C34.0453 22.0924 34.5255 21.6122 35.1173 21.6122H39.9273C40.5198 21.6122 40.9994 22.0924 40.9994 22.6842C40.9994 23.2767 40.5198 23.7563 39.9273 23.7563ZM39.9273 19.7375H28.4449C27.8525 19.7375 27.3728 19.2573 27.3728 18.6654C27.3728 18.0736 27.8525 17.5934 28.4449 17.5934H39.9273C40.5198 17.5934 40.9994 18.0736 40.9994 18.6654C40.9994 19.2573 40.5198 19.7375 39.9273 19.7375Z" fill="#007F7D"/>
<path d="M27.8626 31.9086C28.0563 31.341 28.0549 30.748 27.8913 30.207L30.5519 24.8863C30.8166 24.3567 30.6022 23.7127 30.0726 23.448C29.5432 23.1831 28.8992 23.3977 28.6342 23.9274L26.3651 28.4652C25.0088 27.7898 22.9482 26.7652 21.2881 25.9397C19.7437 25.1717 18.6415 24.4829 16.761 24.4829H15.8137C17.278 24.4829 18.5848 23.809 19.4403 22.7542C20.093 21.9516 20.4833 20.9287 20.4833 19.8139C20.4833 17.2345 18.3928 15.144 15.8131 15.144C13.2346 15.144 11.1441 17.2345 11.1441 19.8139C11.1441 21.0526 11.6265 22.1783 12.4135 23.0136C13.2645 23.9184 14.4739 24.4826 15.8137 24.4829C14.0174 24.4829 12.2606 25.211 10.9973 26.4777C9.7094 27.7622 9 29.4736 9 31.2966V34.7414C9 36.2244 9.96289 37.4863 11.2965 37.9353V43.9276C11.2965 44.5197 11.7765 44.9997 12.3686 44.9997H19.2582C19.8504 44.9997 20.3303 44.5197 20.3303 43.9276V31.8823C21.3468 32.3904 22.6821 33.058 23.7625 33.5985C24.5199 33.977 25.405 34.0111 26.1942 33.69C26.9812 33.3662 27.5879 32.7216 27.8584 31.9211C27.8598 31.917 27.8612 31.9128 27.8626 31.9086Z" fill="#7AC19F"/>
<defs>
<linearGradient id="paint0_linear_2147_36501" x1="-1.75461" y1="-7.54392" x2="20.9347" y2="34.1361" gradientUnits="userSpaceOnUse">
<stop offset="0.1561" stop-color="#CFE6DB" stop-opacity="0.28"/>
<stop offset="0.925" stop-color="#F6FCF9"/>
</linearGradient>
</defs>
</svg>
