<svg width="56" height="56" viewBox="0 0 56 56" fill="none" xmlns="http://www.w3.org/2000/svg">
<rect width="56" height="56" rx="8" fill="#D5E7DE"/>
<path opacity="0.6" d="M33.1495 43.1243C37.1939 48.3856 33.443 55.9999 26.8069 55.9999L8.00001 55.9998C3.58174 55.9998 1.67822e-05 52.4181 1.69753e-05 47.9998L1.42301e-05 23.5339C1.4564e-05 15.8938 9.6864 12.6011 14.3426 18.6584L33.1495 43.1243Z" fill="url(#paint0_linear_2147_36514)"/>
<g clip-path="url(#clip0_2147_36514)">
<path d="M11.0547 46H20.6172V42.8359C20.6172 39.9235 18.2562 37.4922 15.3438 37.4922C12.4313 37.4922 10 39.9235 10 42.8359V44.9453C10 45.5279 10.4721 46 11.0547 46Z" fill="#187E7D"/>
<path d="M18.5078 34.3281C18.5078 32.5807 17.0911 31.1641 15.3438 31.1641C13.5964 31.1641 12.1094 32.5807 12.1094 34.3281C12.1094 36.0755 13.5964 37.4922 15.3438 37.4922C17.0911 37.4922 18.5078 36.0755 18.5078 34.3281Z" fill="#187E7D"/>
<path d="M22.7266 42.8359V46H33.3438V42.8359C33.3438 39.9235 30.9125 37.4922 28 37.4922C25.0875 37.4922 22.7266 39.9235 22.7266 42.8359Z" fill="#187E7D"/>
<path d="M31.2344 34.3281C31.2344 32.5807 29.7474 31.1641 28 31.1641C26.2526 31.1641 24.8359 32.5807 24.8359 34.3281C24.8359 36.0755 26.2526 37.4922 28 37.4922C29.7474 37.4922 31.2344 36.0755 31.2344 34.3281Z" fill="#187E7D"/>
<path d="M40.7266 37.4922C37.8141 37.4922 35.4531 39.9235 35.4531 42.8359V46H44.9453C45.5279 46 46 45.5279 46 44.9453V42.8359C46 39.9235 43.639 37.4922 40.7266 37.4922Z" fill="#187E7D"/>
<path d="M43.8906 34.3281C43.8906 36.0755 42.4739 37.4922 40.7266 37.4922C38.9792 37.4922 37.5625 36.0755 37.5625 34.3281C37.5625 32.5807 38.9792 31.1641 40.7266 31.1641C42.4739 31.1641 43.8906 32.5807 43.8906 34.3281Z" fill="#187E7D"/>
<path d="M43.8906 17.4531C43.8906 19.2005 42.4739 20.6172 40.7266 20.6172C38.9792 20.6172 37.5625 19.2005 37.5625 17.4531C37.5625 15.7057 38.9792 14.2891 40.7266 14.2891C42.4739 14.2891 43.8906 15.7057 43.8906 17.4531Z" fill="#187E7D"/>
<path d="M40.7266 20.6172C37.8141 20.6172 35.4531 22.9781 35.4531 25.8906V34.3281C35.4531 31.4206 37.819 29.0547 40.7266 29.0547C43.6341 29.0547 46 31.4206 46 34.3281V25.8906C46 22.9781 43.639 20.6172 40.7266 20.6172Z" fill="#187E7D"/>
<path d="M11.0547 26.9453H33.3438V25.8906C33.3438 23.8867 34.1523 22.0718 35.4531 20.7402V11.0547C35.4531 10.4719 34.9813 10 34.3984 10H11.0547C10.4719 10 10 10.4719 10 11.0547V25.8906C10 26.4734 10.4719 26.9453 11.0547 26.9453ZM22.7266 15.3438C22.7266 14.7609 23.1984 14.2891 23.7812 14.2891C24.3641 14.2891 24.8359 14.7609 24.8359 15.3438V21.6719C24.8359 22.2547 24.3641 22.7266 23.7812 22.7266C23.1984 22.7266 22.7266 22.2547 22.7266 21.6719V15.3438ZM18.5078 17.4531C18.5078 16.8703 18.9797 16.3984 19.5625 16.3984C20.1453 16.3984 20.6172 16.8703 20.6172 17.4531V21.6719C20.6172 22.2547 20.1453 22.7266 19.5625 22.7266C18.9797 22.7266 18.5078 22.2547 18.5078 21.6719V17.4531ZM14.2891 19.5625C14.2891 18.9797 14.7609 18.5078 15.3438 18.5078C15.9266 18.5078 16.3984 18.9797 16.3984 19.5625V21.6719C16.3984 22.2547 15.9266 22.7266 15.3438 22.7266C14.7609 22.7266 14.2891 22.2547 14.2891 21.6719V19.5625Z" fill="#7AC19F"/>
</g>
<defs>
<linearGradient id="paint0_linear_2147_36514" x1="-1.75461" y1="-7.54392" x2="20.9347" y2="34.1361" gradientUnits="userSpaceOnUse">
<stop offset="0.1561" stop-color="#CFE6DB" stop-opacity="0.28"/>
<stop offset="0.925" stop-color="#F6FCF9"/>
</linearGradient>
<clipPath id="clip0_2147_36514">
<rect width="36" height="36" fill="white" transform="translate(10 10)"/>
</clipPath>
</defs>
</svg>
