<svg width="132" height="94" viewBox="0 0 132 94" fill="none" xmlns="http://www.w3.org/2000/svg">
<g opacity="0.1">
<path d="M89.8294 76.1713C89.931 75.8539 90.0326 75.5365 90.3934 74.7745C98.6867 64.4275 100.777 53.232 97.3962 41.1064C95.3318 33.7025 95.5848 26.9552 100.824 20.9067C100.919 20.7974 100.718 20.4323 100.661 20.2121C91.9033 19.8613 85.6957 24.0613 81.0661 31.089C81.0661 31.089 81.078 31.2178 80.8083 31.2195C66.074 34.0767 51.6094 36.9322 37.1447 39.7877C39.3289 28.9803 44.0039 19.6414 52.3535 12.1085C59.7798 5.40865 68.4244 1.33599 78.1365 0.350767C90.2434 -0.877401 101.836 0.939815 112.043 8.67429C122.799 16.8253 129.529 27.0713 131.444 40.553C133.844 57.4506 128.42 71.5331 116.235 83.0016C109.184 89.6376 100.427 93.2056 90.3658 94C91.785 87.8136 91.6516 81.9852 89.8294 76.1713Z" fill="#E7012D"/>
<path d="M81.3736 31.3009C85.6956 24.0609 91.9032 19.861 100.661 20.2118C100.718 20.432 100.919 20.7971 100.824 20.9063C95.5847 26.9549 95.3317 33.7021 97.3961 41.1061C100.777 53.2316 98.7461 64.3872 90.5076 74.4902C88.7492 67.5951 87.0232 60.5615 85.613 53.4373C84.1715 46.1551 82.9814 38.8232 81.3736 31.3009Z" fill="#9CD9C0"/>
<path d="M36.8129 39.8495C51.6091 36.9329 66.0738 34.0774 80.8727 31.2148C80.9096 31.9932 80.7535 32.8743 80.2942 33.5498C68.7893 50.472 57.2571 67.3756 45.7066 84.2668C45.1509 85.0793 44.3841 85.7477 43.4169 86.522C43.0241 84.2922 43.3767 81.8892 42.7417 79.7832C41.4744 75.5803 37.209 74.1741 31.0545 75.392C21.0705 77.3677 11.0799 79.3097 0 81.4798C6.03278 72.7703 11.5997 64.9253 16.9525 56.9371C20.4483 51.7201 23.3904 46.0524 29.2851 43.0216C31.6039 41.8294 34.078 40.9386 36.8129 39.8495Z" fill="#4FCBBA"/>
<path d="M65.7117 92.8467C56.0278 95.6104 46.978 89.6799 43.6636 86.3691L81.275 31.0938L90.507 74.4933C86.6162 83.9937 77.8165 89.392 65.7117 92.8467Z" fill="white"/>
</g>
</svg>
