<svg width="20" height="18" viewBox="0 0 20 18" fill="none" xmlns="http://www.w3.org/2000/svg">
<path d="M19.9478 6.80198C19.8169 6.42165 19.4577 6.15152 19.0327 6.11555L13.2602 5.6233L10.9776 0.605751C10.8093 0.23803 10.426 0 10.0001 0C9.5742 0 9.19089 0.23803 9.02258 0.606611L6.73996 5.6233L0.966512 6.11555C0.542308 6.15238 0.184023 6.42165 0.0523364 6.80198C-0.0793501 7.18232 0.0422653 7.59948 0.363165 7.86244L4.72652 11.4563L3.43987 16.779C3.34572 17.1704 3.50747 17.575 3.85324 17.8097C4.03909 17.9358 4.25654 18 4.47581 18C4.66487 18 4.85241 17.9521 5.02072 17.8576L10.0001 15.0627L14.9776 17.8576C15.3419 18.0633 15.801 18.0446 16.146 17.8097C16.4919 17.5742 16.6535 17.1695 16.5594 16.779L15.2727 11.4563L19.6361 7.86316C19.957 7.59948 20.0795 7.18303 19.9478 6.80198Z" fill="#FBBF24"/>
</svg>
