<svg width="22" height="17" viewBox="0 0 22 17" fill="none" xmlns="http://www.w3.org/2000/svg">
<path d="M18.9368 9.86167H1.46569C0.656044 9.86167 0 9.29204 0 8.58904C0 7.88604 0.656044 7.31641 1.46569 7.31641H18.9368C19.7464 7.31641 20.4024 7.88604 20.4024 8.58904C20.4024 9.29204 19.7464 9.86167 18.9368 9.86167Z" fill="#187E7D"/>
<path d="M12.225 17C11.8316 17 11.4388 16.8423 11.1497 16.531C10.5992 15.9377 10.6344 15.0102 11.2277 14.4597L17.5284 8.61623L11.0372 2.75698C10.4362 2.21467 10.3888 1.28777 10.9311 0.686832C11.4734 0.0858975 12.4003 0.0384092 13.0012 0.580716L20.6814 7.51345C20.9869 7.789 21.1622 8.18004 21.1651 8.59161C21.168 9.00318 20.998 9.39657 20.6961 9.67622L13.2211 16.609C12.9391 16.8704 12.5814 17 12.225 17Z" fill="#187E7D"/>
</svg>
