<svg width="88" height="30" viewBox="0 0 88 30" fill="none" xmlns="http://www.w3.org/2000/svg">
<path d="M25.8529 29.8983C24.1954 29.585 23.0133 28.9477 21.9889 27.8153C20.6482 26.3333 20.3828 25.4849 20.2275 22.1851L20.0793 19.0371L19.547 20.7972C18.9052 22.9195 17.3786 25.177 15.8565 26.2544C13.5508 27.8866 12.3664 28.1281 5.97252 28.269L0 28.4007V27.4666C0 25.1203 1.54786 22.5707 3.53201 21.6489C4.50477 21.1969 5.58534 21.0498 8.06677 21.0315L11.3245 21.0075L9.55531 20.4288C5.80116 19.2007 3.66657 17.2961 2.41529 14.0584C1.82486 12.5304 1.7252 11.5443 1.61671 6.15644L1.49288 0L2.75781 0.17359C4.77646 0.450599 6.77134 1.6085 7.69933 3.0418C8.45683 4.21176 8.5461 4.67431 8.6872 8.16153C8.80849 11.1588 8.89668 11.7325 9.09144 10.7918C9.52956 8.67579 10.4906 6.79388 11.9463 5.20168C14.436 2.47856 17.3272 1.69605 24.9404 1.68494L29.2486 1.67865L29.0571 3.10808C28.672 5.98302 26.8948 8.30716 24.5782 8.9655C23.9436 9.14582 22.2376 9.29784 20.7871 9.3033L18.1499 9.31327L20.204 10.0296C23.6383 11.2273 25.8694 13.4673 26.8765 16.7289C27.4377 18.5464 27.8883 29.4833 27.4193 29.901C27.2698 30.034 26.5651 30.0329 25.8529 29.8983ZM17.3192 20.1784C18.861 19.4299 20.1669 17.1867 20.1669 15.2866C20.1669 13.4274 19.7541 12.2657 18.6734 11.0833C15.165 7.24435 8.81269 9.91966 8.88746 15.2047C8.95046 19.6636 13.2075 22.175 17.3191 20.1787L17.3192 20.1784ZM39.6064 23.7723C38.9503 23.5223 38.0777 22.995 37.6673 22.6006L36.9211 21.8833V22.7322C36.9211 23.5495 36.8576 23.5811 35.2146 23.5811H33.5082V12.7887V1.99625H34.2148C36.08 1.99625 37.2313 3.99964 37.2313 7.24517V9.34023L38.0845 8.71961C39.3847 7.77387 41.3373 7.28364 42.8625 7.51993C46.0728 8.01721 48.1562 10.3614 48.7988 14.2001C49.4236 17.9318 47.9653 21.8002 45.3409 23.3734C44.0423 24.1518 41.1335 24.3541 39.6064 23.7723ZM43.0174 20.8393C44.4966 20.1212 45.2982 18.4082 45.2982 15.9653C45.2982 12.6127 43.9467 10.6068 41.5168 10.3539C38.7437 10.0651 37.0856 12.1137 37.0946 15.817C37.1011 18.4347 37.853 20.0153 39.4826 20.8371C40.7712 21.487 41.682 21.4876 43.0174 20.8393ZM61.8186 23.8123C59.5074 22.9106 58.321 20.8147 58.7615 18.412C59.2056 15.9897 60.4169 15.2187 64.9056 14.5007C68.248 13.9661 69.1884 13.4856 69.1884 12.3125C69.1884 11.3034 68.1667 10.5133 66.6413 10.3428C64.9094 10.1492 63.7064 10.6476 63.0479 11.8315C62.5647 12.7003 62.3736 12.7849 60.8889 12.7867C59.07 12.7889 58.9475 12.5812 59.6925 10.7571C61.0317 7.47806 67.4707 6.28074 70.7843 8.69462C72.3557 9.83935 72.6013 10.9086 72.6013 16.6032C72.6013 20.558 72.708 21.9188 73.0747 22.6445C73.335 23.1595 73.719 23.5938 73.9279 23.6096C74.1368 23.6253 73.8282 23.7791 73.242 23.9513C71.8365 24.3642 70.2472 24.0338 69.6845 23.2118L69.2319 22.5507L67.8745 23.223C66.1942 24.0551 63.1908 24.3474 61.8191 23.8122L61.8186 23.8123ZM67.0192 20.8448C67.7102 20.5619 68.4111 20.0714 68.5768 19.7547C68.9476 19.0458 68.9794 15.8612 68.6133 16.0929C68.4678 16.1849 67.3159 16.4231 66.0537 16.6221C63.3117 17.0545 62.7395 17.3291 62.3399 18.4049C61.9108 19.5594 62.2656 20.3935 63.4006 20.8987C64.6972 21.4759 65.5075 21.4637 67.0192 20.8448ZM78.9614 23.9191C75.2066 22.9839 73.341 19.9732 73.5942 15.2563C73.7941 11.5298 74.8864 9.56046 77.5044 8.20601C80.7541 6.525 85.9904 7.81999 87.2556 10.6176C88.3731 13.0884 88.3664 13.1059 86.3073 13.1059C84.5879 13.1059 84.4446 13.0497 84.2613 12.3025C84.0238 11.3343 82.3989 10.2519 81.1803 10.2503C78.8642 10.2471 77.3275 11.9459 77.0365 14.8307C76.7962 17.2123 77.1325 18.6544 78.2251 19.9276C80.0695 22.0768 82.9736 21.6135 84.1082 18.9891C84.7241 17.5647 84.7459 17.55 86.2489 17.55C87.0841 17.55 87.8282 17.6571 87.9026 17.7881C87.9769 17.919 87.8492 18.6771 87.6187 19.4728C86.6351 22.8679 82.7509 24.8631 78.9614 23.9191ZM49.9521 15.629V7.67687L51.5809 7.77281C53.1661 7.86619 53.214 7.89717 53.3649 8.92925L53.5201 9.98973L54.2957 9.1264C55.2256 8.09141 56.7222 7.39263 58.0089 7.39263C58.9424 7.39263 58.9496 7.40616 58.9496 9.13846V10.8843H57.5643C56.4675 10.8843 55.9581 11.0826 55.1191 11.8363C53.7161 13.0965 53.365 14.65 53.365 19.5954V23.5813H51.6585H49.9521L49.9521 15.629Z" fill="#EB078E"/>
</svg>
