<svg width="302" height="214" viewBox="0 0 302 214" fill="none" xmlns="http://www.w3.org/2000/svg">
<g opacity="0.1">
<path d="M204.893 173.932C205.125 173.207 205.356 172.482 206.179 170.742C225.096 147.116 229.864 121.551 222.152 93.8635C217.443 76.9572 218.02 61.5502 229.971 47.7389C230.187 47.4894 229.728 46.6557 229.599 46.1529C209.623 45.3519 195.464 54.9422 184.905 70.9894C184.905 70.9894 184.932 71.2837 184.317 71.2875C150.709 77.8117 117.716 84.3321 84.7237 90.8524C89.7056 66.1744 100.369 44.8497 119.414 27.649C136.352 12.3503 156.07 3.05065 178.222 0.800951C205.837 -2.00348 232.28 2.146 255.56 19.8071C280.095 38.4194 295.445 61.8153 299.812 92.6C305.286 131.184 292.914 163.341 265.121 189.528C249.038 204.681 229.064 212.828 206.116 214.642C209.353 200.516 209.049 187.207 204.893 173.932Z" fill="#E7012D"/>
<path d="M185.606 71.477C195.464 54.9452 209.623 45.3548 229.599 46.1559C229.728 46.6587 230.187 47.4924 229.972 47.7419C218.021 61.5532 217.444 76.9602 222.152 93.8665C229.864 121.554 225.232 147.027 206.44 170.097C202.43 154.352 198.493 138.292 195.276 122.024C191.988 105.396 189.274 88.6538 185.606 71.477Z" fill="#9CD9C0"/>
<path d="M83.9671 90.99C117.716 84.3302 150.709 77.8099 184.463 71.2734C184.548 73.0507 184.192 75.0628 183.144 76.6053C156.902 115.246 130.598 153.844 104.253 192.414C102.985 194.269 101.236 195.795 99.0301 197.564C98.1342 192.472 98.9384 186.985 97.49 182.176C94.5994 172.579 84.8705 169.368 70.8326 172.149C48.06 176.66 25.2723 181.095 0 186.05C13.7602 166.162 26.458 148.249 38.6671 130.008C46.6408 118.096 53.3515 105.154 66.7967 98.2334C72.0856 95.511 77.7289 93.477 83.9671 90.99Z" fill="#4FCBBA"/>
<path d="M149.882 212.008C127.794 218.319 107.153 204.777 99.5928 197.217L185.381 71L206.438 170.1C197.564 191.793 177.493 204.12 149.882 212.008Z" fill="white"/>
</g>
</svg>
