<svg width="44" height="44" viewBox="0 0 44 44" fill="none" xmlns="http://www.w3.org/2000/svg">
<circle cx="22" cy="22" r="22" fill="white"/>
<path d="M19.4007 9H17.3208V10.043H19.4007V9Z" fill="#187E7D"/>
<path d="M21.4791 9H22.519V10.043H24.5989V11.086H21.4791V9Z" fill="#187E7D"/>
<path d="M25.6402 9H26.6802V20.4732H25.6402V18.3871H24.6003V19.4302H23.56V18.3871H22.5205V17.3441H21.4805V14.2151H20.4406V12.1291H17.3208V11.086H19.4007V10.043H20.4406V11.086H21.4805V12.1291H24.6003V13.1721H22.5205V16.3011H23.56V15.2581H24.6003V17.3441H25.6402V14.2151H24.6003V13.1721H25.6402V9Z" fill="#187E7D"/>
<path d="M9.5 9.00049C9.22386 9.00049 9 9.22435 9 9.50049V15.8016C9 16.0777 9.22386 16.3016 9.5 16.3016H15.7795C16.0557 16.3016 16.2795 16.0777 16.2795 15.8016V9.50049C16.2795 9.22435 16.0557 9.00049 15.7795 9.00049H9.5ZM15.2396 14.7586C15.2396 15.0347 15.0157 15.2586 14.7396 15.2586H10.5399C10.2638 15.2586 10.0399 15.0347 10.0399 14.7586V10.5435C10.0399 10.2674 10.2638 10.0435 10.5399 10.0435H14.7396C15.0157 10.0435 15.2396 10.2674 15.2396 10.5435V14.7586Z" fill="#187E7D"/>
<path d="M28.217 9C27.9409 9 27.717 9.22386 27.717 9.5V15.8011C27.717 16.0773 27.9409 16.3011 28.217 16.3011H34.4966C34.7727 16.3011 34.9966 16.0773 34.9966 15.8011V9.5C34.9966 9.22386 34.7727 9 34.4966 9H28.217ZM33.9566 14.7581C33.9566 15.0342 33.7328 15.2581 33.4566 15.2581H29.257C28.9808 15.2581 28.757 15.0342 28.757 14.7581V10.543C28.757 10.2669 28.9808 10.043 29.257 10.043H33.4566C33.7328 10.043 33.9566 10.2669 33.9566 10.543V14.7581Z" fill="#187E7D"/>
<path d="M14.1994 11.0864H11.0797V14.2155H14.1994V11.0864Z" fill="#187E7D"/>
<path d="M32.9197 11.0864H29.7999V14.2155H32.9197V11.0864Z" fill="#187E7D"/>
<path d="M17.3208 13.1733H19.4007V15.2594H18.3607V14.2164H17.3208V13.1733Z" fill="#187E7D"/>
<path d="M17.3208 15.2573H18.3607V16.3003H19.4007V15.2573H20.4406V17.3434H21.4805V18.3864H22.5204V19.4294H21.4805V20.4724H20.4406V18.3864H19.4007V17.3434H17.3208V15.2573Z" fill="#187E7D"/>
<path d="M16.278 17.3447H14.1981V18.3877H16.278V17.3447Z" fill="#187E7D"/>
<path d="M30.8398 17.3447H29.7999V18.3877H30.8398V17.3447Z" fill="#187E7D"/>
<path d="M31.8795 17.3447H32.9194V19.4308H34.9993V22.5598H32.9194V20.4738H31.8795V17.3447Z" fill="#187E7D"/>
<path d="M34.997 17.3447H33.9571V18.3877H34.997V17.3447Z" fill="#187E7D"/>
<path d="M12.1208 18.3867H10.0409V19.4297H12.1208V18.3867Z" fill="#187E7D"/>
<path d="M14.2003 18.3867H13.1604V19.4297H14.2003V18.3867Z" fill="#187E7D"/>
<path d="M10.0399 19.4292H9V20.4722H10.0399V19.4292Z" fill="#187E7D"/>
<path d="M16.2811 19.4292H15.2411V20.4722H16.2811V19.4292Z" fill="#187E7D"/>
<path d="M11.0808 20.4736H13.1607V22.5597H12.1208V23.6027H11.0808V22.5597H10.0409V21.5166H11.0808V20.4736Z" fill="#187E7D"/>
<path d="M15.2381 20.4736H14.1981V21.5167H15.2381V20.4736Z" fill="#187E7D"/>
<path d="M25.6364 20.4736H24.5964V21.5167H25.6364V20.4736Z" fill="#187E7D"/>
<path d="M16.2811 21.5156H15.2411V22.5586H16.2811V21.5156Z" fill="#187E7D"/>
<path d="M10.0399 22.5596H9V26.7316H10.0399V22.5596Z" fill="#187E7D"/>
<path d="M14.2003 22.5596H13.1604V23.603H14.2003V22.5596Z" fill="#187E7D"/>
<path d="M13.1605 23.6016H12.1205V24.6446H13.1605V23.6016Z" fill="#187E7D"/>
<path d="M16.2811 23.6016H15.2411V24.6446H16.2811V23.6016Z" fill="#187E7D"/>
<path d="M17.3208 23.6016H18.3607V24.6446H19.4007V26.7306H18.3607V27.7736H17.3208V23.6016Z" fill="#187E7D"/>
<path d="M30.8384 23.6016H28.759V24.6446H30.8384V23.6016Z" fill="#187E7D"/>
<path d="M34.9992 23.6016H32.9194V24.6446H34.9992V23.6016Z" fill="#187E7D"/>
<path d="M14.2003 24.6455H13.1604V25.6885H14.2003V24.6455Z" fill="#187E7D"/>
<path d="M12.1196 25.689H11.0797V26.7324H12.1196V25.689Z" fill="#187E7D"/>
<path d="M16.278 25.689H14.1981V26.7324H16.278V25.689Z" fill="#187E7D"/>
<path d="M20.4404 26.731H19.4005V27.774H20.4404V26.731Z" fill="#187E7D"/>
<path d="M35 26.7319V25.6889H32.9201V24.6458H30.8403V25.6889H26.6806V24.6458H27.7205V23.6028H28.7604V22.5598H30.8403V23.6028H31.8802V20.4738H30.8403V19.4308H29.8004V20.4738H28.7604V19.4308H29.8004V18.3877H28.7604V17.3447H27.7205V20.4738H26.6806V23.6028H24.6007V21.5168H23.5604V23.6028H22.5204V20.4738H21.4805V22.5598H20.4406V20.4738H17.3208V21.5168H18.3607V23.6028H19.4011V24.6458H20.441V23.6028H21.4809V24.6458H20.441V26.7319H21.4809V27.7749H22.5208V25.6889H23.5608V27.7749H24.6007V26.7319H25.6406V27.7749H24.6007V28.8179H23.5604V31.947H21.4809V32.99H23.5604V34.033H21.4809V35.076H26.6806V34.033H25.6406V32.99H24.6007V29.8609H25.6406V30.9039H26.6806V31.947H27.7205V30.9039H30.8403V31.947H31.8802V30.9039H32.9201V29.8609H31.8802V27.7749H30.8403V26.7319H35ZM25.6406 25.6889H24.6007V24.6458H25.6406V25.6889ZM29.8004 29.8609H26.6806V26.7319H29.8004V29.8609Z" fill="#187E7D"/>
<path d="M21.4771 27.7754H20.4371V29.8614H21.4771V27.7754Z" fill="#187E7D"/>
<path d="M28.7574 27.7754H27.717V28.8188H28.7574V27.7754Z" fill="#187E7D"/>
<path d="M34.997 27.7754H33.9571V29.8614H34.997V27.7754Z" fill="#187E7D"/>
<path d="M9.5 27.7754C9.22386 27.7754 9 27.9992 9 28.2754V34.5765C9 34.8527 9.22386 35.0765 9.5 35.0765H15.7795C16.0557 35.0765 16.2795 34.8527 16.2795 34.5765V28.2754C16.2795 27.9992 16.0557 27.7754 15.7795 27.7754H9.5ZM15.2396 33.5335C15.2396 33.8096 15.0157 34.0335 14.7396 34.0335H10.5399C10.2638 34.0335 10.0399 33.8096 10.0399 33.5335V29.3184C10.0399 29.0423 10.2638 28.8184 10.5399 28.8184H14.7396C15.0157 28.8184 15.2396 29.0423 15.2396 29.3184V33.5335Z" fill="#187E7D"/>
<path d="M17.3208 28.8174H19.4007V30.9034H20.4406V31.9464H19.4007V32.9894H18.3607V29.8604H17.3208V28.8174Z" fill="#187E7D"/>
<path d="M14.1994 29.8604H11.0797V32.9894H14.1994V29.8604Z" fill="#187E7D"/>
<path d="M22.519 29.8604H21.4791V30.9034H22.519V29.8604Z" fill="#187E7D"/>
<path d="M34.997 30.9028H33.9571V35.0749H34.997V30.9028Z" fill="#187E7D"/>
<path d="M26.6788 31.9473H25.6384V32.9903H26.6788V31.9473Z" fill="#187E7D"/>
<path d="M27.717 31.9473H29.7969V32.9903H31.8768V35.0763H30.8368V34.0333H28.757V35.0763H27.717V31.9473Z" fill="#187E7D"/>
<path d="M32.9194 31.9473H31.8795V32.9903H32.9194V31.9473Z" fill="#187E7D"/>
<path d="M21.4771 32.9888H20.4371V34.0322H21.4771V32.9888Z" fill="#187E7D"/>
<path d="M19.4006 34.0327H18.3607V35.0757H19.4006V34.0327Z" fill="#187E7D"/>
</svg>
