<svg width="32" height="32" viewBox="0 0 32 32" fill="none" xmlns="http://www.w3.org/2000/svg">
<path d="M32 15.4595C32 22.8086 26.5793 28.9154 19.5263 29.9922C19.5858 29.666 19.6025 29.3282 19.5624 28.9859C19.5624 28.9859 19.5203 28.6258 19.4651 28.1544C21.9693 27.7278 24.2301 26.5788 26.022 24.9263C25.9145 24.8369 25.8073 24.7208 25.7017 24.5668C25.2258 23.8724 25.8481 23.1833 25.8481 22.5761C25.8481 21.9804 24.6472 22.0294 24.6032 21.6349C24.4515 20.2686 25.4417 20.25 25.9696 19.7221C26.4975 19.1942 25.4478 17.994 24.7698 18.0715C24.0872 18.1444 22.1657 17.7562 22.3413 16.2862C22.5552 14.4957 20.0602 14.6537 19.7029 13.8179C19.1821 12.5998 20.0479 11.1056 21.1772 10.7662C22.7768 10.2854 24.3526 8.98045 24.2295 7.5278C24.09 5.88257 23.3454 4.39881 22.1188 3.51739C20.8425 3.00032 19.4662 2.68058 18.0264 2.5999C16.7413 2.65073 15.6114 2.93632 15.663 3.52466C15.7894 4.96644 19.8893 5.34092 19.2013 6.68869C18.8426 7.39128 16.1506 8.38291 16.6534 9.42856C16.9804 10.1086 17.7851 9.52576 17.4847 10.8312C17.3465 11.4319 16.8198 12.5605 16.0098 12.6334C15.1815 12.7107 14.4918 10.5164 12.2372 10.4445C11.1714 10.4104 9.66985 12.1074 10.9448 13.3114C11.7169 14.0405 13.1657 12.4351 13.5934 13.6892C13.8947 14.5729 13.5528 16.4293 14.9592 17.2051C15.4718 17.488 16.2578 17.7345 17.0351 18.1295C15.8814 18.3651 14.4637 18.8047 12.7897 19.4495L11.3793 19.0774C11.9698 18.5859 12.9291 18.2399 12.6877 17.1659C12.3332 15.588 9.59346 16.1831 7.70468 14.2944C7.12523 13.715 5.8893 11.7912 5.89438 9.4799C4.95289 11.2682 4.41704 13.302 4.41704 15.4596C4.41704 16.1237 4.46771 16.7762 4.56512 17.4135C4.5429 17.4132 4.52094 17.4093 4.49877 17.4093C3.90394 17.4093 3.32057 17.5343 2.77992 17.7706C2.66049 17.0174 2.59676 16.2459 2.59676 15.4596C2.59676 7.35321 9.19194 0.757813 17.2983 0.757813C25.4048 0.757708 32 7.35311 32 15.4595ZM20.972 19.7446L17.3814 21.395L17.4371 20.6127L19.7631 19.5626C19.4314 19.5389 19.0876 19.5298 18.7444 19.5298C17.4592 19.5298 15.2879 20.1804 12.8863 21.1337L5.184 19.102C4.46421 18.9121 3.69788 19.0291 3.06745 19.4252L2.68873 19.6631C2.319 19.8953 2.31508 20.4328 2.68136 20.6705L7.31137 23.6744C6.20533 24.24 5.15597 24.8145 4.2309 25.3631L1.85506 24.1053C1.46698 23.8999 1.00815 23.8755 0.600572 24.0388L0.375683 24.1289C0.0403105 24.2631 -0.100186 24.662 0.0770687 24.9768L1.38588 27.3021L1.38645 27.3019C0.89265 27.7268 0.611239 28.0791 0.611239 28.3229C0.611239 29.0526 1.50923 29.235 2.30076 29.235C3.71252 29.235 22.3565 24.9662 22.3565 21.0988C22.3564 20.3329 21.8326 19.9498 20.972 19.7446ZM13.1112 27.2954L17.2138 25.8502C17.3945 25.7865 17.5876 25.9069 17.6099 26.0973L17.9696 29.1726C18.0594 29.941 17.6461 30.6805 16.9445 31.0067L16.5597 31.1855C16.3194 31.2972 16.0344 31.2373 15.8592 31.0385L12.9861 27.7747C12.8463 27.6157 12.9114 27.3658 13.1112 27.2954Z" fill="#187E7D"/>
</svg>
