<svg width="44" height="44" viewBox="0 0 44 44" fill="none" xmlns="http://www.w3.org/2000/svg">
<circle cx="22" cy="22" r="22" fill="white"/>
<g clip-path="url(#clip0_1975_186939)">
<path d="M30.4853 25.5147C29.1783 24.2077 27.6226 23.2402 25.9253 22.6545C27.7432 21.4024 28.9375 19.3069 28.9375 16.9375C28.9375 13.1122 25.8253 10 22 10C18.1747 10 15.0625 13.1122 15.0625 16.9375C15.0625 19.3069 16.2568 21.4024 18.0748 22.6545C16.3774 23.2402 14.8218 24.2077 13.5147 25.5147C11.2482 27.7812 10 30.7947 10 34H11.875C11.875 28.417 16.417 23.875 22 23.875C27.583 23.875 32.125 28.417 32.125 34H34C34 30.7947 32.7518 27.7812 30.4853 25.5147ZM22 22C19.2085 22 16.9375 19.729 16.9375 16.9375C16.9375 14.146 19.2085 11.875 22 11.875C24.7915 11.875 27.0625 14.146 27.0625 16.9375C27.0625 19.729 24.7915 22 22 22Z" fill="#7AC19F"/>
</g>
<defs>
<clipPath id="clip0_1975_186939">
<rect width="24" height="24" fill="white" transform="translate(10 10)"/>
</clipPath>
</defs>
</svg>
