<svg width="32" height="32" viewBox="0 0 32 32" fill="none" xmlns="http://www.w3.org/2000/svg">
<path d="M10.6396 11.8297C10.6624 7.34903 11.5847 2.66338 13.5262 0.363281C7.96376 1.57597 3.80762 6.3413 3.80762 12.0119C3.80762 12.029 3.81332 12.0404 3.81902 12.0518C3.81902 12.0916 3.83038 12.1258 3.83608 12.1656C3.84748 12.2055 3.85887 12.2396 3.87594 12.2738C3.88734 12.2852 3.88734 12.3023 3.89303 12.3136C3.9044 12.3307 3.9215 12.3421 3.93856 12.3592C3.96135 12.3876 3.98412 12.4161 4.01827 12.4446C4.04103 12.4674 4.07519 12.4844 4.10368 12.5015C4.13784 12.5186 4.1663 12.5357 4.20046 12.5471C4.24032 12.5584 4.27447 12.5641 4.31433 12.5698C4.33709 12.5698 4.35419 12.5812 4.37695 12.5812C4.39405 12.5812 4.40541 12.5755 4.42251 12.5698C4.45667 12.5698 4.49083 12.5584 4.53068 12.5528C4.56484 12.5414 4.6047 12.53 4.63886 12.5129C4.65022 12.5015 4.66732 12.5015 4.67872 12.4958C5.44731 12.0176 6.71692 11.4426 8.3623 11.4426C8.9601 11.4426 9.76288 11.5223 10.6396 11.8297Z" fill="#187E7D"/>
<path d="M19.1387 0.363281C21.0801 2.66338 22.0024 7.34904 22.0252 11.8297C22.6686 11.602 23.4314 11.4426 24.3025 11.4426C25.2135 11.4426 26.5913 11.6248 27.9861 12.4958C28.0032 12.5072 28.0203 12.5072 28.0374 12.5186C28.0545 12.5243 28.0715 12.5357 28.0943 12.5414C28.157 12.5641 28.2196 12.5812 28.2879 12.5812C28.3562 12.5812 28.4245 12.5641 28.4872 12.5414C28.4986 12.5357 28.51 12.53 28.527 12.5243C28.584 12.5015 28.6352 12.4617 28.6864 12.4161C28.6921 12.4104 28.6978 12.4047 28.7035 12.399C28.7263 12.3706 28.7491 12.3421 28.7718 12.3136C28.7775 12.3023 28.7775 12.2852 28.7889 12.2738C28.806 12.2396 28.8174 12.2055 28.8288 12.1656C28.8345 12.1258 28.8459 12.0916 28.8459 12.0518C28.8516 12.0404 28.8572 12.029 28.8572 12.0119C28.8572 6.34131 24.7011 1.57597 19.1387 0.363281Z" fill="#187E7D"/>
<path d="M16.9023 14.8902V11.4718C17.7659 11.5425 18.8749 11.7912 19.9995 12.4872C20.0052 12.4929 20.0109 12.4929 20.0166 12.4986C20.0223 12.5043 20.028 12.51 20.0394 12.51C20.0735 12.5327 20.1134 12.5498 20.1532 12.5555C20.1589 12.5612 20.1646 12.5612 20.1703 12.5612C20.2159 12.5783 20.2671 12.584 20.3183 12.584C20.3696 12.584 20.4208 12.5783 20.4664 12.5612C20.4721 12.5612 20.4778 12.5612 20.4834 12.5555C20.5233 12.5498 20.5632 12.5327 20.5973 12.51C20.6087 12.51 20.6144 12.5043 20.6201 12.4986C20.6258 12.4929 20.6315 12.4929 20.6372 12.4872C20.7852 12.3847 20.8877 12.2082 20.8877 12.0146C20.8877 6.21881 19.2935 0.0585938 16.333 0.0585938C13.3724 0.0585938 11.7783 6.21881 11.7783 12.0146C11.7783 12.2082 11.8808 12.3847 12.0288 12.4872C12.0345 12.4929 12.0402 12.4929 12.0459 12.4986C12.0516 12.5043 12.0573 12.51 12.0687 12.51C12.1028 12.5327 12.1427 12.5498 12.1826 12.5555C12.1882 12.5612 12.1939 12.5612 12.1996 12.5612C12.2452 12.5783 12.2964 12.584 12.3477 12.584C12.3989 12.584 12.4501 12.5783 12.4957 12.5612C12.5014 12.5612 12.5071 12.5612 12.5127 12.5555C12.5526 12.5498 12.5925 12.5327 12.6266 12.51C12.638 12.51 12.6437 12.5043 12.6494 12.4986C12.6551 12.4929 12.6608 12.4929 12.6665 12.4872C13.3432 12.0711 14.4045 11.5811 15.7637 11.4696V14.8902C11.3208 15.1854 7.79297 18.8851 7.79297 23.4014C7.79297 28.1097 11.6246 31.9414 16.333 31.9414C21.0414 31.9414 24.873 28.1097 24.873 23.4014C24.873 18.8851 21.3452 15.1854 16.9023 14.8902ZM16.333 29.664C14.6592 29.664 13.0878 29.015 11.9036 27.8308C10.7193 26.6465 10.0703 25.0752 10.0703 23.4013C10.0703 19.9455 12.8771 17.1387 16.333 17.1387C18.0182 17.1387 19.6408 17.8275 20.7738 19.0232C21.9409 20.1504 22.5957 21.7104 22.5957 23.4013C22.5957 26.8572 19.7889 29.664 16.333 29.664Z" fill="#187E7D"/>
<circle cx="16.332" cy="23.4043" r="5.69335" fill="#7AC19F"/>
<path d="M19.1423 22.5635V23.1789H16.1848V25.5381C16.1848 25.8059 16.219 25.9883 16.2874 26.0852C16.3614 26.182 16.5039 26.2305 16.7147 26.2305C16.8857 26.2305 17.0567 26.1934 17.2276 26.1194C17.4043 26.0453 17.561 25.9456 17.6977 25.8202C17.8402 25.6948 17.9542 25.5524 18.0397 25.3928C18.1251 25.2275 18.1679 25.0594 18.1679 24.8885C18.1679 24.7517 18.128 24.6463 18.0482 24.5722C17.9741 24.4981 17.8516 24.4611 17.6806 24.4611C17.5268 24.4611 17.3843 24.4782 17.2533 24.5124L17.1678 23.9311C17.2647 23.9026 17.3672 23.8827 17.4755 23.8713C17.5895 23.8542 17.7034 23.8456 17.8174 23.8456C18.1194 23.8456 18.3645 23.9226 18.5525 24.0764C18.7463 24.2246 18.8431 24.4668 18.8431 24.803C18.8431 25.0651 18.7805 25.3187 18.6551 25.5637C18.5354 25.8031 18.373 26.0196 18.1679 26.2134C17.9627 26.4014 17.7319 26.5496 17.4755 26.6579C17.2191 26.7661 16.9569 26.8203 16.6891 26.8203C16.4783 26.8203 16.3044 26.7975 16.1677 26.7519C16.0309 26.7006 15.9169 26.6322 15.8258 26.5467C15.7688 26.4898 15.7175 26.4271 15.6719 26.3587C15.6263 26.2846 15.5893 26.1877 15.5608 26.0681C15.538 25.9427 15.5266 25.7774 15.5266 25.5723V23.1789H14.6975V22.5635H19.1423ZM15.1249 20.418C15.2901 20.418 15.4326 20.4408 15.5522 20.4864C15.6776 20.5319 15.783 20.6003 15.8685 20.6915C15.9711 20.7998 16.048 20.9479 16.0993 21.136C16.1563 21.3183 16.1848 21.5776 16.1848 21.9138V22.6319H15.5266V21.948C15.5266 21.7486 15.5124 21.5833 15.4839 21.4523C15.4611 21.3155 15.4069 21.2129 15.3215 21.1445C15.236 21.0705 15.1078 21.0334 14.9368 21.0334C14.8285 21.0334 14.7203 21.0505 14.612 21.0847C14.5094 21.1132 14.4211 21.1417 14.347 21.1702L14.1162 20.6402C14.2872 20.5661 14.4524 20.512 14.612 20.4778C14.7772 20.4379 14.9482 20.418 15.1249 20.418Z" fill="white"/>
</svg>
