<svg width="44" height="44" viewBox="0 0 44 44" fill="none" xmlns="http://www.w3.org/2000/svg">
<circle cx="22" cy="22" r="22" fill="#187E7D"/>
<path d="M35.7161 22.3275C35.879 22.1396 35.879 21.8604 35.7161 21.6725L33.145 18.7066C33.0558 18.6038 33.0124 18.4691 33.0248 18.3336L33.383 14.4124C33.4057 14.1631 33.2407 13.9354 32.9967 13.8795L29.2029 13.0102C29.0685 12.9794 28.9528 12.8944 28.8831 12.7754L26.8965 9.38225C26.7688 9.16407 26.4983 9.07557 26.2663 9.17607L22.6988 10.7215C22.5719 10.7765 22.4281 10.7765 22.3012 10.7215L18.7332 9.17583C18.5014 9.07543 18.2312 9.16364 18.1033 9.38142L16.1174 12.7629C16.0474 12.882 15.9313 12.9668 15.7966 12.9973L12.0046 13.8557C11.76 13.911 11.5943 14.139 11.617 14.3887L11.9753 18.3218C11.9876 18.457 11.9444 18.5913 11.8557 18.694L9.28284 21.6726C9.12046 21.8605 9.12071 22.1392 9.28342 22.3269L11.8551 25.2934C11.9442 25.3962 11.9876 25.5308 11.9752 25.6663L11.6169 29.6001C11.5942 29.8493 11.7592 30.0769 12.0032 30.1328L15.7975 31.0023C15.9317 31.033 16.0472 31.1178 16.117 31.2365L18.1027 34.6176C18.2308 34.8358 18.5018 34.9239 18.7337 34.8227L22.3008 33.2669C22.4279 33.2115 22.5722 33.2113 22.6994 33.2664L26.2668 34.8118C26.4986 34.9122 26.7688 34.824 26.8967 34.6062L28.883 31.2241C28.9528 31.1054 29.0683 31.0207 29.2025 30.9899L32.9967 30.1205C33.2407 30.0646 33.4057 29.8369 33.383 29.5876L33.0248 25.6664C33.0124 25.5309 33.0558 25.3962 33.145 25.2934L35.7161 22.3275ZM19.2845 26.9648L16.3636 23.9933C16.2499 23.8788 16.1596 23.7427 16.098 23.593C16.0364 23.4432 16.0047 23.2826 16.0047 23.1205C16.0047 22.9583 16.0364 22.7978 16.098 22.648C16.1596 22.4982 16.2499 22.3622 16.3636 22.2476L16.4495 22.161C16.9282 21.6781 17.7136 21.6781 18.1923 22.161L19.8127 23.8059C20.0083 24.0044 20.3284 24.0047 20.5244 23.8066L26.4886 17.7781C26.9673 17.2952 27.7527 17.2952 28.2314 17.7781L28.3173 17.8648C28.7959 18.3476 28.7959 19.1276 28.3173 19.6105L21.0518 26.9648C20.5486 27.4476 19.7755 27.4476 19.2845 26.9648Z" fill="white"/>
</svg>
