<svg width="56" height="56" viewBox="0 0 56 56" fill="none" xmlns="http://www.w3.org/2000/svg">
<rect width="56" height="56" rx="8" fill="#187E7D"/>
<path opacity="0.6" d="M33.1495 43.1243C37.1939 48.3856 33.443 55.9999 26.8069 55.9999L8.00001 55.9998C3.58174 55.9998 1.67822e-05 52.4181 1.69753e-05 47.9998L1.42301e-05 23.5339C1.4564e-05 15.8938 9.6864 12.6011 14.3426 18.6584L33.1495 43.1243Z" fill="url(#paint0_linear_4378_4184)" fill-opacity="0.2"/>
<path d="M27.9981 45.7859C37.8222 45.7859 45.7863 37.8219 45.7863 27.9977C45.7863 18.1735 37.8222 10.2095 27.9981 10.2095C18.1739 10.2095 10.2098 18.1735 10.2098 27.9977C10.2098 37.8219 18.1739 45.7859 27.9981 45.7859Z" fill="white"/>
<path d="M28 46C18.0773 46 10 37.9227 10 28C10 18.0773 18.0773 10 28 10C37.9227 10 46 18.0773 46 28C46 37.9227 37.9227 46 28 46ZM28 10.4538C18.3193 10.4538 10.4538 18.3193 10.4538 28C10.4538 37.6807 18.3193 45.5462 28 45.5462C37.6807 45.5462 45.5462 37.6807 45.5462 28C45.5462 18.3193 37.6807 10.4538 28 10.4538Z" fill="#007658"/>
<path d="M28.0008 40.4113C34.626 40.4113 40.0109 35.0567 40.0109 28.4012C40.0109 21.776 34.626 16.3911 28.0008 16.3911C21.3756 16.3911 15.9907 21.776 15.9907 28.4012C15.9907 35.0567 21.3756 40.4113 28.0008 40.4113Z" fill="#DF1E3D"/>
<path fill-rule="evenodd" clip-rule="evenodd" d="M34.7228 36.1427C34.6623 36.1124 34.6623 36.0519 34.6623 36.0217C34.6623 35.9914 34.6623 35.9309 34.6321 35.8704C34.5716 35.7797 34.6018 35.6587 34.6018 35.5376C34.6018 35.4771 34.6018 35.3864 34.6018 35.3259C34.5716 35.1746 34.5716 34.7511 34.5716 34.6906C34.5716 34.6603 34.6018 34.5998 34.6018 34.3881C34.6018 34.1158 34.5716 34.025 34.5111 33.8738V33.8435C34.4506 33.6923 34.4808 33.6318 34.5413 33.5713C34.6321 33.4805 34.5716 33.2082 34.5111 33.057C34.4506 32.9057 34.4203 32.7242 34.4506 32.5124C34.4506 32.3309 34.3901 32.1494 34.3598 32.0587C34.3598 32.0587 34.3598 32.0284 34.3296 32.0284C34.2993 31.9679 34.2993 31.9376 34.2993 31.8166C34.3296 31.6654 34.2388 31.5444 34.2388 31.5444C34.2388 31.5444 34.148 31.5141 34.148 31.4234C34.148 31.3931 34.148 31.1813 34.027 31.0603L33.9968 31.0301C33.9363 30.9393 33.8758 30.9091 33.8758 30.7578C33.8758 30.6066 33.8153 30.3948 33.8153 30.3948C33.8153 30.3948 33.7548 30.1528 33.7548 30.0318C33.8455 29.8805 33.8455 29.7897 33.8153 29.6687C33.8153 29.6385 33.785 29.578 33.785 29.5175C33.7548 29.3057 33.664 29.1242 33.6338 29.0637C33.664 29.0334 33.6943 28.9729 33.6035 28.8519C33.5128 28.7612 33.5128 28.6704 33.5128 28.6402C33.5128 28.6402 33.543 28.5494 33.543 28.3982C33.543 28.3376 33.543 28.3074 33.4825 28.2771C33.4522 28.2771 33.422 28.3074 33.3615 28.3982C33.3312 28.4284 33.301 28.4889 33.301 28.4889C33.301 28.4889 33.2707 28.4587 33.2102 28.3982C33.18 28.3376 33.1195 28.3074 33.0892 28.3074C33.0287 28.3074 32.9985 28.3982 32.938 28.4587C32.938 28.4889 32.9077 28.5192 32.9077 28.5494C32.8775 28.5797 32.8472 28.6099 32.7867 28.5797C32.7262 28.5494 32.7262 28.5494 32.7262 28.5192C32.7262 28.4889 32.6959 28.4284 32.6354 28.3982C32.6052 28.3679 32.5749 28.3679 32.5447 28.3679C32.4539 28.3982 32.4237 28.5494 32.3934 28.5797L32.4237 28.8217C32.4237 28.8519 32.3934 28.9427 32.4539 29.0334C32.4539 29.0637 32.4842 29.0637 32.4539 29.0939C32.4539 29.1545 32.3934 29.215 32.3632 29.215H32.2724H32.2422L32.2119 29.3057C32.1817 29.336 32.0909 29.4267 31.9396 29.578C31.7581 29.7292 31.8791 30.0015 31.9699 30.183V30.2133C32.0304 30.3645 32.0001 30.4553 31.9699 30.4855C31.9396 30.4855 31.8186 30.5763 31.7581 30.6973C31.6674 30.7881 31.5161 30.8486 31.3951 30.8183H31.3649C31.2741 30.7578 31.2136 30.5763 31.1833 30.5158C31.1833 30.425 31.0623 30.1225 30.9413 29.9108C30.9111 29.8503 30.8808 29.82 30.8203 29.82C30.7598 29.82 30.7296 29.8805 30.6993 29.941V29.9713C30.6691 30.062 30.7296 30.3343 30.7598 30.425C30.7901 30.4553 30.7901 30.4855 30.7598 30.4855C30.7598 30.4855 30.7296 30.5158 30.6691 30.4855C30.6388 30.4855 30.6388 30.4553 30.6388 30.3948C30.6388 30.3645 30.6388 30.304 30.6085 30.2738C30.5783 30.2133 30.548 30.0015 30.5178 29.8805C30.5178 29.8503 30.5178 29.82 30.5178 29.7897C30.5178 29.699 30.4573 29.578 30.427 29.4872C30.3968 29.4267 30.3968 29.3662 30.3968 29.336C30.3665 29.2452 30.2455 28.9729 30.1548 28.8822C30.1245 28.8519 30.064 28.7914 30.0943 28.7309C30.0943 28.7309 30.0943 28.7007 30.1245 28.7007C30.1548 28.6704 30.185 28.6704 30.185 28.6402C30.185 28.6099 30.185 28.5797 30.1245 28.4889C30.0943 28.4284 30.0943 28.4284 30.0943 28.4284C30.0943 28.4284 30.1245 28.4284 30.1548 28.4284H30.185C30.2153 28.4284 30.2455 28.4284 30.2455 28.3982C30.2758 28.3982 30.2758 28.3679 30.2758 28.3376C30.2758 28.3074 30.2758 28.3074 30.2758 28.3074C30.3363 28.2469 30.3665 28.1561 30.3665 28.0049C30.3665 27.9141 30.3665 27.8839 30.3968 27.8536C30.3968 27.8234 30.427 27.8234 30.427 27.7629C30.427 27.6721 30.4875 27.6418 30.548 27.6116C30.6691 27.6721 30.7598 27.6116 30.7598 27.6116L30.8203 27.5813L30.8506 27.5511C30.8506 27.5511 30.8506 27.5511 30.8203 27.5511C30.8203 27.5511 30.8203 27.5208 30.8506 27.4906C30.9413 27.4301 30.9111 27.3393 30.8808 27.2788C30.8808 27.2788 30.8808 27.2486 30.8506 27.2486C30.8506 27.2183 30.8506 27.1881 30.8506 27.1881C30.8506 27.1881 30.8808 27.1881 30.9111 27.1881C30.9716 27.2183 31.0018 27.2183 31.0321 27.1881C31.0623 27.1881 31.0623 27.1881 31.0926 27.1881C31.1531 27.2183 31.2136 27.2486 31.3649 27.2486H31.4556C31.5161 27.2486 31.5766 27.2486 31.6069 27.2183C31.6674 27.1578 31.6371 27.0671 31.6371 27.0368C31.6371 26.9461 31.6674 26.825 31.6674 26.7948C31.7279 26.9763 31.7884 27.0066 31.9396 27.0368C31.9699 27.0368 32.0304 27.0671 32.0304 27.0368C32.0607 27.0066 32.0304 26.9763 32.0001 26.9158C32.0001 26.8855 31.9699 26.8553 31.9699 26.7948C31.9699 26.7645 31.9699 26.7343 31.9699 26.7343C31.9699 26.7343 32.0304 26.7343 32.0607 26.7645C32.0909 26.7645 32.1212 26.7948 32.1817 26.7948C32.2724 26.825 32.3027 26.8855 32.3027 26.9158C32.3027 26.9461 32.3027 26.9763 32.3329 27.0066C32.3632 27.0368 32.3934 27.0671 32.4237 27.0368C32.4842 27.0368 32.5144 26.9158 32.5447 26.7645V26.7343C32.5749 26.583 32.5749 26.5225 32.5447 26.462C32.5447 26.462 32.5447 26.462 32.5447 26.4318C32.6052 26.4923 32.6354 26.5225 32.6959 26.5225C32.7262 26.5225 32.7565 26.4923 32.7867 26.462C32.8472 26.3713 32.7867 26.341 32.7262 26.2805L32.6959 26.3108C32.6959 26.2805 32.6959 26.2805 32.6959 26.2503C32.6959 26.2503 32.7262 26.2503 32.7867 26.2503C32.817 26.2503 32.8775 26.2503 32.9077 26.2805C32.9985 26.2805 33.059 26.2805 33.0892 26.2503C33.18 26.1595 33.18 26.0385 33.18 25.9175C33.18 25.857 33.18 25.8267 33.2102 25.8267C33.2102 25.8267 33.2707 25.8267 33.301 25.8267H33.3312C33.3917 25.857 33.3917 25.857 33.4522 25.8267C33.5128 25.7965 33.4825 25.736 33.4825 25.6755C33.4825 25.6452 33.4825 25.6452 33.4825 25.615C33.4825 25.5847 33.4825 25.5545 33.4825 25.5242C33.4825 25.4939 33.5128 25.4334 33.5128 25.3729C33.5128 25.3124 33.543 25.2822 33.543 25.2217C33.5733 25.1914 33.5733 25.1612 33.5733 25.1007C33.6035 24.9797 33.5733 24.9192 33.543 24.8889C33.5128 24.8587 33.4825 24.7982 33.4522 24.7074C33.4522 24.6771 33.4522 24.6469 33.4522 24.6166C33.4522 24.5864 33.4825 24.5864 33.543 24.5864C33.5733 24.5864 33.6035 24.6166 33.6338 24.6469C33.6338 24.6469 33.664 24.6771 33.7245 24.6771C33.7548 24.6771 33.7548 24.6771 33.785 24.7074L33.8153 24.7376C33.8758 24.7679 34.1178 24.7376 34.1783 24.6771C34.2388 24.6469 34.2388 24.6166 34.2388 24.5864C34.2388 24.5561 34.2086 24.5259 34.2086 24.5259C34.1783 24.5259 34.1783 24.4956 34.1783 24.4351C34.1783 24.4049 34.1783 24.3746 34.148 24.3444C34.1178 24.3141 34.0875 24.3141 34.0573 24.3141H34.027C34.027 24.3141 34.027 24.3141 34.027 24.2839C34.027 24.2839 34.027 24.2536 34.027 24.2234C34.027 24.1629 33.9665 24.1326 33.906 24.1024C33.8758 24.0721 33.8455 24.0721 33.8153 24.0418C33.785 24.0116 33.785 23.9813 33.7548 23.9813C33.7245 23.9813 33.6943 24.0116 33.664 24.0116C33.6338 24.0116 33.543 23.9813 33.4825 23.9208C33.4522 23.9208 33.422 23.8301 33.301 23.8301C33.2102 23.8301 33.18 23.7998 33.18 23.7998C33.18 23.7998 33.0892 23.7393 33.059 23.6788C32.9682 23.5881 32.8775 23.6183 32.8775 23.6183C32.8775 23.6183 32.6959 23.6183 32.4842 23.6183C32.2724 23.6183 32.0001 23.6788 31.8186 23.7393C31.7884 23.7696 31.7581 23.7998 31.7279 23.7696C31.6976 23.7696 31.6674 23.7091 31.6674 23.6788C31.6674 23.6486 31.6371 23.5578 31.5766 23.5578C31.5464 23.5276 31.4859 23.5578 31.4556 23.6486C31.3649 23.7696 31.2438 23.7393 31.1833 23.6788C31.1833 23.6788 31.1531 23.6788 31.1531 23.6486C31.1228 23.6486 31.0623 23.6183 30.9716 23.6183C30.8808 23.6183 30.7598 23.5578 30.7296 23.5578C30.6691 23.5276 30.5783 23.4671 30.4875 23.4973C30.3665 23.5578 30.2455 23.5276 30.185 23.4973C30.0943 23.4671 29.7917 23.4973 29.6405 23.6183C29.4892 23.7091 29.2472 23.6486 29.0959 23.6183C28.9749 23.6788 28.9144 23.6486 28.8539 23.6183C28.8539 23.6183 28.8237 23.6183 28.8237 23.5881C28.7632 23.5578 28.4606 23.6183 28.4001 23.6788C28.4001 23.6788 28.3699 23.7091 28.3396 23.7091C28.2489 23.7091 28.1581 23.7091 28.1279 23.6788C28.0976 23.6486 28.0371 23.6788 28.0371 23.6788C27.9766 23.7091 27.9464 23.7091 27.9161 23.6788C27.8556 23.6183 27.8254 23.6183 27.7951 23.6183C27.7649 23.6183 27.7346 23.6183 27.7346 23.6183C27.6741 23.5276 27.3111 23.4671 27.2203 23.4973C27.1296 23.4973 27.0691 23.4671 27.0085 23.4066C26.948 23.3158 26.706 23.2553 26.4943 23.2855C26.464 23.2855 26.4035 23.2553 26.4035 23.1948C26.343 23.0738 26.4035 22.862 26.4035 22.8318C26.4035 22.8015 26.4035 22.7713 26.4035 22.7108C26.4035 22.62 26.4035 22.499 26.464 22.3477C26.5245 22.1662 26.4943 22.1057 26.4338 22.0755C26.4035 22.0755 26.4035 22.0452 26.3733 22.015C26.3733 22.015 26.3733 21.9847 26.343 21.9847C26.3128 21.9242 26.2825 21.8939 26.4943 21.6519C26.6153 21.5612 26.6455 21.4402 26.6153 21.3797C26.6153 21.3494 26.5548 21.2587 26.464 21.2284C26.4338 21.2284 26.4338 21.2284 26.4338 21.2284C26.4035 21.2284 26.3733 21.2284 26.4035 21.1679C26.4035 21.0469 26.343 21.0166 26.2825 21.0166C26.2522 21.0166 26.222 20.9864 26.222 20.9561C26.1917 20.9259 26.1917 20.8654 26.1917 20.8351C26.222 20.7746 26.1917 20.7444 26.1615 20.7141C26.1615 20.6839 26.1312 20.6839 26.1312 20.6536C26.1312 20.5629 26.0707 20.5024 25.9497 20.5024C25.9195 20.5024 25.8892 20.5024 25.8892 20.5024C25.8892 20.4721 25.8892 20.4418 25.8892 20.4116C25.8892 20.3813 25.8892 20.2906 25.859 20.2906C25.8287 20.2906 25.7682 20.3208 25.7682 20.3511C25.738 20.3511 25.6775 20.3511 25.6775 20.3813C25.6775 20.3813 25.6472 20.4116 25.6775 20.4418C25.7077 20.4721 25.6775 20.5024 25.617 20.5326C25.5564 20.5629 25.5564 20.6234 25.5564 20.6839C25.5564 20.7444 25.5867 20.7746 25.6472 20.8049C25.6775 20.8049 25.6775 20.8351 25.6775 20.8351C25.6775 20.8351 25.6775 20.8351 25.6472 20.8351C25.5564 20.8351 25.5564 20.8956 25.5262 20.9561C25.5262 20.9864 25.5262 20.9864 25.5262 21.0166C25.5262 21.0771 25.4959 21.1074 25.4959 21.1074C25.4959 21.1074 25.4657 21.1074 25.4657 21.0771C25.4354 21.0166 25.4052 20.9864 25.3447 20.9864C25.3144 20.9864 25.2842 20.9864 25.2539 21.0166H25.2237C25.1934 21.0166 25.1632 20.9864 25.1632 20.9561C25.1329 20.9259 25.1027 20.8956 25.0724 20.8956C25.0422 20.8956 25.0119 20.8956 24.9817 20.9259C24.9514 20.9561 24.9212 20.9561 24.8304 20.9561C24.8001 20.9561 24.7396 20.9259 24.7094 20.8654C24.6791 20.8351 24.6791 20.8351 24.6186 20.8049C24.5884 20.7746 24.5884 20.7746 24.5581 20.7444C24.5279 20.7141 24.4674 20.6536 24.4069 20.6536C24.3766 20.6536 24.3766 20.6536 24.3766 20.6536C24.3766 20.6234 24.3766 20.6234 24.3464 20.6234C24.3161 20.6234 24.2859 20.5629 24.2859 20.5326C24.2859 20.5024 24.3161 20.3813 24.2254 20.2906C24.1649 20.2603 24.1951 20.1393 24.1951 20.1091C24.1951 20.1091 24.2254 20.0788 24.2254 20.0183C24.2254 19.9881 24.1951 19.9578 24.1649 19.9578C24.1043 19.9276 24.1043 19.8973 24.1043 19.8671V19.8368C24.1043 19.8066 24.0438 19.7158 23.9228 19.7158C23.8623 19.7158 23.8321 19.7158 23.8321 19.6855C23.8018 19.6855 23.8018 19.6553 23.7716 19.625C23.7413 19.5948 23.7111 19.5948 23.6808 19.5948C23.6506 19.625 23.6203 19.6553 23.5901 19.7158V19.746C23.5598 19.8368 23.6203 19.9578 23.6203 19.9881L23.7111 20.0183C23.7111 20.0486 23.7111 20.0788 23.7413 20.1091C23.7716 20.1393 23.8018 20.1393 23.8321 20.1393C23.9228 20.1393 23.9531 20.1696 23.9531 20.2603C23.9531 20.2906 23.9531 20.2906 23.9531 20.2906C23.9531 20.2906 23.9531 20.2906 23.9228 20.2906C23.8926 20.2906 23.8321 20.2603 23.8018 20.2301C23.7413 20.1696 23.6808 20.1696 23.6203 20.1393C23.5901 20.1393 23.5901 20.1091 23.5598 20.1091C23.5296 20.1091 23.5296 20.0788 23.4993 20.1091C23.4691 20.1091 23.4691 20.1393 23.4388 20.1998C23.4388 20.2301 23.4085 20.2301 23.4085 20.2603C23.4085 20.2906 23.3783 20.2906 23.3783 20.2906C23.3783 20.2906 23.348 20.2603 23.348 20.1998C23.348 20.1393 23.3178 20.1091 23.2875 20.0788L23.2573 20.0486C23.227 20.0183 23.1968 20.0183 23.1665 20.0183H23.1363C23.1363 19.9578 23.0758 19.8973 23.0153 19.9276C22.985 19.9276 22.985 19.9276 22.9548 19.8973C22.9548 19.7763 22.864 19.746 22.864 19.746L22.8035 19.6855C22.8035 19.6553 22.7733 19.5948 22.743 19.5645C22.622 19.5645 22.5917 19.504 22.5917 19.504C22.5917 19.504 22.4102 19.3528 22.2892 19.2923C22.1985 19.2318 22.1985 19.2015 22.1985 19.141V19.1108V19.0805C22.138 19.02 22.1077 18.9897 22.0775 18.9897C22.0472 18.9897 22.0472 19.0503 22.0472 19.1108C22.0472 19.141 22.0472 19.1713 22.017 19.2015C21.9564 19.2318 21.8959 19.3528 21.8959 19.5343C21.8959 19.5948 21.9262 19.6553 21.9564 19.6553C21.9867 19.6553 22.017 19.6553 22.0472 19.5645L22.0775 19.5343C22.0775 19.5343 22.1077 19.5343 22.138 19.5343C22.1682 19.5343 22.1985 19.5645 22.2287 19.5343C22.259 19.5343 22.2892 19.5343 22.2892 19.5645C22.3195 19.5948 22.2892 19.5948 22.2892 19.5948C22.2892 19.625 22.259 19.625 22.259 19.6553C22.259 19.6855 22.2892 19.6855 22.2892 19.6855C22.3195 19.7158 22.3497 19.8066 22.38 19.8671C22.38 19.8671 22.3497 19.8671 22.3195 19.8671C22.3195 19.8671 22.3195 19.8671 22.2892 19.8671C21.9564 19.9276 21.8657 20.2603 21.8354 20.3511C21.5329 20.4418 21.4422 20.5931 21.4119 20.6536C21.4119 20.6536 21.4119 20.6839 21.3817 20.6839C21.3514 20.7141 21.3514 20.8049 21.3514 20.8956C21.3514 20.9259 21.3514 20.9864 21.3514 21.0166C21.3514 21.0469 21.3514 21.0469 21.3212 21.0469C21.2909 21.0469 21.2606 21.0771 21.2304 21.1074C21.1699 21.1981 21.1699 21.3192 21.1699 21.5612C21.1699 21.6519 21.2001 21.7124 21.2606 21.7729C21.3212 21.8334 21.4422 21.7729 21.5632 21.7427C21.6237 21.7124 21.6237 21.7124 21.6237 21.7124C21.6237 21.7427 21.6237 21.7729 21.6539 21.7729C21.7144 21.8939 21.8657 22.0452 22.1077 22.136C22.259 22.5595 22.38 22.62 22.5312 22.6805C22.5615 22.6805 22.5917 22.7108 22.622 22.7108C22.6522 22.7108 22.6825 22.741 22.7128 22.741C22.8338 22.8015 22.864 22.8015 23.0153 22.7108L23.0455 22.6805C23.106 22.6503 23.1665 22.62 23.1968 22.6503C23.227 22.6805 23.2573 22.7713 23.227 22.8015C23.227 22.862 23.1968 23.0738 23.348 23.1343C23.4388 23.1645 23.4388 23.1948 23.4993 23.2553C23.4993 23.2855 23.5296 23.3158 23.5598 23.346C23.4993 23.4671 23.5598 23.6183 23.5598 23.6788C23.5296 23.7091 23.4691 23.7091 23.4388 23.6788C23.4085 23.6486 23.4085 23.6486 23.3783 23.6183C23.348 23.6183 23.2875 23.6486 23.2573 23.6788C23.1968 23.7393 23.0758 23.6788 23.0153 23.6486C22.9245 23.5578 22.7733 23.5578 22.6522 23.6486C22.5615 23.7393 22.501 23.6788 22.4102 23.6183C22.3195 23.5578 22.138 23.5881 22.1077 23.6183C22.1077 23.6183 22.1077 23.6486 22.1077 23.6788C22.1682 23.7091 22.1077 23.8301 22.1077 23.8301C22.1077 23.8301 22.1077 24.1024 22.0775 24.2234C22.0472 24.2536 22.0472 24.2839 22.0472 24.3141C22.017 24.3141 21.8657 24.3746 21.8052 24.4351C21.7749 24.4654 21.7749 24.4956 21.7749 24.5561C21.7749 24.6166 21.7749 24.6166 21.7749 24.6166C21.7749 24.6166 21.7144 24.5864 21.6842 24.5864C21.6539 24.5561 21.6237 24.5561 21.5934 24.5561C21.5329 24.5259 21.4724 24.4956 21.4422 24.4654L21.4119 24.4351C21.3514 24.4049 21.2606 24.4351 21.2304 24.4654C21.2909 24.6166 21.1699 24.7679 21.1699 24.7679C21.1699 24.7679 21.0186 25.0402 20.9279 25.1309C20.8069 25.2217 20.8069 25.2822 20.8371 25.4032C20.8976 25.4032 20.8976 25.4334 20.9581 25.4939C20.9884 25.5242 20.9884 25.5545 21.0489 25.615C21.2304 25.9175 21.8052 26.2503 21.9564 26.2805C22.2892 26.5225 22.501 26.5225 22.6825 26.5225C22.743 26.5225 22.7733 26.5225 22.8338 26.5225C22.864 26.5225 22.9245 26.5528 22.9548 26.583C23.0153 26.704 22.985 26.8855 22.9548 26.9763C22.9245 26.9763 22.8943 27.0066 22.864 27.0368C22.8338 27.1276 22.8943 27.2788 22.9548 27.3998C22.9548 27.4301 22.985 27.4603 22.985 27.4603C23.0153 27.5511 22.864 27.7326 22.7733 27.7931C22.6522 27.7931 22.5917 27.8234 22.5615 27.8536C22.5312 27.8839 22.5312 27.9141 22.5312 27.9141C22.5615 27.9141 22.5615 27.9746 22.5615 28.0049L22.5312 28.0351C22.4707 28.0351 22.4405 28.0654 22.4405 28.0956C22.4405 28.1259 22.4405 28.1561 22.4707 28.2166V28.2469C22.501 28.2771 22.4707 28.3376 22.4405 28.3679C22.4405 28.3982 22.4102 28.4284 22.4102 28.4587C22.4405 28.7309 22.5312 28.7612 22.622 28.7612C22.6522 28.7612 22.6522 28.7914 22.6825 28.7914C22.6825 28.8217 22.6825 28.8217 22.6825 28.8519C22.7128 28.9427 22.8338 29.0334 22.985 29.0939C23.0758 29.1242 23.106 29.1242 23.106 29.1545C23.106 29.1545 23.106 29.1545 23.106 29.1847V29.215C23.0153 29.2452 23.0153 29.336 23.0153 29.4267V29.457C22.9245 29.5175 22.8943 29.578 22.9245 29.6687C22.8943 29.699 22.864 29.7292 22.8943 29.7595C22.8943 29.7897 22.9548 29.82 22.9548 29.82C22.9548 29.8503 23.0153 29.941 23.1968 29.9713C23.227 29.941 23.2573 29.941 23.2573 29.941C23.2875 29.941 23.2875 29.941 23.2875 29.9713L23.3178 30.0015C23.3178 30.0015 23.3178 30.0015 23.348 29.9713C23.3783 29.941 23.3783 29.941 23.4993 29.9713H23.5901C23.6506 29.9713 23.7111 30.0015 23.6808 30.0318C23.6808 30.062 23.6506 30.0923 23.5901 30.0923C23.4691 30.0923 23.348 30.304 23.3178 30.3948C23.2875 30.4855 23.2875 30.8183 23.3783 30.8788C23.4085 30.9091 23.4085 30.9091 23.4085 30.9696C23.4085 30.9998 23.4085 31.0603 23.4993 31.1208C23.5901 31.2419 23.5901 31.3629 23.5296 31.3931C23.4691 31.4234 23.4691 31.4839 23.4388 31.5141C23.4388 31.5444 23.4691 31.6049 23.4993 31.6351C23.5901 31.6956 23.5598 31.7259 23.4993 31.7864C23.4388 31.8771 23.4993 31.9982 23.5901 32.1494C23.6506 32.2704 23.6808 32.4217 23.6203 32.5427C23.5901 32.6334 23.6203 32.6637 23.6203 32.694C23.6203 32.7242 23.6506 32.7847 23.6506 32.8452C23.6506 32.9965 23.7111 33.057 23.7716 33.1477C23.8018 33.178 23.8321 33.2082 23.8321 33.2385C23.8623 33.2687 23.8623 33.299 23.8623 33.3292C23.8926 33.3595 23.8926 33.3595 23.8926 33.3595C23.8926 33.3595 23.8926 33.3595 23.8623 33.3898C23.8623 33.3898 23.8623 33.42 23.8321 33.42C23.7716 33.4805 23.8018 33.541 23.8018 33.5713C23.8018 33.6015 23.8321 33.6318 23.8321 33.662C23.8321 33.6923 23.8321 33.7225 23.8623 33.7528C23.8926 33.8738 23.9228 33.9948 23.8623 34.0855C23.8321 34.0855 23.8018 34.0855 23.8018 34.0855C23.7716 34.0855 23.7716 34.1158 23.8018 34.1158H23.7716V34.1461C23.8321 34.3276 23.7716 34.5091 23.7716 34.5091C23.7716 34.5091 23.8926 34.6603 23.9531 34.7511C23.9531 34.7813 23.9833 34.7813 23.9833 34.7813C23.9833 34.8116 24.0136 34.8419 24.0741 34.8419C24.1043 34.8419 24.1346 34.8116 24.1649 34.7813C24.1951 34.7511 24.1951 34.6906 24.1951 34.6603C24.1951 34.5696 24.1043 34.5393 24.0741 34.4788C24.0136 34.4183 24.0136 34.1763 24.0438 34.0855C24.0438 34.0553 24.0438 34.025 24.0741 34.025H24.1043C24.0741 34.2671 24.0741 34.3881 24.1346 34.4486C24.1649 34.4788 24.1951 34.4788 24.2254 34.4788H24.2556H24.2859C24.4069 34.3276 24.3464 34.1763 24.3161 34.1461C24.3161 34.1461 24.3464 34.0855 24.3766 34.0855C24.3766 34.1461 24.3161 34.5091 24.3766 34.5696C24.4069 34.6301 24.4069 34.7813 24.4069 34.8116C24.3464 34.9024 24.3766 34.9629 24.4371 35.0234C24.4674 35.0536 24.4674 35.0536 24.4976 35.0536C24.5279 35.0536 24.5279 35.0234 24.5581 35.0234C24.5581 35.0234 24.5884 34.9931 24.6186 34.9629C24.6791 34.9326 24.7094 34.9024 24.6791 34.8721C24.6791 34.8418 24.6489 34.8419 24.6186 34.8419H24.5884C24.5884 34.8419 24.5884 34.8116 24.6186 34.7511C24.6186 34.7208 24.6489 34.6603 24.6791 34.5998C24.6489 34.5393 24.6489 34.4788 24.6186 34.4183C24.6186 34.3881 24.6186 34.3578 24.6186 34.3276C24.6186 34.2973 24.6186 34.2671 24.6186 34.2671C24.6186 34.2368 24.6186 34.2066 24.5581 34.1763C24.4674 34.1158 24.4674 34.0553 24.4674 34.0553C24.4674 34.0553 24.4976 33.9343 24.4674 33.8738C24.4674 33.8435 24.4674 33.8435 24.4674 33.783C24.4674 33.7528 24.4976 33.7225 24.4976 33.662C24.4976 33.6015 24.4976 33.6015 24.4976 33.6015L24.5581 33.6318V33.5713C24.5581 33.5713 24.5581 33.541 24.5581 33.5108C24.5884 33.4805 24.5884 33.4805 24.6186 33.4805C24.6791 33.5108 24.7094 33.5713 24.7094 33.6015C24.7094 33.6318 24.6791 33.6318 24.6791 33.6318C24.6489 33.6318 24.6186 33.6318 24.6186 33.662C24.5884 33.7225 24.7396 33.9343 24.8304 33.9948C24.9212 34.0553 24.9514 34.1763 24.9212 34.2671C24.9212 34.2973 24.9212 34.2973 24.9212 34.3276C24.9212 34.3578 24.9212 34.3881 24.8909 34.3881C24.8606 34.2973 24.8001 34.2973 24.8001 34.2973C24.7396 34.2973 24.7094 34.3578 24.7094 34.4486C24.7094 34.5091 24.7094 34.5393 24.7396 34.5696C24.7699 34.5998 24.8001 34.5696 24.8304 34.5696C24.8304 34.5696 24.8606 34.6301 24.8606 34.6906C24.8909 34.7813 24.9212 34.8419 24.9817 34.8419C25.0422 34.8419 25.0724 34.8116 25.1329 34.7208L25.1632 34.6906C25.2237 34.6301 25.2539 34.5696 25.1632 34.4788C25.1027 34.4183 25.1329 34.3881 25.1329 34.3276C25.1329 34.2973 25.1329 34.2368 25.1329 34.2066C25.1632 34.2066 25.1934 34.2368 25.1934 34.2368C25.1934 34.2368 25.2237 34.2671 25.2539 34.2368C25.2842 34.2368 25.2842 34.2066 25.3144 34.1461V34.1158C25.3447 34.025 25.3144 33.9343 25.2237 33.8738C25.1934 33.8435 25.1329 33.7528 25.1027 33.6923C25.1632 33.6923 25.1934 33.6923 25.2237 33.662C25.2539 33.6318 25.2539 33.5713 25.2237 33.541C25.2237 33.5108 25.2237 33.5108 25.2539 33.4805C25.2539 33.4805 25.2842 33.4503 25.2842 33.4805C25.2842 33.4805 25.3144 33.5108 25.2842 33.6015C25.2539 33.8435 25.3749 33.9645 25.3749 33.9645L25.4052 33.9948V33.9343C25.4052 33.9343 25.4052 33.8133 25.4959 33.6318C25.5867 33.4503 25.5564 33.42 25.4657 33.3292L25.4354 33.3898C25.4354 33.3898 25.4052 33.3595 25.4354 33.3292C25.4354 33.2687 25.5262 33.2082 25.5564 33.178C25.5564 33.2082 25.5867 33.2385 25.5867 33.2687C25.6472 33.4503 25.7682 33.2385 25.859 32.9662C25.9497 32.694 25.98 32.3309 26.1917 32.6334C26.2522 32.7545 26.343 32.8452 26.4035 32.936C26.4035 32.936 26.4035 32.9662 26.3733 32.9662C26.3127 33.1477 26.3733 33.3292 26.4035 33.4503C26.4035 33.5108 26.4035 33.6015 26.343 33.6923C26.2522 33.8435 26.3733 33.9645 26.4338 33.9948C26.5245 34.0855 26.4943 34.2671 26.4943 34.2671H26.5548C26.5548 34.2671 26.585 34.0553 26.4943 33.9645C26.3733 33.8738 26.3733 33.783 26.4035 33.7225C26.4338 33.662 26.464 33.6015 26.464 33.541C26.464 33.541 26.464 33.541 26.4943 33.541C26.4943 33.8133 26.5245 33.9645 26.585 34.025C26.6455 34.0855 26.706 34.0855 26.7363 34.0553C26.7665 34.1158 26.827 34.1461 26.8573 34.1461H26.8875C26.8573 34.2368 26.827 34.4486 26.948 34.5393C26.9783 34.5696 27.0388 34.5696 27.0691 34.5696C27.0691 34.6301 27.1296 34.6301 27.1901 34.6603C27.2203 34.6603 27.2203 34.6603 27.2506 34.6906C27.4018 34.7511 27.4926 34.6906 27.6136 34.5696C27.7346 34.4788 27.7649 34.3276 27.7649 34.2973C27.7649 34.2973 27.7649 34.2671 27.7951 34.2671C27.7649 34.2973 27.7649 34.3276 27.7649 34.3578C27.7951 34.4788 27.7951 34.5091 27.8254 34.5393C27.8556 34.5393 27.8556 34.5393 27.8859 34.5393C27.9766 34.5091 27.9766 34.4788 27.9766 34.3881C27.9464 34.3276 28.0069 34.2066 28.0371 34.1763C28.0674 34.1461 28.0976 34.0855 28.0976 34.0553C28.0976 34.025 28.0674 33.9948 27.9766 33.9948C27.9766 33.9948 27.8859 34.1158 27.8254 34.2066C27.8254 34.1763 27.8254 34.1461 27.7951 34.1158C27.7649 34.0855 27.7649 34.0855 27.7346 34.0855C27.7043 34.0855 27.6741 34.1158 27.6741 34.1158L27.6438 34.1461H27.6136C27.6136 34.1461 27.5833 34.1461 27.5833 34.1158C27.5833 34.0855 27.5531 34.0855 27.5228 34.0855C27.4926 34.0855 27.4321 34.0855 27.4018 34.0855C27.4018 34.0553 27.4321 34.0553 27.4321 34.0553C27.4623 34.025 27.5228 33.9343 27.5228 33.8133H27.5531C27.6136 33.8133 27.6136 33.8133 27.6136 33.8133C27.6136 33.8435 27.6438 33.8738 27.7043 33.904C27.8254 33.9645 27.9161 33.904 27.9766 33.8435C28.0069 33.8738 28.0371 33.8738 28.0674 33.8738C28.0976 33.8738 28.1279 33.8435 28.1581 33.8435C28.2791 33.8133 28.4909 33.6923 28.6422 33.5713C28.6422 33.5713 28.6724 33.5713 28.6724 33.541C28.6724 33.5713 28.6422 33.6318 28.6422 33.662C28.5817 33.662 28.5514 33.6923 28.4909 33.6923C28.3699 33.783 28.3396 33.9948 28.3396 33.9948C28.3699 34.025 28.4001 34.025 28.4606 34.025C28.5212 33.9948 28.5817 33.9343 28.6422 33.8133C28.6422 33.9343 28.6724 33.9948 28.6724 33.9948V34.025H28.7027L28.8539 33.9948C28.8842 33.9948 28.9144 33.9948 28.9447 33.9948C28.9749 33.9948 28.9749 33.9645 28.9749 33.9645C28.9749 33.9343 29.0657 33.8435 29.1564 33.783C29.1867 33.7528 29.217 33.7225 29.2472 33.7225C29.338 33.6318 29.459 33.3595 29.5195 33.1175C29.5497 32.936 29.58 32.8755 29.6102 32.8755C29.6405 32.8755 29.701 32.9057 29.7312 32.8755C29.7312 32.936 29.7615 33.178 29.6707 33.299C29.3985 33.541 29.3682 33.6015 29.3682 33.662C29.3682 33.7225 29.3682 33.783 29.3985 33.783C29.4287 33.783 29.459 33.783 29.4892 33.7528C29.58 33.662 29.7615 33.3897 29.7615 33.2082C29.7615 33.2082 29.7312 32.7545 29.7312 32.7242C29.7615 32.6637 29.7312 32.6032 29.7312 32.5124C29.7312 32.4519 29.701 32.3612 29.701 32.2704C29.701 32.2402 29.701 32.1797 29.701 32.1494C29.701 32.1494 29.7312 32.1494 29.7312 32.1797C29.7615 32.1797 29.822 32.2099 29.8825 32.2099C30.064 32.2402 30.3665 32.2099 30.5783 32.1494C30.6086 32.1192 30.6691 32.0889 30.6993 32.0889C30.7296 32.0889 30.7598 32.0587 30.7598 32.0284C30.7598 31.9074 30.8203 31.8166 30.9413 31.7561C31.1228 31.6956 31.1228 31.5746 31.0926 31.4839C31.3649 31.7259 31.8791 32.4822 31.9699 32.7545C31.9699 32.9662 32.0001 33.0267 32.0607 33.1175C32.0607 33.1175 32.0909 33.1477 32.0909 33.178C32.0607 33.2687 32.1212 33.42 32.2119 33.5108C32.2422 33.541 32.2422 33.5713 32.2724 33.6318C32.2724 33.662 32.2724 33.7528 32.3027 33.8133C32.2422 34.025 32.3329 34.1461 32.3934 34.2368V34.2671C32.3027 34.6301 32.3632 34.6906 32.4539 34.7208C32.4539 34.8116 32.5144 34.8721 32.5749 34.9629C32.6052 34.9629 32.6052 34.9931 32.6052 35.0234C32.6052 35.0536 32.5749 35.0839 32.5749 35.1141C32.5144 35.0839 32.5447 35.0234 32.5447 35.0234C32.5447 35.0234 32.5447 34.8721 32.4539 34.8721C32.4237 34.9024 32.3934 34.8116 32.3934 34.8116V34.7813L32.3632 34.8116C32.3027 34.8419 32.2119 34.9629 32.2724 35.0839C32.3632 35.2049 32.3934 35.2956 32.3632 35.3864C32.3632 35.4166 32.3632 35.4469 32.3632 35.4771C32.3632 35.5376 32.3632 35.5376 32.3632 35.5679C32.3027 35.5982 32.2724 35.5982 32.2724 35.6587C32.2724 35.6889 32.2724 35.7192 32.3329 35.7494C32.3934 35.7797 32.4842 35.8402 32.5447 35.7797C32.5447 35.7494 32.5749 35.7494 32.6052 35.7494C32.6052 35.8402 32.6052 35.9007 32.6052 35.9007C32.6052 35.9007 32.8775 36.2334 32.8472 36.4755C32.817 36.7477 32.9985 36.9897 33.1195 37.0805C33.2405 37.141 33.301 37.262 33.301 37.3528C33.301 37.4738 33.3917 37.6855 33.5128 37.7461C33.5733 37.7763 33.6035 37.8671 33.6338 37.9578C33.664 38.0183 33.6943 38.1091 33.7245 38.1998C33.785 38.2906 33.8455 38.3208 33.8758 38.3208C33.906 38.3208 33.9363 38.2906 33.9665 38.2603C33.9665 38.2301 33.9665 38.1998 33.9665 38.1696C33.9363 38.1091 33.9363 38.0788 33.906 37.9881V37.9276V37.8973C33.8153 37.8671 33.785 37.7158 33.785 37.6553C33.6943 37.5645 33.6338 37.4435 33.6338 37.383C33.664 37.3225 33.6338 37.141 33.543 37.0503C33.4522 36.9897 33.4522 36.9292 33.4522 36.899C33.4522 36.8687 33.4522 36.8385 33.3917 36.778C33.301 36.6872 33.3615 36.5057 33.3615 36.5057C33.3312 36.415 33.3312 36.294 33.3312 36.294C33.4522 36.294 33.5128 36.1124 33.543 36.0822C33.543 36.0822 33.543 36.0822 33.543 36.0519C33.543 36.0217 33.5733 35.9914 33.5733 35.9612C33.6035 35.9612 33.664 35.9612 33.6943 35.9612C33.7245 35.9612 33.7245 35.9309 33.7548 35.8704C33.7548 35.8402 33.7548 35.8402 33.8153 35.8402C33.8153 35.8402 33.8455 35.8402 33.8758 35.8402C33.906 35.8402 33.906 35.8402 33.9363 35.8704C33.9665 35.9007 33.9665 35.9612 33.9665 35.9914C33.9665 36.0217 33.9665 36.0822 34.027 36.1124C34.0573 36.1427 34.148 36.1427 34.2388 36.1124C34.2691 36.0822 34.3296 36.0822 34.3296 36.1124C34.3901 36.1427 34.4203 36.2334 34.4506 36.3242C34.4506 36.3545 34.4506 36.3847 34.4808 36.415C34.5111 36.4755 34.5413 36.536 34.5716 36.5057C34.6018 36.5057 34.6321 36.5057 34.6321 36.4452C34.6321 36.415 34.6623 36.415 34.6623 36.415C34.6926 36.415 34.7228 36.415 34.7228 36.3847C34.7228 36.294 34.8136 36.2032 34.7228 36.1427ZM27.2808 34.025C27.2506 34.025 27.2506 34.0553 27.2506 34.0553C27.2506 34.0855 27.2506 34.0855 27.2203 34.0855C27.2203 34.0855 27.2203 34.1158 27.1901 34.1158H27.1598C27.1296 34.1158 27.0993 34.2066 27.0993 34.2066C27.0993 34.2066 27.1296 34.2368 27.0993 34.2671C27.0993 34.2671 27.0993 34.2671 27.0691 34.2671C26.9783 34.2973 26.9783 34.3881 26.9783 34.3881C26.9783 34.3881 26.9783 34.4183 26.948 34.4486C26.9178 34.4486 26.9178 34.4486 26.8573 34.4183C26.7665 34.3578 26.827 34.1461 26.8573 34.0553C26.9178 34.025 26.9783 33.9645 27.0085 33.904C27.0691 33.783 27.1296 33.662 27.2506 33.6318H27.2808V33.662C27.2808 33.662 27.2808 33.6923 27.2808 33.7225C27.3413 33.904 27.3111 33.9645 27.2808 34.025Z" fill="#F7EC21"/>
<path fill-rule="evenodd" clip-rule="evenodd" d="M30.1556 32.395C30.1556 32.3647 30.1253 32.3647 30.1253 32.3345C30.0951 32.3042 30.0346 32.3042 30.0043 32.3042H29.9741C29.9438 32.3042 29.9136 32.3042 29.8833 32.3345C29.8531 32.3647 29.8531 32.395 29.8833 32.4252C29.8833 32.4252 29.9438 32.5462 29.9136 32.6975C29.8833 32.8487 29.8833 32.9697 29.8833 33C29.8833 33.0303 29.8833 33.5445 29.8228 33.6958C29.8228 33.726 29.8228 33.7563 29.8531 33.7866C29.8228 33.7563 29.7926 33.7563 29.7623 33.7563C29.732 33.7563 29.732 33.7563 29.7018 33.7563L29.6715 33.726V33.7563C29.6715 33.7563 29.611 33.8773 29.6715 33.9378C29.6715 33.9681 29.7018 33.9681 29.7623 33.9681C29.8531 33.9681 29.8833 33.9378 29.8833 33.9378C29.9136 33.9076 29.8833 33.8471 29.8833 33.8168C29.8833 33.8168 29.8833 33.8168 29.9136 33.8168C29.9136 33.8168 29.9741 33.8168 30.0043 33.7866C30.0043 33.7563 30.0346 33.7563 30.0648 33.726C30.1556 33.6353 30.3068 33.5143 30.3371 33.3025C30.3976 33.0303 30.3371 32.9697 30.3068 32.879C30.3068 32.879 30.2766 32.8487 30.2766 32.8185C30.1858 32.6975 30.1253 32.6067 30.2161 32.516C30.2766 32.6067 30.3371 32.758 30.4278 32.758H30.4581C30.5186 32.6975 30.4581 32.6067 30.3976 32.4857C30.2766 32.395 30.1858 32.3647 30.1556 32.395Z" fill="#F7EC21"/>
<path fill-rule="evenodd" clip-rule="evenodd" d="M31.3042 32.3269C31.2739 32.1151 31.0622 31.9638 31.0319 31.9336L31.0017 31.9033L30.9714 31.9336C30.8202 32.3571 30.9109 32.5084 30.9109 32.5386C30.9109 32.5386 31.0622 32.8109 31.0924 32.8714C31.1227 32.9016 31.1227 32.9319 31.1529 32.9319C31.1832 32.9319 31.2437 32.9016 31.3344 32.8109C31.3949 32.7201 31.3647 32.6294 31.3042 32.5084C31.3344 32.4781 31.3042 32.3874 31.3042 32.3269Z" fill="#F7EC21"/>
<path fill-rule="evenodd" clip-rule="evenodd" d="M24.7691 34.9023C24.7388 34.9023 24.7086 34.9023 24.6783 34.9326C24.6481 34.9628 24.6481 34.9931 24.6481 35.0234C24.6481 35.0839 24.7388 35.0839 24.7691 35.0839C24.7993 35.0839 24.8296 35.0536 24.8296 34.9628C24.7993 34.9326 24.7691 34.9023 24.7691 34.9023Z" fill="#F7EC21"/>
<path fill-rule="evenodd" clip-rule="evenodd" d="M25.5344 34.7523C25.5344 34.722 25.5344 34.6918 25.5041 34.6615C25.4739 34.6615 25.4739 34.6313 25.4436 34.601C25.4134 34.5708 25.4134 34.5405 25.3831 34.5103C25.3529 34.5103 25.3529 34.5103 25.3226 34.5405C25.3226 34.5405 25.2621 34.6615 25.3529 34.7523C25.4436 34.8128 25.4436 34.843 25.4134 34.9035C25.3831 34.9338 25.3831 34.9943 25.4134 34.9943C25.4134 34.9943 25.4436 35.0245 25.5041 35.0245C25.5344 35.0245 25.5949 35.0245 25.5949 34.9943C25.6251 34.964 25.5949 34.9035 25.5646 34.843C25.5344 34.7825 25.5344 34.7825 25.5344 34.7523Z" fill="#F7EC21"/>
<path fill-rule="evenodd" clip-rule="evenodd" d="M25.7691 34.6286C25.7389 34.6286 25.7086 34.5983 25.7086 34.5681C25.6481 34.5076 25.6481 34.4168 25.6783 34.3563C25.6783 34.326 25.6783 34.2655 25.6481 34.2353C25.6178 34.205 25.5876 34.205 25.5573 34.205C25.5271 34.205 25.4666 34.1748 25.4363 34.1748L25.4061 34.1445L25.3758 34.205C25.3153 34.2958 25.3456 34.4168 25.3456 34.4471C25.3758 34.5076 25.4061 34.5681 25.4363 34.5681C25.4363 34.5681 25.4363 34.5681 25.4666 34.5983C25.4968 34.5983 25.5271 34.6286 25.5573 34.6891C25.5876 34.8101 25.6481 34.8101 25.6783 34.8403C25.6783 34.8403 25.6783 34.8403 25.7086 34.8403C25.7389 34.8706 25.7994 34.8706 25.8296 34.8403C25.8599 34.8403 25.8599 34.8101 25.8901 34.7496C25.8901 34.7193 25.8296 34.6891 25.7691 34.6286Z" fill="#F7EC21"/>
<path fill-rule="evenodd" clip-rule="evenodd" d="M26.0336 34.4467C26.0034 34.4467 26.0034 34.4164 25.9731 34.4164C25.9428 34.3559 25.8823 34.2652 25.9126 34.1744C25.9428 34.1442 25.9428 34.1139 25.9428 34.0837C25.9731 34.0232 26.0034 33.9929 25.9731 33.9324L25.9428 33.9022C25.9126 33.9022 25.8823 33.9022 25.8521 33.9022C25.8823 33.8114 25.8823 33.6601 25.8823 33.6299H25.8521C25.8521 33.7206 25.8521 33.8719 25.8218 33.9022C25.7613 33.9627 25.6706 34.1744 25.7008 34.2954V34.3257C25.7311 34.4467 25.7613 34.6282 25.9731 34.598C26.0639 34.598 26.0941 34.5677 26.0941 34.5374C26.1244 34.5072 26.0639 34.4769 26.0336 34.4467Z" fill="#F7EC21"/>
<path fill-rule="evenodd" clip-rule="evenodd" d="M28.1512 34.2415C28.1512 34.2112 28.1512 34.2112 28.1815 34.181C28.2117 34.1205 28.242 34.0297 28.1512 33.9994C28.121 33.9692 28.0907 33.9692 28.0604 33.9692C28.0302 33.9389 27.9999 33.9389 27.9999 33.9087H27.9697C27.9697 33.9087 28.0302 34.0297 27.9394 34.1507C27.8789 34.2415 27.8487 34.302 27.8789 34.3625C27.8789 34.3927 27.9092 34.3927 27.9394 34.3927C28.0604 34.3625 28.121 34.3322 28.1512 34.2415Z" fill="#F7EC21"/>
<path fill-rule="evenodd" clip-rule="evenodd" d="M28.5655 34.1133C28.5353 34.083 28.5353 34.083 28.505 34.083C28.505 34.083 28.4748 34.083 28.4445 34.083C28.4143 34.083 28.3538 34.083 28.3235 34.1133C28.2328 34.1738 28.263 34.3553 28.263 34.3855H28.2933C28.2933 34.3855 28.3235 34.3855 28.3538 34.3553C28.384 34.3553 28.4445 34.325 28.4748 34.2948C28.5655 34.2948 28.5958 34.1738 28.5655 34.1133Z" fill="#F7EC21"/>
<path fill-rule="evenodd" clip-rule="evenodd" d="M28.91 34.1738C28.91 34.1738 28.9403 34.1435 28.91 34.1133C28.8797 34.083 28.8495 34.083 28.8192 34.083C28.7587 34.083 28.7285 34.1133 28.668 34.1738C28.668 34.1738 28.6377 34.1738 28.6377 34.204C28.547 34.2948 28.5772 34.3553 28.5772 34.3553C28.789 34.3855 28.8797 34.2343 28.91 34.1738Z" fill="#F7EC21"/>
<path fill-rule="evenodd" clip-rule="evenodd" d="M26.3977 34.2043C26.3977 34.1135 26.3675 33.9925 26.2465 33.932C26.2767 33.811 26.2465 33.448 26.1557 33.3572C26.065 33.2665 26.1255 33.0849 26.1255 33.0849L26.065 33.0547C26.065 33.0547 26.0045 33.2665 26.0952 33.3875C26.186 33.4782 26.186 33.7807 26.1557 33.9017C26.0347 33.811 25.9439 33.69 25.9439 33.6597L25.9137 33.69C25.9137 33.69 26.0045 33.8715 26.1557 33.932C26.1557 33.9623 26.1255 33.9623 26.1255 33.9623C26.0952 34.053 26.065 34.053 26.1255 34.1135C26.0952 34.1438 26.0952 34.1438 26.0952 34.2345C26.0952 34.3253 26.0952 34.3555 26.1557 34.3858C26.1557 34.3858 26.186 34.416 26.2162 34.416C26.2465 34.4463 26.307 34.4463 26.307 34.416C26.3372 34.3858 26.3675 34.2648 26.3372 34.2345C26.3977 34.2345 26.3977 34.2345 26.3977 34.2043Z" fill="#F7EC21"/>
<path fill-rule="evenodd" clip-rule="evenodd" d="M28.0356 34.4146C28.0053 34.4146 27.9448 34.4751 27.9448 34.5053C27.9448 34.5356 27.9448 34.5658 27.9448 34.5961C27.9751 34.6263 28.0658 34.6263 28.0961 34.5961C28.1263 34.5658 28.1566 34.5356 28.0961 34.4751C28.0961 34.4146 28.0658 34.4146 28.0356 34.4146Z" fill="#F7EC21"/>
<path fill-rule="evenodd" clip-rule="evenodd" d="M28.2181 34.4844H28.1878C28.1575 34.5146 28.1273 34.5751 28.1576 34.6054C28.1576 34.6356 28.1878 34.6659 28.2181 34.6961C28.2786 34.7264 28.3088 34.6961 28.3088 34.6659C28.3088 34.6054 28.2786 34.4844 28.2181 34.4844Z" fill="#F7EC21"/>
<path fill-rule="evenodd" clip-rule="evenodd" d="M28.921 34.2046V34.2651C28.921 34.3256 28.921 34.3558 28.8908 34.4164C28.8908 34.4769 28.8605 34.5071 28.8605 34.5374C28.8605 34.5374 28.8605 34.5071 28.8303 34.5071C28.8303 34.5071 28.8 34.5071 28.7698 34.5071C28.7395 34.5374 28.7395 34.5676 28.7698 34.5979C28.7698 34.6281 28.8303 34.6886 28.8605 34.6886C28.8908 34.6886 28.8908 34.6886 28.8908 34.6584C28.8908 34.6886 28.921 34.7189 28.9513 34.7189C28.9815 34.7189 29.0118 34.6886 29.0118 34.6584C29.0118 34.6281 29.0118 34.6281 28.9815 34.5979C29.0118 34.5676 29.042 34.5374 29.042 34.5071C29.0723 34.4164 28.921 34.2651 28.8908 34.2348L28.921 34.2046Z" fill="#F7EC21"/>
<path fill-rule="evenodd" clip-rule="evenodd" d="M32.364 34.5169C32.3943 34.4262 32.4245 34.3657 32.3338 34.2749C32.3338 34.2749 32.2127 34.2749 32.2127 34.4564C32.2127 34.6077 32.1825 34.8799 32.1825 34.9404V34.9707H32.2127C32.243 34.9404 32.3338 34.8194 32.3338 34.6984C32.3338 34.6077 32.364 34.5472 32.364 34.5169Z" fill="#F7EC21"/>
<path d="M41.4359 30.2378L42.4645 31.4176L43.8259 30.7218L43.0393 32.0529L44.1284 33.142L42.6158 32.8092L41.92 34.1706L41.7687 32.6277L40.2561 32.3857L41.678 31.7806L41.4359 30.2378Z" fill="#DF1E3D"/>
<path d="M39.2524 38.5563L39.4944 37.0437L38.1028 36.4084L39.6154 36.1664L39.7666 34.6235L40.4624 36.0151L41.9751 35.6824L40.886 36.7714L41.6423 38.1025L40.2809 37.4067L39.2524 38.5563Z" fill="#DF1E3D"/>
<path d="M14.5765 30.2378L13.5479 31.4176L12.1563 30.7218L12.9429 32.0529L11.884 33.142L13.3664 32.8092L14.0924 34.1706L14.2437 32.6277L15.7563 32.3857L14.3345 31.7806L14.5765 30.2378Z" fill="#DF1E3D"/>
<path d="M16.7297 38.5563L16.5179 37.0437L17.9095 36.4084L16.3969 36.1664L16.2154 34.6235L15.5196 36.0151L14.0372 35.6824L15.1263 36.7714L14.3398 38.1025L15.7011 37.4067L16.7297 38.5563Z" fill="#DF1E3D"/>
<path d="M12.5681 23.8027C12.4774 24.0145 12.4169 24.3775 12.3564 24.68L12.7194 24.7406C12.7194 24.7406 12.0841 25.3456 12.0841 26.1624C12.0841 26.7674 12.6589 27.554 12.9009 27.4027C13.0219 27.3422 13.1429 27.1002 13.0219 26.5557C12.9917 26.3439 13.0522 25.8296 13.1732 25.8296C13.2942 25.8296 13.5362 25.9809 13.6572 26.7977C13.8085 26.7069 14.0202 26.5254 14.0202 26.5254C14.0202 26.5254 13.8085 25.4363 13.3547 25.4363C12.7497 25.4363 12.8707 26.4649 12.6891 26.4347C12.5681 26.4347 12.2354 25.4969 13.0522 24.8011C13.1732 24.8313 14.5043 25.1641 14.5043 25.1641C14.5345 25.0128 14.595 24.6498 14.595 24.6498L12.9009 24.2263L13.0219 23.9237L12.5681 23.8027Z" fill="#007658"/>
<path d="M14.1138 22.3451L14.6583 22.3149C14.7188 23.646 14.2046 23.767 13.902 23.8275C13.4785 23.888 12.2079 22.3754 14.0835 21.1351L13.781 20.9233C13.8415 20.772 14.023 20.409 14.2046 20.167L14.5373 20.3485C14.5373 20.3485 14.3861 20.53 14.2953 20.7115L15.8382 21.5888C15.8382 21.5888 15.7172 21.8309 15.6264 22.0124C15.6264 22.0124 14.5071 21.4376 14.5373 21.4073C13.2062 21.7099 13.5088 23.646 13.8113 23.6157C14.0533 23.5855 14.3558 23.3737 14.1138 22.3451Z" fill="#007658"/>
<path d="M23.5918 13.6414L24.0758 14.0045C24.0758 14.0045 24.4691 13.0666 25.0741 13.4902C25.4069 13.7019 24.7111 14.7003 23.864 14.6095C23.1682 14.549 22.4724 13.9137 22.4724 13.9137L22.3212 13.9742C22.3212 13.9742 23.1985 15.2145 24.6203 14.912C25.1346 14.8213 25.6792 13.8835 25.4371 13.4902C25.1951 13.1271 24.3178 12.8246 23.5918 13.6414Z" fill="#007658"/>
<path d="M34.8091 15.5454C34.8091 15.5454 35.5956 16.211 35.9284 17.1185C35.8981 17.179 35.8074 17.3605 35.8074 17.3605C35.8074 17.3605 35.7771 16.7252 34.5973 15.9387C34.5973 15.8782 34.8091 15.5454 34.8091 15.5454Z" fill="#007658"/>
<path d="M37.3217 15.2397C37.3217 15.2397 40.2864 17.2666 42.162 20.5944C42.6763 21.5322 43.1301 22.6213 43.4326 23.8616C43.5536 24.3456 43.2813 25.1927 43.0091 25.2229C43.2813 25.4045 43.9771 26.0397 43.3116 26.7961C43.5839 26.7961 44.0074 26.7658 44.0074 26.7658C44.0074 26.7658 44.0376 27.3708 44.0679 27.6129H43.6746C43.7049 27.4918 43.6444 27.2196 43.6444 27.2196L41.8595 27.3103C41.8595 27.0683 41.8292 26.8566 41.8292 26.8566L42.7065 26.8263C42.7065 26.8263 43.2511 26.7961 43.2208 26.1003C43.1906 25.707 42.7368 25.4347 42.5855 25.5557C42.4343 25.6465 42.4645 25.9792 42.7065 26.2818C42.6158 26.3725 42.283 26.5843 42.283 26.5843C42.283 26.5843 41.7687 26.191 42.283 25.4347C42.0107 25.2834 41.678 24.8902 41.7082 24.2549C41.8292 24.2549 42.2528 24.2549 42.2528 24.2549C42.2528 24.2549 42.1015 25.2229 42.5855 25.1927C42.7065 25.1927 43.2511 24.9809 43.0091 23.7406C42.9486 23.4381 42.3435 21.8045 42.0107 21.3507C41.8292 21.4414 41.0729 21.8347 41.0729 21.8347C41.0729 21.8347 41.8897 22.6213 42.0712 22.954C42.041 23.1355 41.8897 23.5893 41.8897 23.6196C41.557 23.4381 41.2544 23.1658 40.5889 23.5893C40.5284 23.4986 40.4679 23.4078 40.4679 23.4078C40.4679 23.4078 40.9217 23.0448 41.4965 23.0145C41.436 22.954 41.0729 22.5003 40.4981 22.1977C40.4679 22.107 40.4376 21.5927 40.4376 21.5927L41.7687 20.9574C41.7687 20.9574 41.0124 19.8986 39.8628 20.2918C39.6511 20.3826 39.4393 21.0482 40.0444 21.1994C40.0141 21.3204 39.8628 21.5927 39.8628 21.5927C39.8628 21.5927 39.046 21.1389 39.5603 20.2616C39.7418 19.9591 40.4981 19.7171 41.1939 19.9591C41.1334 19.8683 40.5586 19.0213 40.4981 18.9608C40.4074 19.0213 39.0158 19.9591 39.0158 19.9591L38.7435 19.6263L40.1956 18.5675L39.7721 18.0532L38.3805 19.1725L38.1082 18.87C38.1082 18.87 38.6528 18.4465 38.7738 18.3255C38.925 18.1742 38.7133 17.6297 37.7754 17.9019C37.7754 17.7204 37.8965 16.6011 36.8376 16.6918C36.6561 16.6918 36.5956 16.7221 36.5654 16.8129C36.5351 16.9641 36.7166 17.2666 37.2309 17.2364C37.2309 17.2969 37.2309 17.6902 37.2309 17.6902C37.2309 17.6902 36.0813 17.6599 36.3838 16.6616C36.4746 16.3893 37.5939 15.6028 38.0175 17.2969C38.1385 17.2969 38.683 17.1759 38.9855 18.0834C39.0763 18.0532 39.4696 17.7204 39.4696 17.7204C39.4696 17.7204 38.4107 16.6011 37.1099 15.6633L37.3217 15.2397Z" fill="#007658"/>
<path d="M24.0386 43.2559V43.6189C24.0386 43.6189 24.4924 43.7096 24.7041 44.0122C24.7344 43.8912 24.8251 43.7096 24.8251 43.7096C24.8251 43.7096 24.6436 43.3466 24.0386 43.2559Z" fill="#007658"/>
<path d="M35.4717 41.9214L35.502 42.2542C35.502 42.2542 35.1087 42.2542 34.7759 42.4962C34.7457 42.4054 34.6852 42.1634 34.6852 42.1634C34.6852 42.1634 34.9272 41.9516 35.4717 41.9214Z" fill="#007658"/>
<path d="M29.5774 12.3374C29.6379 12.0046 28.7606 10.6735 26.9455 11.3996C26.9757 11.5206 27.0362 11.8534 27.0362 11.8534C27.0362 11.8534 29.0934 11.0668 29.1841 12.3072C28.2161 12.2164 24.9489 12.0349 21.3791 13.6987C18.9287 14.7273 16.7203 16.8147 16.4178 17.208L16.811 17.6315C16.811 17.6315 14.9959 17.2382 15.0867 19.4466C15.0867 19.6584 15.4497 19.5979 15.5102 19.4164C15.601 19.1139 16.0547 18.9021 16.0245 19.5374C16.1757 19.5072 16.448 19.5072 16.448 19.5072L17.0228 17.8433L17.6883 18.5088C17.6883 18.5088 17.0833 18.5693 16.932 18.9626C16.7203 19.4466 16.6598 20.1122 16.2968 20.203C16.206 20.2332 15.843 20.0819 15.7522 19.9307C15.7522 19.9912 15.722 20.203 15.722 20.203C15.722 20.203 16.0245 20.5357 16.3875 20.5055C16.5993 20.5055 17.0531 20.3845 17.2648 19.2954C17.2951 19.1744 17.3858 18.5996 18.0211 18.6601C18.1724 18.5088 18.2329 18.4483 18.2329 18.4483L17.0531 17.1172C17.0531 17.1172 17.8396 16.3307 18.3841 15.9677C18.3539 16.1189 18.3841 16.5122 18.6564 16.5727C19.685 16.8752 19.7757 15.9374 19.8968 15.9374C20.0178 15.9677 20.1085 16.845 19.0497 16.9962C18.3539 17.1172 17.7791 16.7542 17.7489 16.7845C17.7186 16.845 17.6581 16.9962 17.6581 16.966C18.1421 17.2382 19.2615 17.3895 19.8968 17.0567C20.5018 16.7542 20.6531 15.5139 19.5035 15.5744C19.3522 16.3609 18.8984 16.3307 18.7774 16.2702C18.6564 16.1794 18.6262 15.6046 19.4127 15.1509C19.5942 15.2114 20.3808 15.2719 20.5623 15.1509C20.5623 15.3021 20.3808 15.9072 20.8346 16.5424C20.9556 16.5424 21.1068 16.4517 21.1068 16.4517C21.1068 16.4517 20.6228 16.0282 21.1371 14.8786C21.0766 14.8181 20.8951 14.6366 20.8951 14.6366C20.8951 14.6366 20.6833 15.0298 20.1993 15.0298C19.927 15.0298 19.7152 15.0601 19.685 14.9693C19.7757 14.9391 20.8951 14.2735 21.3186 14.0618L21.9841 15.6954C22.1052 15.5744 22.4077 15.5139 22.4077 15.5139L21.8026 13.9408C21.8026 13.9408 24.2228 12.7004 27.8833 12.6399C27.9741 12.6399 28.0648 12.9727 27.8833 13.0332C27.6413 12.9727 27.4598 13.1542 27.4598 13.1542C27.4295 12.9424 26.5825 12.3374 26.0077 13.2752C26.0984 13.366 26.3707 13.5777 26.3707 13.5777C26.3707 13.5777 26.8245 12.7004 27.3085 13.245C27.2178 13.3357 27.006 13.5475 27.006 13.5475L27.369 13.85C27.369 13.85 27.7623 13.2752 28.0043 13.366C28.2161 13.4265 28.1556 13.608 28.0951 14.1223C28.0648 14.1223 27.8531 13.9105 27.4295 13.971C27.0968 14.0315 26.4312 14.334 26.4312 14.0618C26.4312 13.7895 26.4615 13.729 26.4615 13.729L26.1892 13.8198C26.1892 13.8198 26.1589 14.5156 26.5825 14.5458C27.0665 14.5761 27.5808 14.2735 27.9136 14.3038C28.1253 14.3038 28.2766 14.3643 28.2766 14.3643H28.5186C28.5186 14.3643 28.7606 13.2752 28.3068 13.0937C28.4581 12.9727 28.4278 12.8214 28.3976 12.6097C28.6094 12.6097 28.9724 12.6097 29.2144 12.6399L29.0329 14.4248C29.1841 14.3643 29.4564 14.4551 29.4564 14.4551L29.6379 12.7307L29.8799 12.7609L29.9102 12.3677L29.5774 12.3374ZM16.2362 19.0836C16.2362 19.0836 15.8127 18.9929 15.6917 18.9929C15.6615 18.6601 15.9942 17.8735 16.569 18.0551L16.2362 19.0836Z" fill="#007658"/>
<path d="M31.2341 12.5811C31.2341 12.5811 31.1736 12.8231 31.1433 12.9743C32.7165 13.3374 33.2005 13.5491 33.3215 13.6096L33.261 13.7306C32.656 13.6701 31.0223 13.6096 31.0223 13.6096C31.0223 13.6096 31.0828 13.9424 31.1131 14.0937C32.7165 14.4567 32.8375 15.3037 32.8375 15.3037C32.8375 15.3037 32.9585 15.3642 33.019 15.3945L33.745 13.7911C33.745 13.7911 34.1081 13.9121 34.3501 14.0332L33.5635 15.6365C33.5635 15.6365 33.866 15.7575 33.9568 15.8483L34.7131 14.2147C34.7131 14.2147 34.8644 14.3054 34.9551 14.3357L35.1669 14.0029C34.3501 13.4886 32.2929 12.7626 31.2341 12.5811ZM32.8072 14.6987C32.8072 14.6987 32.4744 14.2449 32.2324 14.1542C32.5954 14.1844 33.019 14.1542 33.019 14.1542L32.8072 14.6987Z" fill="#007658"/>
<path d="M35.8378 14.272C35.5656 14.272 35.0815 14.4837 35.0513 14.9375C35.0513 15.4216 35.4143 15.6333 35.8681 15.6636C36.2916 15.6938 36.6546 15.4216 36.6546 14.9678C36.6849 14.4837 36.1403 14.3022 35.8378 14.272ZM35.2933 15.0283C35.2933 14.5745 36.5336 14.6047 36.5336 14.998C36.5336 15.4518 35.2933 15.5123 35.2933 15.0283Z" fill="#007658"/>
<path d="M35.565 39.9652L35.928 39.7232C35.928 39.7232 35.7767 39.5114 35.6557 39.3602C35.323 39.5719 32.7515 41.7501 28.002 41.7501C23.2524 41.7501 20.1667 39.2694 19.9549 39.0879C19.9549 39.1181 19.6826 39.4509 19.6826 39.4509C19.6826 39.4509 19.8339 39.5417 19.8944 39.6022C19.8641 39.7232 19.8944 39.8442 20.0154 39.935C20.4994 40.2375 20.5297 40.419 20.5599 40.6005C20.5902 40.782 20.4087 40.9635 20.1364 40.9938C19.7431 41.024 19.7129 40.8123 19.7129 40.5097C19.7129 40.5097 19.5919 40.4795 19.4709 40.4795C19.3801 40.9635 19.6221 41.3568 19.9246 41.4778C20.2272 41.5686 21.2557 41.3568 21.6188 41.4476C22.012 41.5383 21.9515 42.0828 21.9515 42.0828L21.649 42.6274C21.649 42.6274 21.891 42.7484 22.133 42.8392C22.133 42.8392 22.7986 41.3265 22.8591 41.2358C24.3717 41.8711 25.8238 42.0526 25.8238 42.0526L25.7935 42.2039L23.3129 42.1736C23.3129 42.1736 23.3129 42.5064 23.3129 42.7181C24.8255 42.7786 25.5818 43.8072 25.5818 43.8072C25.5818 43.8072 25.7935 43.8375 26.0658 43.8677C26.0658 43.8677 26.3078 42.3249 26.3381 42.1131C28.123 42.3249 29.5146 42.1131 29.5146 42.1131V42.2644L27.0944 42.9904C27.0944 42.9904 27.2759 43.3232 27.3667 43.4139C29.0305 43.1417 29.6961 43.8375 29.6961 43.8375C29.6961 43.8375 29.9078 43.8375 30.1196 43.8072C30.1196 43.8072 30.0591 42.6879 30.0893 42.5971C30.9364 42.3551 31.1482 42.5366 31.1784 42.6576C31.2087 42.8694 30.9969 42.8997 30.5734 42.9602C30.5734 42.9602 30.7246 43.3232 30.7246 43.3534C31.3599 43.2929 31.4507 42.7181 31.4204 42.6274C31.3599 42.3551 31.1179 42.1131 30.0288 42.2039V42.0223C30.6036 41.9316 31.7835 41.6291 31.7835 41.6291L32.2675 43.3232C32.2675 43.3232 32.5398 43.2929 32.7515 43.2022L32.2372 41.5081C33.7196 41.0845 35.1414 40.2072 35.1414 40.2072L35.202 40.298C35.0204 40.4795 33.2356 41.9316 33.2356 41.9316C33.2356 41.9316 33.5381 42.1736 33.6591 42.2341C34.6272 41.4173 36.2305 41.6291 36.2305 41.6291C36.2305 41.6291 36.291 41.6291 36.4725 41.4778L35.565 39.9652ZM22.133 41.5988C22.0725 41.4173 21.7398 40.903 21.5885 40.8728C21.286 40.782 20.923 40.8425 20.7414 40.8123C20.802 40.54 20.7112 40.1467 20.7112 40.1467C21.4977 40.6005 22.3448 41.024 22.3448 41.024C22.3448 41.024 22.1935 41.5081 22.133 41.5988ZM25.6423 43.4139C25.4305 43.0207 24.7952 42.7181 24.7952 42.7181L25.7633 42.6879C25.733 42.6879 25.6423 43.2929 25.6423 43.4139ZM28.6977 43.0509C28.7885 43.0207 29.5448 42.7786 29.5448 42.7786L29.6053 43.535C29.6053 43.5047 28.97 43.0812 28.6977 43.0509ZM34.7482 41.387L35.4137 40.8123L35.7767 41.4173L34.7482 41.387Z" fill="#007658"/>
<defs>
<linearGradient id="paint0_linear_4378_4184" x1="-1.75461" y1="-7.54392" x2="20.9347" y2="34.1361" gradientUnits="userSpaceOnUse">
<stop offset="0.1561" stop-color="#CFE6DB" stop-opacity="0.28"/>
<stop offset="0.925" stop-color="#F6FCF9"/>
</linearGradient>
</defs>
</svg>
