<svg width="32" height="32" viewBox="0 0 32 32" fill="none" xmlns="http://www.w3.org/2000/svg">
<g clip-path="url(#clip0_4002_17056)">
<path d="M32 16V16.8C31.9 17.8 31.8 18.8 31.6 19.8C30.8 23.2 28.9 26.1 26.3 28.3C26.2 28.4 26 28.5 25.9 28.6C25 29.3 24 29.9 22.9 30.4C22.7 30.5 22.5 30.6 22.3 30.7C21.9 30.9 21.5 31 21.1 31.1C20.6 31.3 20.1 31.4 19.6 31.5C18.4 31.9 17.2 32 16 32C7.2 32 0 24.8 0 16C0 7.2 7.2 0 16 0C24.8 0 32 7.2 32 16Z" fill="#C9DDDD"/>
<path d="M31.9999 16.7992C31.8999 17.7992 31.7999 18.7992 31.5999 19.7992C30.7999 23.1992 28.8999 26.0992 26.2999 28.2992C26.1999 28.3992 25.9999 28.4992 25.8999 28.5992C24.9999 29.2992 23.9999 29.8992 22.8999 30.3992C22.6999 30.4992 22.4999 30.5992 22.2999 30.6992C21.8999 30.8992 21.4999 30.9992 21.0999 31.0992C21.0999 31.0992 12.3999 22.3992 12.2999 22.2992L7.1999 16.4992C6.5999 15.7992 6.5999 14.6992 7.3999 13.9992C8.0999 13.3992 9.1999 13.3992 9.8999 14.1992C9.9999 14.2992 13.8999 18.1992 13.9999 18.2992L22.1999 9.49916C22.8999 8.79916 23.9999 8.79916 24.6999 9.39916C24.6999 9.49916 31.9999 16.7992 31.9999 16.7992Z" fill="#9FC2C2"/>
<path d="M13.5999 23.0007C13.0999 23.0007 12.5999 22.8007 12.2999 22.4007L7.1999 16.6007C6.5999 15.9007 6.5999 14.8007 7.3999 14.1007C8.0999 13.5007 9.1999 13.5007 9.8999 14.3007L13.6999 18.7007L22.1999 9.60072C22.8999 8.90072 23.9999 8.90072 24.6999 9.50072C25.3999 10.2007 25.3999 11.3007 24.7999 12.0007L14.9999 22.5007C14.4999 22.8007 14.0999 23.0007 13.5999 23.0007Z" fill="white"/>
</g>
<defs>
<clipPath id="clip0_4002_17056">
<rect width="32" height="32" fill="white"/>
</clipPath>
</defs>
</svg>
