<svg width="243" height="173" viewBox="0 0 243 173" fill="none" xmlns="http://www.w3.org/2000/svg">
<g opacity="0.1">
<path d="M164.801 139.898C164.987 139.315 165.173 138.732 165.835 137.332C181.05 118.329 184.885 97.7669 178.683 75.4968C174.895 61.8987 175.359 49.5064 184.972 38.3976C185.146 38.1969 184.776 37.5264 184.672 37.122C168.605 36.4777 157.217 44.1914 148.723 57.0986C148.723 57.0986 148.745 57.3353 148.251 57.3384C121.219 62.586 94.6822 67.8305 68.1454 73.0749C72.1525 53.2257 80.7293 36.0737 96.0474 22.2388C109.672 9.93364 125.531 2.45371 143.349 0.644226C165.56 -1.61145 186.828 1.72608 205.554 15.9314C225.287 30.9017 237.634 49.7196 241.147 74.4805C245.549 105.515 235.598 131.379 213.243 152.442C200.308 164.63 184.242 171.183 165.785 172.642C168.388 161.28 168.144 150.576 164.801 139.898Z" fill="#E7012D"/>
<path d="M149.288 57.4898C157.217 44.1928 168.606 36.4791 184.672 37.1233C184.776 37.5278 185.146 38.1983 184.972 38.399C175.36 49.5078 174.895 61.9 178.683 75.4982C184.885 97.7683 181.16 118.257 166.045 136.812C162.819 124.148 159.653 111.23 157.066 98.146C154.421 84.7714 152.238 71.3055 149.288 57.4898Z" fill="#9CD9C0"/>
<path d="M67.5369 73.1867C94.6819 67.83 121.219 62.5855 148.369 57.3281C148.436 58.7576 148.15 60.376 147.308 61.6166C126.201 92.6961 105.044 123.742 83.8531 154.764C82.8338 156.257 81.4269 157.484 79.6525 158.906C78.9319 154.811 79.5787 150.398 78.4137 146.53C76.0888 138.811 68.2635 136.228 56.9725 138.465C38.6559 142.093 20.3271 145.66 0 149.646C11.0677 133.65 21.2809 119.241 31.101 104.57C37.5144 94.9885 42.912 84.5791 53.7263 79.0127C57.9803 76.823 62.5194 75.187 67.5369 73.1867Z" fill="#4FCBBA"/>
<path d="M120.554 170.526C102.788 175.602 86.1857 164.71 80.105 158.629L149.107 57.1094L166.044 136.818C158.906 154.267 142.762 164.181 120.554 170.526Z" fill="white"/>
</g>
</svg>
