<svg width="24" height="24" viewBox="0 0 24 24" fill="none" xmlns="http://www.w3.org/2000/svg">
<g clip-path="url(#clip0_4002_19383)">
<path d="M24 12C24 9.62663 23.2962 7.30655 21.9776 5.33316C20.6591 3.35977 18.7849 1.8217 16.5922 0.913451C14.3995 0.00519943 11.9867 -0.232441 9.65892 0.230582C7.33115 0.693605 5.19296 1.83649 3.51472 3.51472C1.83649 5.19296 0.693605 7.33115 0.230582 9.65892C-0.232441 11.9867 0.00519943 14.3995 0.913451 16.5922C1.8217 18.7849 3.35977 20.6591 5.33316 21.9776C7.30655 23.2962 9.62663 24 12 24C15.1826 24 18.2349 22.7357 20.4853 20.4853C22.7357 18.2349 24 15.1826 24 12ZM4.88951 12C4.8883 10.3704 5.44702 8.78981 6.47211 7.52297C7.4972 6.25613 8.92642 5.37994 10.5204 5.04111C12.1144 4.70229 13.7765 4.9214 15.2282 5.66176C16.68 6.40213 17.8333 7.61878 18.495 9.10801L18.895 8.33701C19.0176 8.10183 19.2286 7.92498 19.4816 7.84537C19.7346 7.76576 20.0088 7.78991 20.244 7.91251C20.4792 8.0351 20.656 8.2461 20.7356 8.49909C20.8153 8.75208 20.7911 9.02633 20.6685 9.26151L19 12.4625C18.9393 12.579 18.8561 12.6825 18.7554 12.7669C18.6547 12.8512 18.5383 12.9149 18.4129 12.9543C18.2875 12.9937 18.1556 13.008 18.0247 12.9963C17.8938 12.9847 17.7665 12.9474 17.65 12.8865L14.4545 11.2195C14.3361 11.1599 14.2307 11.0774 14.1445 10.9767C14.0583 10.876 13.993 10.7592 13.9523 10.6331C13.9117 10.5069 13.8965 10.3739 13.9077 10.2418C13.9189 10.1098 13.9562 9.98125 14.0175 9.86373C14.0788 9.74622 14.1629 9.64206 14.2648 9.55733C14.3667 9.47259 14.4845 9.40896 14.6112 9.37014C14.7379 9.33131 14.8711 9.31807 15.003 9.33118C15.1349 9.34429 15.2629 9.3835 15.3795 9.44651L16.77 10.1715C16.3746 9.14326 15.6574 8.27039 14.7253 7.68309C13.7933 7.09578 12.6964 6.8255 11.5982 6.91257C10.5 6.99964 9.45932 7.43939 8.63147 8.16623C7.80361 8.89307 7.2329 9.86805 7.00446 10.9458C6.77601 12.0235 6.90206 13.1461 7.36382 14.1463C7.82559 15.1465 8.59831 15.9707 9.56674 16.4958C10.5352 17.021 11.6474 17.219 12.7376 17.0603C13.8277 16.9017 14.8374 16.3949 15.616 15.6155C15.7089 15.5227 15.8191 15.449 15.9405 15.3988C16.0618 15.3486 16.1919 15.3227 16.3232 15.3227C16.4545 15.3228 16.5845 15.3486 16.7059 15.3989C16.8272 15.4492 16.9374 15.5229 17.0303 15.6158C17.1231 15.7086 17.1967 15.8189 17.247 15.9402C17.2972 16.0616 17.3231 16.1916 17.323 16.3229C17.323 16.4543 17.2971 16.5843 17.2468 16.7056C17.1966 16.8269 17.1229 16.9372 17.03 17.03C16.0351 18.0241 14.7678 18.7009 13.3884 18.9749C12.0089 19.2489 10.5792 19.1078 9.27991 18.5695C7.9806 18.0312 6.87004 17.1198 6.08859 15.9505C5.30714 14.7811 4.88986 13.4064 4.88951 12Z" fill="#C9DDDD"/>
</g>
<defs>
<clipPath id="clip0_4002_19383">
<rect width="24" height="24" fill="white"/>
</clipPath>
</defs>
</svg>
