<svg width="36" height="36" viewBox="0 0 36 36" fill="none" xmlns="http://www.w3.org/2000/svg">
<g clip-path="url(#clip0_4002_49432)">
<path d="M9.48751 14.8444L13.8221 14.7866L14.146 14.8705C15.0221 15.3736 15.8463 15.952 16.6154 16.6027C17.1706 17.0741 17.7027 17.5859 18.2059 18.1412C19.7616 15.6397 21.4185 13.3406 23.1679 11.2296C25.0851 8.91605 27.1179 6.81364 29.2549 4.89632L29.677 4.73438L34.4078 4.73438L33.4535 5.79281C30.5243 9.04908 27.864 12.4152 25.461 15.8855C23.0552 19.3644 20.9067 22.9504 18.9953 26.6404L18.3996 27.7885L17.8531 26.6202C16.8439 24.4571 15.6381 22.4703 14.198 20.6947C12.758 18.9191 11.0837 17.343 9.13184 16.0041L9.48751 14.8444Z" fill="#00BA76"/>
<path d="M17.7624 -0.0078125C20.5182 -0.0078125 23.1264 0.619728 25.4571 1.73889C24.5029 2.49367 23.618 3.21664 22.7939 3.91648C21.2237 3.34678 19.5321 3.03446 17.7653 3.03446C13.6996 3.03446 10.0186 4.68283 7.35536 7.34916C4.69214 10.0155 3.04101 13.694 3.04101 17.76C3.04101 21.826 4.68925 25.5044 7.35536 28.1708C10.0215 30.8371 13.6996 32.4855 17.7653 32.4855C21.831 32.4855 25.5121 30.8371 28.1753 28.1708C30.8414 25.5044 32.4867 21.826 32.4867 17.76C32.4867 16.7941 32.3942 15.8455 32.2149 14.9317C32.9783 13.9369 33.762 12.9421 34.56 11.9588C35.1875 13.7749 35.5288 15.7299 35.5288 17.76C35.5288 22.6646 33.5393 27.1094 30.3267 30.3223C27.1111 33.5381 22.6696 35.5277 17.7653 35.5277C12.8611 35.5277 8.41949 33.5381 5.20397 30.3223C1.98555 27.1065 -0.00390625 22.6646 -0.00390625 17.76C-0.00390625 12.8524 1.98555 8.41048 5.19818 5.19759C8.4137 1.98181 12.8553 -0.0078125 17.7624 -0.0078125Z" fill="#64748B"/>
</g>
<defs>
<clipPath id="clip0_4002_49432">
<rect width="35.5327" height="35.5327" fill="white"/>
</clipPath>
</defs>
</svg>
