<svg width="13" height="7" viewBox="0 0 13 7" fill="none" xmlns="http://www.w3.org/2000/svg">
<path d="M7.25232 6.73809L12.4188 1.70418C12.5731 1.54972 12.6587 1.3423 12.6572 1.1268C12.6557 0.911292 12.5671 0.705032 12.4107 0.552643C12.2543 0.400255 12.0425 0.313994 11.8213 0.31252C11.6001 0.311045 11.3872 0.394479 11.2286 0.544768L6.65672 4.99848L2.08583 0.545745C1.92728 0.395457 1.71435 0.312023 1.49313 0.313497C1.27191 0.314972 1.06018 0.401232 0.903744 0.553621C0.747312 0.706009 0.65876 0.912269 0.657246 1.12777C0.655733 1.34328 0.741379 1.5507 0.895655 1.70516L6.06214 6.73907C6.21997 6.8928 6.43403 6.97917 6.65723 6.97917C6.88042 6.97917 7.09448 6.89182 7.25232 6.73809Z" fill="#334155"/>
</svg>
