<svg width="32" height="32" viewBox="0 0 32 32" fill="none" xmlns="http://www.w3.org/2000/svg">
<path d="M32 16V16.8C31.9 17.8 31.8 18.8 31.6 19.8C30.8 23.2 28.9 26.1 26.3 28.3C26.2 28.4 26 28.5 25.9 28.6C25 29.3 24 29.9 22.9 30.4C22.7 30.5 22.5 30.6 22.3 30.7C21.9 30.9 21.5 31 21.1 31.1C20.6 31.3 20.1 31.4 19.6 31.5C18.4 31.9 17.2 32 16 32C7.2 32 0 24.8 0 16C0 7.2 7.2 0 16 0C24.8 0 32 7.2 32 16Z" fill="#C9DDDD"/>
<path d="M32.0001 16.7992C31.9001 17.7992 31.8001 18.7992 31.6001 19.7992C30.8001 23.1992 28.9001 26.0992 26.3001 28.2992C26.2001 28.3992 26.0001 28.4992 25.9001 28.5992C25.0001 29.2992 24.0001 29.8992 22.9001 30.3992C22.7001 30.4992 22.5001 30.5992 22.3001 30.6992C21.9001 30.8992 21.5001 30.9992 21.1001 31.0992C21.1001 31.0992 12.4001 22.3992 12.3001 22.2992L7.20015 16.4992C6.60015 15.7992 6.60015 14.6992 7.40015 13.9992C8.10015 13.3992 9.20015 13.3992 9.90015 14.1992C10.0001 14.2992 13.9001 18.1992 14.0001 18.2992L22.2001 9.49916C22.9002 8.79916 24.0001 8.79916 24.7001 9.39916C24.7001 9.49916 32.0001 16.7992 32.0001 16.7992Z" fill="#9FC2C2"/>
<path d="M13.6001 23.0007C13.1001 23.0007 12.6001 22.8007 12.3001 22.4007L7.20015 16.6007C6.60015 15.9007 6.60015 14.8007 7.40015 14.1007C8.10015 13.5007 9.20015 13.5007 9.90015 14.3007L13.7001 18.7007L22.2001 9.60072C22.9002 8.90072 24.0001 8.90072 24.7001 9.50072C25.4002 10.2007 25.4001 11.3007 24.8001 12.0007L15.0001 22.5007C14.5001 22.8007 14.1001 23.0007 13.6001 23.0007Z" fill="white"/>
</svg>
