<svg width="35" height="35" viewBox="0 0 35 35" fill="none" xmlns="http://www.w3.org/2000/svg">
<g clip-path="url(#clip0_5695_58647)">
<path d="M17.5 35C7.85011 35 0 27.1499 0 17.5C0 7.85011 7.85011 0 17.5 0C27.1499 0 35 7.85011 35 17.5C35 27.1499 27.1499 35 17.5 35ZM17.5 2.1875C9.05628 2.1875 2.1875 9.05628 2.1875 17.5C2.1875 25.9437 9.05628 32.8125 17.5 32.8125C25.9437 32.8125 32.8125 25.9437 32.8125 17.5C32.8125 9.05628 25.9437 2.1875 17.5 2.1875Z" fill="#FF2C46"/>
<path d="M12.0866 24.0068C11.8065 24.0068 11.5264 23.9005 11.3136 23.6861C10.8864 23.2589 10.8864 22.5662 11.3136 22.139L22.1416 11.3107C22.5691 10.8834 23.2618 10.8834 23.689 11.3107C24.1163 11.7379 24.1163 12.4306 23.689 12.8581L12.8608 23.6861C12.645 23.9005 12.3652 24.0068 12.0866 24.0068Z" fill="#FF2C46"/>
<path d="M22.9131 24.0074C22.6333 24.0074 22.3532 23.9011 22.1404 23.6867L11.3123 12.86C10.8848 12.4327 10.8848 11.7401 11.3123 11.3128C11.7396 10.8853 12.4323 10.8853 12.8595 11.3128L23.6875 22.1408C24.115 22.5681 24.115 23.2608 23.6875 23.688C23.4734 23.9011 23.1932 24.0074 22.9131 24.0074Z" fill="#FF2C46"/>
</g>
<defs>
<clipPath id="clip0_5695_58647">
<rect width="35" height="35" fill="white"/>
</clipPath>
</defs>
</svg>
