<svg width="35" height="35" viewBox="0 0 35 35" fill="none" xmlns="http://www.w3.org/2000/svg">
<g clip-path="url(#clip0_5697_58653)">
<path d="M17.5 0C20.2144 0 22.7836 0.618133 25.0793 1.72052C24.1394 2.46399 23.2678 3.17612 22.4561 3.86547C20.9094 3.30431 19.2432 2.99666 17.5028 2.99666C13.4981 2.99666 9.87223 4.62033 7.24894 7.24668C4.62565 9.87304 2.99927 13.4964 2.99927 17.5014C2.99927 21.5065 4.6228 25.1298 7.24894 27.7562C9.87508 30.3825 13.4981 32.0062 17.5028 32.0062C21.5076 32.0062 25.1335 30.3825 27.7568 27.7562C30.3829 25.1298 32.0036 21.5065 32.0036 17.5014C32.0036 16.55 31.9124 15.6157 31.7358 14.7156C32.4878 13.7357 33.2597 12.7558 34.0458 11.7873C34.6639 13.5761 35 15.5017 35 17.5014C35 22.3325 33.0404 26.7108 29.8759 29.8755C26.7086 33.0431 22.3336 35.0028 17.5028 35.0028C12.6721 35.0028 8.29712 33.0431 5.1298 29.8755C1.95964 26.7079 0 22.3325 0 17.5014C0 12.6675 1.95964 8.2921 5.12411 5.12737C8.29142 1.95979 12.6664 0 17.5 0Z" fill="#F6A723"/>
</g>
<defs>
<clipPath id="clip0_5697_58653">
<rect width="35" height="35" fill="white"/>
</clipPath>
</defs>
</svg>
