<svg width="32" height="32" viewBox="0 0 32 32" fill="none" xmlns="http://www.w3.org/2000/svg">
<path d="M5.03994 5.03997C7.8454 2.23477 11.72 0.5 16.0001 0.5C20.2801 0.5 24.1547 2.23477 26.9601 5.03997C29.7653 7.84543 31.5 11.7199 31.5 16C31.5 20.2801 29.7653 24.1547 26.9599 26.9599L26.9599 26.9599C24.1547 29.7653 20.2801 31.5 16.0001 31.5C11.72 31.5 7.84542 29.7653 5.03997 26.9601C2.23477 24.1547 0.5 20.2801 0.5 16C0.5 11.7199 2.23473 7.84543 5.03994 5.03997ZM5.03994 5.03997L4.6864 4.6864L5.03994 5.03997Z" fill="#F0FDF4" stroke="#187E7D"/>
<g clip-path="url(#clip0_4002_49366)">
<path fill-rule="evenodd" clip-rule="evenodd" d="M22.4312 24.0058H9.56846C9.43928 24.0058 9.33594 23.8987 9.33594 23.7695V17.9453H22.6637V23.7843C22.6527 23.8987 22.5604 24.0058 22.4312 24.0058ZM15.437 22.8284C15.3595 22.6438 15.3004 22.4224 15.2561 22.1898H14.4294C14.6914 22.4888 15.0384 22.7176 15.437 22.8284ZM13.8167 22.1049C13.7982 22.0828 13.7835 22.057 13.7724 22.0311C13.5805 21.6768 13.4734 21.2745 13.4734 20.8464V20.8427V20.8353C13.4734 20.8316 13.4734 20.8279 13.4734 20.8205C13.4771 20.4071 13.5841 20.0159 13.765 19.6726C13.7724 19.621 13.8019 19.573 13.8425 19.5398C14.2854 18.809 15.0863 18.3218 15.998 18.3218C16.9133 18.3218 17.7143 18.809 18.1572 19.5398C18.1978 19.573 18.2273 19.621 18.2347 19.6726C18.4155 20.0159 18.5226 20.4071 18.5262 20.8242V20.8353V20.839V20.8464C18.5262 21.2745 18.4155 21.6768 18.2273 22.0311C18.2162 22.057 18.2015 22.0828 18.183 22.1049C17.7475 22.8542 16.9318 23.3598 15.998 23.3598C15.0679 23.3598 14.2522 22.8542 13.8167 22.1049ZM14.1267 21.7211H15.1897C15.1638 21.4959 15.1491 21.2745 15.1454 21.0678H13.9422C13.968 21.3003 14.0307 21.5181 14.1267 21.7211ZM13.9459 20.5991H15.1454C15.1528 20.3961 15.1675 20.1746 15.1897 19.9495H14.1341C14.0381 20.1488 13.9717 20.3702 13.9459 20.5991ZM14.4441 19.4807H15.2598C15.3041 19.2519 15.3632 19.0378 15.437 18.8533C15.0457 18.964 14.7025 19.1855 14.4441 19.4807ZM16.5627 18.8533C16.6365 19.0378 16.6956 19.2519 16.7399 19.4807H17.5555C17.2972 19.1855 16.9539 18.964 16.5627 18.8533ZM17.8656 19.9495H16.81C16.8358 20.1746 16.8506 20.3961 16.8543 20.5991H18.0538C18.028 20.3702 17.9615 20.1488 17.8656 19.9495ZM18.0575 21.0678H16.8543C16.8506 21.2745 16.8358 21.4959 16.81 21.7211H17.873C17.9689 21.5181 18.0317 21.3003 18.0575 21.0678ZM17.5703 22.1898H16.7399C16.6956 22.4224 16.6365 22.6438 16.5627 22.8284C16.9576 22.7176 17.3083 22.4925 17.5703 22.1898ZM15.998 18.7795C15.9279 18.8274 15.8098 19.06 15.7212 19.4807H16.2785C16.1899 19.06 16.0718 18.8274 15.998 18.7795ZM15.6437 19.9495C15.6215 20.1414 15.6068 20.3592 15.5994 20.5991H16.4003C16.3929 20.3592 16.3782 20.1414 16.356 19.9495H15.6437ZM15.5994 21.0678C15.6068 21.3114 15.6215 21.5292 15.6437 21.7211H16.356C16.3782 21.5292 16.3929 21.3114 16.4003 21.0678H15.5994ZM15.7212 22.1898C15.8098 22.6106 15.9279 22.8394 15.998 22.8911C16.0718 22.8394 16.1899 22.6106 16.2785 22.1898H15.7212ZM10.5318 22.5515C10.4026 22.5515 10.2993 22.4482 10.2993 22.319V19.3515C10.2993 19.2187 10.4026 19.1153 10.5318 19.1153C10.661 19.1153 10.768 19.2187 10.768 19.3515V22.319C10.7532 22.4482 10.6499 22.5515 10.5318 22.5515ZM11.3659 22.5515C11.2367 22.5515 11.1297 22.4482 11.1297 22.319V19.3515C11.1297 19.2187 11.2367 19.1153 11.3659 19.1153C11.4951 19.1153 11.5985 19.2187 11.5985 19.3515V22.319C11.5874 22.4482 11.484 22.5515 11.3659 22.5515ZM20.2056 22.5515C20.0727 22.5515 19.9694 22.4482 19.9694 22.319V19.3515C19.9694 19.2187 20.0727 19.1153 20.2056 19.1153C20.3348 19.1153 20.4381 19.2187 20.4381 19.3515V22.319C20.4381 22.4482 20.3348 22.5515 20.2056 22.5515ZM21.0508 22.5515C20.9216 22.5515 20.8183 22.4482 20.8183 22.319V19.3515C20.8183 19.2187 20.9216 19.1153 21.0508 19.1153C21.18 19.1153 21.287 19.2187 21.287 19.3515V22.319C21.287 22.4482 21.18 22.5515 21.0508 22.5515Z" fill="#2F8B8A"/>
<path fill-rule="evenodd" clip-rule="evenodd" d="M22.8766 17.5184H9.12803C8.99885 17.5184 8.89551 17.4113 8.89551 17.2821V15.994C8.89551 15.8648 8.99885 15.7578 9.12803 15.7578H22.8766C23.0058 15.7578 23.1091 15.8648 23.1091 15.994V17.2821C23.1091 17.4113 23.0058 17.5184 22.8766 17.5184Z" fill="#2F8B8A"/>
<path fill-rule="evenodd" clip-rule="evenodd" d="M14.1196 11.6868L14.127 11.2734H14.0901C14.0643 11.3546 14.0458 11.4616 14.0716 11.5723C14.0827 11.6129 14.0975 11.6499 14.1196 11.6868ZM15.3598 13.558L15.3302 13.5433L16.0057 14.0822L16.5667 13.6466L16.5519 13.6503C17.1351 13.4326 17.6739 12.8789 17.9249 12.3401C18.2128 12.185 18.3937 11.9636 18.4601 11.7015C18.5376 11.4026 18.449 11.1442 18.3826 11.015C18.5524 10.1034 18.4232 9.37258 17.9803 8.84109C17.3012 8.00695 16.1312 7.99219 16.0536 7.99219C14.2857 7.99219 13.4073 9.33567 13.7026 10.9744C13.6989 10.9929 13.6952 11.0076 13.6952 11.0261C13.6324 11.1627 13.5586 11.41 13.6324 11.6905C13.7099 11.9636 13.8908 12.1703 14.1787 12.3401C14.4186 12.8162 14.8615 13.3034 15.3598 13.558ZM17.7441 11.2734C17.6149 11.2734 17.5115 11.17 17.5115 11.0409C17.5115 11.0224 17.5115 11.004 17.5079 10.9892V10.9855V10.9818V10.9597V10.9449L17.5042 10.9338V10.9191V10.908L17.5005 10.8969V10.8785L17.4968 10.8748V10.8526L17.4931 10.8452L17.4894 10.8268V10.8194L17.4857 10.801L17.482 10.7899V10.7788L17.4783 10.7677L17.4746 10.7493V10.7419L17.4673 10.7234V10.7161L17.4636 10.7013L17.4599 10.6865L17.4562 10.6755L17.4525 10.6644L17.4451 10.6496V10.6422L17.4377 10.6238V10.6201L17.4303 10.598L17.4267 10.5943L17.4193 10.5758V10.5684L17.4119 10.5537L17.4082 10.5463L17.4008 10.5278L17.3971 10.5204L17.3897 10.502V10.4983L17.3787 10.4762L17.3676 10.4577V10.4503L17.3602 10.4356L17.3565 10.4282L17.3491 10.4171L17.3455 10.406L17.3418 10.4023L17.3307 10.3839L17.3233 10.3691L17.3196 10.3617L17.3085 10.3396H17.3049L17.2938 10.3211V10.3174L17.2827 10.299L17.2679 10.2768L17.2569 10.2584H17.2532L17.2421 10.2362L17.2273 10.2178L17.2163 10.1993L17.2126 10.1956L17.2015 10.1809L17.1978 10.1772L17.1867 10.1624L17.1831 10.1587L17.172 10.144L17.1683 10.1403L17.1572 10.1255V10.1218L17.1535 10.1144L17.1425 10.1034L17.1388 10.0997C17.1314 10.0886 17.1203 10.0775 17.1129 10.0665H17.1092L17.0982 10.0517L17.0945 10.0443L17.0834 10.0332H17.0797L17.0723 10.0222L17.0649 10.0148L17.0576 10.0074L17.0539 10.0037L17.0465 9.99634L17.0391 9.98527L17.0354 9.98158L17.0243 9.9705L17.0207 9.96681L17.0133 9.96312L17.0059 9.95205H17.0022L16.9948 9.94098L16.9911 9.93729L16.9838 9.93359L16.9764 9.92621L16.9727 9.91883L16.9616 9.91145L16.9579 9.90407L16.9468 9.89669L16.9432 9.89299L16.9321 9.88561L16.9284 9.88192L16.9173 9.87085L16.9136 9.86716L16.9026 9.85978L16.8989 9.85609L16.8878 9.8487V9.84501L16.8767 9.83763L16.873 9.83394L16.862 9.82656L16.8583 9.82287L16.8472 9.81549V9.8118L16.8324 9.80441L16.8214 9.79334H16.8177L16.8066 9.78596L16.7955 9.77489C16.8472 10.0111 16.7955 10.155 16.7143 10.2436C16.5224 10.5057 16.1164 10.4651 16.0389 10.454C16.0278 10.454 16.013 10.454 15.9983 10.4392L14.9205 10.1034C14.8799 10.1034 14.8541 10.1034 14.8283 10.1292C14.6733 10.2584 14.5957 10.753 14.5957 11.0409V11.0446V11.0482H14.5921V11.0519V11.0556V11.0593V11.063V11.0667V11.0704V11.0741V11.0778V11.0815L14.5884 11.0852V11.0888V11.0925V11.0962V11.0999H14.5847V11.1036V11.1073V11.111L14.581 11.1147V11.1184V11.1221L14.5773 11.1258V11.1294L14.5736 11.1331V11.1368V11.1405H14.5699L14.5662 11.1516L14.5551 12.0706C14.8172 12.6427 15.4926 13.2775 16.0389 13.2775C16.611 13.2775 17.2901 12.639 17.5485 12.0817C17.5743 12.03 17.6001 11.9894 17.6518 11.9783C17.8622 11.8713 17.9914 11.7311 18.032 11.5871C18.0836 11.3767 17.9655 11.17 17.9655 11.17C17.9618 11.159 17.9545 11.1479 17.9508 11.1368C17.9139 11.218 17.84 11.2734 17.7441 11.2734Z" fill="#2F8B8A"/>
<path fill-rule="evenodd" clip-rule="evenodd" d="M17.7492 12.4074C17.6201 12.4074 17.5278 12.304 17.5278 12.1859L17.502 11.0528C17.502 10.9864 17.5278 10.9347 17.5684 10.8831C17.6053 10.8461 17.6717 10.8203 17.7234 10.8203H18.1515C18.2844 10.8203 18.3878 10.9237 18.3878 11.0528C18.3878 11.182 18.2844 11.2891 18.1515 11.2891H18.0445C18.0814 11.385 18.0962 11.4994 18.0519 11.6175C18.0371 11.6581 18.0113 11.6987 17.9781 11.7393L17.9818 12.1859C17.9818 12.304 17.8784 12.4074 17.7492 12.4074Z" fill="#2F8B8A"/>
<path fill-rule="evenodd" clip-rule="evenodd" d="M14.1473 11.9045L14.162 11.0703H14.0882C14.0402 11.229 13.9996 11.4542 14.055 11.6756C14.0734 11.7568 14.1067 11.8343 14.1473 11.9045Z" fill="#2F8B8A"/>
<path fill-rule="evenodd" clip-rule="evenodd" d="M17.5404 14.3594L16.7727 15.1271C16.6804 15.2194 16.5364 15.2194 16.4442 15.1271L16.016 14.6989L15.562 15.1271C15.4698 15.2194 15.3258 15.2194 15.2336 15.1271L14.4659 14.3594C14.1115 14.4221 12.9304 14.6546 12.458 15.3153H19.5482C19.0795 14.6546 17.9058 14.4221 17.5404 14.3594Z" fill="#2F8B8A"/>
<path fill-rule="evenodd" clip-rule="evenodd" d="M15.6656 14.3828L15.0788 13.9141L14.8721 14.1244L15.4036 14.6449L15.6656 14.3828Z" fill="#2F8B8A"/>
<path fill-rule="evenodd" clip-rule="evenodd" d="M16.9368 13.9297L16.3389 14.3837L16.6009 14.6457L17.1324 14.1253L16.9368 13.9297Z" fill="#2F8B8A"/>
</g>
<defs>
<clipPath id="clip0_4002_49366">
<rect width="16" height="16" fill="white" transform="translate(8 8)"/>
</clipPath>
</defs>
</svg>
