<svg width="32" height="32" viewBox="0 0 32 32" fill="none" xmlns="http://www.w3.org/2000/svg">
<path d="M5.03994 5.03997C7.8454 2.23477 11.72 0.5 16.0001 0.5C20.2801 0.5 24.1547 2.23477 26.9601 5.03997C29.7653 7.84543 31.5 11.7199 31.5 16C31.5 20.2801 29.7653 24.1547 26.9599 26.9599L26.9599 26.9599C24.1547 29.7653 20.2801 31.5 16.0001 31.5C11.72 31.5 7.84542 29.7653 5.03997 26.9601C2.23477 24.1547 0.5 20.2801 0.5 16C0.5 11.7199 2.23473 7.84543 5.03994 5.03997ZM5.03994 5.03997L4.6864 4.6864L5.03994 5.03997Z" fill="#F0FDF4" stroke="#187E7D"/>
<g clip-path="url(#clip0_4002_49337)">
<path d="M12.5892 11.4571C12.3212 10.9338 12.1242 10.354 11.9027 9.80603L12.0577 9.70484C13.6197 8.68742 15.496 8.26694 17.3428 8.52047C16.9134 9.08391 16.7721 9.91356 17.2052 11.0048C17.3656 11.4087 17.5808 11.8819 17.8078 12.3596C18.0221 12.8082 18.2737 13.3142 18.4998 13.7655C18.5673 13.9028 18.6719 14.0185 18.8018 14.0994C18.9317 14.1803 19.0816 14.2231 19.2346 14.2231C19.3877 14.2231 19.5376 14.1803 19.6675 14.0994C19.7974 14.0185 19.902 13.9028 19.9695 13.7655C20.1044 13.4965 20.2484 13.2075 20.3879 12.9231C20.4517 13.0753 20.5156 13.2458 20.5776 13.4373C20.7562 13.9815 21.3397 14.4438 21.8384 14.8385C22.2815 15.1905 22.6653 15.4951 22.7437 15.8378C22.7754 15.9671 22.7804 16.1014 22.7583 16.2326C22.6989 16.5408 22.4802 16.7233 22.1677 16.8161C21.907 16.8927 21.5769 16.9036 21.2305 16.8735C20.4656 16.8079 19.5848 16.5463 19.2083 16.3894C18.7396 16.1953 18.292 16.2873 17.8617 16.3758C17.3612 16.4789 16.8807 16.5782 16.3602 16.3083C15.6883 15.96 15.5551 15.692 15.6901 15.4322C15.7767 15.2662 15.9699 15.1659 16.1906 15.0529C16.4194 14.9343 16.6884 14.7958 16.7659 14.6071C16.9236 14.2214 16.6938 13.916 16.4568 13.6005C16.1167 13.1493 15.7648 12.6825 16.1031 11.9276C16.1951 11.7224 16.1951 11.3386 15.9645 11.2619C15.9016 11.2446 15.6545 11.5373 15.2752 11.798C14.906 12.0524 14.5322 12.3095 14.3863 12.3843C13.5392 12.8174 12.9995 12.2594 12.5892 11.4571ZM12.2072 17.8591C12.2535 17.4273 12.4432 17.0235 12.7461 16.7122C13.1882 16.2591 13.8373 16.0321 14.4828 16.0321C14.8123 16.0312 15.139 16.0915 15.4465 16.2098C15.2833 16.0312 15.1766 15.8161 15.194 15.5571C15.2032 15.4412 15.2358 15.3283 15.2897 15.2252C15.4392 14.9371 15.7082 14.794 15.9834 14.6527C16.0627 14.6117 16.2952 14.4949 16.3527 14.4257C16.4137 14.2452 16.1949 14.0017 16.0964 13.8713C16.0627 13.8267 16.0289 13.782 15.9952 13.7364C15.6141 13.2177 15.4236 12.7317 15.5531 12.1528C15.5457 12.1583 15.5385 12.1637 15.5302 12.1692C15.3534 12.2914 15.1756 12.4135 14.9969 12.533C14.8662 12.6247 14.7305 12.709 14.5903 12.7855C14.2147 12.9779 13.8026 13.0527 13.3951 12.915C12.8234 12.7217 12.4505 12.1756 12.188 11.6623C12.0003 11.2941 11.85 10.9066 11.7012 10.5208C11.6529 10.395 11.6046 10.2692 11.5535 10.1443L11.5289 10.0823C11.3212 10.245 11.1219 10.4181 10.9317 10.601C11.1728 10.7094 11.3916 10.8615 11.5772 11.0496C12.1179 11.6039 12.3467 12.4819 11.8854 13.6762C11.9538 13.9844 12.0367 14.3773 12.1954 14.6381C12.5099 15.1577 12.7387 15.7449 12.5081 16.3448C12.3859 16.6611 12.1643 16.9109 11.9428 17.1607C11.714 17.4187 11.5152 17.6531 11.3885 17.9795C11.3676 18.0333 11.3466 18.0871 11.3256 18.1418C11.0612 18.8264 10.7275 19.7035 10.2489 20.2597L9.95897 20.5962C10.1067 20.8067 10.2656 21.0107 10.4358 21.2079C10.6636 20.5899 10.9335 19.9883 11.2436 19.4073C11.5152 18.8939 11.8435 18.3222 12.2072 17.8591ZM22.1083 19.0597C21.2841 19.3505 20.6806 19.7818 20.3487 20.3735C20.0333 20.936 19.9704 21.6307 20.2056 22.4722L20.2868 22.7649C21.1633 22.231 21.9249 21.5284 22.5276 20.6978C23.1303 19.8673 23.5621 18.9252 23.7978 17.9265L23.2516 18.3597C22.9097 18.6313 22.5222 18.913 22.1083 19.0597ZM23.8542 14.6799C23.5345 13.0393 22.6889 11.5476 21.4455 10.4306C21.3996 10.6264 21.3386 10.8185 21.2632 11.0049C21.1036 11.4088 20.8885 11.882 20.6614 12.3597L20.6432 12.398C20.7864 12.6882 20.9077 12.9886 21.0061 13.2969C21.151 13.7382 21.7628 14.205 22.1183 14.4858C22.5231 14.8077 23.0621 15.2079 23.1823 15.7376C23.2284 15.9275 23.2346 16.1249 23.2005 16.3174C23.1068 16.8043 22.7583 17.1106 22.2952 17.2473C21.9469 17.3505 21.5512 17.3531 21.1921 17.3221C20.5183 17.2647 19.6558 17.0632 19.035 16.8052C18.6839 16.6593 18.3102 16.7432 17.9528 16.817C17.3483 16.941 16.8359 17.0176 16.2661 16.7623C16.7776 17.3248 16.9791 18.1992 16.5114 19.3779C16.412 19.6287 16.2917 19.9067 16.1595 20.1957C16.2196 20.2058 16.2789 20.2158 16.3382 20.2304C16.9654 20.379 17.2936 20.9068 17.5689 21.4466C17.6556 21.6171 17.8397 21.6563 18.0093 21.7083C18.3339 21.8076 18.6037 21.907 18.8736 22.1249C18.9998 22.2274 19.1156 22.3423 19.2191 22.4677C19.3223 22.5926 19.413 22.7272 19.4899 22.8698L19.6257 23.1232C19.7124 23.0813 19.7981 23.0384 19.8828 22.9928L19.7716 22.5935C19.5419 21.7712 19.5282 20.9151 19.9558 20.1529C20.3861 19.3861 21.1492 18.9212 21.9579 18.6349C22.3208 18.5073 22.6727 18.2447 22.9717 18.0068L23.9244 17.251C24.0449 16.3961 24.0212 15.5271 23.8542 14.68V14.6799ZM18.8719 22.7549C18.7879 22.6525 18.6938 22.5587 18.5911 22.475C18.3577 22.2863 18.1143 22.2116 17.8763 22.1386C17.5982 22.0529 17.3302 21.9709 17.1679 21.6509C16.702 20.7355 16.4085 20.6899 16.0329 20.6316C16.0101 20.6279 15.9864 20.6243 15.9627 20.6197C15.9453 20.6572 15.9271 20.6954 15.9088 20.7328C15.6955 21.1813 15.4439 21.6873 15.2178 22.1386C15.1501 22.2757 15.0454 22.3911 14.9155 22.4717C14.7857 22.5524 14.6358 22.5951 14.483 22.5951C14.3301 22.5951 14.1803 22.5524 14.0504 22.4717C13.9206 22.3911 13.8159 22.2757 13.7481 22.1386C13.522 21.6873 13.2704 21.1813 13.0562 20.7328C12.8282 20.255 12.614 19.7819 12.4535 19.378C12.353 19.129 12.2787 18.8702 12.232 18.6058C12.0442 18.8948 11.8408 19.2412 11.6421 19.6178C11.3277 20.2076 11.0556 20.8191 10.8278 21.4476L10.7804 21.5825C13.1398 23.8863 16.1512 24.4462 19.2146 23.3092L19.0933 23.0832C19.0304 22.9668 18.9562 22.8568 18.8719 22.7549ZM10.9682 17.8162C11.1314 17.3969 11.3849 17.1106 11.6055 16.8626C12.0905 16.3157 12.4443 15.9172 11.8107 14.8714C11.7179 14.7121 11.6453 14.5418 11.5946 14.3646C11.4925 14.5925 11.3821 14.8304 11.2682 15.0702C11.0539 15.5188 10.8023 16.0238 10.5762 16.4761C10.5085 16.6131 10.4037 16.7285 10.2739 16.8091C10.144 16.8898 9.99422 16.9325 9.84136 16.9325C9.68849 16.9325 9.53867 16.8898 9.40882 16.8091C9.27897 16.7285 9.17426 16.6131 9.10653 16.4761C8.9415 16.1469 8.76375 15.7886 8.59597 15.4458C8.58412 15.5771 8.57503 15.7083 8.56953 15.8396C8.51056 17.2658 8.8469 18.6805 9.5414 19.9276L9.69822 20.2093L9.9079 19.9659C10.3282 19.4773 10.661 18.6129 10.9053 17.9793C10.9272 17.9229 10.9482 17.8682 10.9682 17.8162ZM17.6227 10.8399C17.2179 9.82153 17.3893 9.09491 17.8206 8.65275C18.1734 8.29078 18.7022 8.10938 19.2346 8.10938C19.7671 8.10938 20.2958 8.29078 20.6487 8.65275C21.0799 9.09491 21.2513 9.8215 20.8465 10.8399C20.697 11.2173 20.4846 11.6842 20.2548 12.1664C20.0105 12.6779 19.7743 13.1529 19.5683 13.565C19.5385 13.6278 19.4911 13.6806 19.4319 13.7171C19.3727 13.7535 19.3041 13.7719 19.2346 13.7701C19.1651 13.7719 19.0966 13.7535 19.0374 13.7171C18.9781 13.6806 18.9307 13.6278 18.9009 13.565C18.694 13.1529 18.4578 12.6779 18.2144 12.1664C17.9847 11.6842 17.7722 11.2173 17.6227 10.8399ZM17.9774 9.89175C17.9773 10.1827 18.0782 10.4647 18.2627 10.6896C18.4472 10.9146 18.7041 11.0686 18.9894 11.1254C19.2748 11.1822 19.571 11.1383 19.8276 11.0012C20.0842 10.8641 20.2854 10.6422 20.3968 10.3734C20.5081 10.1046 20.5228 9.80553 20.4384 9.5271C20.354 9.24866 20.1756 9.00812 19.9337 8.84646C19.6918 8.6848 19.4013 8.61203 19.1117 8.64055C18.8222 8.66906 18.5515 8.7971 18.3457 9.00284C18.2288 9.11945 18.1361 9.258 18.0729 9.41055C18.0097 9.56309 17.9772 9.72663 17.9774 9.89175ZM14.4828 16.4824C15.0153 16.4824 15.5441 16.6638 15.8969 17.0258C16.3282 17.4679 16.4986 18.1936 16.0947 19.2129C15.9452 19.5894 15.7328 20.0572 15.503 20.5394C15.2587 21.0509 15.0226 21.5259 14.8165 21.938C14.7861 22.0006 14.7387 22.0533 14.6797 22.0903C14.6197 22.1249 14.5517 22.1431 14.4824 22.1431C14.4131 22.1431 14.345 22.1249 14.285 22.0903C14.2263 22.0533 14.1792 22.0005 14.1492 21.938C13.9422 21.5259 13.7061 21.0509 13.4627 20.5394C13.2329 20.0572 13.0205 19.5894 12.8709 19.2129C12.4662 18.1936 12.6376 17.4679 13.0678 17.0258C13.4216 16.6638 13.9504 16.4824 14.4828 16.4824V16.4824ZM15.3719 17.375C15.1662 17.1694 14.8957 17.0415 14.6063 17.0131C14.3169 16.9846 14.0266 17.0574 13.7849 17.2189C13.5431 17.3805 13.3649 17.6209 13.2805 17.8992C13.1961 18.1775 13.2109 18.4764 13.3222 18.745C13.4335 19.0136 13.6345 19.2354 13.8909 19.3724C14.1474 19.5095 14.4434 19.5533 14.7286 19.4966C15.0138 19.4399 15.2704 19.286 15.4549 19.0612C15.6394 18.8365 15.7402 18.5547 15.7402 18.2639C15.7402 18.0988 15.7078 17.9353 15.6446 17.7828C15.5814 17.6302 15.4887 17.4917 15.3719 17.375ZM8.82115 14.876C8.59144 14.3937 8.379 13.9269 8.22947 13.5495C7.82469 12.5311 7.99609 11.8045 8.42731 11.3632C8.78015 11.0003 9.30894 10.8198 9.84137 10.8198C10.3738 10.8198 10.9026 11.0004 11.2554 11.3632C11.6867 11.8045 11.858 12.5311 11.4532 13.5495C11.3037 13.9269 11.0913 14.3937 10.8616 14.876C10.6181 15.3885 10.3811 15.8635 10.1751 16.2755C10.1446 16.3381 10.0972 16.3909 10.0382 16.4278C9.97919 16.4647 9.91099 16.4843 9.84137 16.4843C9.77176 16.4843 9.70355 16.4647 9.64455 16.4278C9.58554 16.3909 9.53811 16.3381 9.50769 16.2755C9.30162 15.8634 9.06459 15.3884 8.82115 14.876ZM8.58412 12.6013C8.58405 12.8923 8.68486 13.1743 8.86939 13.3992C9.05392 13.6242 9.31074 13.7782 9.5961 13.835C9.88145 13.8918 10.1777 13.8479 10.4343 13.7108C10.6909 13.5737 10.8921 13.3519 11.0035 13.0831C11.1148 12.8143 11.1296 12.5152 11.0451 12.2367C10.9607 11.9583 10.7823 11.7177 10.5404 11.5561C10.2985 11.3944 10.008 11.3216 9.71848 11.3501C9.42892 11.3786 9.15821 11.5067 8.95247 11.7124C8.83548 11.829 8.7427 11.9675 8.67948 12.1201C8.61627 12.2726 8.58386 12.4362 8.58412 12.6013ZM19.2346 10.6986C19.4215 10.6988 19.6027 10.6342 19.7473 10.5158C19.8919 10.3974 19.991 10.2325 20.0276 10.0492C20.0643 9.86595 20.0362 9.67565 19.9483 9.51073C19.8604 9.34582 19.718 9.2165 19.5454 9.14481C19.3728 9.07313 19.1806 9.06351 19.0017 9.1176C18.8228 9.1717 18.6682 9.28615 18.5643 9.44146C18.4603 9.59677 18.4134 9.78333 18.4316 9.96934C18.4497 10.1553 18.5319 10.3293 18.6639 10.4616C18.7386 10.5368 18.8276 10.5965 18.9255 10.6372C19.0235 10.6779 19.1286 10.6988 19.2346 10.6986ZM13.676 18.2639C13.6761 18.4504 13.7409 18.6311 13.8593 18.7752C13.9777 18.9193 14.1424 19.0178 14.3254 19.0541C14.5083 19.0904 14.6982 19.0621 14.8626 18.9741C15.0271 18.8861 15.1559 18.7439 15.2272 18.5715C15.2985 18.3992 15.3079 18.2075 15.2537 18.029C15.1995 17.8506 15.0851 17.6964 14.93 17.5928C14.7749 17.4892 14.5887 17.4426 14.4031 17.4609C14.2175 17.4792 14.044 17.5613 13.9121 17.6932C13.8371 17.768 13.7776 17.857 13.737 17.9549C13.6965 18.0529 13.6758 18.1579 13.676 18.2639ZM9.84137 13.4082C10.0279 13.408 10.2086 13.3432 10.3527 13.2248C10.4967 13.1064 10.5953 12.9417 10.6316 12.7587C10.6679 12.5758 10.6396 12.3859 10.5516 12.2215C10.4636 12.057 10.3213 11.9282 10.149 11.8569C9.97664 11.7856 9.78491 11.7763 9.60645 11.8304C9.428 11.8846 9.27385 11.999 9.17027 12.1541C9.06669 12.3092 9.02008 12.4954 9.03838 12.681C9.05669 12.8666 9.13877 13.0402 9.27065 13.172C9.34557 13.247 9.43455 13.3064 9.53249 13.347C9.63042 13.3875 9.73539 13.4083 9.84137 13.4082Z" fill="#2F8B8A"/>
</g>
<defs>
<clipPath id="clip0_4002_49337">
<rect width="16" height="16" fill="white" transform="translate(8 8)"/>
</clipPath>
</defs>
</svg>
