<svg width="32" height="32" viewBox="0 0 32 32" fill="none" xmlns="http://www.w3.org/2000/svg">
<path d="M5.03994 5.03997C7.8454 2.23477 11.72 0.5 16.0001 0.5C20.2801 0.5 24.1547 2.23477 26.9601 5.03997C29.7653 7.84543 31.5 11.7199 31.5 16C31.5 20.2801 29.7653 24.1547 26.9599 26.9599L26.9599 26.9599C24.1547 29.7653 20.2801 31.5 16.0001 31.5C11.72 31.5 7.84542 29.7653 5.03997 26.9601C2.23477 24.1547 0.5 20.2801 0.5 16C0.5 11.7199 2.23473 7.84543 5.03994 5.03997ZM5.03994 5.03997L4.6864 4.6864L5.03994 5.03997Z" fill="#F0FDF4" stroke="#187E7D"/>
<g clip-path="url(#clip0_4002_49345)">
<path d="M22.998 11.4651V13.5001H8.99805V11.4651C9.00316 11.0721 9.16395 10.6971 9.44515 10.4225C9.72635 10.1478 10.105 9.99592 10.498 10.0001H11.498V11.0001C11.498 11.3979 11.6561 11.7794 11.9374 12.0607C12.2187 12.342 12.6002 12.5001 12.998 12.5001C13.3959 12.5001 13.7774 12.342 14.0587 12.0607C14.34 11.7794 14.498 11.3979 14.498 11.0001V10.0001H17.498V11.0001C17.498 11.3979 17.6561 11.7794 17.9374 12.0607C18.2187 12.342 18.6002 12.5001 18.998 12.5001C19.3959 12.5001 19.7774 12.342 20.0587 12.0607C20.34 11.7794 20.498 11.3979 20.498 11.0001V10.0001H21.498C21.8911 9.99592 22.2697 10.1478 22.5509 10.4225C22.8321 10.6971 22.9929 11.0721 22.998 11.4651Z" fill="#2F8B8A"/>
<path d="M8.99805 14.5V22.535C9.00316 22.928 9.16395 23.303 9.44515 23.5776C9.72635 23.8523 10.105 24.0042 10.498 24H21.498C21.8911 24.0042 22.2697 23.8523 22.5509 23.5776C22.8321 23.303 22.9929 22.928 22.998 22.535V14.5H8.99805ZM13.498 21.5C13.4977 21.6325 13.4449 21.7594 13.3512 21.8531C13.2575 21.9468 13.1305 21.9996 12.998 22H11.998C11.8656 21.9996 11.7386 21.9468 11.6449 21.8531C11.5512 21.7594 11.4984 21.6325 11.498 21.5V20.5C11.4984 20.3675 11.5512 20.2406 11.6449 20.1469C11.7386 20.0532 11.8656 20.0004 11.998 20H12.998C13.1305 20.0004 13.2575 20.0532 13.3512 20.1469C13.4449 20.2406 13.4977 20.3675 13.498 20.5V21.5ZM13.498 18C13.4977 18.1325 13.4449 18.2594 13.3512 18.3531C13.2575 18.4468 13.1305 18.4996 12.998 18.5H11.998C11.8656 18.4996 11.7386 18.4468 11.6449 18.3531C11.5512 18.2594 11.4984 18.1325 11.498 18V17C11.4984 16.8675 11.5512 16.7406 11.6449 16.6469C11.7386 16.5532 11.8656 16.5004 11.998 16.5H12.998C13.1305 16.5004 13.2575 16.5532 13.3512 16.6469C13.4449 16.7406 13.4977 16.8675 13.498 17V18ZM16.998 21.5C16.9977 21.6325 16.9449 21.7594 16.8512 21.8531C16.7575 21.9468 16.6305 21.9996 16.498 22H15.498C15.3656 21.9996 15.2386 21.9468 15.1449 21.8531C15.0512 21.7594 14.9984 21.6325 14.998 21.5V20.5C14.9984 20.3675 15.0512 20.2406 15.1449 20.1469C15.2386 20.0532 15.3656 20.0004 15.498 20H16.498C16.6305 20.0004 16.7575 20.0532 16.8512 20.1469C16.9449 20.2406 16.9977 20.3675 16.998 20.5V21.5ZM16.998 18C16.9977 18.1325 16.9449 18.2594 16.8512 18.3531C16.7575 18.4468 16.6305 18.4996 16.498 18.5H15.498C15.3656 18.4996 15.2386 18.4468 15.1449 18.3531C15.0512 18.2594 14.9984 18.1325 14.998 18V17C14.9984 16.8675 15.0512 16.7406 15.1449 16.6469C15.2386 16.5532 15.3656 16.5004 15.498 16.5H16.498C16.6305 16.5004 16.7575 16.5532 16.8512 16.6469C16.9449 16.7406 16.9977 16.8675 16.998 17V18ZM20.498 18C20.4977 18.1325 20.4449 18.2594 20.3512 18.3531C20.2575 18.4468 20.1305 18.4996 19.998 18.5H18.998C18.8656 18.4996 18.7386 18.4468 18.6449 18.3531C18.5512 18.2594 18.4984 18.1325 18.498 18V17C18.4984 16.8675 18.5512 16.7406 18.6449 16.6469C18.7386 16.5532 18.8656 16.5004 18.998 16.5H19.998C20.1305 16.5004 20.2575 16.5532 20.3512 16.6469C20.4449 16.7406 20.4977 16.8675 20.498 17V18Z" fill="#2F8B8A"/>
<path d="M13.5 10V11C13.5 11.1326 13.4473 11.2598 13.3536 11.3536C13.2598 11.4473 13.1326 11.5 13 11.5C12.8674 11.5 12.7402 11.4473 12.6464 11.3536C12.5527 11.2598 12.5 11.1326 12.5 11V10C12.5 9.86739 12.5527 9.74021 12.6464 9.64645C12.7402 9.55268 12.8674 9.5 13 9.5C13.1326 9.5 13.2598 9.55268 13.3536 9.64645C13.4473 9.74021 13.5 9.86739 13.5 10Z" fill="#2F8B8A"/>
<path d="M19.5 10V11C19.5 11.1326 19.4473 11.2598 19.3536 11.3536C19.2598 11.4473 19.1326 11.5 19 11.5C18.8674 11.5 18.7402 11.4473 18.6464 11.3536C18.5527 11.2598 18.5 11.1326 18.5 11V10C18.5 9.86739 18.5527 9.74021 18.6464 9.64645C18.7402 9.55268 18.8674 9.5 19 9.5C19.1326 9.5 19.2598 9.55268 19.3536 9.64645C19.4473 9.74021 19.5 9.86739 19.5 10Z" fill="#2F8B8A"/>
</g>
<defs>
<clipPath id="clip0_4002_49345">
<rect width="16" height="16" fill="white" transform="translate(8 8)"/>
</clipPath>
</defs>
</svg>
