<svg width="32" height="32" viewBox="0 0 32 32" fill="none" xmlns="http://www.w3.org/2000/svg">
<path d="M5.03994 5.03997C7.8454 2.23477 11.72 0.5 16.0001 0.5C20.2801 0.5 24.1547 2.23477 26.9601 5.03997C29.7653 7.84543 31.5 11.7199 31.5 16C31.5 20.2801 29.7653 24.1547 26.9599 26.9599L26.9599 26.9599C24.1547 29.7653 20.2801 31.5 16.0001 31.5C11.72 31.5 7.84542 29.7653 5.03997 26.9601C2.23477 24.1547 0.5 20.2801 0.5 16C0.5 11.7199 2.23473 7.84543 5.03994 5.03997ZM5.03994 5.03997L4.6864 4.6864L5.03994 5.03997Z" fill="#F0FDF4" stroke="#187E7D"/>
<path fill-rule="evenodd" clip-rule="evenodd" d="M17.2205 16.0576C16.5206 15.4602 15.577 15.0434 14.537 14.8075C13.2714 15.7083 11.568 15.7083 10.3024 14.8075C8.18418 15.2879 6.46484 16.5182 6.39258 18.4993V21.3181H14.7967V17.3091C14.7967 16.6208 15.3599 16.0576 16.0482 16.0576H17.2205L17.2205 16.0576ZM22.7636 21.1497H23.4344C23.5056 21.1497 23.5639 21.0914 23.5639 21.0202V19.5682C23.5639 19.497 23.5056 19.4388 23.4344 19.4388H22.7636C22.6925 19.4388 22.6342 19.497 22.6342 19.5682V21.0202C22.6342 21.0914 22.6924 21.1497 22.7636 21.1497ZM17.4424 21.1497H18.1132C18.1844 21.1497 18.2426 21.0914 18.2426 21.0202V19.5682C18.2426 19.497 18.1843 19.4388 18.1132 19.4388H17.4424C17.3712 19.4388 17.3129 19.497 17.3129 19.5682V21.0202C17.3129 21.0914 17.3712 21.1497 17.4424 21.1497ZM25.6113 19.5115C25.6113 19.942 25.2591 20.2942 24.8286 20.2942H24.0326V19.5682C24.0326 19.2383 23.7643 18.97 23.4344 18.97H22.7636C22.4337 18.97 22.1654 19.2383 22.1654 19.5682V20.2942H18.7113V19.5682C18.7113 19.2383 18.443 18.97 18.1131 18.97H17.4423C17.1124 18.97 16.8442 19.2383 16.8442 19.5682V20.2942H16.0482C15.6177 20.2942 15.2655 19.942 15.2655 19.5115V17.309C15.2655 16.8785 15.6177 16.5263 16.0482 16.5263H24.8286C25.2591 16.5263 25.6113 16.8785 25.6113 17.309V19.5115ZM16.0482 23.3653C15.6177 23.3653 15.2655 23.013 15.2655 22.5825V20.4866C15.4801 20.6593 15.7524 20.763 16.0482 20.763H16.8442V21.0202C16.8442 21.3501 17.1125 21.6184 17.4423 21.6184H18.1131C18.443 21.6184 18.7113 21.3502 18.7113 21.0202V20.763H22.1654V21.0202C22.1654 21.3501 22.4337 21.6184 22.7636 21.6184H23.4344C23.7643 21.6184 24.0326 21.3502 24.0326 21.0202V20.763H24.8286C25.1244 20.763 25.3967 20.6594 25.6113 20.4867V22.5825C25.6113 23.013 25.2591 23.3653 24.8286 23.3653H16.0482H16.0482ZM22.2029 16.0576V15.5644C22.2029 15.2075 21.91 14.9145 21.553 14.9145H19.3237C18.9668 14.9145 18.6739 15.2075 18.6739 15.5644V16.0576H18.2051V15.5644C18.2051 14.9487 18.708 14.4458 19.3237 14.4458H21.553C22.1687 14.4458 22.6717 14.9487 22.6717 15.5644V16.0576H22.2029ZM12.4197 8.64062C14.1797 8.64062 15.6064 10.0674 15.6064 11.8273C15.6064 13.5873 14.1797 15.0141 12.4197 15.0141C10.6598 15.0141 9.23301 13.5873 9.23301 11.8273C9.23301 10.0674 10.6598 8.64062 12.4197 8.64062Z" fill="#2F8B8A"/>
</svg>
