<svg width="32" height="32" viewBox="0 0 32 32" fill="none" xmlns="http://www.w3.org/2000/svg">
<path d="M5.03994 5.03997C7.8454 2.23477 11.72 0.5 16.0001 0.5C20.2801 0.5 24.1547 2.23477 26.9601 5.03997C29.7653 7.84543 31.5 11.7199 31.5 16C31.5 20.2801 29.7653 24.1547 26.9599 26.9599L26.9599 26.9599C24.1547 29.7653 20.2801 31.5 16.0001 31.5C11.72 31.5 7.84542 29.7653 5.03997 26.9601C2.23477 24.1547 0.5 20.2801 0.5 16C0.5 11.7199 2.23473 7.84543 5.03994 5.03997ZM5.03994 5.03997L4.6864 4.6864L5.03994 5.03997Z" fill="#F0FDF4" stroke="#187E7D"/>
<path d="M19.998 9H11.998C11.6002 9 11.2187 9.15804 10.9374 9.43934C10.6561 9.72064 10.498 10.1022 10.498 10.5V21.5C10.498 21.8978 10.6561 22.2794 10.9374 22.5607C11.2187 22.842 11.6002 23 11.998 23H19.998C20.3959 23 20.7774 22.842 21.0587 22.5607C21.34 22.2794 21.498 21.8978 21.498 21.5V10.5C21.498 10.1022 21.34 9.72064 21.0587 9.43934C20.7774 9.15804 20.3959 9 19.998 9ZM17.498 21H14.498C14.3654 21 14.2383 20.9473 14.1445 20.8536C14.0507 20.7598 13.998 20.6326 13.998 20.5C13.998 20.3674 14.0507 20.2402 14.1445 20.1464C14.2383 20.0527 14.3654 20 14.498 20H17.498C17.6307 20 17.7578 20.0527 17.8516 20.1464C17.9454 20.2402 17.998 20.3674 17.998 20.5C17.998 20.6326 17.9454 20.7598 17.8516 20.8536C17.7578 20.9473 17.6307 21 17.498 21ZM17.998 19H13.998C13.8654 19 13.7383 18.9473 13.6445 18.8536C13.5507 18.7598 13.498 18.6326 13.498 18.5C13.498 18.3674 13.5507 18.2402 13.6445 18.1464C13.7383 18.0527 13.8654 18 13.998 18H17.998C18.1307 18 18.2578 18.0527 18.3516 18.1464C18.4454 18.2402 18.498 18.3674 18.498 18.5C18.498 18.6326 18.4454 18.7598 18.3516 18.8536C18.2578 18.9473 18.1307 19 17.998 19ZM18.498 16.5C18.498 16.6326 18.4454 16.7598 18.3516 16.8536C18.2578 16.9473 18.1307 17 17.998 17H13.998C13.8654 17 13.7383 16.9473 13.6445 16.8536C13.5507 16.7598 13.498 16.6326 13.498 16.5V15.389C13.4996 14.9628 13.6155 14.5449 13.8336 14.1788C14.0517 13.8127 14.364 13.5118 14.738 13.3075C14.5818 13.0672 14.4984 12.7867 14.498 12.5C14.498 12.1022 14.6561 11.7206 14.9374 11.4393C15.2187 11.158 15.6002 11 15.998 11C16.3959 11 16.7774 11.158 17.0587 11.4393C17.34 11.7206 17.498 12.1022 17.498 12.5C17.4977 12.7867 17.4143 13.0672 17.258 13.3075C17.6321 13.5118 17.9444 13.8127 18.1625 14.1788C18.3806 14.5449 18.4965 14.9628 18.498 15.389V16.5Z" fill="#2F8B8A"/>
<path d="M17.4961 15.389V16H14.4961V15.389C14.4965 15.0207 14.643 14.6677 14.9034 14.4073C15.1638 14.1469 15.5168 14.0004 15.8851 14H16.1071C16.4754 14.0004 16.8284 14.1469 17.0888 14.4073C17.3492 14.6677 17.4957 15.0207 17.4961 15.389ZM15.9961 13C16.095 13 16.1917 12.9707 16.2739 12.9157C16.3561 12.8608 16.4202 12.7827 16.458 12.6913C16.4959 12.6 16.5058 12.4994 16.4865 12.4025C16.4672 12.3055 16.4196 12.2164 16.3496 12.1464C16.2797 12.0765 16.1906 12.0289 16.0936 12.0096C15.9966 11.9903 15.8961 12.0002 15.8048 12.0381C15.7134 12.0759 15.6353 12.14 15.5804 12.2222C15.5254 12.3044 15.4961 12.4011 15.4961 12.5C15.4961 12.6326 15.5488 12.7598 15.6425 12.8536C15.7363 12.9473 15.8635 13 15.9961 13Z" fill="#2F8B8A"/>
</svg>
