<svg width="32" height="32" viewBox="0 0 32 32" fill="none" xmlns="http://www.w3.org/2000/svg">
<path d="M5.03994 5.03997C7.8454 2.23477 11.72 0.5 16.0001 0.5C20.2801 0.5 24.1547 2.23477 26.9601 5.03997C29.7653 7.84543 31.5 11.7199 31.5 16C31.5 20.2801 29.7653 24.1547 26.9599 26.9599L26.9599 26.9599C24.1547 29.7653 20.2801 31.5 16.0001 31.5C11.72 31.5 7.84542 29.7653 5.03997 26.9601C2.23477 24.1547 0.5 20.2801 0.5 16C0.5 11.7199 2.23473 7.84543 5.03994 5.03997ZM5.03994 5.03997L4.6864 4.6864L5.03994 5.03997Z" fill="#F0FDF4" stroke="#187E7D"/>
<g clip-path="url(#clip0_4002_49289)">
<path d="M16.002 8C13.6757 8 11.7832 9.89253 11.7832 12.2188C11.7832 14.545 13.6757 16.4375 16.002 16.4375C18.3282 16.4375 20.2207 14.545 20.2207 12.2188C20.2207 9.89253 18.3282 8 16.002 8Z" fill="#2F8B8A"/>
<path d="M21.2509 19.1936C20.0959 18.0208 18.5647 17.375 16.9395 17.375H15.0645C13.4392 17.375 11.908 18.0208 10.753 19.1936C9.60367 20.3606 8.9707 21.901 8.9707 23.5312C8.9707 23.7901 9.18058 24 9.43945 24H22.5645C22.8233 24 23.0332 23.7901 23.0332 23.5312C23.0332 21.901 22.4002 20.3606 21.2509 19.1936Z" fill="#2F8B8A"/>
</g>
<defs>
<clipPath id="clip0_4002_49289">
<rect width="16" height="16" fill="white" transform="translate(8 8)"/>
</clipPath>
</defs>
</svg>
