<svg width="32" height="32" viewBox="0 0 32 32" fill="none" xmlns="http://www.w3.org/2000/svg">
<path d="M5.03994 5.03997C7.8454 2.23477 11.72 0.5 16.0001 0.5C20.2801 0.5 24.1547 2.23477 26.9601 5.03997C29.7653 7.84543 31.5 11.7199 31.5 16C31.5 20.2801 29.7653 24.1547 26.9599 26.9599L26.9599 26.9599C24.1547 29.7653 20.2801 31.5 16.0001 31.5C11.72 31.5 7.84542 29.7653 5.03997 26.9601C2.23477 24.1547 0.5 20.2801 0.5 16C0.5 11.7199 2.23473 7.84543 5.03994 5.03997ZM5.03994 5.03997L4.6864 4.6864L5.03994 5.03997Z" fill="#F0FDF4" stroke="#187E7D"/>
<g clip-path="url(#clip0_4002_49302)">
<path d="M15.9993 18.6667C16.3813 18.6667 16.9184 17.6339 16.986 16H15.0127C15.0803 17.6339 15.6174 18.6667 15.9993 18.6667Z" fill="#2F8B8A"/>
<path d="M13.0371 15.3388H14.3436C14.3805 14.4308 14.568 13.5278 14.8935 12.8906C13.8883 13.2932 13.1625 14.2243 13.0371 15.3388Z" fill="#2F8B8A"/>
<path d="M17.1123 12.8906C17.4378 13.5278 17.6254 14.4308 17.6623 15.3388H18.9687C18.8434 14.2243 18.1176 13.2932 17.1123 12.8906Z" fill="#2F8B8A"/>
<path d="M15.9993 12.6641C15.6174 12.6641 15.0803 13.6968 15.0127 15.3307H16.986C16.9184 13.6968 16.3813 12.6641 15.9993 12.6641Z" fill="#2F8B8A"/>
<path d="M13.0371 16C13.1625 17.1145 13.8883 18.0456 14.8935 18.4482C14.568 17.811 14.3805 16.908 14.3436 16H13.0371Z" fill="#2F8B8A"/>
<path d="M20.6667 10H20V9.31035C20 8.47795 19.2148 7.8272 18.3688 8.04108L11.2573 10.0077C10.5579 10.048 10 10.624 10 11.3333V22.6666C10 23.402 10.598 24 11.3333 24H20.6667C21.402 24 22 23.402 22 22.6666V11.3333C22 10.598 21.402 10 20.6667 10ZM18.54 8.68529C18.929 8.58601 19.3333 8.90111 19.3333 9.31032V9.99998H13.7864L18.54 8.68529ZM17.6667 22H14C13.8157 22 13.6666 21.8509 13.6666 21.6666C13.6666 21.4824 13.8157 21.3333 14 21.3333H17.6666C17.8509 21.3333 18 21.4824 18 21.6666C18 21.8509 17.8509 22 17.6667 22ZM19 20.667H12.6667C12.4824 20.667 12.3333 20.5179 12.3333 20.3336C12.3333 20.1494 12.4824 20.0003 12.6667 20.0003H19C19.1842 20.0003 19.3333 20.1494 19.3333 20.3336C19.3333 20.5179 19.1842 20.667 19 20.667ZM16 19.3333C13.9782 19.3333 12.3333 17.6885 12.3333 15.6667C12.3333 13.6448 13.9782 12 16 12C18.0218 12 19.6666 13.6448 19.6666 15.6667C19.6666 17.6885 18.0218 19.3333 16 19.3333Z" fill="#2F8B8A"/>
<path d="M17.1123 18.4482C18.1176 18.0456 18.8434 17.1144 18.9687 16H17.6623C17.6254 16.908 17.4378 17.811 17.1123 18.4482Z" fill="#2F8B8A"/>
</g>
<defs>
<clipPath id="clip0_4002_49302">
<rect width="16" height="16" fill="white" transform="translate(8 8)"/>
</clipPath>
</defs>
</svg>
