<svg width="32" height="32" viewBox="0 0 32 32" fill="none" xmlns="http://www.w3.org/2000/svg">
<path d="M5.03994 5.03997C7.8454 2.23477 11.72 0.5 16.0001 0.5C20.2801 0.5 24.1547 2.23477 26.9601 5.03997C29.7653 7.84543 31.5 11.7199 31.5 16C31.5 20.2801 29.7653 24.1547 26.9599 26.9599L26.9599 26.9599C24.1547 29.7653 20.2801 31.5 16.0001 31.5C11.72 31.5 7.84542 29.7653 5.03997 26.9601C2.23477 24.1547 0.5 20.2801 0.5 16C0.5 11.7199 2.23473 7.84543 5.03994 5.03997ZM5.03994 5.03997L4.6864 4.6864L5.03994 5.03997Z" fill="#F0FDF4" stroke="#187E7D"/>
<path d="M17.8581 23.7601C17.6758 23.6956 17.5179 23.5763 17.406 23.4185C17.2941 23.2608 17.2337 23.0723 17.2332 22.8789V22.5664H10.6713C10.5895 22.5648 10.5116 22.5311 10.4544 22.4727C10.3971 22.4143 10.3651 22.3357 10.3651 22.254C10.3651 22.1722 10.3972 22.0936 10.4544 22.0352C10.5117 21.9768 10.5895 21.9431 10.6713 21.9415H17.4019C17.511 21.7512 17.6685 21.5932 17.8583 21.4835C18.0482 21.3737 18.2637 21.3161 18.483 21.3166H19.4611C19.5023 21.1559 19.5753 21.0052 19.6756 20.8732C19.776 20.7412 19.9017 20.6306 20.0454 20.5479V18.8949C19.7565 18.6598 19.5234 18.3635 19.363 18.0273C19.2025 17.6912 19.1186 17.3236 19.1174 16.9512C19.1162 16.5787 19.1977 16.2106 19.356 15.8735C19.5143 15.5363 19.7455 15.2385 20.0329 15.0015C20.0849 14.9582 20.1392 14.9175 20.1954 14.8796V10.0458C20.1946 9.79736 20.0956 9.55934 19.92 9.3837C19.7444 9.20806 19.5063 9.10906 19.258 9.10834H18.8268V8.24904C18.8249 8.10031 18.79 7.95386 18.7246 7.82028C18.6592 7.68669 18.5649 7.56931 18.4486 7.47662C18.3323 7.38392 18.1968 7.31823 18.052 7.28429C17.9072 7.25036 17.7566 7.24902 17.6112 7.28039L9.48703 9.1177C9.25742 9.14221 9.04486 9.25034 8.88984 9.42149C8.73483 9.59264 8.64821 9.81484 8.64648 10.0458V23.8163C8.64721 24.0647 8.74621 24.3027 8.92185 24.4784C9.09749 24.654 9.3355 24.753 9.58389 24.7537H18.0268C17.8759 24.4457 17.8173 24.1006 17.8581 23.7601ZM16.9207 21.3166H11.9212C11.839 21.3154 11.7607 21.282 11.703 21.2235C11.6453 21.165 11.613 21.0862 11.613 21.0041C11.613 20.9219 11.6453 20.8431 11.703 20.7846C11.7607 20.7262 11.8391 20.6927 11.9212 20.6916H16.9207C17.0028 20.6927 17.0812 20.7262 17.1389 20.7846C17.1965 20.8431 17.2289 20.9219 17.2289 21.0041C17.2289 21.0862 17.1965 21.165 17.1389 21.2235C17.0812 21.282 17.0028 21.3154 16.9207 21.3166ZM17.7456 7.8897C17.7998 7.87787 17.856 7.8782 17.9101 7.89065C17.9642 7.90311 18.0149 7.92738 18.0585 7.96173C18.1021 7.99607 18.1376 8.03965 18.1623 8.08932C18.1871 8.139 18.2006 8.19354 18.2018 8.24904V9.10834H12.3524L17.7456 7.8897ZM18.1706 15.2953C18.1697 16.2891 17.7742 17.242 17.0711 17.9444C16.368 18.6469 15.4148 19.0415 14.4209 19.0415C13.427 19.0415 12.4738 18.6469 11.7707 17.9444C11.0676 17.242 10.6722 16.2891 10.6713 15.2952C10.8783 10.3209 17.9643 10.3224 18.1706 15.2953Z" fill="#2F8B8A"/>
<path d="M15.9297 18.0279C16.3717 17.7841 16.748 17.4367 17.0261 17.0154C17.3042 16.5941 17.4759 16.1116 17.5264 15.6094H16.6015C16.584 16.4591 16.3529 17.2908 15.9297 18.0279Z" fill="#2F8B8A"/>
<path d="M17.5264 14.981C17.4751 14.479 17.303 13.9968 17.025 13.5757C16.747 13.1546 16.3712 12.8069 15.9297 12.5625C16.3525 13.2997 16.5835 14.1313 16.6015 14.981H17.5264Z" fill="#2F8B8A"/>
<path d="M15.9811 15.6094H14.7344V18.356C15.3906 18.081 15.9124 16.9561 15.9811 15.6094Z" fill="#2F8B8A"/>
<path d="M12.9092 18.0279C12.486 17.2908 12.255 16.4591 12.2374 15.6094H11.3125C11.363 16.1116 11.5347 16.5941 11.8128 17.0154C12.0909 17.4367 12.4672 17.7841 12.9092 18.0279Z" fill="#2F8B8A"/>
<path d="M12.9092 12.5625C12.4677 12.8069 12.0919 13.1546 11.8139 13.5757C11.5359 13.9968 11.3638 14.479 11.3125 14.981H12.2374C12.2554 14.1313 12.4864 13.2997 12.9092 12.5625Z" fill="#2F8B8A"/>
<path d="M14.1061 18.356V15.6094H12.8594C12.9281 16.9561 13.4499 18.081 14.1061 18.356Z" fill="#2F8B8A"/>
<path d="M14.1061 14.981V12.2344C13.4499 12.5125 12.9281 13.6374 12.8594 14.981L14.1061 14.981Z" fill="#2F8B8A"/>
<path d="M14.7344 12.2344V14.981H15.9811C15.9124 13.6374 15.3906 12.5125 14.7344 12.2344Z" fill="#2F8B8A"/>
<path d="M24.7318 21.9371H23.1694V21.6247C23.1689 21.4591 23.1029 21.3004 22.9858 21.1833C22.8687 21.0662 22.7101 21.0002 22.5445 20.9998V18.7125C22.5464 18.6639 22.5602 18.6166 22.5848 18.5746C22.6093 18.5326 22.6437 18.4973 22.6851 18.4718C22.9833 18.2624 23.214 17.9707 23.3492 17.6323C23.4843 17.2939 23.518 16.9234 23.4461 16.5662C23.3742 16.209 23.1998 15.8804 22.9442 15.6207C22.6887 15.3609 22.363 15.1812 22.007 15.1034C21.7319 15.0453 21.4474 15.0491 21.1739 15.1145C20.9005 15.1799 20.645 15.3053 20.4259 15.4815C20.1998 15.6651 20.0195 15.8988 19.8993 16.1642C19.7791 16.4295 19.7224 16.7192 19.7336 17.0103C19.7448 17.3014 19.8237 17.5858 19.9639 17.8411C20.1042 18.0965 20.3019 18.3156 20.5415 18.4812C20.5798 18.506 20.6115 18.5397 20.6338 18.5795C20.6561 18.6192 20.6684 18.6638 20.6696 18.7093V20.9998C20.5041 21.0002 20.3454 21.0662 20.2283 21.1833C20.1112 21.3004 20.0452 21.4591 20.0447 21.6247V21.9372H18.4824C18.3168 21.9376 18.1581 22.0036 18.041 22.1207C17.9239 22.2378 17.8579 22.3965 17.8574 22.5621V22.8746C17.8577 22.9574 17.8907 23.0367 17.9492 23.0953C18.0078 23.1538 18.0871 23.1868 18.1699 23.187H25.0442C25.127 23.1868 25.2064 23.1538 25.2649 23.0953C25.3235 23.0367 25.3565 22.9574 25.3567 22.8746V22.5621C25.3562 22.3965 25.2902 22.2378 25.1731 22.1207C25.056 22.0036 24.8974 21.9376 24.7318 21.9371Z" fill="#2F8B8A"/>
<path d="M18.4785 24.125C18.479 24.2906 18.545 24.4492 18.6621 24.5663C18.7792 24.6834 18.9379 24.7494 19.1035 24.7499H24.103C24.2686 24.7494 24.4272 24.6834 24.5443 24.5663C24.6614 24.4492 24.7274 24.2906 24.7279 24.125V23.8125H18.4785V24.125Z" fill="#2F8B8A"/>
</svg>
