<svg width="36" height="35" viewBox="0 0 36 35" fill="none" xmlns="http://www.w3.org/2000/svg">
<g clip-path="url(#clip0_4002_49423)">
<path d="M18.4023 0C21.1168 0 23.686 0.618133 25.9817 1.72052C25.0417 2.46399 24.1702 3.17612 23.3584 3.86547C21.8118 3.30431 20.1455 2.99666 18.4052 2.99666C14.4005 2.99666 10.7746 4.62033 8.15129 7.24668C5.528 9.87304 3.90161 13.4964 3.90161 17.5014C3.90161 21.5065 5.52515 25.1298 8.15129 27.7562C10.7774 30.3825 14.4005 32.0062 18.4052 32.0062C22.4099 32.0062 26.0358 30.3825 28.6591 27.7562C31.2852 25.1298 32.9059 21.5065 32.9059 17.5014C32.9059 16.55 32.8148 15.6157 32.6382 14.7156C33.3901 13.7357 34.162 12.7558 34.9482 11.7873C35.5662 13.5761 35.9023 15.5017 35.9023 17.5014C35.9023 22.3325 33.9427 26.7108 30.7782 29.8755C27.6109 33.0431 23.2359 35.0028 18.4052 35.0028C13.5745 35.0028 9.19946 33.0431 6.03215 29.8755C2.86198 26.7079 0.902344 22.3325 0.902344 17.5014C0.902344 12.6675 2.86198 8.2921 6.02645 5.12737C9.19377 1.95979 13.5688 0 18.4023 0Z" fill="#CBD5E1"/>
</g>
<defs>
<clipPath id="clip0_4002_49423">
<rect width="35" height="35" fill="white" transform="translate(0.902344)"/>
</clipPath>
</defs>
</svg>
